G04 #@! TF.GenerationSoftware,KiCad,Pcbnew,7.0.1*
G04 #@! TF.CreationDate,2023-12-11T01:42:53-03:00*
G04 #@! TF.ProjectId,Shield STM32 Bluepill,53686965-6c64-4205-9354-4d333220426c,2.0*
G04 #@! TF.SameCoordinates,Original*
G04 #@! TF.FileFunction,Legend,Bot*
G04 #@! TF.FilePolarity,Positive*
%FSLAX46Y46*%
G04 Gerber Fmt 4.6, Leading zero omitted, Abs format (unit mm)*
G04 Created by KiCad (PCBNEW 7.0.1) date 2023-12-11 01:42:53*
%MOMM*%
%LPD*%
G01*
G04 APERTURE LIST*
G04 Aperture macros list*
%AMRoundRect*
0 Rectangle with rounded corners*
0 $1 Rounding radius*
0 $2 $3 $4 $5 $6 $7 $8 $9 X,Y pos of 4 corners*
0 Add a 4 corners polygon primitive as box body*
4,1,4,$2,$3,$4,$5,$6,$7,$8,$9,$2,$3,0*
0 Add four circle primitives for the rounded corners*
1,1,$1+$1,$2,$3*
1,1,$1+$1,$4,$5*
1,1,$1+$1,$6,$7*
1,1,$1+$1,$8,$9*
0 Add four rect primitives between the rounded corners*
20,1,$1+$1,$2,$3,$4,$5,0*
20,1,$1+$1,$4,$5,$6,$7,0*
20,1,$1+$1,$6,$7,$8,$9,0*
20,1,$1+$1,$8,$9,$2,$3,0*%
G04 Aperture macros list end*
%ADD10C,0.375000*%
%ADD11C,2.600000*%
%ADD12R,2.600000X2.600000*%
%ADD13RoundRect,0.250000X0.620000X0.845000X-0.620000X0.845000X-0.620000X-0.845000X0.620000X-0.845000X0*%
%ADD14O,1.740000X2.190000*%
%ADD15R,1.500000X1.500000*%
%ADD16C,1.500000*%
%ADD17R,1.700000X1.700000*%
%ADD18O,1.700000X1.700000*%
%ADD19C,2.000000*%
%ADD20R,2.000000X2.000000*%
%ADD21R,1.905000X2.000000*%
%ADD22O,1.905000X2.000000*%
%ADD23RoundRect,0.102000X-0.654000X-0.654000X0.654000X-0.654000X0.654000X0.654000X-0.654000X0.654000X0*%
%ADD24C,1.512000*%
%ADD25R,2.600000X1.800000*%
%ADD26O,2.600000X1.800000*%
%ADD27RoundRect,0.250000X0.845000X-0.620000X0.845000X0.620000X-0.845000X0.620000X-0.845000X-0.620000X0*%
%ADD28O,2.190000X1.740000*%
%ADD29C,1.700000*%
%ADD30C,1.800000*%
%ADD31C,1.260000*%
G04 APERTURE END LIST*
D10*
X211636071Y-62327141D02*
X212350357Y-62827141D01*
X211636071Y-63184284D02*
X213136071Y-63184284D01*
X213136071Y-63184284D02*
X213136071Y-62612855D01*
X213136071Y-62612855D02*
X213064642Y-62469998D01*
X213064642Y-62469998D02*
X212993214Y-62398569D01*
X212993214Y-62398569D02*
X212850357Y-62327141D01*
X212850357Y-62327141D02*
X212636071Y-62327141D01*
X212636071Y-62327141D02*
X212493214Y-62398569D01*
X212493214Y-62398569D02*
X212421785Y-62469998D01*
X212421785Y-62469998D02*
X212350357Y-62612855D01*
X212350357Y-62612855D02*
X212350357Y-63184284D01*
X211707500Y-61112855D02*
X211636071Y-61255712D01*
X211636071Y-61255712D02*
X211636071Y-61541427D01*
X211636071Y-61541427D02*
X211707500Y-61684284D01*
X211707500Y-61684284D02*
X211850357Y-61755712D01*
X211850357Y-61755712D02*
X212421785Y-61755712D01*
X212421785Y-61755712D02*
X212564642Y-61684284D01*
X212564642Y-61684284D02*
X212636071Y-61541427D01*
X212636071Y-61541427D02*
X212636071Y-61255712D01*
X212636071Y-61255712D02*
X212564642Y-61112855D01*
X212564642Y-61112855D02*
X212421785Y-61041427D01*
X212421785Y-61041427D02*
X212278928Y-61041427D01*
X212278928Y-61041427D02*
X212136071Y-61755712D01*
X212636071Y-60541427D02*
X211636071Y-60184284D01*
X211636071Y-60184284D02*
X212636071Y-59827141D01*
X211778928Y-59255713D02*
X211707500Y-59184284D01*
X211707500Y-59184284D02*
X211636071Y-59255713D01*
X211636071Y-59255713D02*
X211707500Y-59327141D01*
X211707500Y-59327141D02*
X211778928Y-59255713D01*
X211778928Y-59255713D02*
X211636071Y-59255713D01*
X213136071Y-57112855D02*
X213136071Y-56969998D01*
X213136071Y-56969998D02*
X213064642Y-56827141D01*
X213064642Y-56827141D02*
X212993214Y-56755713D01*
X212993214Y-56755713D02*
X212850357Y-56684284D01*
X212850357Y-56684284D02*
X212564642Y-56612855D01*
X212564642Y-56612855D02*
X212207500Y-56612855D01*
X212207500Y-56612855D02*
X211921785Y-56684284D01*
X211921785Y-56684284D02*
X211778928Y-56755713D01*
X211778928Y-56755713D02*
X211707500Y-56827141D01*
X211707500Y-56827141D02*
X211636071Y-56969998D01*
X211636071Y-56969998D02*
X211636071Y-57112855D01*
X211636071Y-57112855D02*
X211707500Y-57255713D01*
X211707500Y-57255713D02*
X211778928Y-57327141D01*
X211778928Y-57327141D02*
X211921785Y-57398570D01*
X211921785Y-57398570D02*
X212207500Y-57469998D01*
X212207500Y-57469998D02*
X212564642Y-57469998D01*
X212564642Y-57469998D02*
X212850357Y-57398570D01*
X212850357Y-57398570D02*
X212993214Y-57327141D01*
X212993214Y-57327141D02*
X213064642Y-57255713D01*
X213064642Y-57255713D02*
X213136071Y-57112855D01*
X211778928Y-55969999D02*
X211707500Y-55898570D01*
X211707500Y-55898570D02*
X211636071Y-55969999D01*
X211636071Y-55969999D02*
X211707500Y-56041427D01*
X211707500Y-56041427D02*
X211778928Y-55969999D01*
X211778928Y-55969999D02*
X211636071Y-55969999D01*
X213136071Y-54969998D02*
X213136071Y-54827141D01*
X213136071Y-54827141D02*
X213064642Y-54684284D01*
X213064642Y-54684284D02*
X212993214Y-54612856D01*
X212993214Y-54612856D02*
X212850357Y-54541427D01*
X212850357Y-54541427D02*
X212564642Y-54469998D01*
X212564642Y-54469998D02*
X212207500Y-54469998D01*
X212207500Y-54469998D02*
X211921785Y-54541427D01*
X211921785Y-54541427D02*
X211778928Y-54612856D01*
X211778928Y-54612856D02*
X211707500Y-54684284D01*
X211707500Y-54684284D02*
X211636071Y-54827141D01*
X211636071Y-54827141D02*
X211636071Y-54969998D01*
X211636071Y-54969998D02*
X211707500Y-55112856D01*
X211707500Y-55112856D02*
X211778928Y-55184284D01*
X211778928Y-55184284D02*
X211921785Y-55255713D01*
X211921785Y-55255713D02*
X212207500Y-55327141D01*
X212207500Y-55327141D02*
X212564642Y-55327141D01*
X212564642Y-55327141D02*
X212850357Y-55255713D01*
X212850357Y-55255713D02*
X212993214Y-55184284D01*
X212993214Y-55184284D02*
X213064642Y-55112856D01*
X213064642Y-55112856D02*
X213136071Y-54969998D01*
X212207500Y-52684285D02*
X212207500Y-51541428D01*
X211636071Y-48898570D02*
X211636071Y-49755713D01*
X211636071Y-49327142D02*
X213136071Y-49327142D01*
X213136071Y-49327142D02*
X212921785Y-49469999D01*
X212921785Y-49469999D02*
X212778928Y-49612856D01*
X212778928Y-49612856D02*
X212707500Y-49755713D01*
X211636071Y-47469999D02*
X211636071Y-48327142D01*
X211636071Y-47898571D02*
X213136071Y-47898571D01*
X213136071Y-47898571D02*
X212921785Y-48041428D01*
X212921785Y-48041428D02*
X212778928Y-48184285D01*
X212778928Y-48184285D02*
X212707500Y-48327142D01*
X213207500Y-45755714D02*
X211278928Y-47041428D01*
X212993214Y-45327142D02*
X213064642Y-45255714D01*
X213064642Y-45255714D02*
X213136071Y-45112857D01*
X213136071Y-45112857D02*
X213136071Y-44755714D01*
X213136071Y-44755714D02*
X213064642Y-44612857D01*
X213064642Y-44612857D02*
X212993214Y-44541428D01*
X212993214Y-44541428D02*
X212850357Y-44469999D01*
X212850357Y-44469999D02*
X212707500Y-44469999D01*
X212707500Y-44469999D02*
X212493214Y-44541428D01*
X212493214Y-44541428D02*
X211636071Y-45398571D01*
X211636071Y-45398571D02*
X211636071Y-44469999D01*
X213136071Y-43541428D02*
X213136071Y-43398571D01*
X213136071Y-43398571D02*
X213064642Y-43255714D01*
X213064642Y-43255714D02*
X212993214Y-43184286D01*
X212993214Y-43184286D02*
X212850357Y-43112857D01*
X212850357Y-43112857D02*
X212564642Y-43041428D01*
X212564642Y-43041428D02*
X212207500Y-43041428D01*
X212207500Y-43041428D02*
X211921785Y-43112857D01*
X211921785Y-43112857D02*
X211778928Y-43184286D01*
X211778928Y-43184286D02*
X211707500Y-43255714D01*
X211707500Y-43255714D02*
X211636071Y-43398571D01*
X211636071Y-43398571D02*
X211636071Y-43541428D01*
X211636071Y-43541428D02*
X211707500Y-43684286D01*
X211707500Y-43684286D02*
X211778928Y-43755714D01*
X211778928Y-43755714D02*
X211921785Y-43827143D01*
X211921785Y-43827143D02*
X212207500Y-43898571D01*
X212207500Y-43898571D02*
X212564642Y-43898571D01*
X212564642Y-43898571D02*
X212850357Y-43827143D01*
X212850357Y-43827143D02*
X212993214Y-43755714D01*
X212993214Y-43755714D02*
X213064642Y-43684286D01*
X213064642Y-43684286D02*
X213136071Y-43541428D01*
X212993214Y-42470000D02*
X213064642Y-42398572D01*
X213064642Y-42398572D02*
X213136071Y-42255715D01*
X213136071Y-42255715D02*
X213136071Y-41898572D01*
X213136071Y-41898572D02*
X213064642Y-41755715D01*
X213064642Y-41755715D02*
X212993214Y-41684286D01*
X212993214Y-41684286D02*
X212850357Y-41612857D01*
X212850357Y-41612857D02*
X212707500Y-41612857D01*
X212707500Y-41612857D02*
X212493214Y-41684286D01*
X212493214Y-41684286D02*
X211636071Y-42541429D01*
X211636071Y-42541429D02*
X211636071Y-41612857D01*
X213136071Y-41112858D02*
X213136071Y-40184286D01*
X213136071Y-40184286D02*
X212564642Y-40684286D01*
X212564642Y-40684286D02*
X212564642Y-40470001D01*
X212564642Y-40470001D02*
X212493214Y-40327144D01*
X212493214Y-40327144D02*
X212421785Y-40255715D01*
X212421785Y-40255715D02*
X212278928Y-40184286D01*
X212278928Y-40184286D02*
X211921785Y-40184286D01*
X211921785Y-40184286D02*
X211778928Y-40255715D01*
X211778928Y-40255715D02*
X211707500Y-40327144D01*
X211707500Y-40327144D02*
X211636071Y-40470001D01*
X211636071Y-40470001D02*
X211636071Y-40898572D01*
X211636071Y-40898572D02*
X211707500Y-41041429D01*
X211707500Y-41041429D02*
X211778928Y-41112858D01*
G36*
X203159950Y-40908557D02*
G01*
X203159950Y-41603582D01*
X202464925Y-41603582D01*
X201769900Y-41603582D01*
X201769900Y-40908557D01*
X201769900Y-40213532D01*
X202464925Y-40213532D01*
X203159950Y-40213532D01*
X203159950Y-40908557D01*
G37*
G36*
X203159950Y-32568259D02*
G01*
X203159950Y-33263284D01*
X202464925Y-33263284D01*
X201769900Y-33263284D01*
X201769900Y-32568259D01*
X201769900Y-31873234D01*
X202464925Y-31873234D01*
X203159950Y-31873234D01*
X203159950Y-32568259D01*
G37*
G36*
X196683582Y-33958309D02*
G01*
X196683582Y-34179453D01*
X196446642Y-34179453D01*
X196209701Y-34179453D01*
X196209701Y-33958309D01*
X196209701Y-33737164D01*
X196446642Y-33737164D01*
X196683582Y-33737164D01*
X196683582Y-33958309D01*
G37*
G36*
X195735821Y-39518508D02*
G01*
X195735821Y-39739652D01*
X195514677Y-39739652D01*
X195293532Y-39739652D01*
X195293532Y-39518508D01*
X195293532Y-39297363D01*
X195514677Y-39297363D01*
X195735821Y-39297363D01*
X195735821Y-39518508D01*
G37*
G36*
X194819652Y-32568259D02*
G01*
X194819652Y-33263284D01*
X194124627Y-33263284D01*
X193429602Y-33263284D01*
X193429602Y-32568259D01*
X193429602Y-31873234D01*
X194124627Y-31873234D01*
X194819652Y-31873234D01*
X194819652Y-32568259D01*
G37*
G36*
X192955721Y-38586542D02*
G01*
X192955721Y-38823483D01*
X192734577Y-38823483D01*
X192513433Y-38823483D01*
X192513433Y-38586542D01*
X192513433Y-38349602D01*
X192734577Y-38349602D01*
X192955721Y-38349602D01*
X192955721Y-38586542D01*
G37*
G36*
X196683582Y-42061667D02*
G01*
X196683582Y-42519751D01*
X196446642Y-42519751D01*
X196209701Y-42519751D01*
X196209701Y-42299991D01*
X196209701Y-42080231D01*
X195980659Y-42070949D01*
X195751617Y-42061667D01*
X195742335Y-41832624D01*
X195733053Y-41603582D01*
X196208317Y-41603582D01*
X196683582Y-41603582D01*
X196683582Y-42061667D01*
G37*
G36*
X199463682Y-31178209D02*
G01*
X199463682Y-31399353D01*
X199921766Y-31399353D01*
X200379851Y-31399353D01*
X200379851Y-31873234D01*
X200379851Y-32347114D01*
X200142910Y-32347114D01*
X199905970Y-32347114D01*
X199905970Y-32110174D01*
X199905970Y-31873234D01*
X199447886Y-31873234D01*
X198989801Y-31873234D01*
X198989801Y-31415149D01*
X198989801Y-30957065D01*
X199226741Y-30957065D01*
X199463682Y-30957065D01*
X199463682Y-31178209D01*
G37*
G36*
X195735821Y-33737944D02*
G01*
X195735821Y-34179453D01*
X194124627Y-34179453D01*
X192513433Y-34179453D01*
X192513433Y-33721368D01*
X192971517Y-33721368D01*
X194132914Y-33729656D01*
X195294312Y-33737944D01*
X195286024Y-32576546D01*
X195277736Y-31415149D01*
X194124627Y-31415149D01*
X192971517Y-31415149D01*
X192971517Y-32568259D01*
X192971517Y-33721368D01*
X192513433Y-33721368D01*
X192513433Y-32568259D01*
X192513433Y-30957065D01*
X194124627Y-30957065D01*
X195735821Y-30957065D01*
X195735821Y-32568259D01*
X195735821Y-33737944D01*
G37*
G36*
X192955721Y-41366642D02*
G01*
X192955721Y-41603582D01*
X193192662Y-41603582D01*
X193429602Y-41603582D01*
X193429602Y-41366642D01*
X193429602Y-41129702D01*
X193887687Y-41129702D01*
X194344082Y-41129702D01*
X194352825Y-41595684D01*
X194361567Y-42061667D01*
X194590609Y-42070949D01*
X194819652Y-42080231D01*
X194819652Y-42299991D01*
X194819652Y-42519751D01*
X194361567Y-42519751D01*
X193903483Y-42519751D01*
X193903483Y-42061667D01*
X193903483Y-41603582D01*
X193666542Y-41603582D01*
X193429602Y-41603582D01*
X193429602Y-42061667D01*
X193429602Y-42519751D01*
X192971517Y-42519751D01*
X192513433Y-42519751D01*
X192513433Y-41824726D01*
X192513433Y-41129702D01*
X192734577Y-41129702D01*
X192955721Y-41129702D01*
X192955721Y-41366642D01*
G37*
G36*
X204076119Y-41379815D02*
G01*
X204076119Y-42519751D01*
X202464925Y-42519751D01*
X200853731Y-42519751D01*
X200853731Y-40908557D01*
X200853731Y-39738873D01*
X201295241Y-39738873D01*
X201303528Y-40900270D01*
X201311816Y-42061667D01*
X202457867Y-42069960D01*
X202738745Y-42071645D01*
X202999239Y-42072208D01*
X203206270Y-42071224D01*
X203364975Y-42068554D01*
X203480492Y-42064057D01*
X203557958Y-42057593D01*
X203602511Y-42049022D01*
X203619287Y-42038202D01*
X203622307Y-42005212D01*
X203625010Y-41915044D01*
X203626961Y-41775794D01*
X203628116Y-41594905D01*
X203628428Y-41379815D01*
X203627853Y-41137967D01*
X203626346Y-40876800D01*
X203618035Y-39755448D01*
X202456638Y-39747160D01*
X201295241Y-39738873D01*
X200853731Y-39738873D01*
X200853731Y-39297363D01*
X202464925Y-39297363D01*
X204076119Y-39297363D01*
X204076119Y-40908557D01*
X204076119Y-41379815D01*
G37*
G36*
X204076119Y-33039457D02*
G01*
X204076119Y-34179453D01*
X202464925Y-34179453D01*
X200853731Y-34179453D01*
X200853731Y-33737164D01*
X201295241Y-33737164D01*
X202449732Y-33737164D01*
X202698782Y-33736889D01*
X202968803Y-33735628D01*
X203184414Y-33733192D01*
X203350562Y-33729413D01*
X203472192Y-33724122D01*
X203554251Y-33717153D01*
X203601685Y-33708338D01*
X203619439Y-33697509D01*
X203622428Y-33664586D01*
X203625098Y-33574495D01*
X203627020Y-33435318D01*
X203628150Y-33254493D01*
X203628444Y-33039457D01*
X203627857Y-32797648D01*
X203626346Y-32536501D01*
X203618035Y-31415149D01*
X202464925Y-31415149D01*
X201311816Y-31415149D01*
X201303529Y-32576157D01*
X201295241Y-33737164D01*
X200853731Y-33737164D01*
X200853731Y-32568259D01*
X200853731Y-30957065D01*
X202464925Y-30957065D01*
X204076119Y-30957065D01*
X204076119Y-32568259D01*
X204076119Y-33039457D01*
G37*
G36*
X200142910Y-41603582D02*
G01*
X200379851Y-41603582D01*
X200379851Y-42061667D01*
X200379851Y-42519751D01*
X200142910Y-42519751D01*
X199905970Y-42519751D01*
X199905970Y-42061667D01*
X199905970Y-41603582D01*
X200142910Y-41603582D01*
G37*
G36*
X198294776Y-42077463D02*
G01*
X198515920Y-42077463D01*
X198515920Y-42298607D01*
X198515920Y-42519751D01*
X198294776Y-42519751D01*
X198073632Y-42519751D01*
X198073632Y-42298607D01*
X198073632Y-42077463D01*
X198294776Y-42077463D01*
G37*
G36*
X195735821Y-35127214D02*
G01*
X195735821Y-35569503D01*
X195972761Y-35569503D01*
X196209701Y-35569503D01*
X196209701Y-35805966D01*
X196209701Y-36043383D01*
X196446642Y-36043383D01*
X196683582Y-36043383D01*
X196683582Y-36501468D01*
X196683582Y-36959552D01*
X196446642Y-36959552D01*
X196209701Y-36959552D01*
X196209701Y-36738408D01*
X196209701Y-36517264D01*
X195972761Y-36517264D01*
X195735821Y-36517264D01*
X195735821Y-36738408D01*
X195735821Y-36959552D01*
X195514677Y-36959552D01*
X195293532Y-36959552D01*
X195293532Y-37196493D01*
X195293532Y-37433433D01*
X195056592Y-37433433D01*
X194819652Y-37433433D01*
X194819652Y-37670373D01*
X194819652Y-37907313D01*
X195056592Y-37907313D01*
X195293532Y-37907313D01*
X195293532Y-37670373D01*
X195293532Y-37433433D01*
X195514677Y-37433433D01*
X195735821Y-37433433D01*
X195735821Y-37891517D01*
X195735821Y-38349602D01*
X196209701Y-38349602D01*
X196683582Y-38349602D01*
X196683582Y-38823483D01*
X196683582Y-39297363D01*
X196904726Y-39297363D01*
X197125871Y-39297363D01*
X197125871Y-39060423D01*
X197125871Y-38823483D01*
X197362811Y-38823483D01*
X197599751Y-38823483D01*
X197599751Y-38586542D01*
X197599751Y-38349602D01*
X198056991Y-38349602D01*
X198514231Y-38349602D01*
X198522974Y-38815585D01*
X198531716Y-39281567D01*
X198997699Y-39290310D01*
X199463682Y-39299052D01*
X199463682Y-39519352D01*
X199463682Y-39739652D01*
X199684826Y-39739652D01*
X199905970Y-39739652D01*
X199905970Y-39518508D01*
X199905970Y-39297363D01*
X199684826Y-39297363D01*
X199463682Y-39297363D01*
X199463682Y-39060423D01*
X199463682Y-38823483D01*
X199921766Y-38823483D01*
X200379851Y-38823483D01*
X200379851Y-39281567D01*
X200379851Y-39739652D01*
X200142910Y-39739652D01*
X199905970Y-39739652D01*
X199905970Y-39976592D01*
X199905970Y-40213532D01*
X199684826Y-40213532D01*
X199463682Y-40213532D01*
X199463682Y-40671617D01*
X199463682Y-41129702D01*
X199684826Y-41129702D01*
X199905970Y-41129702D01*
X199905970Y-40908557D01*
X199905970Y-40687413D01*
X200142910Y-40687413D01*
X200379851Y-40687413D01*
X200379851Y-40908557D01*
X200379851Y-41129702D01*
X200142910Y-41129702D01*
X199905970Y-41129702D01*
X199905970Y-41366642D01*
X199905970Y-41603582D01*
X199684826Y-41603582D01*
X199463682Y-41603582D01*
X199463682Y-41366642D01*
X199463682Y-41129702D01*
X198989801Y-41129702D01*
X198515920Y-41129702D01*
X198515920Y-41366642D01*
X198515920Y-41603582D01*
X198294776Y-41603582D01*
X198073632Y-41603582D01*
X198073632Y-41840522D01*
X198073632Y-42077463D01*
X197836691Y-42077463D01*
X197599751Y-42077463D01*
X197599751Y-41382438D01*
X197599751Y-41129702D01*
X198073632Y-41129702D01*
X198294776Y-41129702D01*
X198515920Y-41129702D01*
X198515920Y-40908557D01*
X198515920Y-40687413D01*
X198752861Y-40687413D01*
X198989801Y-40687413D01*
X198989801Y-40213532D01*
X198989801Y-39739652D01*
X198752861Y-39739652D01*
X198515920Y-39739652D01*
X198515920Y-40213532D01*
X198515920Y-40687413D01*
X198294776Y-40687413D01*
X198073632Y-40687413D01*
X198073632Y-40908557D01*
X198073632Y-41129702D01*
X197599751Y-41129702D01*
X197599751Y-40687413D01*
X197362811Y-40687413D01*
X197125871Y-40687413D01*
X197125871Y-41145498D01*
X197125871Y-41603582D01*
X196904726Y-41603582D01*
X196683582Y-41603582D01*
X196683582Y-41366642D01*
X196683582Y-41129702D01*
X196209701Y-41129702D01*
X195735821Y-41129702D01*
X195735821Y-40908557D01*
X195735821Y-40687413D01*
X195514677Y-40687413D01*
X195293532Y-40687413D01*
X195293532Y-41145498D01*
X195293532Y-41603582D01*
X195056592Y-41603582D01*
X194819652Y-41603582D01*
X194819652Y-41366642D01*
X194819652Y-41129702D01*
X194581867Y-41129702D01*
X194345771Y-41129702D01*
X194345771Y-40671617D01*
X194345771Y-40213532D01*
X194819652Y-40213532D01*
X195514677Y-40213532D01*
X196209701Y-40213532D01*
X196683582Y-40213532D01*
X197378607Y-40213532D01*
X198073632Y-40213532D01*
X198073632Y-39976592D01*
X198073632Y-39739652D01*
X197836691Y-39739652D01*
X197599751Y-39739652D01*
X197599751Y-39518508D01*
X197599751Y-39297363D01*
X197362811Y-39297363D01*
X197125871Y-39297363D01*
X197125871Y-39518508D01*
X197125871Y-39739652D01*
X196904726Y-39739652D01*
X196683582Y-39739652D01*
X196683582Y-39976592D01*
X196683582Y-40213532D01*
X196209701Y-40213532D01*
X196209701Y-39518508D01*
X196209701Y-38823483D01*
X195514677Y-38823483D01*
X194819652Y-38823483D01*
X194819652Y-39518508D01*
X194819652Y-40213532D01*
X194345771Y-40213532D01*
X194126011Y-40213532D01*
X193906251Y-40213532D01*
X193896969Y-40442575D01*
X193887687Y-40671617D01*
X193429602Y-40671617D01*
X192971517Y-40671617D01*
X192962235Y-40442575D01*
X192952953Y-40213532D01*
X192733193Y-40213532D01*
X192513433Y-40213532D01*
X192513433Y-39755448D01*
X192513433Y-39297363D01*
X192971517Y-39297363D01*
X193429602Y-39297363D01*
X193429602Y-39518508D01*
X193429602Y-39739652D01*
X193666542Y-39739652D01*
X193903483Y-39739652D01*
X193903483Y-39518508D01*
X193903483Y-39297363D01*
X194123782Y-39297363D01*
X194344082Y-39297363D01*
X194352825Y-38831381D01*
X194361567Y-38365398D01*
X194590609Y-38356116D01*
X194819652Y-38346834D01*
X194819652Y-38127074D01*
X194819652Y-37907313D01*
X194361567Y-37907313D01*
X193903483Y-37907313D01*
X193903483Y-37670373D01*
X193903483Y-37433433D01*
X193429602Y-37433433D01*
X192955721Y-37433433D01*
X192955721Y-37670373D01*
X192955721Y-37907313D01*
X192734577Y-37907313D01*
X192513433Y-37907313D01*
X192513433Y-36975348D01*
X192513433Y-36043383D01*
X192733193Y-36043383D01*
X192952953Y-36043383D01*
X192962235Y-36272425D01*
X192971517Y-36501468D01*
X193437500Y-36510210D01*
X193903483Y-36518953D01*
X193903483Y-36976193D01*
X193903483Y-37433433D01*
X194123243Y-37433433D01*
X194343003Y-37433433D01*
X194352285Y-37204391D01*
X194361567Y-36975348D01*
X194590609Y-36966066D01*
X194819652Y-36956784D01*
X194819652Y-36738408D01*
X194819652Y-36520032D01*
X194590609Y-36510750D01*
X194361567Y-36501468D01*
X194352285Y-36272425D01*
X194343003Y-36043383D01*
X194345771Y-36043383D01*
X194582711Y-36043383D01*
X194819652Y-36043383D01*
X194819652Y-35806443D01*
X194819652Y-35569503D01*
X195056592Y-35569503D01*
X195293532Y-35569503D01*
X195293532Y-35348358D01*
X195293532Y-35127214D01*
X195056592Y-35127214D01*
X194819652Y-35127214D01*
X194819652Y-35348358D01*
X194819652Y-35569503D01*
X194582711Y-35569503D01*
X194345771Y-35569503D01*
X194345771Y-35806443D01*
X194345771Y-36043383D01*
X194343003Y-36043383D01*
X193886302Y-36043383D01*
X193429602Y-36043383D01*
X193429602Y-35806443D01*
X193429602Y-35569503D01*
X193192662Y-35569503D01*
X192955721Y-35569503D01*
X192955721Y-35111418D01*
X192955721Y-34653333D01*
X193429602Y-34653333D01*
X193903483Y-34653333D01*
X193903483Y-34890274D01*
X193903483Y-35127214D01*
X193666542Y-35127214D01*
X193429602Y-35127214D01*
X193429602Y-35348358D01*
X193429602Y-35569503D01*
X193887687Y-35569503D01*
X194345771Y-35569503D01*
X194345771Y-35111418D01*
X194345771Y-34653333D01*
X195040796Y-34653333D01*
X195735821Y-34653333D01*
X195735821Y-35111418D01*
X195735821Y-35127214D01*
G37*
G36*
X196683582Y-31636294D02*
G01*
X196683582Y-31873234D01*
X196904726Y-31873234D01*
X197125871Y-31873234D01*
X197125871Y-31636294D01*
X197125871Y-31399353D01*
X196904726Y-31399353D01*
X196683582Y-31399353D01*
X196683582Y-31178209D01*
X196683582Y-30957065D01*
X196904726Y-30957065D01*
X197125871Y-30957065D01*
X197125871Y-31177364D01*
X197125871Y-31397664D01*
X197591853Y-31406407D01*
X198057836Y-31415149D01*
X198067118Y-31644192D01*
X198076400Y-31873234D01*
X197601135Y-31873234D01*
X197125871Y-31873234D01*
X197125871Y-32331318D01*
X197125871Y-32789403D01*
X196904726Y-32789403D01*
X196683582Y-32789403D01*
X196683582Y-33026343D01*
X196683582Y-33263284D01*
X196904726Y-33263284D01*
X197125871Y-33263284D01*
X197125871Y-33026343D01*
X197125871Y-32789403D01*
X197599751Y-32789403D01*
X198073632Y-32789403D01*
X198073632Y-32568259D01*
X198073632Y-32347114D01*
X198294776Y-32347114D01*
X198515920Y-32347114D01*
X198515920Y-33263284D01*
X198515920Y-34179453D01*
X198752861Y-34179453D01*
X198989801Y-34179453D01*
X198989801Y-33484428D01*
X198989801Y-32789403D01*
X199226741Y-32789403D01*
X199463682Y-32789403D01*
X199463682Y-32568259D01*
X199463682Y-32347114D01*
X199684826Y-32347114D01*
X199905970Y-32347114D01*
X199905970Y-32568259D01*
X199905970Y-32789403D01*
X200142910Y-32789403D01*
X200379851Y-32789403D01*
X200379851Y-33721368D01*
X200379851Y-34653333D01*
X200142910Y-34653333D01*
X199905970Y-34653333D01*
X199905970Y-33958309D01*
X199905970Y-33263284D01*
X199684826Y-33263284D01*
X199463682Y-33263284D01*
X199463682Y-33958309D01*
X199463682Y-34653333D01*
X199226741Y-34653333D01*
X198989801Y-34653333D01*
X198989801Y-35348358D01*
X198989801Y-36043383D01*
X199447886Y-36043383D01*
X199905970Y-36043383D01*
X199905970Y-35806443D01*
X199905970Y-35569503D01*
X199684826Y-35569503D01*
X199463682Y-35569503D01*
X199463682Y-35348358D01*
X199463682Y-35127214D01*
X199921766Y-35127214D01*
X200379851Y-35127214D01*
X200379851Y-35822239D01*
X200379851Y-36517264D01*
X199921766Y-36517264D01*
X199463682Y-36517264D01*
X199463682Y-36738408D01*
X199463682Y-36959552D01*
X199226741Y-36959552D01*
X198989801Y-36959552D01*
X198989801Y-37196493D01*
X198989801Y-37433433D01*
X199226741Y-37433433D01*
X199463682Y-37433433D01*
X199463682Y-37196493D01*
X199463682Y-36959552D01*
X199921766Y-36959552D01*
X200379851Y-36959552D01*
X200379851Y-36738408D01*
X200379851Y-36517264D01*
X200837935Y-36517264D01*
X201296020Y-36517264D01*
X201296020Y-36738408D01*
X201296020Y-36959552D01*
X201074876Y-36959552D01*
X200853731Y-36959552D01*
X200853731Y-37196493D01*
X200853731Y-37433433D01*
X201311816Y-37433433D01*
X201769900Y-37433433D01*
X201769900Y-36975348D01*
X201769900Y-36517264D01*
X201532960Y-36517264D01*
X201296020Y-36517264D01*
X201296020Y-36280323D01*
X201296020Y-36043383D01*
X201074876Y-36043383D01*
X200853731Y-36043383D01*
X200853731Y-35806443D01*
X200853731Y-35569503D01*
X201074876Y-35569503D01*
X201296020Y-35569503D01*
X201296020Y-35348358D01*
X201296020Y-35128903D01*
X201762002Y-35120161D01*
X202227985Y-35111418D01*
X202237267Y-34882376D01*
X202246549Y-34653333D01*
X202466309Y-34653333D01*
X202686070Y-34653333D01*
X202686070Y-35111418D01*
X202686070Y-35569503D01*
X202923010Y-35569503D01*
X203159950Y-35569503D01*
X203159950Y-35111418D01*
X203159950Y-34653333D01*
X203618035Y-34653333D01*
X204076119Y-34653333D01*
X204076119Y-34890274D01*
X204076119Y-35127214D01*
X203854975Y-35127214D01*
X203633831Y-35127214D01*
X203633831Y-35348358D01*
X203633831Y-35569503D01*
X203854975Y-35569503D01*
X204076119Y-35569503D01*
X204076119Y-36264527D01*
X204076119Y-36959552D01*
X203854975Y-36959552D01*
X203633831Y-36959552D01*
X203633831Y-36501468D01*
X203633831Y-36043383D01*
X202940190Y-36043383D01*
X202246549Y-36043383D01*
X202237267Y-35814341D01*
X202227985Y-35585299D01*
X201998943Y-35576017D01*
X201769900Y-35566734D01*
X201769900Y-35805059D01*
X201769900Y-36043383D01*
X202006841Y-36043383D01*
X202243781Y-36043383D01*
X202243781Y-36280323D01*
X202243781Y-36517264D01*
X202701866Y-36517264D01*
X203159950Y-36517264D01*
X203159950Y-36738408D01*
X203159950Y-36959552D01*
X202923010Y-36959552D01*
X202686070Y-36959552D01*
X202686070Y-37196493D01*
X202686070Y-37433433D01*
X202923010Y-37433433D01*
X203159950Y-37433433D01*
X203159950Y-37196493D01*
X203159950Y-36959552D01*
X203396890Y-36959552D01*
X203633831Y-36959552D01*
X203633831Y-37196493D01*
X203633831Y-37433433D01*
X203396890Y-37433433D01*
X203159950Y-37433433D01*
X203159950Y-37670373D01*
X203159950Y-37907313D01*
X203375829Y-37907313D01*
X203376366Y-37907313D01*
X203487760Y-37904411D01*
X203572676Y-37896847D01*
X203612769Y-37886252D01*
X203612822Y-37886199D01*
X203623406Y-37845862D01*
X203630953Y-37760784D01*
X203633831Y-37649312D01*
X203633831Y-37433433D01*
X203854975Y-37433433D01*
X204076119Y-37433433D01*
X204076119Y-37649312D01*
X204076119Y-37670373D01*
X204076119Y-37907313D01*
X203854975Y-37907313D01*
X203633831Y-37907313D01*
X203633831Y-38128458D01*
X203633831Y-38349602D01*
X203854975Y-38349602D01*
X204076119Y-38349602D01*
X204076119Y-38586542D01*
X204076119Y-38823483D01*
X202227985Y-38823483D01*
X200379851Y-38823483D01*
X200379851Y-38586542D01*
X200379851Y-38349602D01*
X200853731Y-38349602D01*
X201074876Y-38349602D01*
X201296020Y-38349602D01*
X201296020Y-38128458D01*
X201296020Y-37907313D01*
X201074876Y-37907313D01*
X200853731Y-37907313D01*
X200853731Y-38128458D01*
X200853731Y-38349602D01*
X200379851Y-38349602D01*
X199921766Y-38349602D01*
X199463682Y-38349602D01*
X199463682Y-38586542D01*
X199463682Y-38823483D01*
X199226741Y-38823483D01*
X198989801Y-38823483D01*
X198989801Y-38586542D01*
X198989801Y-38349602D01*
X198752861Y-38349602D01*
X198515920Y-38349602D01*
X198515920Y-37891517D01*
X201769900Y-37891517D01*
X201769900Y-37907313D01*
X201769900Y-38349602D01*
X202227985Y-38349602D01*
X202686070Y-38349602D01*
X202686070Y-38128458D01*
X202686070Y-37907313D01*
X202464925Y-37907313D01*
X202243781Y-37907313D01*
X202243781Y-37670373D01*
X202243781Y-37433433D01*
X202006841Y-37433433D01*
X201769900Y-37433433D01*
X201769900Y-37891517D01*
X198515920Y-37891517D01*
X198515920Y-37433433D01*
X198515920Y-36517264D01*
X198294776Y-36517264D01*
X198073632Y-36517264D01*
X198073632Y-36738408D01*
X198073632Y-36959552D01*
X197836691Y-36959552D01*
X197599751Y-36959552D01*
X197599751Y-37433433D01*
X197599751Y-37907313D01*
X196904726Y-37907313D01*
X196209701Y-37907313D01*
X196209701Y-37670373D01*
X196209701Y-37433433D01*
X196667786Y-37433433D01*
X197125871Y-37433433D01*
X197125871Y-36738408D01*
X197125871Y-36043383D01*
X197601135Y-36043383D01*
X198076400Y-36043383D01*
X198067118Y-35814341D01*
X198057836Y-35585299D01*
X197133769Y-35576923D01*
X196209701Y-35568548D01*
X196209701Y-35111418D01*
X196209701Y-34653333D01*
X196446642Y-34653333D01*
X196683582Y-34653333D01*
X196683582Y-34890274D01*
X196683582Y-35127214D01*
X196904726Y-35127214D01*
X197125871Y-35127214D01*
X197125871Y-34890274D01*
X197125871Y-34653333D01*
X197362811Y-34653333D01*
X197599751Y-34653333D01*
X197599751Y-34891658D01*
X197599751Y-35129982D01*
X197828793Y-35120700D01*
X198057836Y-35111418D01*
X198067118Y-34882376D01*
X198076400Y-34653333D01*
X198296160Y-34653333D01*
X198515920Y-34653333D01*
X198515920Y-34416393D01*
X198515920Y-34179453D01*
X198294776Y-34179453D01*
X198073632Y-34179453D01*
X198073632Y-33721368D01*
X198073632Y-33263284D01*
X197599751Y-33263284D01*
X197125871Y-33263284D01*
X197125871Y-33500224D01*
X197125871Y-33737164D01*
X196904726Y-33737164D01*
X196683582Y-33737164D01*
X196683582Y-33500224D01*
X196683582Y-33263284D01*
X196446642Y-33263284D01*
X196209701Y-33263284D01*
X196209701Y-32331318D01*
X196209701Y-31399353D01*
X196446642Y-31399353D01*
X196683582Y-31399353D01*
X196683582Y-31636294D01*
G37*
G36*
X200837935Y-34653333D02*
G01*
X201296020Y-34653333D01*
X201296020Y-34891118D01*
X201296020Y-35127214D01*
X200837935Y-35127214D01*
X200379851Y-35127214D01*
X200379851Y-34890274D01*
X200379851Y-34653333D01*
X200837935Y-34653333D01*
G37*
G36*
X197362811Y-33737164D02*
G01*
X197599751Y-33737164D01*
X197599751Y-33958309D01*
X197599751Y-34179453D01*
X197362811Y-34179453D01*
X197125871Y-34179453D01*
X197125871Y-33958309D01*
X197125871Y-33737164D01*
X197362811Y-33737164D01*
G37*
G36*
X131381980Y-66993215D02*
G01*
X131497913Y-67051342D01*
X131518730Y-67067437D01*
X131573878Y-67102518D01*
X131599460Y-67096702D01*
X131605713Y-67049849D01*
X131612378Y-67015873D01*
X131646419Y-66995921D01*
X131723441Y-66990985D01*
X131841170Y-66990985D01*
X131841170Y-67667926D01*
X131841170Y-68344867D01*
X131723441Y-68344867D01*
X131605713Y-68344867D01*
X131605713Y-67890052D01*
X131605117Y-67756837D01*
X131600780Y-67589080D01*
X131590370Y-67465854D01*
X131571705Y-67378414D01*
X131542603Y-67318018D01*
X131500882Y-67275921D01*
X131444360Y-67243380D01*
X131415950Y-67230658D01*
X131350210Y-67212385D01*
X131278580Y-67216235D01*
X131176683Y-67242092D01*
X131145860Y-67245781D01*
X131095806Y-67222307D01*
X131034875Y-67154298D01*
X130954195Y-67048521D01*
X131064402Y-67002473D01*
X131103123Y-66988880D01*
X131242221Y-66971474D01*
X131381980Y-66993215D01*
G37*
G36*
X125709990Y-66985606D02*
G01*
X125840325Y-67047655D01*
X125881695Y-67077776D01*
X125926618Y-67103237D01*
X125948811Y-67093279D01*
X125963755Y-67047938D01*
X125977405Y-67016001D01*
X126015358Y-66995878D01*
X126092275Y-66996432D01*
X126204901Y-67005701D01*
X126205976Y-67675284D01*
X126207052Y-68344867D01*
X126088248Y-68344864D01*
X125969444Y-68344860D01*
X125967305Y-67881306D01*
X125964984Y-67706514D01*
X125957682Y-67531563D01*
X125945436Y-67412860D01*
X125928145Y-67349038D01*
X125910367Y-67321679D01*
X125824709Y-67252519D01*
X125711173Y-67219775D01*
X125588053Y-67229859D01*
X125566193Y-67235678D01*
X125501852Y-67249687D01*
X125473694Y-67250515D01*
X125469368Y-67244519D01*
X125436533Y-67205829D01*
X125383198Y-67145927D01*
X125297299Y-67050990D01*
X125411577Y-67003242D01*
X125413760Y-67002337D01*
X125561027Y-66969799D01*
X125709990Y-66985606D01*
G37*
G36*
X125386933Y-64790445D02*
G01*
X125480155Y-64835075D01*
X125519038Y-64862613D01*
X125583259Y-64895824D01*
X125619347Y-64886868D01*
X125636284Y-64835787D01*
X125645506Y-64799536D01*
X125670084Y-64779790D01*
X125724170Y-64774821D01*
X125822283Y-64780299D01*
X125822659Y-64780330D01*
X125836902Y-64788715D01*
X125847751Y-64815438D01*
X125855645Y-64867254D01*
X125861021Y-64950916D01*
X125864319Y-65073177D01*
X125865976Y-65240790D01*
X125866431Y-65460510D01*
X125866431Y-66137451D01*
X125748702Y-66137451D01*
X125630973Y-66137451D01*
X125630973Y-65709738D01*
X125630938Y-65684561D01*
X125626095Y-65463248D01*
X125610991Y-65294054D01*
X125582635Y-65171221D01*
X125538036Y-65088993D01*
X125474200Y-65041613D01*
X125388135Y-65023323D01*
X125276851Y-65028367D01*
X125244941Y-65031866D01*
X125167334Y-65032839D01*
X125112837Y-65011000D01*
X125054899Y-64957922D01*
X125034213Y-64936104D01*
X124995647Y-64888006D01*
X124993321Y-64855686D01*
X125022766Y-64819950D01*
X125060336Y-64794547D01*
X125155998Y-64769485D01*
X125271873Y-64768350D01*
X125386933Y-64790445D01*
G37*
G36*
X124595117Y-64809699D02*
G01*
X124743111Y-64910060D01*
X124819058Y-64999130D01*
X124894960Y-65151480D01*
X124935133Y-65324195D01*
X124940652Y-65505369D01*
X124912594Y-65683096D01*
X124852033Y-65845472D01*
X124760046Y-65980590D01*
X124637708Y-66076545D01*
X124520976Y-66116559D01*
X124371176Y-66135161D01*
X124219347Y-66129008D01*
X124092195Y-66097095D01*
X124007716Y-66048769D01*
X123931304Y-65984871D01*
X123865122Y-65913002D01*
X123952403Y-65848473D01*
X124039684Y-65783943D01*
X124136313Y-65842858D01*
X124255079Y-65890434D01*
X124397795Y-65894349D01*
X124532745Y-65844593D01*
X124581050Y-65811337D01*
X124650412Y-65734700D01*
X124689961Y-65631649D01*
X124707139Y-65486922D01*
X124702674Y-65369910D01*
X124668361Y-65230603D01*
X124607157Y-65120224D01*
X124524927Y-65052749D01*
X124467616Y-65032901D01*
X124340744Y-65018629D01*
X124215566Y-65035436D01*
X124117252Y-65081547D01*
X124037770Y-65144067D01*
X123952452Y-65062327D01*
X123934178Y-65043833D01*
X123892070Y-64989363D01*
X123882919Y-64955045D01*
X123905113Y-64935134D01*
X123966856Y-64893009D01*
X124051108Y-64842096D01*
X124078995Y-64826952D01*
X124253085Y-64767165D01*
X124428451Y-64761741D01*
X124595117Y-64809699D01*
G37*
G36*
X135988429Y-65392566D02*
G01*
X135984556Y-65567578D01*
X135946801Y-65748548D01*
X135878989Y-65905307D01*
X135784510Y-66027458D01*
X135666753Y-66104603D01*
X135657746Y-66107938D01*
X135556956Y-66128099D01*
X135429689Y-66134564D01*
X135303444Y-66127246D01*
X135205717Y-66106058D01*
X135132563Y-66068520D01*
X135053843Y-66010403D01*
X134990420Y-65943272D01*
X134940985Y-65863236D01*
X134910444Y-65765057D01*
X134894792Y-65635294D01*
X134890669Y-65484074D01*
X135110982Y-65484074D01*
X135132632Y-65651160D01*
X135189751Y-65776257D01*
X135280959Y-65855890D01*
X135398463Y-65896570D01*
X135522030Y-65892413D01*
X135625613Y-65837814D01*
X135701502Y-65737140D01*
X135741986Y-65594759D01*
X135743834Y-65579148D01*
X135748112Y-65392566D01*
X135718032Y-65237614D01*
X135656456Y-65119942D01*
X135566247Y-65045197D01*
X135450265Y-65019027D01*
X135380243Y-65023113D01*
X135262942Y-65059326D01*
X135181297Y-65136337D01*
X135131941Y-65258225D01*
X135111506Y-65429065D01*
X135110982Y-65484074D01*
X134890669Y-65484074D01*
X134890027Y-65460510D01*
X134890044Y-65432669D01*
X134898772Y-65243495D01*
X134926133Y-65099479D01*
X134976891Y-64989804D01*
X135055810Y-64903652D01*
X135167656Y-64830206D01*
X135170339Y-64828754D01*
X135338085Y-64767897D01*
X135503248Y-64761426D01*
X135657038Y-64805272D01*
X135790663Y-64895365D01*
X135895332Y-65027636D01*
X135962255Y-65198017D01*
X135988866Y-65372794D01*
X135988429Y-65392566D01*
G37*
G36*
X126300556Y-64773743D02*
G01*
X126345530Y-64776163D01*
X126410927Y-64780299D01*
X126424142Y-64785698D01*
X126437249Y-64810061D01*
X126446156Y-64861371D01*
X126451604Y-64947605D01*
X126454331Y-65076739D01*
X126455075Y-65256748D01*
X126455075Y-65729928D01*
X126541108Y-65815960D01*
X126597034Y-65860434D01*
X126709999Y-65900930D01*
X126826000Y-65891849D01*
X126930970Y-65835626D01*
X127010843Y-65734693D01*
X127011660Y-65732996D01*
X127024875Y-65673146D01*
X127034984Y-65563296D01*
X127041445Y-65411795D01*
X127043719Y-65226987D01*
X127043763Y-65197668D01*
X127046221Y-65024459D01*
X127052181Y-64893474D01*
X127061280Y-64810244D01*
X127073152Y-64780299D01*
X127097871Y-64778560D01*
X127161448Y-64777028D01*
X127197280Y-64777532D01*
X127249745Y-64780299D01*
X127260014Y-64805550D01*
X127268580Y-64879121D01*
X127274619Y-64989846D01*
X127278148Y-65126511D01*
X127279190Y-65277902D01*
X127277763Y-65432806D01*
X127273889Y-65580010D01*
X127267588Y-65708301D01*
X127258879Y-65806464D01*
X127247784Y-65863287D01*
X127200318Y-65952266D01*
X127118447Y-66048316D01*
X127029003Y-66110961D01*
X127002970Y-66120057D01*
X126894670Y-66132977D01*
X126766252Y-66124105D01*
X126642652Y-66096451D01*
X126548805Y-66053023D01*
X126455075Y-65986281D01*
X126455075Y-66061866D01*
X126455003Y-66070674D01*
X126446671Y-66114838D01*
X126412800Y-66133564D01*
X126336804Y-66137451D01*
X126218533Y-66137451D01*
X126226433Y-65453954D01*
X126234334Y-64770457D01*
X126300556Y-64773743D01*
G37*
G36*
X131408749Y-64775265D02*
G01*
X131496649Y-64825019D01*
X131561960Y-64867317D01*
X131624281Y-64896168D01*
X131655831Y-64887598D01*
X131664577Y-64842433D01*
X131664642Y-64835176D01*
X131672850Y-64796708D01*
X131706524Y-64780407D01*
X131782306Y-64777028D01*
X131818138Y-64777532D01*
X131870602Y-64780299D01*
X131870765Y-64780323D01*
X131880941Y-64811292D01*
X131889091Y-64897922D01*
X131895081Y-65037087D01*
X131898774Y-65225659D01*
X131900035Y-65460510D01*
X131900035Y-66137451D01*
X131782306Y-66137451D01*
X131664577Y-66137451D01*
X131664577Y-65694506D01*
X131664573Y-65685737D01*
X131661060Y-65468793D01*
X131648820Y-65303544D01*
X131624712Y-65183313D01*
X131585595Y-65101422D01*
X131528326Y-65051196D01*
X131449765Y-65025956D01*
X131346771Y-65019027D01*
X131286733Y-65024940D01*
X131177624Y-65073245D01*
X131102640Y-65161827D01*
X131072390Y-65280572D01*
X131070822Y-65334936D01*
X131068134Y-65442550D01*
X131065014Y-65578377D01*
X131061863Y-65725400D01*
X131059081Y-65849154D01*
X131055869Y-65969576D01*
X131052939Y-66057865D01*
X131050690Y-66100660D01*
X131050383Y-66102474D01*
X131017918Y-66127625D01*
X130946637Y-66137451D01*
X130937848Y-66137310D01*
X130869116Y-66125550D01*
X130833970Y-66100660D01*
X130826442Y-66047771D01*
X130822448Y-65947934D01*
X130821861Y-65814837D01*
X130824278Y-65661389D01*
X130829292Y-65500502D01*
X130836499Y-65345086D01*
X130845494Y-65208053D01*
X130855871Y-65102312D01*
X130867226Y-65040776D01*
X130885863Y-64995711D01*
X130972304Y-64881906D01*
X131096791Y-64800739D01*
X131246409Y-64761715D01*
X131324357Y-64758412D01*
X131408749Y-64775265D01*
G37*
G36*
X130896766Y-67751273D02*
G01*
X130896628Y-67778873D01*
X130881672Y-67961512D01*
X130846491Y-68100077D01*
X130787447Y-68202589D01*
X130700903Y-68277066D01*
X130583222Y-68331530D01*
X130549606Y-68342208D01*
X130449312Y-68356107D01*
X130344905Y-68336891D01*
X130216213Y-68281826D01*
X130142453Y-68246074D01*
X130096484Y-68231333D01*
X130078392Y-68244514D01*
X130075237Y-68286002D01*
X130068572Y-68319979D01*
X130034531Y-68339930D01*
X129957509Y-68344867D01*
X129839780Y-68344867D01*
X129839780Y-67673779D01*
X130075237Y-67673779D01*
X130075561Y-67703816D01*
X130094706Y-67878966D01*
X130143201Y-68004320D01*
X130220768Y-68079104D01*
X130243272Y-68089620D01*
X130355268Y-68110676D01*
X130469427Y-68092841D01*
X130560256Y-68039117D01*
X130595491Y-67996126D01*
X130640722Y-67892641D01*
X130661131Y-67751273D01*
X130658469Y-67563528D01*
X130639010Y-67429412D01*
X130588263Y-67312690D01*
X130505822Y-67243026D01*
X130389687Y-67217850D01*
X130272384Y-67228463D01*
X130180978Y-67274219D01*
X130119943Y-67360369D01*
X130085841Y-67491895D01*
X130075237Y-67673779D01*
X129839780Y-67673779D01*
X129839780Y-67371827D01*
X129839780Y-66398787D01*
X129950151Y-66407922D01*
X130060521Y-66417057D01*
X130068813Y-66762885D01*
X130072771Y-66895582D01*
X130077587Y-67006326D01*
X130082594Y-67081201D01*
X130087181Y-67108714D01*
X130102346Y-67102452D01*
X130156955Y-67074390D01*
X130235540Y-67031425D01*
X130327576Y-66986204D01*
X130410195Y-66966946D01*
X130504360Y-66972028D01*
X130613456Y-66995301D01*
X130722634Y-67048029D01*
X130801901Y-67132469D01*
X130854964Y-67254919D01*
X130885536Y-67421676D01*
X130897325Y-67639037D01*
X130896766Y-67751273D01*
G37*
G36*
X128658133Y-65501959D02*
G01*
X128657760Y-65565013D01*
X128650097Y-65686315D01*
X128636723Y-65770796D01*
X128604967Y-65848454D01*
X128533032Y-65956948D01*
X128443524Y-66050985D01*
X128353887Y-66109662D01*
X128325285Y-66119287D01*
X128206691Y-66136691D01*
X128069154Y-66133870D01*
X127937959Y-66112551D01*
X127838389Y-66074461D01*
X127752241Y-66012866D01*
X127669796Y-65919742D01*
X127615863Y-65801589D01*
X127585993Y-65647789D01*
X127577180Y-65475856D01*
X127809783Y-65475856D01*
X127813676Y-65619098D01*
X127834177Y-65721328D01*
X127873946Y-65792964D01*
X127935641Y-65844422D01*
X127943304Y-65848974D01*
X128069234Y-65894081D01*
X128194579Y-65890909D01*
X128304951Y-65842424D01*
X128385961Y-65751592D01*
X128397251Y-65725048D01*
X128417103Y-65627617D01*
X128425440Y-65501959D01*
X128422385Y-65369071D01*
X128408058Y-65249952D01*
X128382581Y-65165598D01*
X128320607Y-65080547D01*
X128232959Y-65033118D01*
X128106855Y-65019027D01*
X128012138Y-65031189D01*
X127907416Y-65089059D01*
X127865690Y-65130650D01*
X127838410Y-65180743D01*
X127823217Y-65254082D01*
X127814167Y-65368477D01*
X127809783Y-65475856D01*
X127577180Y-65475856D01*
X127575738Y-65447728D01*
X127576351Y-65341431D01*
X127584300Y-65226096D01*
X127603191Y-65137194D01*
X127635929Y-65055809D01*
X127637563Y-65052466D01*
X127733068Y-64918376D01*
X127860062Y-64824733D01*
X128007021Y-64772338D01*
X128162423Y-64761992D01*
X128314748Y-64794496D01*
X128452472Y-64870652D01*
X128564075Y-64991261D01*
X128577960Y-65012777D01*
X128613595Y-65079383D01*
X128635839Y-65151404D01*
X128648922Y-65246653D01*
X128657074Y-65382947D01*
X128658565Y-65428755D01*
X128658133Y-65501959D01*
G37*
G36*
X123713717Y-65289265D02*
G01*
X123728861Y-65416238D01*
X123725148Y-65601175D01*
X123693787Y-65772801D01*
X123645789Y-65875956D01*
X123567628Y-65979702D01*
X123476125Y-66064642D01*
X123387798Y-66112443D01*
X123379283Y-66114797D01*
X123209721Y-66138295D01*
X123031934Y-66125814D01*
X122866255Y-66080655D01*
X122733018Y-66006120D01*
X122719653Y-65995303D01*
X122693679Y-65965790D01*
X122703538Y-65934954D01*
X122752355Y-65882876D01*
X122829437Y-65805794D01*
X122965588Y-65871704D01*
X123005632Y-65889992D01*
X123110067Y-65921230D01*
X123205085Y-65918225D01*
X123255426Y-65904180D01*
X123366525Y-65841186D01*
X123454240Y-65749158D01*
X123500890Y-65644461D01*
X123519212Y-65548806D01*
X123074050Y-65548806D01*
X122628887Y-65548806D01*
X122628887Y-65405346D01*
X122630427Y-65358810D01*
X122635466Y-65328065D01*
X122879061Y-65328065D01*
X123195458Y-65336419D01*
X123235731Y-65337449D01*
X123362456Y-65339552D01*
X123443185Y-65337312D01*
X123488165Y-65329202D01*
X123507639Y-65313695D01*
X123511854Y-65289265D01*
X123496549Y-65223110D01*
X123442687Y-65132928D01*
X123365960Y-65054443D01*
X123283221Y-65008359D01*
X123242488Y-64999380D01*
X123116728Y-65004350D01*
X123006757Y-65053980D01*
X122925753Y-65140086D01*
X122886894Y-65254484D01*
X122879061Y-65328065D01*
X122635466Y-65328065D01*
X122656936Y-65197072D01*
X122710710Y-65048412D01*
X122784401Y-64935043D01*
X122808981Y-64910917D01*
X122923764Y-64832886D01*
X123059522Y-64776881D01*
X123188100Y-64755429D01*
X123249284Y-64761228D01*
X123372766Y-64796180D01*
X123490909Y-64852983D01*
X123576954Y-64920292D01*
X123596461Y-64944623D01*
X123662283Y-65071657D01*
X123707161Y-65234297D01*
X123713717Y-65289265D01*
G37*
G36*
X129566821Y-64769950D02*
G01*
X129710639Y-64826181D01*
X129825063Y-64916319D01*
X129900544Y-65032332D01*
X129927532Y-65166188D01*
X129920671Y-65247335D01*
X129872517Y-65372647D01*
X129777027Y-65466511D01*
X129632667Y-65530177D01*
X129437902Y-65564895D01*
X129422235Y-65566443D01*
X129266028Y-65593669D01*
X129161704Y-65636448D01*
X129110839Y-65693117D01*
X129115010Y-65762012D01*
X129175792Y-65841472D01*
X129180227Y-65845518D01*
X129282085Y-65899426D01*
X129414395Y-65916195D01*
X129562797Y-65895901D01*
X129712931Y-65838620D01*
X129863659Y-65760531D01*
X129943828Y-65844209D01*
X130023996Y-65927887D01*
X129883917Y-66016723D01*
X129830792Y-66046683D01*
X129714074Y-66096230D01*
X129607858Y-66123819D01*
X129567191Y-66129426D01*
X129487833Y-66141286D01*
X129443318Y-66149285D01*
X129402825Y-66151544D01*
X129313729Y-66140002D01*
X129209043Y-66115998D01*
X129111819Y-66085109D01*
X129045110Y-66052915D01*
X128947315Y-65950963D01*
X128890451Y-65820618D01*
X128883351Y-65681251D01*
X128910822Y-65567616D01*
X128966517Y-65471302D01*
X129056093Y-65403221D01*
X129187544Y-65357566D01*
X129368864Y-65328529D01*
X129490946Y-65310084D01*
X129606109Y-65273499D01*
X129671772Y-65220766D01*
X129692619Y-65149291D01*
X129690818Y-65124929D01*
X129662978Y-65073502D01*
X129590551Y-65032241D01*
X129547202Y-65015632D01*
X129440292Y-64992963D01*
X129329448Y-65002716D01*
X129192579Y-65045634D01*
X129045095Y-65101673D01*
X128982994Y-65014460D01*
X128972330Y-64999416D01*
X128940192Y-64947223D01*
X128941703Y-64916826D01*
X128975643Y-64887051D01*
X129065588Y-64839556D01*
X129189444Y-64796876D01*
X129322082Y-64766234D01*
X129438467Y-64754783D01*
X129566821Y-64769950D01*
G37*
G36*
X125232108Y-67492717D02*
G01*
X125248354Y-67667234D01*
X125235429Y-67854865D01*
X125185269Y-68038139D01*
X125095763Y-68179588D01*
X124965272Y-68281654D01*
X124792155Y-68346778D01*
X124721820Y-68362585D01*
X124672410Y-68371286D01*
X124627627Y-68367529D01*
X124536853Y-68344283D01*
X124431594Y-68307289D01*
X124333557Y-68264411D01*
X124264450Y-68223511D01*
X124184849Y-68160897D01*
X124263620Y-68078678D01*
X124342391Y-67996459D01*
X124434828Y-68052824D01*
X124528530Y-68091162D01*
X124683443Y-68109299D01*
X124725267Y-68108856D01*
X124808085Y-68099839D01*
X124866715Y-68071670D01*
X124926259Y-68014553D01*
X124927754Y-68012908D01*
X124989632Y-67922402D01*
X125012897Y-67837960D01*
X125012897Y-67756222D01*
X124586130Y-67756222D01*
X124159363Y-67756222D01*
X124160009Y-67572271D01*
X124161183Y-67529480D01*
X124167408Y-67488516D01*
X124394820Y-67488516D01*
X124395062Y-67498924D01*
X124401762Y-67522941D01*
X124425548Y-67537992D01*
X124476863Y-67546162D01*
X124566152Y-67549536D01*
X124703859Y-67550197D01*
X124735196Y-67550177D01*
X124862854Y-67548993D01*
X124944071Y-67544586D01*
X124989229Y-67535025D01*
X125008710Y-67518379D01*
X125012897Y-67492717D01*
X125012640Y-67480776D01*
X124981764Y-67366306D01*
X124908442Y-67276317D01*
X124805588Y-67218381D01*
X124686118Y-67200069D01*
X124562947Y-67228950D01*
X124551124Y-67234982D01*
X124475978Y-67301454D01*
X124418032Y-67394988D01*
X124394820Y-67488516D01*
X124167408Y-67488516D01*
X124187390Y-67357032D01*
X124243957Y-67209621D01*
X124325518Y-67102478D01*
X124419868Y-67036899D01*
X124576407Y-66979638D01*
X124742417Y-66967342D01*
X124898932Y-67003290D01*
X124929884Y-67017482D01*
X125066937Y-67117504D01*
X125166712Y-67261060D01*
X125227691Y-67445265D01*
X125232108Y-67492717D01*
G37*
G36*
X133260551Y-65271459D02*
G01*
X133268633Y-65460510D01*
X133268333Y-65525718D01*
X133264199Y-65644992D01*
X133252707Y-65730441D01*
X133230708Y-65799587D01*
X133195052Y-65869953D01*
X133176850Y-65900837D01*
X133083052Y-66020396D01*
X132970951Y-66094167D01*
X132825270Y-66133016D01*
X132640488Y-66140731D01*
X132464192Y-66106252D01*
X132319335Y-66030738D01*
X132217899Y-65953369D01*
X132294427Y-65876841D01*
X132311762Y-65859626D01*
X132358974Y-65821423D01*
X132401143Y-65819978D01*
X132466607Y-65851046D01*
X132598791Y-65906340D01*
X132730263Y-65920999D01*
X132854471Y-65886306D01*
X132948925Y-65819639D01*
X133020960Y-65719527D01*
X133047891Y-65609132D01*
X133047594Y-65598682D01*
X133041446Y-65578349D01*
X133020523Y-65564454D01*
X132976007Y-65555775D01*
X132899080Y-65551089D01*
X132780924Y-65549173D01*
X132612723Y-65548806D01*
X132177555Y-65548806D01*
X132187661Y-65364855D01*
X132188827Y-65346283D01*
X132200324Y-65281100D01*
X132429814Y-65281100D01*
X132430056Y-65291508D01*
X132436756Y-65315525D01*
X132460542Y-65330576D01*
X132511858Y-65338746D01*
X132601147Y-65342120D01*
X132738853Y-65342781D01*
X132825480Y-65342689D01*
X132933515Y-65341090D01*
X132999286Y-65335589D01*
X133033281Y-65323763D01*
X133045986Y-65303193D01*
X133047891Y-65271459D01*
X133033263Y-65207862D01*
X132978356Y-65120139D01*
X132898773Y-65045739D01*
X132811740Y-65004158D01*
X132748329Y-64997269D01*
X132629636Y-65019814D01*
X132527805Y-65081292D01*
X132456607Y-65171716D01*
X132429814Y-65281100D01*
X132200324Y-65281100D01*
X132224669Y-65143079D01*
X132299467Y-64981982D01*
X132411595Y-64864744D01*
X132559424Y-64793118D01*
X132741329Y-64768853D01*
X132807763Y-64769880D01*
X132896369Y-64780013D01*
X132964788Y-64807220D01*
X133037801Y-64859040D01*
X133097879Y-64911176D01*
X133180318Y-65009945D01*
X133232819Y-65125467D01*
X133260539Y-65271177D01*
X133260551Y-65271459D01*
G37*
G36*
X133274689Y-67924809D02*
G01*
X133275097Y-68001391D01*
X133225952Y-68135963D01*
X133188308Y-68194445D01*
X133074994Y-68290804D01*
X132915446Y-68353891D01*
X132882445Y-68359700D01*
X132764411Y-68357125D01*
X132640107Y-68329815D01*
X132541377Y-68283740D01*
X132509773Y-68261749D01*
X132457554Y-68232469D01*
X132434800Y-68240474D01*
X132429814Y-68286002D01*
X132422450Y-68321087D01*
X132387417Y-68340172D01*
X132309279Y-68344867D01*
X132188743Y-68344867D01*
X132198908Y-67807729D01*
X132200087Y-67756222D01*
X132422159Y-67756222D01*
X132437715Y-67894236D01*
X132439777Y-67910469D01*
X132465638Y-68011272D01*
X132506033Y-68070829D01*
X132543877Y-68087034D01*
X132635195Y-68103353D01*
X132754633Y-68109409D01*
X132886764Y-68100923D01*
X132980866Y-68070236D01*
X133032282Y-68012975D01*
X133047891Y-67924809D01*
X133045271Y-67891485D01*
X133015344Y-67828092D01*
X132946963Y-67786290D01*
X132833821Y-67763271D01*
X132669612Y-67756222D01*
X132422159Y-67756222D01*
X132200087Y-67756222D01*
X132202446Y-67653113D01*
X132210439Y-67464989D01*
X132224126Y-67322348D01*
X132246291Y-67217168D01*
X132279717Y-67141425D01*
X132327185Y-67087097D01*
X132391479Y-67046160D01*
X132475382Y-67010590D01*
X132480720Y-67008620D01*
X132630475Y-66974522D01*
X132795677Y-66968985D01*
X132953463Y-66990926D01*
X133080969Y-67039263D01*
X133136758Y-67074915D01*
X133179038Y-67121263D01*
X133168486Y-67166462D01*
X133106696Y-67221833D01*
X133101709Y-67225510D01*
X133041420Y-67264477D01*
X132999910Y-67269022D01*
X132952498Y-67242444D01*
X132946678Y-67238640D01*
X132862183Y-67209585D01*
X132748609Y-67198276D01*
X132630777Y-67205360D01*
X132533506Y-67231488D01*
X132486825Y-67262682D01*
X132438672Y-67347507D01*
X132434733Y-67466265D01*
X132436018Y-67474660D01*
X132445437Y-67503560D01*
X132469349Y-67522537D01*
X132518835Y-67534669D01*
X132604976Y-67543031D01*
X132738853Y-67550699D01*
X132894596Y-67562982D01*
X133030998Y-67588005D01*
X133127811Y-67628831D01*
X133195171Y-67689990D01*
X133243216Y-67776009D01*
X133274424Y-67875032D01*
X133274689Y-67924809D01*
G37*
G36*
X127624161Y-67944410D02*
G01*
X127621951Y-68033016D01*
X127574964Y-68159037D01*
X127531665Y-68218587D01*
X127433153Y-68296620D01*
X127293893Y-68347598D01*
X127276450Y-68351457D01*
X127141250Y-68358077D01*
X127002492Y-68332789D01*
X126889200Y-68280409D01*
X126831569Y-68248478D01*
X126803766Y-68260892D01*
X126804776Y-68322792D01*
X126802462Y-68327827D01*
X126763308Y-68339998D01*
X126690533Y-68344867D01*
X126638242Y-68342926D01*
X126585947Y-68328004D01*
X126569750Y-68293360D01*
X126569125Y-68271792D01*
X126568277Y-68195617D01*
X126567701Y-68078714D01*
X126567444Y-67932376D01*
X126567550Y-67770938D01*
X126793546Y-67770938D01*
X126797225Y-67851877D01*
X126801134Y-67924008D01*
X126809293Y-67989327D01*
X126825317Y-68029187D01*
X126854512Y-68063158D01*
X126891026Y-68086037D01*
X126972926Y-68103883D01*
X127102550Y-68109409D01*
X127105287Y-68109408D01*
X127214308Y-68107097D01*
X127282346Y-68096839D01*
X127326866Y-68073478D01*
X127365338Y-68031859D01*
X127391984Y-67997167D01*
X127420529Y-67944410D01*
X127411395Y-67898170D01*
X127364471Y-67832670D01*
X127335089Y-67798264D01*
X127300733Y-67774022D01*
X127251123Y-67762123D01*
X127171742Y-67759349D01*
X127048074Y-67762478D01*
X126793546Y-67770938D01*
X126567550Y-67770938D01*
X126567552Y-67767895D01*
X126569400Y-67579005D01*
X126576584Y-67404545D01*
X126591257Y-67274036D01*
X126615607Y-67179471D01*
X126651817Y-67112843D01*
X126702072Y-67066148D01*
X126768558Y-67031379D01*
X126810963Y-67015332D01*
X126966573Y-66978637D01*
X127129109Y-66968283D01*
X127283182Y-66983164D01*
X127413403Y-67022176D01*
X127504382Y-67084213D01*
X127514267Y-67095290D01*
X127537143Y-67131274D01*
X127523979Y-67163011D01*
X127469262Y-67210298D01*
X127468615Y-67210814D01*
X127406847Y-67254092D01*
X127360660Y-67261707D01*
X127302910Y-67238211D01*
X127272239Y-67225905D01*
X127178547Y-67205196D01*
X127073275Y-67197010D01*
X126991175Y-67202917D01*
X126879584Y-67242638D01*
X126813394Y-67319329D01*
X126793209Y-67432483D01*
X126795577Y-67535481D01*
X127088883Y-67550989D01*
X127166068Y-67556211D01*
X127291846Y-67569669D01*
X127392027Y-67586542D01*
X127449987Y-67604374D01*
X127516715Y-67656066D01*
X127589024Y-67764656D01*
X127625370Y-67895930D01*
X127624161Y-67944410D01*
G37*
G36*
X128721708Y-66995020D02*
G01*
X128745102Y-67010473D01*
X128768201Y-67044757D01*
X128794744Y-67105289D01*
X128828469Y-67199486D01*
X128873114Y-67334765D01*
X128932417Y-67518543D01*
X128948876Y-67568821D01*
X128996385Y-67705721D01*
X129039166Y-67817645D01*
X129073066Y-67894150D01*
X129093935Y-67924795D01*
X129097689Y-67925442D01*
X129126024Y-67901140D01*
X129148675Y-67838720D01*
X129152473Y-67821644D01*
X129173693Y-67735040D01*
X129204089Y-67618173D01*
X129238420Y-67491332D01*
X129247446Y-67458582D01*
X129283646Y-67325827D01*
X129316326Y-67204034D01*
X129339334Y-67116072D01*
X129351039Y-67072067D01*
X129374954Y-67016434D01*
X129414237Y-66994700D01*
X129487728Y-66990985D01*
X129507924Y-66991412D01*
X129577662Y-67002384D01*
X129604322Y-67024863D01*
X129603714Y-67029792D01*
X129590866Y-67080731D01*
X129563759Y-67174696D01*
X129525600Y-67301430D01*
X129479599Y-67450676D01*
X129428965Y-67612179D01*
X129376906Y-67775683D01*
X129326632Y-67930930D01*
X129281352Y-68067665D01*
X129244273Y-68175631D01*
X129209205Y-68268378D01*
X129179342Y-68319613D01*
X129143248Y-68340739D01*
X129088885Y-68344867D01*
X129058902Y-68344630D01*
X129027279Y-68339761D01*
X129000884Y-68322900D01*
X128976051Y-68286641D01*
X128949116Y-68223578D01*
X128916415Y-68126305D01*
X128874283Y-67987416D01*
X128819057Y-67799504D01*
X128807888Y-67761801D01*
X128765187Y-67624722D01*
X128726805Y-67511876D01*
X128696575Y-67434084D01*
X128678330Y-67402169D01*
X128676026Y-67401322D01*
X128658354Y-67410585D01*
X128635527Y-67449781D01*
X128605558Y-67524303D01*
X128566458Y-67639545D01*
X128516241Y-67800897D01*
X128452918Y-68013754D01*
X128355766Y-68344867D01*
X128250224Y-68344867D01*
X128144682Y-68344867D01*
X128016405Y-67940174D01*
X128011355Y-67924251D01*
X127955845Y-67750276D01*
X127898598Y-67572461D01*
X127846079Y-67410806D01*
X127804749Y-67285307D01*
X127787466Y-67232957D01*
X127753531Y-67126825D01*
X127729946Y-67048270D01*
X127721015Y-67011367D01*
X127725117Y-67005538D01*
X127768480Y-66996123D01*
X127843981Y-66996651D01*
X127847008Y-66996864D01*
X127890597Y-66998738D01*
X127922957Y-67002700D01*
X127948024Y-67016532D01*
X127969739Y-67048015D01*
X127992039Y-67104927D01*
X128018863Y-67195050D01*
X128054148Y-67326164D01*
X128101834Y-67506049D01*
X128113787Y-67550684D01*
X128157109Y-67708180D01*
X128189891Y-67817668D01*
X128214745Y-67886621D01*
X128234288Y-67922512D01*
X128251133Y-67932816D01*
X128262585Y-67917410D01*
X128290532Y-67854440D01*
X128329870Y-67751404D01*
X128377130Y-67617493D01*
X128428845Y-67461900D01*
X128429820Y-67458882D01*
X128485542Y-67287391D01*
X128527323Y-67163937D01*
X128559146Y-67080628D01*
X128584994Y-67029570D01*
X128608850Y-67002872D01*
X128634699Y-66992641D01*
X128666524Y-66990985D01*
X128694282Y-66990981D01*
X128721708Y-66995020D01*
G37*
G36*
X134584527Y-65448964D02*
G01*
X134586681Y-65690132D01*
X134588482Y-65967272D01*
X134589794Y-66266945D01*
X134590555Y-66583940D01*
X134593082Y-68344868D01*
X134475353Y-68344850D01*
X134357624Y-68344832D01*
X134356340Y-67881292D01*
X134355546Y-67746032D01*
X134352681Y-67601082D01*
X134346850Y-67497726D01*
X134337038Y-67425921D01*
X134322232Y-67375617D01*
X134301420Y-67336770D01*
X134264939Y-67293948D01*
X134166738Y-67237033D01*
X134050177Y-67221100D01*
X133931990Y-67246910D01*
X133828913Y-67315227D01*
X133820805Y-67323715D01*
X133800475Y-67352463D01*
X133785799Y-67392876D01*
X133775578Y-67454394D01*
X133768612Y-67546456D01*
X133763700Y-67678503D01*
X133759641Y-67859974D01*
X133750303Y-68344867D01*
X133632217Y-68344867D01*
X133514131Y-68344867D01*
X133523827Y-67802444D01*
X133526341Y-67673776D01*
X133531850Y-67497730D01*
X133541186Y-67365645D01*
X133556946Y-67268159D01*
X133581727Y-67195910D01*
X133618126Y-67139534D01*
X133668740Y-67089668D01*
X133736167Y-67036952D01*
X133737093Y-67036264D01*
X133845805Y-66987821D01*
X133978832Y-66973400D01*
X134112973Y-66992616D01*
X134225027Y-67045083D01*
X134244759Y-67058923D01*
X134304229Y-67091014D01*
X134337864Y-67094135D01*
X134343656Y-67065625D01*
X134349449Y-66986659D01*
X134354183Y-66867388D01*
X134357480Y-66717590D01*
X134358964Y-66547047D01*
X134359127Y-66431669D01*
X134357856Y-66261740D01*
X134352883Y-66141520D01*
X134342246Y-66065081D01*
X134323981Y-66026496D01*
X134296124Y-66019838D01*
X134256711Y-66039177D01*
X134203778Y-66078586D01*
X134200846Y-66080842D01*
X134102586Y-66124159D01*
X133976760Y-66138460D01*
X133846171Y-66123685D01*
X133733619Y-66079778D01*
X133681794Y-66044511D01*
X133620211Y-65983191D01*
X133577971Y-65904399D01*
X133551768Y-65797867D01*
X133538296Y-65653327D01*
X133535798Y-65534298D01*
X133756560Y-65534298D01*
X133776659Y-65669638D01*
X133817594Y-65782169D01*
X133879686Y-65856977D01*
X133920530Y-65880595D01*
X134033656Y-65905927D01*
X134146607Y-65885234D01*
X134245670Y-65825545D01*
X134317134Y-65733889D01*
X134347287Y-65617293D01*
X134349748Y-65448964D01*
X134337700Y-65280390D01*
X134306185Y-65158803D01*
X134252593Y-65078603D01*
X134174310Y-65034190D01*
X134068725Y-65019963D01*
X134056795Y-65020036D01*
X133966075Y-65029735D01*
X133896999Y-65050828D01*
X133878120Y-65063139D01*
X133818077Y-65140570D01*
X133777590Y-65254850D01*
X133756977Y-65391064D01*
X133756560Y-65534298D01*
X133535798Y-65534298D01*
X133534250Y-65460510D01*
X133535762Y-65320355D01*
X133546028Y-65163447D01*
X133569304Y-65045950D01*
X133609458Y-64956656D01*
X133670353Y-64884355D01*
X133755855Y-64817836D01*
X133815776Y-64786215D01*
X133949839Y-64759433D01*
X134091360Y-64777530D01*
X134221218Y-64839613D01*
X134272256Y-64869114D01*
X134329488Y-64885563D01*
X134362767Y-64876769D01*
X134357624Y-64842433D01*
X134354068Y-64831535D01*
X134373542Y-64797542D01*
X134390592Y-64788836D01*
X134459368Y-64772159D01*
X134528191Y-64773158D01*
X134569197Y-64792544D01*
X134572521Y-64824877D01*
X134575833Y-64911160D01*
X134578968Y-65046040D01*
X134581862Y-65224303D01*
X134584454Y-65440738D01*
X134584527Y-65448964D01*
G37*
G36*
X130065118Y-54658887D02*
G01*
X130087862Y-54776259D01*
X130125875Y-54974352D01*
X130165084Y-55180488D01*
X130199879Y-55365261D01*
X130203189Y-55383162D01*
X130223927Y-55502176D01*
X130241323Y-55592754D01*
X130262470Y-55661550D01*
X130294459Y-55715214D01*
X130344381Y-55760400D01*
X130419328Y-55803761D01*
X130526392Y-55851949D01*
X130672665Y-55911616D01*
X130865239Y-55989415D01*
X131287471Y-56161886D01*
X131601111Y-55949782D01*
X131713219Y-55873753D01*
X131880136Y-55759997D01*
X132044774Y-55647265D01*
X132183850Y-55551469D01*
X132278214Y-55487297D01*
X132375127Y-55424082D01*
X132445805Y-55381112D01*
X132479335Y-55365261D01*
X132490406Y-55371989D01*
X132538683Y-55413474D01*
X132618519Y-55487749D01*
X132723770Y-55588950D01*
X132848291Y-55711214D01*
X132985938Y-55848677D01*
X133001514Y-55864372D01*
X133171588Y-56038229D01*
X133299448Y-56174287D01*
X133386447Y-56274089D01*
X133433933Y-56339179D01*
X133443260Y-56371099D01*
X133442308Y-56372689D01*
X133414980Y-56414695D01*
X133362149Y-56493567D01*
X133291016Y-56598613D01*
X133208785Y-56719142D01*
X133137858Y-56822807D01*
X133006262Y-57015777D01*
X132903239Y-57168186D01*
X132825398Y-57285396D01*
X132769346Y-57372770D01*
X132731693Y-57435671D01*
X132709046Y-57479462D01*
X132698014Y-57509505D01*
X132695204Y-57531162D01*
X132695248Y-57532175D01*
X132707719Y-57576890D01*
X132739114Y-57663510D01*
X132784748Y-57780748D01*
X132839937Y-57917315D01*
X132899994Y-58061923D01*
X132960236Y-58203283D01*
X133015978Y-58330108D01*
X133062534Y-58431109D01*
X133095219Y-58494999D01*
X133096709Y-58497383D01*
X133124744Y-58521114D01*
X133181103Y-58544720D01*
X133273272Y-58570311D01*
X133408739Y-58599997D01*
X133594993Y-58635890D01*
X133671063Y-58650061D01*
X133851759Y-58684203D01*
X134024008Y-58717350D01*
X134171321Y-58746310D01*
X134277214Y-58767894D01*
X134491125Y-58813079D01*
X134483239Y-59508114D01*
X134475353Y-60203149D01*
X134387057Y-60225660D01*
X134386928Y-60225693D01*
X134330433Y-60238090D01*
X134226885Y-60258942D01*
X134087093Y-60286145D01*
X133921865Y-60317596D01*
X133742009Y-60351192D01*
X133732418Y-60352972D01*
X133557562Y-60387061D01*
X133402055Y-60420349D01*
X133275563Y-60450536D01*
X133187750Y-60475324D01*
X133148282Y-60492414D01*
X133127680Y-60527826D01*
X133089927Y-60608722D01*
X133040134Y-60723439D01*
X132982702Y-60860996D01*
X132922032Y-61010409D01*
X132862525Y-61160697D01*
X132808581Y-61300876D01*
X132764601Y-61419963D01*
X132734986Y-61506977D01*
X132724137Y-61550934D01*
X132727450Y-61564351D01*
X132756141Y-61622859D01*
X132807930Y-61709845D01*
X132875078Y-61811929D01*
X132940817Y-61907582D01*
X133037695Y-62048452D01*
X133142925Y-62201397D01*
X133242980Y-62346751D01*
X133257503Y-62367884D01*
X133336648Y-62484603D01*
X133400957Y-62582012D01*
X133444149Y-62650454D01*
X133459942Y-62680275D01*
X133452465Y-62690924D01*
X133409915Y-62738136D01*
X133334791Y-62817040D01*
X133232908Y-62921634D01*
X133110081Y-63045914D01*
X132972125Y-63183877D01*
X132484308Y-63669051D01*
X132405555Y-63618901D01*
X132388853Y-63608015D01*
X132319877Y-63561691D01*
X132218009Y-63492284D01*
X132094074Y-63407191D01*
X131958899Y-63313805D01*
X131905282Y-63276743D01*
X131768709Y-63183145D01*
X131644819Y-63099306D01*
X131545465Y-63033216D01*
X131482505Y-62992859D01*
X131374013Y-62926861D01*
X131108709Y-63060105D01*
X131029858Y-63098445D01*
X130930662Y-63142488D01*
X130860239Y-63168469D01*
X130830250Y-63171715D01*
X130825322Y-63161492D01*
X130800860Y-63104913D01*
X130760559Y-63008766D01*
X130708621Y-62883116D01*
X130649247Y-62738030D01*
X130623695Y-62675400D01*
X130562885Y-62527105D01*
X130508931Y-62396536D01*
X130466919Y-62295971D01*
X130441935Y-62237682D01*
X130410660Y-62165734D01*
X130363573Y-62054508D01*
X130305657Y-61915904D01*
X130240629Y-61759001D01*
X130172208Y-61592880D01*
X130104112Y-61426620D01*
X130040059Y-61269301D01*
X129983767Y-61130001D01*
X129938956Y-61017802D01*
X129909342Y-60941782D01*
X129898644Y-60911021D01*
X129899925Y-60908991D01*
X129931631Y-60882086D01*
X129997222Y-60832279D01*
X130085109Y-60768432D01*
X130116333Y-60745766D01*
X130358214Y-60536926D01*
X130545023Y-60307921D01*
X130677347Y-60057670D01*
X130755774Y-59785094D01*
X130780891Y-59489111D01*
X130764550Y-59290309D01*
X130694957Y-59023076D01*
X130575148Y-58770887D01*
X130409924Y-58545947D01*
X130261574Y-58401693D01*
X130026482Y-58238541D01*
X129769077Y-58126123D01*
X129495698Y-58065653D01*
X129212689Y-58058344D01*
X128926390Y-58105408D01*
X128643143Y-58208057D01*
X128563270Y-58250538D01*
X128381345Y-58382434D01*
X128210125Y-58551499D01*
X128063285Y-58743143D01*
X127954500Y-58942774D01*
X127934152Y-58990707D01*
X127896964Y-59085913D01*
X127873530Y-59167964D01*
X127860696Y-59254860D01*
X127855309Y-59364606D01*
X127854214Y-59515203D01*
X127854335Y-59579650D01*
X127856756Y-59712511D01*
X127864686Y-59811365D01*
X127881227Y-59894116D01*
X127909479Y-59978671D01*
X127952545Y-60082936D01*
X127964421Y-60109871D01*
X128103175Y-60350915D01*
X128292068Y-60569714D01*
X128534630Y-60770439D01*
X128556753Y-60786287D01*
X128640482Y-60847535D01*
X128699208Y-60892535D01*
X128721356Y-60912483D01*
X128716754Y-60925310D01*
X128692819Y-60985806D01*
X128650820Y-61089926D01*
X128593435Y-61231131D01*
X128523342Y-61402880D01*
X128443218Y-61598635D01*
X128355742Y-61811855D01*
X128263591Y-62036001D01*
X128169443Y-62264534D01*
X128075977Y-62490912D01*
X127985870Y-62708598D01*
X127944247Y-62808356D01*
X127885440Y-62946948D01*
X127836295Y-63059954D01*
X127801022Y-63137742D01*
X127783832Y-63170682D01*
X127768363Y-63171200D01*
X127709129Y-63152236D01*
X127617849Y-63113366D01*
X127506631Y-63059449D01*
X127248453Y-62927615D01*
X127124012Y-63003043D01*
X127098039Y-63019249D01*
X127011796Y-63075473D01*
X126894855Y-63153683D01*
X126759235Y-63245805D01*
X126616952Y-63343763D01*
X126540622Y-63396564D01*
X126412771Y-63484426D01*
X126304464Y-63558134D01*
X126225282Y-63611185D01*
X126184808Y-63637076D01*
X126171260Y-63640513D01*
X126140520Y-63631277D01*
X126093742Y-63600541D01*
X126025997Y-63544095D01*
X125932356Y-63457732D01*
X125807890Y-63337243D01*
X125647670Y-63178418D01*
X125561738Y-63092452D01*
X125432572Y-62962426D01*
X125322031Y-62850147D01*
X125235906Y-62761545D01*
X125179985Y-62702548D01*
X125160058Y-62679085D01*
X125163350Y-62672604D01*
X125192739Y-62626338D01*
X125248671Y-62541948D01*
X125326370Y-62426547D01*
X125421059Y-62287251D01*
X125527960Y-62131174D01*
X125574483Y-62063113D01*
X125677255Y-61909908D01*
X125765626Y-61774226D01*
X125834749Y-61663736D01*
X125879777Y-61586109D01*
X125895863Y-61549012D01*
X125886920Y-61511312D01*
X125858868Y-61427937D01*
X125816022Y-61311457D01*
X125762801Y-61172894D01*
X125703627Y-61023272D01*
X125642919Y-60873613D01*
X125585100Y-60734941D01*
X125534590Y-60618278D01*
X125495809Y-60534647D01*
X125473178Y-60495070D01*
X125437091Y-60477561D01*
X125353992Y-60452381D01*
X125237715Y-60424081D01*
X125101193Y-60396102D01*
X125008416Y-60378546D01*
X124816392Y-60341471D01*
X124621323Y-60303040D01*
X124453685Y-60269224D01*
X124144646Y-60205771D01*
X124136761Y-59509451D01*
X124134951Y-59336274D01*
X124133831Y-59155614D01*
X124134541Y-59021322D01*
X124137519Y-58926315D01*
X124143206Y-58863504D01*
X124152041Y-58825806D01*
X124164462Y-58806132D01*
X124180909Y-58797399D01*
X124190139Y-58794971D01*
X124252936Y-58781446D01*
X124357741Y-58760764D01*
X124492459Y-58735271D01*
X124644994Y-58707315D01*
X124845507Y-58671026D01*
X125047521Y-58633922D01*
X125203192Y-58604242D01*
X125318962Y-58580428D01*
X125401276Y-58560927D01*
X125456574Y-58544183D01*
X125491302Y-58528641D01*
X125511900Y-58512745D01*
X125524813Y-58494941D01*
X125558558Y-58429222D01*
X125606096Y-58326190D01*
X125662478Y-58197647D01*
X125723032Y-58054922D01*
X125783084Y-57909348D01*
X125837960Y-57772256D01*
X125882986Y-57654977D01*
X125913490Y-57568842D01*
X125924796Y-57525183D01*
X125924389Y-57521393D01*
X125903380Y-57472010D01*
X125854230Y-57384379D01*
X125782066Y-57266894D01*
X125692020Y-57127951D01*
X125589219Y-56975947D01*
X125576401Y-56957369D01*
X125471003Y-56804397D01*
X125374853Y-56664491D01*
X125294006Y-56546491D01*
X125234520Y-56459233D01*
X125202452Y-56411557D01*
X125151761Y-56334193D01*
X125633020Y-55849727D01*
X125714272Y-55768283D01*
X125845003Y-55638802D01*
X125958924Y-55527907D01*
X126049927Y-55441450D01*
X126111902Y-55385283D01*
X126138740Y-55365261D01*
X126154050Y-55370628D01*
X126187714Y-55389479D01*
X126243718Y-55424710D01*
X126326384Y-55479207D01*
X126440030Y-55555858D01*
X126588977Y-55657551D01*
X126777545Y-55787172D01*
X127010053Y-55947609D01*
X127109402Y-56013417D01*
X127215938Y-56077436D01*
X127299791Y-56120606D01*
X127348524Y-56136007D01*
X127374374Y-56131509D01*
X127452256Y-56107426D01*
X127563243Y-56066706D01*
X127696325Y-56014058D01*
X127840491Y-55954188D01*
X127984729Y-55891803D01*
X128118027Y-55831610D01*
X128229376Y-55778316D01*
X128307764Y-55736628D01*
X128342179Y-55711252D01*
X128346463Y-55700639D01*
X128363377Y-55637769D01*
X128386743Y-55532992D01*
X128414060Y-55397920D01*
X128442825Y-55244165D01*
X128447092Y-55220512D01*
X128480049Y-55040902D01*
X128514186Y-54859410D01*
X128545710Y-54695989D01*
X128570830Y-54570591D01*
X128622638Y-54320417D01*
X129310892Y-54320417D01*
X129999145Y-54320417D01*
X130065118Y-54658887D01*
G37*
G36*
X131956319Y-104234478D02*
G01*
X131938873Y-104251923D01*
X131921428Y-104234478D01*
X131938873Y-104217033D01*
X131956319Y-104234478D01*
G37*
G36*
X131991209Y-104321703D02*
G01*
X131988691Y-104340174D01*
X131967949Y-104344963D01*
X131963773Y-104339849D01*
X131967949Y-104298443D01*
X131978443Y-104292984D01*
X131991209Y-104321703D01*
G37*
G36*
X126406037Y-105871405D02*
G01*
X126403570Y-105906793D01*
X126387712Y-105917199D01*
X126380798Y-105904855D01*
X126384957Y-105850326D01*
X126397516Y-105834176D01*
X126406037Y-105871405D01*
G37*
G36*
X130665384Y-111509066D02*
G01*
X130665384Y-112137088D01*
X130543269Y-112137088D01*
X130421154Y-112137088D01*
X130421154Y-111509066D01*
X130421154Y-110881044D01*
X130543269Y-110881044D01*
X130665384Y-110881044D01*
X130665384Y-111509066D01*
G37*
G36*
X123652472Y-111509066D02*
G01*
X123652472Y-112137088D01*
X123530357Y-112137088D01*
X123408242Y-112137088D01*
X123408242Y-111509066D01*
X123408242Y-110881044D01*
X123530357Y-110881044D01*
X123652472Y-110881044D01*
X123652472Y-111509066D01*
G37*
G36*
X123164011Y-111509066D02*
G01*
X123164011Y-112137088D01*
X122717541Y-112137088D01*
X122271071Y-112137088D01*
X122272692Y-112041140D01*
X122274313Y-111945192D01*
X122597047Y-111935160D01*
X122919780Y-111925128D01*
X122919780Y-111403086D01*
X122919780Y-110881044D01*
X123041895Y-110881044D01*
X123164011Y-110881044D01*
X123164011Y-111509066D01*
G37*
G36*
X124734066Y-110985714D02*
G01*
X124734066Y-111090384D01*
X124435348Y-111090384D01*
X124136630Y-111090384D01*
X124469796Y-111482898D01*
X124562131Y-111592484D01*
X124667132Y-111721678D01*
X124736894Y-111816882D01*
X124778284Y-111888866D01*
X124798166Y-111948399D01*
X124803404Y-112006250D01*
X124803846Y-112137088D01*
X124297939Y-112137088D01*
X123792033Y-112137088D01*
X123792033Y-112032417D01*
X123792033Y-111927747D01*
X124158942Y-111927747D01*
X124525852Y-111927747D01*
X124176387Y-111513124D01*
X124153199Y-111485559D01*
X124019441Y-111323190D01*
X123926047Y-111201580D01*
X123866903Y-111111576D01*
X123835899Y-111044025D01*
X123826923Y-110989773D01*
X123826923Y-110881044D01*
X124280494Y-110881044D01*
X124734066Y-110881044D01*
X124734066Y-110985714D01*
G37*
G36*
X132270330Y-111509066D02*
G01*
X132270330Y-112137088D01*
X131820827Y-112137088D01*
X131727657Y-112136919D01*
X131569549Y-112134845D01*
X131464643Y-112129210D01*
X131401574Y-112118523D01*
X131368978Y-112101294D01*
X131355489Y-112076030D01*
X131353670Y-112068844D01*
X131345625Y-112006000D01*
X131365568Y-111964987D01*
X131423921Y-111941286D01*
X131531108Y-111930379D01*
X131697550Y-111927747D01*
X132026099Y-111927747D01*
X132026099Y-111753296D01*
X132026099Y-111578846D01*
X131717476Y-111578846D01*
X131408853Y-111578846D01*
X131413896Y-111482898D01*
X131418938Y-111386950D01*
X131722519Y-111376869D01*
X132026099Y-111366788D01*
X132026099Y-111228586D01*
X132026099Y-111090384D01*
X131694643Y-111090384D01*
X131363187Y-111090384D01*
X131363187Y-110985714D01*
X131363187Y-110881044D01*
X131816758Y-110881044D01*
X132270330Y-110881044D01*
X132270330Y-111509066D01*
G37*
G36*
X133526373Y-111090384D02*
G01*
X133526373Y-111509159D01*
X133526373Y-112143626D01*
X133179929Y-112131634D01*
X133135399Y-112129980D01*
X132978316Y-112120736D01*
X132870407Y-112105839D01*
X132794914Y-112082071D01*
X132735080Y-112046215D01*
X132684938Y-112005280D01*
X132581088Y-111878321D01*
X132523356Y-111719552D01*
X132505382Y-111514244D01*
X132507474Y-111428505D01*
X132511947Y-111398865D01*
X132763858Y-111398865D01*
X132766678Y-111603699D01*
X132779650Y-111707800D01*
X132809852Y-111801747D01*
X132861955Y-111863763D01*
X132950093Y-111907890D01*
X133111557Y-111927747D01*
X133282143Y-111927747D01*
X133282143Y-111509066D01*
X133282143Y-111090384D01*
X133107692Y-111090384D01*
X132983968Y-111102127D01*
X132868921Y-111153471D01*
X132796745Y-111250586D01*
X132763858Y-111398865D01*
X132511947Y-111398865D01*
X132534141Y-111251804D01*
X132597671Y-111111062D01*
X132705863Y-110985714D01*
X132754099Y-110946009D01*
X132807901Y-110919657D01*
X132883218Y-110903297D01*
X132996138Y-110893438D01*
X133162750Y-110886590D01*
X133526373Y-110874692D01*
X133526373Y-111090384D01*
G37*
G36*
X129451846Y-111284949D02*
G01*
X129461676Y-111688854D01*
X129699219Y-111284949D01*
X129713375Y-111260888D01*
X129806030Y-111105147D01*
X129873279Y-110999076D01*
X129923553Y-110933153D01*
X129965284Y-110897855D01*
X130006904Y-110883659D01*
X130056843Y-110881044D01*
X130176923Y-110881044D01*
X130176923Y-111509066D01*
X130176923Y-112137088D01*
X130072253Y-112137088D01*
X130047170Y-112137391D01*
X130014374Y-112135129D01*
X129991250Y-112121039D01*
X129975915Y-112085466D01*
X129966482Y-112018755D01*
X129961068Y-111911249D01*
X129957786Y-111753294D01*
X129954752Y-111535233D01*
X129952931Y-111480469D01*
X129945112Y-111400896D01*
X129933833Y-111369703D01*
X129932829Y-111370054D01*
X129905405Y-111403992D01*
X129850577Y-111485336D01*
X129775784Y-111602719D01*
X129688461Y-111744772D01*
X129603147Y-111884661D01*
X129531547Y-111995811D01*
X129477873Y-112065875D01*
X129432768Y-112104946D01*
X129386875Y-112123114D01*
X129330838Y-112130471D01*
X129200000Y-112141300D01*
X129200000Y-111511172D01*
X129200000Y-110881044D01*
X129321008Y-110881044D01*
X129442016Y-110881044D01*
X129451846Y-111284949D01*
G37*
G36*
X134712288Y-111648626D02*
G01*
X134884142Y-112137088D01*
X134751639Y-112137088D01*
X134722657Y-112136822D01*
X134649556Y-112126246D01*
X134607815Y-112086161D01*
X134573077Y-111997527D01*
X134527018Y-111857967D01*
X134276449Y-111857967D01*
X134025880Y-111857967D01*
X133984067Y-111997527D01*
X133973316Y-112032381D01*
X133941627Y-112103358D01*
X133893710Y-112131857D01*
X133804902Y-112137088D01*
X133667551Y-112137088D01*
X133827106Y-111692239D01*
X133832679Y-111676699D01*
X133850150Y-111627875D01*
X134119505Y-111627875D01*
X134130295Y-111635111D01*
X134192125Y-111644821D01*
X134290541Y-111648626D01*
X134461577Y-111648626D01*
X134416644Y-111500343D01*
X134409276Y-111476528D01*
X134365322Y-111346076D01*
X134321493Y-111229945D01*
X134271276Y-111107829D01*
X134195391Y-111357476D01*
X134189466Y-111377031D01*
X134153996Y-111497037D01*
X134128977Y-111586705D01*
X134119505Y-111627875D01*
X133850150Y-111627875D01*
X133898064Y-111493976D01*
X133960187Y-111319735D01*
X134012262Y-111173036D01*
X134047508Y-111072939D01*
X134083716Y-110975905D01*
X134120208Y-110920585D01*
X134175564Y-110897107D01*
X134271071Y-110887849D01*
X134273524Y-110887684D01*
X134327638Y-110882353D01*
X134369201Y-110880119D01*
X134402834Y-110888765D01*
X134433159Y-110916075D01*
X134464799Y-110969833D01*
X134502375Y-111057822D01*
X134550509Y-111187826D01*
X134613825Y-111367629D01*
X134696944Y-111605013D01*
X134712288Y-111648626D01*
G37*
G36*
X125885090Y-111648626D02*
G01*
X126056945Y-112137088D01*
X125920202Y-112137088D01*
X125885267Y-112136776D01*
X125813168Y-112126264D01*
X125774776Y-112086309D01*
X125745879Y-111997527D01*
X125708299Y-111857967D01*
X125453491Y-111857967D01*
X125198683Y-111857967D01*
X125156869Y-111997527D01*
X125146343Y-112031669D01*
X125114635Y-112103045D01*
X125066963Y-112131779D01*
X124978812Y-112137088D01*
X124842569Y-112137088D01*
X125018168Y-111639903D01*
X125022412Y-111627875D01*
X125292308Y-111627875D01*
X125302916Y-111635065D01*
X125364486Y-111644807D01*
X125462684Y-111648626D01*
X125633061Y-111648626D01*
X125562743Y-111413118D01*
X125561418Y-111408690D01*
X125522888Y-111287977D01*
X125488794Y-111194689D01*
X125466379Y-111148696D01*
X125462259Y-111148502D01*
X125438650Y-111185255D01*
X125404092Y-111264212D01*
X125365382Y-111366663D01*
X125329316Y-111473898D01*
X125302693Y-111567205D01*
X125292308Y-111627875D01*
X125022412Y-111627875D01*
X125044033Y-111566592D01*
X125107826Y-111385139D01*
X125164374Y-111223428D01*
X125208322Y-111096802D01*
X125234315Y-111020604D01*
X125249343Y-110978326D01*
X125282439Y-110923707D01*
X125338417Y-110898575D01*
X125440725Y-110887849D01*
X125443763Y-110887647D01*
X125498757Y-110882287D01*
X125540976Y-110880040D01*
X125575074Y-110888687D01*
X125605705Y-110916007D01*
X125637522Y-110969781D01*
X125675181Y-111057789D01*
X125723335Y-111187810D01*
X125786639Y-111367625D01*
X125869746Y-111605013D01*
X125885090Y-111648626D01*
G37*
G36*
X128432417Y-111087055D02*
G01*
X128432417Y-111509066D01*
X128432417Y-111578846D01*
X128432417Y-112137088D01*
X128057349Y-112136957D01*
X127842901Y-112130503D01*
X127675718Y-112107731D01*
X127557813Y-112064972D01*
X127479302Y-111998570D01*
X127430301Y-111904864D01*
X127409446Y-111785942D01*
X127411423Y-111772006D01*
X127664835Y-111772006D01*
X127678229Y-111829718D01*
X127732322Y-111891629D01*
X127771891Y-111905176D01*
X127872650Y-111921413D01*
X127993997Y-111927747D01*
X128188187Y-111927747D01*
X128188187Y-111753296D01*
X128188187Y-111578846D01*
X127981338Y-111578846D01*
X127876869Y-111583584D01*
X127754421Y-111613613D01*
X127686068Y-111675001D01*
X127664835Y-111772006D01*
X127411423Y-111772006D01*
X127427969Y-111655368D01*
X127484581Y-111549118D01*
X127572273Y-111487777D01*
X127592003Y-111481132D01*
X127621719Y-111459161D01*
X127589831Y-111426142D01*
X127555328Y-111396766D01*
X127484001Y-111285658D01*
X127475044Y-111209820D01*
X127696679Y-111209820D01*
X127720976Y-111291002D01*
X127757074Y-111324313D01*
X127838037Y-111349531D01*
X127973751Y-111362447D01*
X128188187Y-111372835D01*
X128188187Y-111229945D01*
X128188187Y-111087055D01*
X127973751Y-111097442D01*
X127844816Y-111111691D01*
X127738234Y-111149838D01*
X127696679Y-111209820D01*
X127475044Y-111209820D01*
X127469312Y-111161291D01*
X127510575Y-111042573D01*
X127607107Y-110948417D01*
X127619814Y-110940949D01*
X127687984Y-110911225D01*
X127775318Y-110892967D01*
X127898644Y-110883757D01*
X128074794Y-110881174D01*
X128432417Y-110881044D01*
X128432417Y-111087055D01*
G37*
G36*
X127176373Y-111090384D02*
G01*
X127176373Y-111509066D01*
X127176373Y-112137088D01*
X127054258Y-112137088D01*
X126932143Y-112137088D01*
X126932143Y-111875412D01*
X126931999Y-111820457D01*
X126928835Y-111708230D01*
X126918459Y-111646050D01*
X126896870Y-111619394D01*
X126860069Y-111613736D01*
X126849804Y-111613879D01*
X126769279Y-111629057D01*
X126694533Y-111676451D01*
X126613577Y-111766294D01*
X126514427Y-111908819D01*
X126468742Y-111978169D01*
X126404982Y-112066154D01*
X126354192Y-112113765D01*
X126301052Y-112133308D01*
X126230242Y-112137088D01*
X126202711Y-112136815D01*
X126125713Y-112132314D01*
X126094780Y-112124037D01*
X126096834Y-112113137D01*
X126126473Y-112049131D01*
X126181607Y-111955113D01*
X126249708Y-111850592D01*
X126318250Y-111755078D01*
X126374705Y-111688080D01*
X126473455Y-111589330D01*
X126355729Y-111533190D01*
X126264682Y-111465356D01*
X126199761Y-111353681D01*
X126183287Y-111247390D01*
X126443681Y-111247390D01*
X126450594Y-111294506D01*
X126485549Y-111362527D01*
X126521264Y-111379896D01*
X126612423Y-111397554D01*
X126729780Y-111404395D01*
X126932143Y-111404395D01*
X126932143Y-111247390D01*
X126932143Y-111090384D01*
X126729780Y-111090384D01*
X126635278Y-111093688D01*
X126522442Y-111116710D01*
X126461773Y-111166190D01*
X126443681Y-111247390D01*
X126183287Y-111247390D01*
X126179803Y-111224912D01*
X126204030Y-111097281D01*
X126271664Y-110989021D01*
X126381930Y-110918363D01*
X126416858Y-110909569D01*
X126525946Y-110894921D01*
X126671795Y-110884813D01*
X126832679Y-110881044D01*
X127176373Y-110881044D01*
X127176373Y-111090384D01*
G37*
G36*
X135497495Y-111299020D02*
G01*
X135501021Y-111313656D01*
X135539776Y-111469842D01*
X135573000Y-111595603D01*
X135597261Y-111678427D01*
X135609123Y-111705803D01*
X135611580Y-111701073D01*
X135629116Y-111647223D01*
X135657431Y-111547510D01*
X135691715Y-111418664D01*
X135697048Y-111398055D01*
X135736026Y-111247714D01*
X135771886Y-111109800D01*
X135797461Y-111011881D01*
X135831810Y-110881044D01*
X136022361Y-110881044D01*
X136212912Y-110881044D01*
X136212912Y-111509066D01*
X136212912Y-112137088D01*
X136090797Y-112137088D01*
X135968681Y-112137088D01*
X135967620Y-111674794D01*
X135966978Y-111572419D01*
X135962680Y-111406856D01*
X135953550Y-111310005D01*
X135938569Y-111281194D01*
X135916716Y-111319753D01*
X135886969Y-111425009D01*
X135848309Y-111596291D01*
X135846029Y-111606998D01*
X135803195Y-111806895D01*
X135770546Y-111948940D01*
X135743618Y-112043011D01*
X135717943Y-112098985D01*
X135689057Y-112126737D01*
X135652494Y-112136146D01*
X135603787Y-112137088D01*
X135585705Y-112137423D01*
X135549428Y-112138168D01*
X135521458Y-112131818D01*
X135498371Y-112109674D01*
X135476743Y-112063034D01*
X135453151Y-111983198D01*
X135424168Y-111861464D01*
X135386373Y-111689132D01*
X135336339Y-111457501D01*
X135318176Y-111377567D01*
X135297888Y-111309735D01*
X135282259Y-111298178D01*
X135267025Y-111335386D01*
X135260355Y-111372347D01*
X135250622Y-111476690D01*
X135243252Y-111618956D01*
X135239467Y-111779464D01*
X135235989Y-112137088D01*
X135121966Y-112137088D01*
X135007944Y-112137088D01*
X135002030Y-111509066D01*
X134996116Y-110881044D01*
X135196589Y-110881044D01*
X135397062Y-110881044D01*
X135497495Y-111299020D01*
G37*
G36*
X132018911Y-104444537D02*
G01*
X132057853Y-104518552D01*
X132090722Y-104643652D01*
X132115783Y-104811866D01*
X132131302Y-105015222D01*
X132135545Y-105245748D01*
X132135331Y-105265748D01*
X132098747Y-105730476D01*
X132000969Y-106162773D01*
X131840670Y-106566006D01*
X131616525Y-106943541D01*
X131327208Y-107298748D01*
X131078927Y-107535657D01*
X130712730Y-107802825D01*
X130311164Y-108012947D01*
X129882921Y-108160834D01*
X129848979Y-108169236D01*
X129607512Y-108208953D01*
X129328508Y-108227920D01*
X129036990Y-108226143D01*
X128757980Y-108203631D01*
X128516501Y-108160392D01*
X128486637Y-108152741D01*
X128089707Y-108015305D01*
X127716553Y-107820831D01*
X127374551Y-107576246D01*
X127071080Y-107288474D01*
X126813517Y-106964441D01*
X126609239Y-106611071D01*
X126465623Y-106235289D01*
X126449073Y-106177216D01*
X126420082Y-106067037D01*
X126412152Y-106013813D01*
X126425016Y-106010691D01*
X126458404Y-106050817D01*
X126468691Y-106064712D01*
X126502045Y-106097334D01*
X126539799Y-106089475D01*
X126606687Y-106039199D01*
X127050069Y-105701652D01*
X127550437Y-105370354D01*
X128051818Y-105094543D01*
X128566214Y-104868375D01*
X129105627Y-104686003D01*
X129682059Y-104541585D01*
X129766855Y-104524180D01*
X129933001Y-104494868D01*
X130101213Y-104473145D01*
X130288416Y-104457418D01*
X130511536Y-104446095D01*
X130787500Y-104437583D01*
X131010405Y-104433900D01*
X131234635Y-104433875D01*
X131433211Y-104437539D01*
X131591443Y-104444613D01*
X131694643Y-104454819D01*
X131728772Y-104460268D01*
X131842468Y-104472854D01*
X131913001Y-104466289D01*
X131960164Y-104439424D01*
X131975628Y-104429580D01*
X132018911Y-104444537D01*
G37*
G36*
X129312768Y-102352146D02*
G01*
X129568566Y-102357355D01*
X129777718Y-102372961D01*
X129957533Y-102402445D01*
X130125320Y-102449293D01*
X130298390Y-102516986D01*
X130494050Y-102609009D01*
X130517672Y-102620888D01*
X130743497Y-102750863D01*
X130970401Y-102907793D01*
X131185435Y-103080573D01*
X131375649Y-103258100D01*
X131528096Y-103429269D01*
X131629826Y-103582978D01*
X131640950Y-103604215D01*
X131695963Y-103697407D01*
X131743102Y-103761545D01*
X131747704Y-103766825D01*
X131787284Y-103827872D01*
X131833018Y-103914365D01*
X131870805Y-103997928D01*
X131886543Y-104050184D01*
X131886394Y-104050359D01*
X131848752Y-104052951D01*
X131750862Y-104055322D01*
X131601672Y-104057374D01*
X131410131Y-104059008D01*
X131185187Y-104060126D01*
X130935787Y-104060629D01*
X130801755Y-104060766D01*
X130541324Y-104061703D01*
X130333833Y-104064165D01*
X130167579Y-104068950D01*
X130030858Y-104076859D01*
X129911967Y-104088693D01*
X129799203Y-104105254D01*
X129680865Y-104127340D01*
X129545247Y-104155753D01*
X129200817Y-104236986D01*
X128633842Y-104407723D01*
X128102396Y-104620025D01*
X127593010Y-104880331D01*
X127092218Y-105195084D01*
X126586553Y-105570722D01*
X126576231Y-105578906D01*
X126468312Y-105657450D01*
X126399160Y-105690371D01*
X126359898Y-105682028D01*
X126348685Y-105657167D01*
X126334915Y-105563572D01*
X126327450Y-105409497D01*
X126326681Y-105200592D01*
X126328637Y-105086007D01*
X126336822Y-104899445D01*
X126353267Y-104747071D01*
X126381001Y-104605299D01*
X126423057Y-104450536D01*
X126463319Y-104324343D01*
X126642966Y-103901848D01*
X126878048Y-103520271D01*
X127165663Y-103182660D01*
X127502909Y-102892064D01*
X127886884Y-102651529D01*
X128314686Y-102464103D01*
X128416579Y-102428485D01*
X128515244Y-102397873D01*
X128607523Y-102376934D01*
X128708650Y-102363778D01*
X128833857Y-102356514D01*
X128998378Y-102353255D01*
X129217445Y-102352108D01*
X129312768Y-102352146D01*
G37*
G36*
X136701373Y-105297351D02*
G01*
X136701373Y-105333516D01*
X136701373Y-110287912D01*
X129200000Y-110287912D01*
X121698626Y-110287912D01*
X121698626Y-105333516D01*
X121698626Y-105276161D01*
X122473402Y-105276161D01*
X122474110Y-105316943D01*
X122501562Y-105336052D01*
X122581334Y-105389399D01*
X122705768Y-105471809D01*
X122867533Y-105578478D01*
X123059301Y-105704605D01*
X123273742Y-105845389D01*
X123503526Y-105996028D01*
X123741325Y-106151722D01*
X123979808Y-106307667D01*
X124211646Y-106459064D01*
X124429510Y-106601110D01*
X124626070Y-106729005D01*
X124793997Y-106837945D01*
X124925961Y-106923131D01*
X124976883Y-106955914D01*
X125044782Y-106999787D01*
X125120056Y-107048640D01*
X125206945Y-107105261D01*
X125309688Y-107172435D01*
X125432525Y-107252949D01*
X125579696Y-107349589D01*
X125755441Y-107465142D01*
X125964000Y-107602394D01*
X126209612Y-107764132D01*
X126496517Y-107953142D01*
X126828955Y-108172210D01*
X127211166Y-108424123D01*
X127647390Y-108711667D01*
X127665746Y-108723767D01*
X127906364Y-108882277D01*
X128145443Y-109039612D01*
X128371642Y-109188319D01*
X128573620Y-109320947D01*
X128740038Y-109430044D01*
X128859554Y-109508159D01*
X128987941Y-109591372D01*
X129100047Y-109663114D01*
X129177502Y-109711621D01*
X129208455Y-109729378D01*
X129223449Y-109720545D01*
X129288933Y-109678642D01*
X129398933Y-109607040D01*
X129545371Y-109511024D01*
X129720168Y-109395880D01*
X129915247Y-109266895D01*
X130407274Y-108941868D01*
X131132078Y-108466647D01*
X131811876Y-108025565D01*
X132453467Y-107614196D01*
X132488849Y-107591652D01*
X132694972Y-107460136D01*
X132895312Y-107332033D01*
X133076594Y-107215848D01*
X133225541Y-107120088D01*
X133328878Y-107053261D01*
X133415965Y-106996971D01*
X133562255Y-106903131D01*
X133740191Y-106789505D01*
X133934860Y-106665612D01*
X134131351Y-106540974D01*
X134378027Y-106384711D01*
X134727634Y-106162850D01*
X135024703Y-105973674D01*
X135273290Y-105814488D01*
X135477451Y-105682599D01*
X135641241Y-105575312D01*
X135768715Y-105489932D01*
X135863930Y-105423767D01*
X135930941Y-105374120D01*
X135973803Y-105338298D01*
X135996572Y-105313606D01*
X136003303Y-105297351D01*
X135996438Y-105280882D01*
X135944314Y-105226166D01*
X135852109Y-105152437D01*
X135733173Y-105070886D01*
X135689186Y-105042556D01*
X135566484Y-104962633D01*
X135400089Y-104853515D01*
X135199414Y-104721404D01*
X134973873Y-104572502D01*
X134732881Y-104413011D01*
X134485852Y-104249134D01*
X134309104Y-104131823D01*
X134007261Y-103932022D01*
X133726013Y-103746721D01*
X133453989Y-103568529D01*
X133179817Y-103390053D01*
X132892125Y-103203901D01*
X132579540Y-103002680D01*
X132230690Y-102778999D01*
X131834203Y-102525464D01*
X131721221Y-102453269D01*
X131249131Y-102151122D01*
X130825764Y-101879288D01*
X130442601Y-101632278D01*
X130091123Y-101404602D01*
X129762811Y-101190771D01*
X129729517Y-101169097D01*
X129523548Y-101039117D01*
X129365791Y-100947522D01*
X129258660Y-100895634D01*
X129204569Y-100884776D01*
X129161094Y-100908680D01*
X129068905Y-100965444D01*
X128938955Y-101048274D01*
X128781518Y-101150617D01*
X128606868Y-101265922D01*
X128399699Y-101403397D01*
X128073928Y-101618612D01*
X127717647Y-101853030D01*
X127337684Y-102102217D01*
X126940867Y-102361743D01*
X126534024Y-102627173D01*
X126123982Y-102894075D01*
X125717568Y-103158017D01*
X125321611Y-103414566D01*
X124942938Y-103659289D01*
X124588377Y-103887754D01*
X124264755Y-104095527D01*
X123978900Y-104278177D01*
X123737640Y-104431271D01*
X123547802Y-104550375D01*
X123445178Y-104614554D01*
X123291704Y-104711743D01*
X123156177Y-104798895D01*
X123059341Y-104862744D01*
X122978158Y-104916319D01*
X122838600Y-105005021D01*
X122702895Y-105088150D01*
X122629493Y-105134681D01*
X122527783Y-105212821D01*
X122473402Y-105276161D01*
X121698626Y-105276161D01*
X121698626Y-100379121D01*
X129200000Y-100379121D01*
X136701373Y-100379121D01*
X136701373Y-105297351D01*
G37*
G36*
X187600167Y-68047271D02*
G01*
X188256333Y-68072000D01*
X188278543Y-71183500D01*
X188300753Y-74295000D01*
X187622377Y-74295000D01*
X186944000Y-74295000D01*
X186944000Y-71158771D01*
X186944000Y-68022543D01*
X187600167Y-68047271D01*
G37*
G36*
X167618833Y-68047271D02*
G01*
X168275000Y-68072000D01*
X168297210Y-71183500D01*
X168319420Y-74295000D01*
X167641043Y-74295000D01*
X166962667Y-74295000D01*
X166962667Y-71158771D01*
X166962667Y-68022543D01*
X167618833Y-68047271D01*
G37*
G36*
X161628667Y-105621666D02*
G01*
X161628667Y-108161666D01*
X161374667Y-108161666D01*
X161120667Y-108161666D01*
X161120667Y-105621666D01*
X161120667Y-103081666D01*
X161374667Y-103081666D01*
X161628667Y-103081666D01*
X161628667Y-105621666D01*
G37*
G36*
X155363333Y-87037333D02*
G01*
X155363333Y-89535000D01*
X155109333Y-89535000D01*
X154855333Y-89535000D01*
X154855333Y-87037333D01*
X154855333Y-84539666D01*
X155109333Y-84539666D01*
X155363333Y-84539666D01*
X155363333Y-87037333D01*
G37*
G36*
X150876000Y-78697666D02*
G01*
X150876000Y-81830333D01*
X148928667Y-81830333D01*
X146981333Y-81830333D01*
X146981333Y-81324596D01*
X146981333Y-80818860D01*
X148230167Y-80795430D01*
X149479000Y-80772000D01*
X149501390Y-78168500D01*
X149523781Y-75565000D01*
X150199890Y-75565000D01*
X150876000Y-75565000D01*
X150876000Y-78697666D01*
G37*
G36*
X173990000Y-68580000D02*
G01*
X173990000Y-69130333D01*
X173143333Y-69130333D01*
X172296667Y-69130333D01*
X172296667Y-71712666D01*
X172296667Y-74295000D01*
X171619333Y-74295000D01*
X170942000Y-74295000D01*
X170942000Y-71712666D01*
X170942000Y-69130333D01*
X170095333Y-69130333D01*
X169248667Y-69130333D01*
X169248667Y-68580000D01*
X169248667Y-68029666D01*
X171619333Y-68029666D01*
X173990000Y-68029666D01*
X173990000Y-68580000D01*
G37*
G36*
X165946667Y-68580000D02*
G01*
X165946667Y-69130333D01*
X165100000Y-69130333D01*
X164253333Y-69130333D01*
X164253333Y-71712666D01*
X164253333Y-74295000D01*
X163576000Y-74295000D01*
X162898667Y-74295000D01*
X162898667Y-71712666D01*
X162898667Y-69130333D01*
X162052000Y-69130333D01*
X161205333Y-69130333D01*
X161205333Y-68580000D01*
X161205333Y-68029666D01*
X163576000Y-68029666D01*
X165946667Y-68029666D01*
X165946667Y-68580000D01*
G37*
G36*
X154262667Y-68580000D02*
G01*
X154262667Y-69130333D01*
X153416000Y-69130333D01*
X152569333Y-69130333D01*
X152569333Y-71712666D01*
X152569333Y-74295000D01*
X151892000Y-74295000D01*
X151214667Y-74295000D01*
X151214667Y-71712666D01*
X151214667Y-69130333D01*
X150368000Y-69130333D01*
X149521333Y-69130333D01*
X149521333Y-68580000D01*
X149521333Y-68029666D01*
X151892000Y-68029666D01*
X154262667Y-68029666D01*
X154262667Y-68580000D01*
G37*
G36*
X182139167Y-75584482D02*
G01*
X183938333Y-75607333D01*
X183960543Y-78718833D01*
X183982753Y-81830333D01*
X183304377Y-81830333D01*
X182626000Y-81830333D01*
X182626000Y-80602666D01*
X182626000Y-79375000D01*
X181567667Y-79375000D01*
X180509333Y-79375000D01*
X180509333Y-78824666D01*
X180509333Y-78274333D01*
X181567667Y-78274333D01*
X182626000Y-78274333D01*
X182626000Y-77470000D01*
X182626000Y-76665666D01*
X181483000Y-76665666D01*
X180340000Y-76665666D01*
X180340000Y-76113649D01*
X180340000Y-75561632D01*
X182139167Y-75584482D01*
G37*
G36*
X177228500Y-75584482D02*
G01*
X179027667Y-75607333D01*
X179049877Y-78718833D01*
X179072086Y-81830333D01*
X177250710Y-81830333D01*
X175429333Y-81830333D01*
X175429333Y-81324790D01*
X175429333Y-80819248D01*
X176551167Y-80795624D01*
X177673000Y-80772000D01*
X177673000Y-79967666D01*
X177673000Y-79163333D01*
X176635833Y-79139560D01*
X175598667Y-79115788D01*
X175598667Y-78568060D01*
X175598667Y-78020333D01*
X176657000Y-78020333D01*
X177715333Y-78020333D01*
X177715333Y-77343000D01*
X177715333Y-76665666D01*
X176572333Y-76665666D01*
X175429333Y-76665666D01*
X175429333Y-76113649D01*
X175429333Y-75561632D01*
X177228500Y-75584482D01*
G37*
G36*
X175983515Y-57654151D02*
G01*
X176191333Y-57861969D01*
X176191333Y-60579000D01*
X176191333Y-63296030D01*
X175983515Y-63503848D01*
X175775697Y-63711666D01*
X173046806Y-63711666D01*
X172526298Y-63711566D01*
X171877717Y-63710502D01*
X171367620Y-63707307D01*
X170977524Y-63700818D01*
X170688947Y-63689873D01*
X170483406Y-63673307D01*
X170342419Y-63649958D01*
X170247503Y-63618661D01*
X170180177Y-63578254D01*
X170121957Y-63527574D01*
X169926000Y-63343482D01*
X169926000Y-60602726D01*
X169926000Y-57861969D01*
X170133818Y-57654151D01*
X170341637Y-57446333D01*
X173058667Y-57446333D01*
X175775697Y-57446333D01*
X175983515Y-57654151D01*
G37*
G36*
X165883167Y-75584482D02*
G01*
X167682333Y-75607333D01*
X167704543Y-78718833D01*
X167726753Y-81830333D01*
X165905377Y-81830333D01*
X164084000Y-81830333D01*
X164084000Y-81324790D01*
X164084000Y-80819248D01*
X165205833Y-80795624D01*
X166327667Y-80772000D01*
X166327667Y-79967666D01*
X166327667Y-79163333D01*
X165290500Y-79139560D01*
X164253333Y-79115788D01*
X164253333Y-78568060D01*
X164253333Y-78020333D01*
X165311667Y-78020333D01*
X166370000Y-78020333D01*
X166370000Y-77343000D01*
X166370000Y-76665666D01*
X165227000Y-76665666D01*
X164084000Y-76665666D01*
X164084000Y-76113649D01*
X164084000Y-75561632D01*
X165883167Y-75584482D01*
G37*
G36*
X174336652Y-84737096D02*
G01*
X174453184Y-84870511D01*
X174494401Y-84964364D01*
X174631305Y-85069508D01*
X174852698Y-85054223D01*
X175177105Y-84919769D01*
X175200883Y-84907818D01*
X175600621Y-84747007D01*
X175908496Y-84716300D01*
X176142709Y-84817828D01*
X176321465Y-85053722D01*
X176408021Y-85258672D01*
X176445333Y-85424462D01*
X176425681Y-85508838D01*
X176332202Y-85553709D01*
X176208345Y-85494601D01*
X176106667Y-85344000D01*
X176020699Y-85204199D01*
X175860966Y-85141292D01*
X175617337Y-85189180D01*
X175267824Y-85347967D01*
X175147764Y-85406224D01*
X174786794Y-85509268D01*
X174499366Y-85460792D01*
X174279223Y-85258350D01*
X174120111Y-84899500D01*
X174110275Y-84864167D01*
X174112821Y-84740245D01*
X174232589Y-84709000D01*
X174336652Y-84737096D01*
G37*
G36*
X167068127Y-104546977D02*
G01*
X167476257Y-104706571D01*
X167792946Y-105004349D01*
X167963470Y-105238440D01*
X168022824Y-104922053D01*
X168062129Y-104759014D01*
X168142392Y-104636384D01*
X168284423Y-104605666D01*
X168486667Y-104605666D01*
X168486667Y-106383666D01*
X168486667Y-108161666D01*
X168240606Y-108161666D01*
X167994544Y-108161666D01*
X167965439Y-106948386D01*
X167961604Y-106791520D01*
X167948490Y-106356187D01*
X167930973Y-106047878D01*
X167903432Y-105833910D01*
X167860243Y-105681605D01*
X167795785Y-105558282D01*
X167704435Y-105431260D01*
X167439931Y-105177544D01*
X167078825Y-105001256D01*
X166702414Y-104963855D01*
X166637863Y-104968091D01*
X166517910Y-104922350D01*
X166470210Y-104753833D01*
X166464131Y-104693685D01*
X166477381Y-104576559D01*
X166572003Y-104529592D01*
X166791914Y-104521000D01*
X167068127Y-104546977D01*
G37*
G36*
X185420000Y-71159371D02*
G01*
X185420000Y-74295000D01*
X184828694Y-74295000D01*
X184237388Y-74295000D01*
X184214861Y-71988714D01*
X184192333Y-69682429D01*
X182880000Y-71967548D01*
X181567667Y-74252666D01*
X180699833Y-74276795D01*
X179832000Y-74300923D01*
X179832000Y-71165295D01*
X179832000Y-68029666D01*
X180431738Y-68029666D01*
X181031476Y-68029666D01*
X181003238Y-70351053D01*
X181002522Y-70411074D01*
X180996954Y-71010741D01*
X180994775Y-71546872D01*
X180995855Y-71998312D01*
X181000061Y-72343907D01*
X181007264Y-72562500D01*
X181017333Y-72632938D01*
X181030206Y-72614490D01*
X181115690Y-72475225D01*
X181270641Y-72215444D01*
X181484410Y-71853224D01*
X181746351Y-71406645D01*
X182045815Y-70893784D01*
X182372154Y-70332718D01*
X183684642Y-68072000D01*
X184552321Y-68047871D01*
X185420000Y-68023742D01*
X185420000Y-71159371D01*
G37*
G36*
X173663200Y-34567039D02*
G01*
X174357481Y-34763486D01*
X174980884Y-35091934D01*
X175517784Y-35536907D01*
X175952555Y-36082933D01*
X176269570Y-36714537D01*
X176453203Y-37416245D01*
X176487828Y-38172583D01*
X176410695Y-38713674D01*
X176176936Y-39391605D01*
X175810761Y-40002034D01*
X175330942Y-40525486D01*
X174756250Y-40942482D01*
X174105457Y-41233547D01*
X173397333Y-41379203D01*
X172773560Y-41378792D01*
X172062425Y-41239046D01*
X171399933Y-40962034D01*
X170811072Y-40561774D01*
X170320832Y-40052287D01*
X169954203Y-39447590D01*
X169816603Y-39104204D01*
X169647212Y-38384665D01*
X169627804Y-37675148D01*
X169747806Y-36993927D01*
X169996644Y-36359271D01*
X170363746Y-35789453D01*
X170838539Y-35302745D01*
X171410448Y-34917416D01*
X172068902Y-34651740D01*
X172803328Y-34523987D01*
X172913669Y-34518065D01*
X173663200Y-34567039D01*
G37*
G36*
X173034941Y-49911000D02*
G01*
X175775697Y-49911000D01*
X175983515Y-50118818D01*
X176191333Y-50326636D01*
X176191333Y-53043666D01*
X176191333Y-55760696D01*
X175983515Y-55968515D01*
X175775697Y-56176333D01*
X173073933Y-56176333D01*
X172745467Y-56176283D01*
X172061119Y-56175379D01*
X171519567Y-56172457D01*
X171102026Y-56166391D01*
X170789712Y-56156054D01*
X170563840Y-56140319D01*
X170405626Y-56118058D01*
X170296285Y-56088145D01*
X170217033Y-56049453D01*
X170149085Y-56000854D01*
X169926000Y-55825376D01*
X169926000Y-53064145D01*
X169926123Y-52495193D01*
X169927260Y-51851000D01*
X169930556Y-51344352D01*
X169937154Y-50956890D01*
X169948198Y-50670256D01*
X169964829Y-50466091D01*
X169988191Y-50326037D01*
X170019427Y-50231736D01*
X170059680Y-50164828D01*
X170110092Y-50106956D01*
X170294184Y-49910999D01*
X173034941Y-49911000D01*
G37*
G36*
X172208377Y-95546889D02*
G01*
X172391514Y-95568340D01*
X172466000Y-95611287D01*
X172466005Y-95611617D01*
X172518816Y-95704556D01*
X172655603Y-95884136D01*
X172847000Y-96111781D01*
X172850276Y-96115528D01*
X173040675Y-96340147D01*
X173176307Y-96513079D01*
X173228000Y-96597161D01*
X173187577Y-96646391D01*
X173046649Y-96641516D01*
X172854280Y-96573129D01*
X172662996Y-96454492D01*
X172625342Y-96424151D01*
X172382567Y-96231025D01*
X172223933Y-96132526D01*
X172103242Y-96123055D01*
X171974297Y-96197012D01*
X171790900Y-96348801D01*
X171779667Y-96358111D01*
X171544610Y-96523272D01*
X171329385Y-96627481D01*
X171172217Y-96656767D01*
X171111333Y-96597161D01*
X171111347Y-96596716D01*
X171164587Y-96510949D01*
X171301306Y-96336916D01*
X171492333Y-96111781D01*
X171494239Y-96109603D01*
X171685271Y-95882221D01*
X171821424Y-95703258D01*
X171873333Y-95611287D01*
X171875869Y-95602802D01*
X171973735Y-95562660D01*
X172169667Y-95546333D01*
X172208377Y-95546889D01*
G37*
G36*
X165486379Y-49911000D02*
G01*
X165633227Y-49911012D01*
X166359635Y-49911774D01*
X166938517Y-49914453D01*
X167388371Y-49920072D01*
X167727695Y-49929653D01*
X167974986Y-49944219D01*
X168148743Y-49964790D01*
X168267463Y-49992390D01*
X168349645Y-50028041D01*
X168413787Y-50072764D01*
X168613667Y-50234529D01*
X168638165Y-52994281D01*
X168662663Y-55754033D01*
X168451514Y-55965183D01*
X168240364Y-56176333D01*
X165538600Y-56176333D01*
X165210134Y-56176283D01*
X164525786Y-56175379D01*
X163984233Y-56172457D01*
X163566692Y-56166391D01*
X163254378Y-56156054D01*
X163028506Y-56140319D01*
X162870292Y-56118058D01*
X162760952Y-56088145D01*
X162681699Y-56049453D01*
X162613752Y-56000854D01*
X162390667Y-55825376D01*
X162390667Y-53064145D01*
X162390790Y-52495193D01*
X162391926Y-51851000D01*
X162395222Y-51344352D01*
X162401821Y-50956890D01*
X162412864Y-50670256D01*
X162429496Y-50466091D01*
X162452858Y-50326037D01*
X162484094Y-50231736D01*
X162524347Y-50164828D01*
X162574759Y-50106956D01*
X162758851Y-49910999D01*
X165486379Y-49911000D01*
G37*
G36*
X167047333Y-85301666D02*
G01*
X167047333Y-87152523D01*
X167047333Y-89535000D01*
X166793333Y-89535000D01*
X166539333Y-89535000D01*
X166539333Y-88603666D01*
X166539333Y-87672333D01*
X166046701Y-87672333D01*
X165437330Y-87619094D01*
X164916452Y-87458308D01*
X164514128Y-87198601D01*
X164239890Y-86848654D01*
X164103273Y-86417145D01*
X164107121Y-86233000D01*
X164676667Y-86233000D01*
X164715578Y-86598134D01*
X164846766Y-86851299D01*
X165091580Y-87032979D01*
X165240448Y-87089456D01*
X165508887Y-87153527D01*
X165817966Y-87202981D01*
X166116365Y-87231578D01*
X166352761Y-87233081D01*
X166475833Y-87201250D01*
X166496726Y-87128509D01*
X166518769Y-86914261D01*
X166533786Y-86598464D01*
X166539333Y-86218888D01*
X166539333Y-85301666D01*
X165942462Y-85301666D01*
X165522257Y-85323084D01*
X165130110Y-85415320D01*
X164868330Y-85590457D01*
X164722116Y-85859387D01*
X164676667Y-86233000D01*
X164107121Y-86233000D01*
X164113813Y-85912754D01*
X164162107Y-85700438D01*
X164315668Y-85382204D01*
X164567948Y-85143419D01*
X164935207Y-84974981D01*
X165433711Y-84867790D01*
X166079721Y-84812748D01*
X167047333Y-84770047D01*
X167047333Y-85301666D01*
G37*
G36*
X173923466Y-105812166D02*
G01*
X173924305Y-105839233D01*
X173949275Y-106407294D01*
X173988223Y-106832703D01*
X174048241Y-107140954D01*
X174136419Y-107357538D01*
X174259846Y-107507950D01*
X174425612Y-107617682D01*
X174682739Y-107709779D01*
X175046694Y-107742410D01*
X175388037Y-107681180D01*
X175644849Y-107530515D01*
X175707223Y-107465083D01*
X175767289Y-107379179D01*
X175808025Y-107265261D01*
X175833181Y-107095067D01*
X175846506Y-106840331D01*
X175851752Y-106472790D01*
X175852667Y-105964181D01*
X175852667Y-104605666D01*
X176149000Y-104605666D01*
X176445333Y-104605666D01*
X176440286Y-105727500D01*
X176439910Y-105795706D01*
X176424968Y-106479704D01*
X176385704Y-107016213D01*
X176315366Y-107424522D01*
X176207204Y-107723918D01*
X176054464Y-107933687D01*
X175850396Y-108073117D01*
X175588247Y-108161495D01*
X175476173Y-108185326D01*
X174951633Y-108218103D01*
X174499577Y-108108331D01*
X174133597Y-107858838D01*
X173917623Y-107642865D01*
X173890312Y-107881099D01*
X173883318Y-107930558D01*
X173809707Y-108087074D01*
X173630167Y-108146123D01*
X173397333Y-108172914D01*
X173397333Y-106389290D01*
X173397333Y-104605666D01*
X173641918Y-104605666D01*
X173886503Y-104605666D01*
X173923466Y-105812166D01*
G37*
G36*
X163340132Y-105812166D02*
G01*
X163340972Y-105839233D01*
X163365941Y-106407294D01*
X163404890Y-106832703D01*
X163464908Y-107140954D01*
X163553085Y-107357538D01*
X163676512Y-107507950D01*
X163842279Y-107617682D01*
X164099405Y-107709779D01*
X164463360Y-107742410D01*
X164804703Y-107681180D01*
X165061515Y-107530515D01*
X165123890Y-107465083D01*
X165183956Y-107379179D01*
X165224692Y-107265261D01*
X165249848Y-107095067D01*
X165263173Y-106840331D01*
X165268418Y-106472790D01*
X165269333Y-105964181D01*
X165269333Y-104605666D01*
X165565667Y-104605666D01*
X165862000Y-104605666D01*
X165856953Y-105727500D01*
X165856576Y-105795706D01*
X165841634Y-106479704D01*
X165802371Y-107016213D01*
X165732033Y-107424522D01*
X165623870Y-107723918D01*
X165471131Y-107933687D01*
X165267063Y-108073117D01*
X165004914Y-108161495D01*
X164892840Y-108185326D01*
X164368300Y-108218103D01*
X163916243Y-108108331D01*
X163550263Y-107858838D01*
X163334290Y-107642865D01*
X163306978Y-107881099D01*
X163299985Y-107930558D01*
X163226374Y-108087074D01*
X163046833Y-108146123D01*
X162814000Y-108172914D01*
X162814000Y-106389290D01*
X162814000Y-104605666D01*
X163058585Y-104605666D01*
X163303170Y-104605666D01*
X163340132Y-105812166D01*
G37*
G36*
X159935333Y-105621666D02*
G01*
X159935333Y-108161666D01*
X159681333Y-108161666D01*
X159427333Y-108161666D01*
X159422555Y-107039833D01*
X159417918Y-106671941D01*
X159394150Y-106171065D01*
X159344993Y-105796726D01*
X159264245Y-105522512D01*
X159145704Y-105322012D01*
X158983167Y-105168814D01*
X158936162Y-105137029D01*
X158632323Y-105019744D01*
X158284265Y-104989019D01*
X157955691Y-105044086D01*
X157710301Y-105184176D01*
X157668880Y-105228027D01*
X157609945Y-105313460D01*
X157568005Y-105430608D01*
X157539323Y-105606994D01*
X157520164Y-105870138D01*
X157506791Y-106247563D01*
X157495469Y-106766792D01*
X157468604Y-108161666D01*
X157220302Y-108161666D01*
X156972000Y-108161666D01*
X156972000Y-106734854D01*
X156972469Y-106373288D01*
X156976493Y-105941025D01*
X156987416Y-105630146D01*
X157008513Y-105411645D01*
X157043058Y-105256516D01*
X157094327Y-105135754D01*
X157165595Y-105020354D01*
X157227938Y-104938804D01*
X157530754Y-104702580D01*
X157917272Y-104567987D01*
X158343629Y-104539502D01*
X158765961Y-104621603D01*
X159140406Y-104818766D01*
X159427333Y-105037617D01*
X159427333Y-104059642D01*
X159427333Y-103081666D01*
X159681333Y-103081666D01*
X159935333Y-103081666D01*
X159935333Y-105621666D01*
G37*
G36*
X165611910Y-57446337D02*
G01*
X166344022Y-57447015D01*
X166927417Y-57449580D01*
X167380746Y-57455076D01*
X167722661Y-57464547D01*
X167971812Y-57479039D01*
X168146849Y-57499595D01*
X168266423Y-57527261D01*
X168349186Y-57563080D01*
X168413787Y-57608098D01*
X168613667Y-57769863D01*
X168638165Y-60529615D01*
X168662663Y-63289367D01*
X168451514Y-63500516D01*
X168240364Y-63711666D01*
X165484849Y-63711666D01*
X165120814Y-63711602D01*
X164434900Y-63710633D01*
X163891825Y-63707664D01*
X163473379Y-63701642D01*
X163161347Y-63691512D01*
X162937520Y-63676219D01*
X162783683Y-63654709D01*
X162681626Y-63625927D01*
X162613136Y-63588820D01*
X162560000Y-63542333D01*
X162534952Y-63515903D01*
X162493619Y-63457473D01*
X162461028Y-63374459D01*
X162436144Y-63248768D01*
X162417932Y-63062304D01*
X162405353Y-62796977D01*
X162397374Y-62434690D01*
X162392957Y-61957352D01*
X162391067Y-61346868D01*
X162390667Y-60585145D01*
X162390667Y-57797290D01*
X162613752Y-57621811D01*
X162639976Y-57601704D01*
X162710244Y-57556985D01*
X162799139Y-57521779D01*
X162925500Y-57494951D01*
X163108164Y-57475364D01*
X163365969Y-57461885D01*
X163717755Y-57453378D01*
X164182358Y-57448707D01*
X164778618Y-57446737D01*
X165525372Y-57446333D01*
X165611910Y-57446337D01*
G37*
G36*
X157141333Y-98216052D02*
G01*
X157145669Y-98642172D01*
X157170078Y-99126562D01*
X157221750Y-99486713D01*
X157307168Y-99748710D01*
X157432814Y-99938639D01*
X157605170Y-100082586D01*
X157816694Y-100182979D01*
X158168275Y-100240183D01*
X158511912Y-100192449D01*
X158783440Y-100041987D01*
X158851235Y-99975106D01*
X158913316Y-99890912D01*
X158956291Y-99777899D01*
X158984460Y-99607965D01*
X159002123Y-99353012D01*
X159013580Y-98984941D01*
X159023131Y-98475653D01*
X159046333Y-97112666D01*
X159300333Y-97112666D01*
X159554333Y-97112666D01*
X159580474Y-98128666D01*
X159589294Y-98654141D01*
X159581423Y-99182621D01*
X159549168Y-99586910D01*
X159489026Y-99891611D01*
X159397492Y-100121324D01*
X159271060Y-100300654D01*
X159244412Y-100328912D01*
X159004779Y-100512251D01*
X158748782Y-100624280D01*
X158734264Y-100627652D01*
X158483170Y-100675922D01*
X158284333Y-100698617D01*
X158129081Y-100682942D01*
X157832642Y-100600507D01*
X157534911Y-100475080D01*
X157319358Y-100337865D01*
X157200931Y-100259510D01*
X157094041Y-100288843D01*
X157056667Y-100471111D01*
X157014126Y-100583681D01*
X156845000Y-100626333D01*
X156633333Y-100626333D01*
X156633333Y-98848333D01*
X156633333Y-97070333D01*
X156887333Y-97070333D01*
X157141333Y-97070333D01*
X157141333Y-98216052D01*
G37*
G36*
X157056667Y-87124719D02*
G01*
X157062283Y-87554540D01*
X157097794Y-88104438D01*
X157173751Y-88516275D01*
X157299061Y-88807952D01*
X157482635Y-88997368D01*
X157733380Y-89102421D01*
X158060206Y-89141012D01*
X158303911Y-89136576D01*
X158518495Y-89081382D01*
X158698633Y-88950653D01*
X158766584Y-88883663D01*
X158828670Y-88799498D01*
X158871644Y-88686506D01*
X158899808Y-88516591D01*
X158917465Y-88261654D01*
X158928916Y-87893596D01*
X158938464Y-87384320D01*
X158961667Y-86021333D01*
X159215667Y-86021333D01*
X159469667Y-86021333D01*
X159495808Y-87037333D01*
X159504627Y-87562807D01*
X159496756Y-88091288D01*
X159464502Y-88495577D01*
X159404360Y-88800277D01*
X159312825Y-89029991D01*
X159186393Y-89209320D01*
X159159746Y-89237579D01*
X158920113Y-89420918D01*
X158664115Y-89532946D01*
X158649597Y-89536319D01*
X158398503Y-89584588D01*
X158199667Y-89607283D01*
X158044414Y-89591609D01*
X157747975Y-89509174D01*
X157450244Y-89383747D01*
X157234691Y-89246532D01*
X157116264Y-89168176D01*
X157009374Y-89197510D01*
X156972000Y-89379777D01*
X156929459Y-89492347D01*
X156760333Y-89535000D01*
X156548667Y-89535000D01*
X156548667Y-87757000D01*
X156548667Y-85979000D01*
X156802667Y-85979000D01*
X157056667Y-85979000D01*
X157056667Y-87124719D01*
G37*
G36*
X153832176Y-87962553D02*
G01*
X153830097Y-88022272D01*
X153730090Y-88573984D01*
X153516986Y-89003841D01*
X153186807Y-89318211D01*
X152735574Y-89523460D01*
X152625589Y-89549320D01*
X152228976Y-89572677D01*
X151807921Y-89519960D01*
X151452992Y-89399894D01*
X151415840Y-89379818D01*
X151080425Y-89101017D01*
X150840757Y-88719453D01*
X150697098Y-88268983D01*
X150653057Y-87817780D01*
X151214983Y-87817780D01*
X151230316Y-88125971D01*
X151332477Y-88559132D01*
X151536363Y-88870773D01*
X151848801Y-89074428D01*
X151963174Y-89120464D01*
X152166071Y-89177162D01*
X152359513Y-89170278D01*
X152627877Y-89102894D01*
X152749071Y-89057414D01*
X153030185Y-88832891D01*
X153217539Y-88467770D01*
X153310832Y-87962553D01*
X153309043Y-87433861D01*
X153199383Y-86984983D01*
X152979129Y-86662362D01*
X152649415Y-86467608D01*
X152211377Y-86402333D01*
X151924465Y-86432430D01*
X151607035Y-86579686D01*
X151385989Y-86855386D01*
X151256810Y-87265946D01*
X151214983Y-87817780D01*
X150653057Y-87817780D01*
X150649707Y-87783462D01*
X150698846Y-87296746D01*
X150844778Y-86842689D01*
X151087761Y-86455147D01*
X151428059Y-86167976D01*
X151617064Y-86082810D01*
X152024300Y-85995599D01*
X152468876Y-85989285D01*
X152887932Y-86062285D01*
X153218607Y-86213019D01*
X153321521Y-86294504D01*
X153609521Y-86659351D01*
X153781962Y-87146444D01*
X153839333Y-87757000D01*
X153832176Y-87962553D01*
G37*
G36*
X155949654Y-106299000D02*
G01*
X155956000Y-106364323D01*
X155949921Y-106563586D01*
X155847399Y-107133814D01*
X155618621Y-107591754D01*
X155264010Y-107936750D01*
X154783990Y-108168151D01*
X154657143Y-108196959D01*
X154293986Y-108206934D01*
X153892497Y-108145708D01*
X153528473Y-108022098D01*
X153450490Y-107978234D01*
X153210277Y-107782389D01*
X153006278Y-107540906D01*
X152903716Y-107367895D01*
X152822776Y-107155234D01*
X152776698Y-106886679D01*
X152751547Y-106505582D01*
X152750381Y-106433587D01*
X153247150Y-106433587D01*
X153301709Y-106854152D01*
X153444606Y-107229680D01*
X153678973Y-107521224D01*
X153788830Y-107604413D01*
X154029228Y-107709427D01*
X154347333Y-107738333D01*
X154628074Y-107708900D01*
X154984254Y-107549874D01*
X155241394Y-107258050D01*
X155395127Y-106839177D01*
X155441087Y-106299000D01*
X155388551Y-105839275D01*
X155221188Y-105425441D01*
X154941750Y-105134833D01*
X154669147Y-104997138D01*
X154295947Y-104955645D01*
X153876235Y-105068146D01*
X153849656Y-105079932D01*
X153582182Y-105291159D01*
X153390518Y-105613143D01*
X153277797Y-106006935D01*
X153247150Y-106433587D01*
X152750381Y-106433587D01*
X152748004Y-106286836D01*
X152813257Y-105688486D01*
X152993371Y-105213402D01*
X153287688Y-104862467D01*
X153695553Y-104636562D01*
X154216308Y-104536572D01*
X154546291Y-104537644D01*
X155041695Y-104647243D01*
X155434902Y-104889475D01*
X155721378Y-105259574D01*
X155896589Y-105752778D01*
X155949654Y-106299000D01*
G37*
G36*
X175629441Y-95894805D02*
G01*
X175996705Y-95925177D01*
X176308511Y-95988490D01*
X176358441Y-96004721D01*
X176737587Y-96209483D01*
X177096897Y-96529042D01*
X177392860Y-96917585D01*
X177581965Y-97329300D01*
X177691841Y-97879330D01*
X177708110Y-98484984D01*
X177625960Y-99067921D01*
X177451573Y-99585943D01*
X177191131Y-99996851D01*
X176991090Y-100199266D01*
X176610076Y-100454812D01*
X176130585Y-100622387D01*
X175934128Y-100652186D01*
X175573184Y-100664330D01*
X175171224Y-100646358D01*
X174798017Y-100602054D01*
X174523332Y-100535202D01*
X174389443Y-100444785D01*
X174328667Y-100238370D01*
X174330175Y-100178590D01*
X174367464Y-100063893D01*
X174476833Y-100073064D01*
X174619288Y-100106815D01*
X174880449Y-100145808D01*
X175194831Y-100178929D01*
X175766866Y-100172891D01*
X176256674Y-100040755D01*
X176636739Y-99779823D01*
X176907293Y-99389855D01*
X177068571Y-98870616D01*
X177120807Y-98221865D01*
X177118813Y-98108744D01*
X177041137Y-97524108D01*
X176846837Y-97057122D01*
X176530587Y-96698604D01*
X176087064Y-96439374D01*
X175782004Y-96344557D01*
X175327191Y-96321155D01*
X174806536Y-96427424D01*
X174663883Y-96469016D01*
X174486650Y-96504849D01*
X174391586Y-96480041D01*
X174327413Y-96390657D01*
X174280947Y-96289114D01*
X174244000Y-96148545D01*
X174244996Y-96137528D01*
X174339373Y-96045851D01*
X174561684Y-95972897D01*
X174875252Y-95921508D01*
X175243397Y-95894530D01*
X175629441Y-95894805D01*
G37*
G36*
X172971028Y-87842346D02*
G01*
X172964763Y-88022272D01*
X172864756Y-88573984D01*
X172651653Y-89003841D01*
X172321474Y-89318211D01*
X171870240Y-89523460D01*
X171760256Y-89549320D01*
X171363642Y-89572677D01*
X170942588Y-89519960D01*
X170587659Y-89399894D01*
X170300140Y-89188873D01*
X170037424Y-88831597D01*
X169867129Y-88394201D01*
X169790721Y-87911358D01*
X169796645Y-87757000D01*
X170349333Y-87757000D01*
X170349968Y-87822686D01*
X170408833Y-88335354D01*
X170560070Y-88726051D01*
X170798973Y-88981951D01*
X170870734Y-89025158D01*
X171247644Y-89151058D01*
X171631995Y-89138462D01*
X171980041Y-88995023D01*
X172248035Y-88728396D01*
X172306187Y-88620466D01*
X172410175Y-88266762D01*
X172453330Y-87842346D01*
X172432087Y-87410805D01*
X172342885Y-87035723D01*
X172291627Y-86916617D01*
X172076152Y-86621570D01*
X171768302Y-86454809D01*
X171346044Y-86402333D01*
X171122323Y-86420469D01*
X170780770Y-86553648D01*
X170539586Y-86818760D01*
X170396522Y-87218859D01*
X170349333Y-87757000D01*
X169796645Y-87757000D01*
X169809664Y-87417741D01*
X169925423Y-86948021D01*
X170139463Y-86536871D01*
X170453250Y-86218963D01*
X170608152Y-86123516D01*
X170792938Y-86059525D01*
X171042003Y-86029075D01*
X171407667Y-86021333D01*
X171724702Y-86026765D01*
X171991069Y-86053392D01*
X172183275Y-86111802D01*
X172352900Y-86212424D01*
X172456345Y-86294474D01*
X172744329Y-86659645D01*
X172916682Y-87146659D01*
X172974000Y-87757000D01*
X172971028Y-87842346D01*
G37*
G36*
X176015855Y-42598751D02*
G01*
X176033380Y-42621511D01*
X176078829Y-42691676D01*
X176114613Y-42779566D01*
X176141885Y-42904133D01*
X176161799Y-43084326D01*
X176175506Y-43339098D01*
X176184160Y-43687398D01*
X176188914Y-44148179D01*
X176190921Y-44740390D01*
X176191333Y-45482984D01*
X176190181Y-46025203D01*
X176183527Y-46786871D01*
X176171113Y-47402176D01*
X176153120Y-47865394D01*
X176129733Y-48170802D01*
X176101132Y-48312675D01*
X176014493Y-48424465D01*
X175825965Y-48557493D01*
X175780995Y-48566995D01*
X175575744Y-48583878D01*
X175234259Y-48597887D01*
X174778503Y-48608573D01*
X174230442Y-48615489D01*
X173612041Y-48618186D01*
X172945263Y-48616218D01*
X170249526Y-48598666D01*
X170087763Y-48398786D01*
X170077766Y-48386153D01*
X170035099Y-48319978D01*
X170001249Y-48232000D01*
X169975201Y-48103779D01*
X169955943Y-47916871D01*
X169942460Y-47652838D01*
X169933738Y-47293237D01*
X169928763Y-46819628D01*
X169926522Y-46213569D01*
X169926000Y-45456620D01*
X169926058Y-45112488D01*
X169926998Y-44424760D01*
X169929928Y-43880254D01*
X169935908Y-43460710D01*
X169946002Y-43147866D01*
X169961270Y-42923460D01*
X169982775Y-42769232D01*
X170011580Y-42666920D01*
X170048745Y-42598263D01*
X170095333Y-42545000D01*
X170121763Y-42519951D01*
X170180193Y-42478618D01*
X170263207Y-42446027D01*
X170388899Y-42421144D01*
X170575362Y-42402931D01*
X170840690Y-42390353D01*
X171202976Y-42382373D01*
X171680315Y-42377956D01*
X172290799Y-42376066D01*
X173052522Y-42375666D01*
X175840377Y-42375666D01*
X176015855Y-42598751D01*
G37*
G36*
X168480522Y-42598751D02*
G01*
X168498046Y-42621511D01*
X168543496Y-42691676D01*
X168579280Y-42779566D01*
X168606552Y-42904133D01*
X168626465Y-43084326D01*
X168640173Y-43339098D01*
X168648827Y-43687398D01*
X168653581Y-44148179D01*
X168655587Y-44740390D01*
X168656000Y-45482984D01*
X168654848Y-46025203D01*
X168648194Y-46786871D01*
X168635779Y-47402176D01*
X168617787Y-47865394D01*
X168594399Y-48170802D01*
X168565799Y-48312675D01*
X168479357Y-48423943D01*
X168290632Y-48555742D01*
X168254813Y-48563897D01*
X168060367Y-48582040D01*
X167728440Y-48598549D01*
X167281298Y-48612794D01*
X166741208Y-48624143D01*
X166130437Y-48631967D01*
X165471252Y-48635633D01*
X165234008Y-48636092D01*
X164542462Y-48636733D01*
X163995495Y-48635123D01*
X163574047Y-48630128D01*
X163259055Y-48620613D01*
X163031456Y-48605444D01*
X162872188Y-48583485D01*
X162762190Y-48553601D01*
X162682398Y-48514658D01*
X162613752Y-48465521D01*
X162390667Y-48290043D01*
X162390667Y-45502188D01*
X162390751Y-45089718D01*
X162391789Y-44408178D01*
X162394852Y-43868554D01*
X162400975Y-43452754D01*
X162411194Y-43142683D01*
X162426546Y-42920249D01*
X162448067Y-42767356D01*
X162476792Y-42665913D01*
X162513758Y-42597825D01*
X162560000Y-42545000D01*
X162586430Y-42519951D01*
X162644860Y-42478618D01*
X162727874Y-42446027D01*
X162853565Y-42421144D01*
X163040029Y-42402931D01*
X163305356Y-42390353D01*
X163667643Y-42382373D01*
X164144981Y-42377956D01*
X164755465Y-42376066D01*
X165517188Y-42375666D01*
X168305043Y-42375666D01*
X168480522Y-42598751D01*
G37*
G36*
X174124554Y-76665666D02*
G01*
X174139210Y-78718833D01*
X174161420Y-81830333D01*
X172778744Y-81830333D01*
X172548316Y-81829618D01*
X171936122Y-81816500D01*
X171450163Y-81781917D01*
X171058248Y-81719441D01*
X170728190Y-81622644D01*
X170427799Y-81485098D01*
X170124887Y-81300377D01*
X170013659Y-81220027D01*
X169614147Y-80831249D01*
X169280564Y-80354502D01*
X169060168Y-79853987D01*
X169032290Y-79729529D01*
X168992768Y-79418482D01*
X168966291Y-79027633D01*
X168960108Y-78736233D01*
X170318685Y-78736233D01*
X170371745Y-79345642D01*
X170539564Y-79869624D01*
X170821733Y-80269803D01*
X171217758Y-80545186D01*
X171423171Y-80620766D01*
X171727464Y-80697367D01*
X172059397Y-80756657D01*
X172371216Y-80791831D01*
X172615168Y-80796084D01*
X172743500Y-80762610D01*
X172754884Y-80715944D01*
X172770910Y-80519892D01*
X172784612Y-80194462D01*
X172795280Y-79763818D01*
X172802202Y-79252128D01*
X172804667Y-78683555D01*
X172804667Y-76665666D01*
X172317833Y-76666138D01*
X172156788Y-76668969D01*
X171639652Y-76730218D01*
X171222152Y-76881660D01*
X170862378Y-77136848D01*
X170747230Y-77252985D01*
X170503966Y-77634833D01*
X170363220Y-78123063D01*
X170318685Y-78736233D01*
X168960108Y-78736233D01*
X168957493Y-78613000D01*
X168957998Y-78526998D01*
X168969172Y-78104299D01*
X168999436Y-77793800D01*
X169055822Y-77546926D01*
X169145360Y-77315102D01*
X169434293Y-76794275D01*
X169827383Y-76348709D01*
X170324736Y-76008275D01*
X170653981Y-75855600D01*
X171106042Y-75714365D01*
X171629634Y-75625038D01*
X172255987Y-75582676D01*
X173016333Y-75582337D01*
X174117000Y-75607333D01*
X174124554Y-76665666D01*
G37*
G36*
X168480522Y-35063418D02*
G01*
X168491404Y-35077417D01*
X168538740Y-35147528D01*
X168576001Y-35233018D01*
X168604379Y-35353132D01*
X168625067Y-35527114D01*
X168639255Y-35774208D01*
X168648135Y-36113658D01*
X168652898Y-36564708D01*
X168654738Y-37146602D01*
X168654844Y-37878584D01*
X168654489Y-38127353D01*
X168651288Y-38766959D01*
X168645157Y-39350452D01*
X168636542Y-39855189D01*
X168625885Y-40258525D01*
X168613628Y-40537818D01*
X168600215Y-40670423D01*
X168487313Y-40844921D01*
X168283871Y-40986412D01*
X168259399Y-40996211D01*
X168132902Y-41028118D01*
X167939230Y-41052582D01*
X167661364Y-41070167D01*
X167282285Y-41081436D01*
X166784976Y-41086954D01*
X166152418Y-41087283D01*
X165367594Y-41082988D01*
X162714189Y-41063333D01*
X162552428Y-40863453D01*
X162542433Y-40850823D01*
X162499766Y-40784648D01*
X162465916Y-40696670D01*
X162439868Y-40568448D01*
X162420610Y-40381540D01*
X162407127Y-40117507D01*
X162398405Y-39757905D01*
X162393430Y-39284296D01*
X162391189Y-38678236D01*
X162390667Y-37921286D01*
X162390724Y-37577155D01*
X162391665Y-36889426D01*
X162394595Y-36344921D01*
X162400575Y-35925377D01*
X162410668Y-35612532D01*
X162425937Y-35388127D01*
X162447442Y-35233899D01*
X162476246Y-35131587D01*
X162513412Y-35062930D01*
X162560000Y-35009666D01*
X162586430Y-34984618D01*
X162644860Y-34943285D01*
X162727874Y-34910694D01*
X162853565Y-34885810D01*
X163040029Y-34867598D01*
X163305356Y-34855019D01*
X163667643Y-34847040D01*
X164144981Y-34842623D01*
X164755465Y-34840733D01*
X165517188Y-34840333D01*
X168305043Y-34840333D01*
X168480522Y-35063418D01*
G37*
G36*
X162779221Y-76665666D02*
G01*
X162793877Y-78718833D01*
X162816086Y-81830333D01*
X162137710Y-81830333D01*
X161459333Y-81830333D01*
X161459333Y-80645000D01*
X161459333Y-79459666D01*
X161099500Y-79459876D01*
X160739667Y-79460085D01*
X160020000Y-80642875D01*
X159300333Y-81825664D01*
X158556521Y-81827999D01*
X158284610Y-81827601D01*
X158035403Y-81819395D01*
X157906339Y-81796606D01*
X157868924Y-81752956D01*
X157894664Y-81682166D01*
X157938805Y-81610550D01*
X158069999Y-81409359D01*
X158266268Y-81114207D01*
X158509852Y-80751756D01*
X158782991Y-80348666D01*
X158848306Y-80252540D01*
X159125710Y-79839468D01*
X159317868Y-79540361D01*
X159435338Y-79334974D01*
X159488675Y-79203060D01*
X159488436Y-79124373D01*
X159445179Y-79078666D01*
X159358930Y-79016983D01*
X159168627Y-78856697D01*
X158949402Y-78653878D01*
X158761735Y-78440829D01*
X158521822Y-77987391D01*
X158437849Y-77519096D01*
X159812182Y-77519096D01*
X159812400Y-77544889D01*
X159866564Y-77837871D01*
X160042197Y-78081015D01*
X160151383Y-78178825D01*
X160311413Y-78267133D01*
X160531305Y-78316545D01*
X160865773Y-78344569D01*
X161459333Y-78378108D01*
X161459333Y-77521887D01*
X161459333Y-76665666D01*
X161099500Y-76666138D01*
X160941806Y-76669884D01*
X160450650Y-76743625D01*
X160097303Y-76910640D01*
X159883802Y-77169580D01*
X159812182Y-77519096D01*
X158437849Y-77519096D01*
X158431972Y-77486321D01*
X158494845Y-76962538D01*
X158713102Y-76440965D01*
X158905574Y-76186888D01*
X159228684Y-75942406D01*
X159662593Y-75763352D01*
X160219955Y-75646157D01*
X160913428Y-75587253D01*
X161755667Y-75583071D01*
X162771667Y-75607333D01*
X162779221Y-76665666D01*
G37*
G36*
X179246483Y-84823169D02*
G01*
X179708475Y-84956917D01*
X180052024Y-85191743D01*
X180266182Y-85519311D01*
X180340000Y-85931282D01*
X180339984Y-85939743D01*
X180293120Y-86329498D01*
X180144602Y-86654131D01*
X179877531Y-86931283D01*
X179475010Y-87178598D01*
X178920141Y-87413717D01*
X178603739Y-87555648D01*
X178268928Y-87780981D01*
X178048641Y-88028993D01*
X177969333Y-88275700D01*
X178041391Y-88577927D01*
X178229576Y-88848440D01*
X178487395Y-89017820D01*
X178520547Y-89028800D01*
X178946552Y-89101615D01*
X179453930Y-89090762D01*
X179982882Y-88997069D01*
X180424667Y-88882471D01*
X180424667Y-89119072D01*
X180424639Y-89129510D01*
X180405985Y-89295595D01*
X180328029Y-89401363D01*
X180154445Y-89473218D01*
X179848910Y-89537562D01*
X179400517Y-89580919D01*
X178923547Y-89565104D01*
X178483081Y-89495820D01*
X178142937Y-89379000D01*
X178124114Y-89369105D01*
X177768553Y-89091102D01*
X177541301Y-88720167D01*
X177461333Y-88286709D01*
X177467561Y-88139840D01*
X177541946Y-87819215D01*
X177714369Y-87544586D01*
X178002341Y-87299326D01*
X178423376Y-87066804D01*
X178994984Y-86830391D01*
X179341076Y-86679078D01*
X179604501Y-86490093D01*
X179744575Y-86260428D01*
X179785818Y-85963198D01*
X179785797Y-85956828D01*
X179713066Y-85631853D01*
X179509805Y-85399605D01*
X179190898Y-85266361D01*
X178771224Y-85238398D01*
X178265667Y-85321993D01*
X178246553Y-85326942D01*
X177934168Y-85393013D01*
X177747636Y-85386275D01*
X177656914Y-85296921D01*
X177631963Y-85115146D01*
X177633655Y-85094392D01*
X177736677Y-84970820D01*
X177985764Y-84876269D01*
X178362084Y-84815717D01*
X178846806Y-84794138D01*
X179246483Y-84823169D01*
G37*
G36*
X163576000Y-98866780D02*
G01*
X163576000Y-99652666D01*
X163576000Y-102235000D01*
X163322000Y-102235000D01*
X163068000Y-102235000D01*
X163068000Y-101204241D01*
X163068000Y-100173482D01*
X162877500Y-100350004D01*
X162728664Y-100456806D01*
X162392792Y-100598485D01*
X162018260Y-100674823D01*
X161685082Y-100664704D01*
X161384021Y-100573127D01*
X161000078Y-100331518D01*
X160728793Y-99968480D01*
X160567774Y-99480335D01*
X160514632Y-98863405D01*
X160515442Y-98837516D01*
X161033464Y-98837516D01*
X161080884Y-99264988D01*
X161203850Y-99654654D01*
X161399650Y-99967334D01*
X161665568Y-100163853D01*
X161808746Y-100220994D01*
X162028481Y-100276993D01*
X162222852Y-100250625D01*
X162475333Y-100139368D01*
X162596005Y-100068493D01*
X162860371Y-99791181D01*
X163016500Y-99393099D01*
X163067869Y-98866780D01*
X163067704Y-98830974D01*
X163014768Y-98300775D01*
X162869374Y-97897939D01*
X162634772Y-97631731D01*
X162629474Y-97628089D01*
X162378887Y-97531900D01*
X162054024Y-97497484D01*
X161731820Y-97525783D01*
X161489210Y-97617736D01*
X161371618Y-97720029D01*
X161176117Y-98025859D01*
X161064303Y-98411414D01*
X161033464Y-98837516D01*
X160515442Y-98837516D01*
X160523891Y-98567368D01*
X160612303Y-98011790D01*
X160798437Y-97590491D01*
X161087376Y-97297309D01*
X161484206Y-97126082D01*
X161994012Y-97070649D01*
X162118869Y-97076536D01*
X162428776Y-97133793D01*
X162706510Y-97236119D01*
X162906539Y-97363875D01*
X162983333Y-97497418D01*
X162990012Y-97528584D01*
X163068000Y-97536000D01*
X163121449Y-97456276D01*
X163152667Y-97277003D01*
X163153398Y-97242960D01*
X163202850Y-97105658D01*
X163364333Y-97070333D01*
X163576000Y-97070333D01*
X163576000Y-98866780D01*
G37*
G36*
X150872004Y-104539726D02*
G01*
X151301545Y-104629064D01*
X151639338Y-104796574D01*
X151852920Y-105035290D01*
X151937251Y-105232789D01*
X151974441Y-105510588D01*
X151888181Y-105765963D01*
X151668005Y-106013697D01*
X151303451Y-106268574D01*
X150784055Y-106545377D01*
X150481207Y-106696039D01*
X150222227Y-106838564D01*
X150067662Y-106951195D01*
X149989496Y-107055227D01*
X149959716Y-107171953D01*
X149955640Y-107217617D01*
X149994263Y-107454784D01*
X150158846Y-107622145D01*
X150470287Y-107743077D01*
X150665660Y-107780099D01*
X150953303Y-107781125D01*
X151312913Y-107723578D01*
X151786167Y-107603020D01*
X151856134Y-107586488D01*
X151954138Y-107612294D01*
X151976667Y-107765795D01*
X151963966Y-107911102D01*
X151896972Y-108017595D01*
X151737831Y-108091518D01*
X151448801Y-108161137D01*
X151324776Y-108181389D01*
X150979780Y-108205951D01*
X150635875Y-108197681D01*
X150529637Y-108186683D01*
X150047450Y-108074715D01*
X149706342Y-107871377D01*
X149503640Y-107574403D01*
X149436667Y-107181524D01*
X149455816Y-106971442D01*
X149552135Y-106734449D01*
X149749302Y-106527783D01*
X150069075Y-106330406D01*
X150533217Y-106121276D01*
X150633519Y-106079084D01*
X150967419Y-105919554D01*
X151223455Y-105767650D01*
X151360455Y-105646978D01*
X151421047Y-105525040D01*
X151424709Y-105311771D01*
X151298942Y-105138753D01*
X151068976Y-105016816D01*
X150760039Y-104956785D01*
X150397362Y-104969490D01*
X150006173Y-105065758D01*
X149973328Y-105077391D01*
X149777934Y-105134464D01*
X149673987Y-105119020D01*
X149604006Y-105025274D01*
X149553352Y-104919271D01*
X149539592Y-104784155D01*
X149646401Y-104694002D01*
X149897492Y-104615717D01*
X150383178Y-104535526D01*
X150872004Y-104539726D01*
G37*
G36*
X158107608Y-49911016D02*
G01*
X158831526Y-49911812D01*
X159408403Y-49914537D01*
X159856679Y-49920205D01*
X160194796Y-49929833D01*
X160441196Y-49944433D01*
X160614320Y-49965020D01*
X160732610Y-49992610D01*
X160814507Y-50028215D01*
X160878454Y-50072852D01*
X161078333Y-50234705D01*
X161078333Y-53043666D01*
X161078333Y-55852627D01*
X160878454Y-56014480D01*
X160867486Y-56023193D01*
X160801495Y-56066250D01*
X160714197Y-56100409D01*
X160587089Y-56126692D01*
X160401667Y-56146125D01*
X160139429Y-56159729D01*
X159781872Y-56168528D01*
X159310492Y-56173546D01*
X158706786Y-56175807D01*
X157952252Y-56176333D01*
X157594009Y-56176273D01*
X156911888Y-56175332D01*
X156372378Y-56172382D01*
X155957047Y-56166331D01*
X155647462Y-56156086D01*
X155425192Y-56140555D01*
X155271806Y-56118643D01*
X155168872Y-56089259D01*
X155097957Y-56051309D01*
X155040632Y-56003701D01*
X154997639Y-55961352D01*
X154955702Y-55903937D01*
X154922936Y-55821963D01*
X154898211Y-55697334D01*
X154880395Y-55511952D01*
X154868355Y-55247721D01*
X154860961Y-54886544D01*
X154857080Y-54410324D01*
X154855582Y-53800964D01*
X154855333Y-53040368D01*
X154855419Y-52623650D01*
X154856464Y-51942490D01*
X154859535Y-51403167D01*
X154865667Y-50987597D01*
X154875894Y-50677697D01*
X154891251Y-50455384D01*
X154912772Y-50302574D01*
X154941492Y-50201185D01*
X154978446Y-50133132D01*
X155024667Y-50080333D01*
X155046844Y-50059087D01*
X155104486Y-50016678D01*
X155185370Y-49983236D01*
X155307758Y-49957699D01*
X155489910Y-49939005D01*
X155750088Y-49926091D01*
X156106553Y-49917895D01*
X156577567Y-49913356D01*
X157181392Y-49911412D01*
X157936287Y-49911000D01*
X158107608Y-49911016D01*
G37*
G36*
X154697917Y-97124543D02*
G01*
X155091524Y-97182661D01*
X155364565Y-97300270D01*
X155542291Y-97489554D01*
X155649951Y-97762694D01*
X155663842Y-97821788D01*
X155685607Y-98079007D01*
X155617047Y-98297631D01*
X155440255Y-98499669D01*
X155137321Y-98707129D01*
X154690340Y-98942017D01*
X154652004Y-98960774D01*
X154212503Y-99191049D01*
X153916990Y-99384876D01*
X153749891Y-99558018D01*
X153695632Y-99726240D01*
X153738641Y-99905304D01*
X153794088Y-99998452D01*
X154031373Y-100172278D01*
X154398569Y-100241930D01*
X154892878Y-100207152D01*
X155511500Y-100067687D01*
X155581468Y-100051154D01*
X155679472Y-100076961D01*
X155702000Y-100230461D01*
X155689338Y-100375576D01*
X155622366Y-100482211D01*
X155463214Y-100556022D01*
X155174134Y-100625240D01*
X155075327Y-100642003D01*
X154730982Y-100667920D01*
X154390684Y-100657791D01*
X154279151Y-100644613D01*
X153802490Y-100527425D01*
X153469513Y-100323809D01*
X153276990Y-100030969D01*
X153221693Y-99646112D01*
X153251320Y-99404167D01*
X153347604Y-99191745D01*
X153534429Y-99006626D01*
X153836163Y-98825207D01*
X154277178Y-98623887D01*
X154411017Y-98566748D01*
X154744043Y-98414036D01*
X154957599Y-98290881D01*
X155082401Y-98177164D01*
X155149166Y-98052768D01*
X155183541Y-97934007D01*
X155164193Y-97788213D01*
X155022961Y-97644396D01*
X154945645Y-97587732D01*
X154792688Y-97521723D01*
X154583526Y-97501205D01*
X154262667Y-97516872D01*
X153989939Y-97543471D01*
X153726737Y-97580874D01*
X153571816Y-97617404D01*
X153459909Y-97623522D01*
X153372905Y-97491267D01*
X153349369Y-97343606D01*
X153406753Y-97230064D01*
X153571115Y-97159285D01*
X153862929Y-97122931D01*
X154302669Y-97112666D01*
X154697917Y-97124543D01*
G37*
G36*
X160257624Y-70460185D02*
G01*
X160255837Y-70624938D01*
X160247199Y-71309102D01*
X160237276Y-71848683D01*
X160224695Y-72264115D01*
X160208082Y-72575836D01*
X160186064Y-72804282D01*
X160157265Y-72969889D01*
X160120313Y-73093094D01*
X160073834Y-73194333D01*
X159875422Y-73511085D01*
X159470257Y-73927779D01*
X158962956Y-74212950D01*
X158344397Y-74372816D01*
X158134612Y-74403805D01*
X157919009Y-74436300D01*
X157818667Y-74452331D01*
X157818157Y-74452423D01*
X157716208Y-74445044D01*
X157494835Y-74418279D01*
X157201099Y-74377805D01*
X156624751Y-74248246D01*
X156094353Y-74003685D01*
X155670157Y-73642685D01*
X155333655Y-73153109D01*
X155298337Y-73084269D01*
X155252153Y-72973606D01*
X155216199Y-72841801D01*
X155188857Y-72667685D01*
X155168506Y-72430089D01*
X155153526Y-72107842D01*
X155142296Y-71679774D01*
X155133197Y-71124717D01*
X155124608Y-70421500D01*
X155097549Y-68029666D01*
X155780775Y-68029666D01*
X156464000Y-68029666D01*
X156464000Y-70191386D01*
X156464466Y-70591505D01*
X156469092Y-71236187D01*
X156481142Y-71743261D01*
X156503609Y-72133523D01*
X156539487Y-72427767D01*
X156591767Y-72646790D01*
X156663444Y-72811385D01*
X156757511Y-72942349D01*
X156876960Y-73060476D01*
X156943936Y-73108210D01*
X157216051Y-73209798D01*
X157568563Y-73263038D01*
X157939755Y-73261749D01*
X158267910Y-73199753D01*
X158331121Y-73178412D01*
X158487162Y-73114979D01*
X158610447Y-73033051D01*
X158705299Y-72913775D01*
X158776039Y-72738297D01*
X158826990Y-72487763D01*
X158862473Y-72143320D01*
X158886810Y-71686114D01*
X158904323Y-71097292D01*
X158919333Y-70358000D01*
X158961667Y-68072000D01*
X159622624Y-68047185D01*
X160283582Y-68022371D01*
X160257624Y-70460185D01*
G37*
G36*
X156799138Y-79227369D02*
G01*
X156867918Y-79422699D01*
X157089990Y-80052853D01*
X157287923Y-80613996D01*
X157455309Y-81087982D01*
X157585741Y-81456665D01*
X157672810Y-81701897D01*
X157710111Y-81805533D01*
X157712166Y-81811375D01*
X157697696Y-81865184D01*
X157594001Y-81895112D01*
X157374553Y-81904647D01*
X157012830Y-81897281D01*
X156270897Y-81872666D01*
X156070899Y-81199350D01*
X156040659Y-81099356D01*
X155941280Y-80794209D01*
X155856049Y-80565239D01*
X155800748Y-80455881D01*
X155794799Y-80451827D01*
X155665901Y-80428266D01*
X155407097Y-80412454D01*
X155052644Y-80405754D01*
X154636797Y-80409530D01*
X153543000Y-80433333D01*
X153331333Y-81173947D01*
X153119667Y-81914561D01*
X152382081Y-81914780D01*
X151644496Y-81915000D01*
X151998918Y-80920166D01*
X152087020Y-80672578D01*
X152248420Y-80218248D01*
X152444687Y-79665163D01*
X152604198Y-79215304D01*
X153924000Y-79215304D01*
X153943279Y-79232058D01*
X154090281Y-79261953D01*
X154350445Y-79282618D01*
X154686000Y-79290333D01*
X154856114Y-79288741D01*
X155159757Y-79276594D01*
X155369644Y-79255097D01*
X155448000Y-79227369D01*
X155446488Y-79207020D01*
X155412054Y-79044482D01*
X155340155Y-78778537D01*
X155241394Y-78442435D01*
X155126374Y-78069422D01*
X155005698Y-77692747D01*
X154889968Y-77345656D01*
X154789787Y-77061399D01*
X154715758Y-76873222D01*
X154678485Y-76814373D01*
X154642375Y-76894930D01*
X154566426Y-77107224D01*
X154463887Y-77413758D01*
X154346075Y-77778519D01*
X154224306Y-78165495D01*
X154109897Y-78538674D01*
X154014166Y-78862044D01*
X153948428Y-79099591D01*
X153924000Y-79215304D01*
X152604198Y-79215304D01*
X152663302Y-79048618D01*
X152891748Y-78403909D01*
X153117504Y-77766333D01*
X153881667Y-75607333D01*
X154694859Y-75583249D01*
X155508051Y-75559165D01*
X156586755Y-78624168D01*
X156628115Y-78741681D01*
X156799138Y-79227369D01*
G37*
G36*
X173650538Y-99693676D02*
G01*
X173651333Y-99699905D01*
X173636212Y-99952706D01*
X173562221Y-100161104D01*
X173396615Y-100360025D01*
X173342872Y-100410780D01*
X173131681Y-100569327D01*
X172952115Y-100651342D01*
X172437078Y-100683786D01*
X171973210Y-100577591D01*
X171593719Y-100338079D01*
X171540873Y-100290701D01*
X171384779Y-100189822D01*
X171303811Y-100234176D01*
X171280667Y-100428777D01*
X171280225Y-100453481D01*
X171231252Y-100590252D01*
X171069000Y-100626333D01*
X170857333Y-100626333D01*
X170857465Y-99250500D01*
X170860634Y-98890666D01*
X171407667Y-98890666D01*
X171412785Y-99289599D01*
X171413639Y-99326551D01*
X171483970Y-99697506D01*
X171679108Y-99969860D01*
X172018781Y-100172352D01*
X172261172Y-100256772D01*
X172531556Y-100273486D01*
X172803261Y-100178785D01*
X172818910Y-100170549D01*
X173031136Y-99968839D01*
X173124554Y-99693676D01*
X173077482Y-99406150D01*
X173033521Y-99325886D01*
X172811283Y-99118183D01*
X172456900Y-98984922D01*
X171958000Y-98920737D01*
X171407667Y-98890666D01*
X170860634Y-98890666D01*
X170861689Y-98770802D01*
X170887584Y-98209353D01*
X170946449Y-97785112D01*
X171048958Y-97479493D01*
X171205783Y-97273914D01*
X171427597Y-97149791D01*
X171725074Y-97088541D01*
X172108886Y-97071581D01*
X172308378Y-97078789D01*
X172649604Y-97123804D01*
X172943775Y-97199886D01*
X173150154Y-97295161D01*
X173228000Y-97397755D01*
X173227890Y-97414463D01*
X173190138Y-97613134D01*
X173069361Y-97675382D01*
X172843342Y-97613681D01*
X172755113Y-97582758D01*
X172454328Y-97519031D01*
X172136198Y-97493666D01*
X172123865Y-97493681D01*
X171852769Y-97510728D01*
X171680572Y-97576784D01*
X171540812Y-97716751D01*
X171419211Y-97947903D01*
X171365333Y-98212578D01*
X171365333Y-98485320D01*
X172051988Y-98542585D01*
X172207217Y-98557244D01*
X172762471Y-98650362D01*
X173171245Y-98801588D01*
X173446804Y-99020522D01*
X173602412Y-99316761D01*
X173650538Y-99693676D01*
G37*
G36*
X172447743Y-107119287D02*
G01*
X172456936Y-107356462D01*
X172336826Y-107742537D01*
X172325817Y-107763699D01*
X172235902Y-107926269D01*
X172188659Y-107993608D01*
X172172300Y-107998179D01*
X172042637Y-108043108D01*
X171831000Y-108120211D01*
X171775439Y-108139477D01*
X171302167Y-108210248D01*
X170834691Y-108128919D01*
X170419296Y-107902624D01*
X170108259Y-107656074D01*
X170052736Y-107908870D01*
X170039219Y-107963727D01*
X169953406Y-108119598D01*
X169792273Y-108161666D01*
X169587333Y-108161666D01*
X169592112Y-106828166D01*
X169592833Y-106706657D01*
X170180000Y-106706657D01*
X170200566Y-106977553D01*
X170326499Y-107350696D01*
X170561671Y-107603987D01*
X170583573Y-107617995D01*
X170910015Y-107756179D01*
X171233223Y-107783791D01*
X171525577Y-107717370D01*
X171759456Y-107573454D01*
X171907243Y-107368580D01*
X171941315Y-107119287D01*
X171834055Y-106842113D01*
X171824423Y-106827682D01*
X171677283Y-106666328D01*
X171470365Y-106553437D01*
X171167191Y-106474939D01*
X170731278Y-106416762D01*
X170180000Y-106360282D01*
X170180000Y-106706657D01*
X169592833Y-106706657D01*
X169593220Y-106641426D01*
X169605576Y-106065071D01*
X169634930Y-105626150D01*
X169686442Y-105299920D01*
X169765272Y-105061638D01*
X169876580Y-104886559D01*
X170025527Y-104749941D01*
X170225833Y-104642191D01*
X170619980Y-104551239D01*
X171082139Y-104549641D01*
X171564683Y-104640776D01*
X171775775Y-104709467D01*
X171974576Y-104813978D01*
X172034819Y-104934069D01*
X171974656Y-105089616D01*
X171908735Y-105138747D01*
X171760579Y-105136121D01*
X171496829Y-105068449D01*
X171259271Y-105003966D01*
X170898026Y-104952337D01*
X170622355Y-104995207D01*
X170394802Y-105134833D01*
X170226192Y-105352144D01*
X170157247Y-105664000D01*
X170137667Y-106002666D01*
X170779495Y-106054868D01*
X170817971Y-106058069D01*
X171346551Y-106123005D01*
X171740709Y-106221896D01*
X172031897Y-106365642D01*
X172251563Y-106565147D01*
X172295194Y-106621953D01*
X172441766Y-106965082D01*
X172447743Y-107119287D01*
G37*
G36*
X179473306Y-103383635D02*
G01*
X179903676Y-103459315D01*
X180225070Y-103571073D01*
X180541864Y-103772784D01*
X180949026Y-104188109D01*
X181237022Y-104708299D01*
X181397541Y-105316522D01*
X181422273Y-105995945D01*
X181315614Y-106658386D01*
X181087892Y-107215213D01*
X180743436Y-107653998D01*
X180286089Y-107969857D01*
X179719698Y-108157909D01*
X179662714Y-108168983D01*
X179358756Y-108216729D01*
X179081527Y-108230827D01*
X178766797Y-108211289D01*
X178350333Y-108158125D01*
X178262121Y-108145785D01*
X177941062Y-108101766D01*
X177719059Y-108054440D01*
X177578009Y-107976181D01*
X177499812Y-107839364D01*
X177466368Y-107616361D01*
X177459575Y-107279546D01*
X177461333Y-106801294D01*
X177461333Y-105621666D01*
X178265667Y-105621666D01*
X179070000Y-105621666D01*
X179070000Y-105871626D01*
X179069772Y-105918401D01*
X179054643Y-106035686D01*
X178987474Y-106099310D01*
X178829220Y-106129578D01*
X178540833Y-106146793D01*
X178011667Y-106172000D01*
X177987063Y-106871288D01*
X177977871Y-107179122D01*
X177982153Y-107406379D01*
X178011412Y-107535908D01*
X178075202Y-107605878D01*
X178183075Y-107654455D01*
X178257163Y-107677516D01*
X178571037Y-107724083D01*
X178961325Y-107733692D01*
X179361014Y-107706808D01*
X179703091Y-107643897D01*
X179950657Y-107539096D01*
X180296416Y-107282800D01*
X180581770Y-106949858D01*
X180753564Y-106593424D01*
X180793134Y-106416826D01*
X180840929Y-105935890D01*
X180827581Y-105428636D01*
X180753114Y-104986946D01*
X180721334Y-104895591D01*
X180552163Y-104592431D01*
X180309087Y-104298715D01*
X179964345Y-104025766D01*
X179511713Y-103841737D01*
X178984183Y-103794630D01*
X178364708Y-103880782D01*
X178227003Y-103911549D01*
X177964492Y-103963671D01*
X177808804Y-103974612D01*
X177718276Y-103943776D01*
X177651245Y-103870566D01*
X177595651Y-103781334D01*
X177581920Y-103646912D01*
X177703023Y-103540009D01*
X177975769Y-103438231D01*
X178100032Y-103406825D01*
X178514315Y-103354013D01*
X178991129Y-103347409D01*
X179473306Y-103383635D01*
G37*
G36*
X158538402Y-34840485D02*
G01*
X159185860Y-34841699D01*
X159695677Y-34845051D01*
X160085788Y-34851613D01*
X160374130Y-34862457D01*
X160578637Y-34878655D01*
X160717247Y-34901279D01*
X160807894Y-34931402D01*
X160868515Y-34970094D01*
X160917045Y-35018429D01*
X160960015Y-35074253D01*
X160996892Y-35153149D01*
X161025864Y-35270477D01*
X161048171Y-35444935D01*
X161065050Y-35695225D01*
X161077737Y-36040047D01*
X161087472Y-36498100D01*
X161095491Y-37088084D01*
X161103032Y-37828700D01*
X161106532Y-38228457D01*
X161110384Y-38948948D01*
X161107955Y-39525866D01*
X161097336Y-39976622D01*
X161076620Y-40318629D01*
X161043898Y-40569298D01*
X160997264Y-40746039D01*
X160934809Y-40866265D01*
X160854626Y-40947387D01*
X160754807Y-41006815D01*
X160703539Y-41021773D01*
X160471980Y-41047832D01*
X160073444Y-41066779D01*
X159509428Y-41078576D01*
X158781426Y-41083184D01*
X157890935Y-41080564D01*
X157846036Y-41080274D01*
X157107171Y-41074891D01*
X156518110Y-41068602D01*
X156060331Y-41060251D01*
X155715315Y-41048681D01*
X155464540Y-41032734D01*
X155289485Y-41011255D01*
X155171630Y-40983084D01*
X155092453Y-40947066D01*
X155033435Y-40902044D01*
X155000052Y-40870115D01*
X154957891Y-40815033D01*
X154924829Y-40735728D01*
X154899761Y-40614063D01*
X154881581Y-40431898D01*
X154869185Y-40171094D01*
X154861467Y-39813513D01*
X154857323Y-39341016D01*
X154855647Y-38735463D01*
X154855333Y-37978716D01*
X154855403Y-37742832D01*
X154856983Y-37013619D01*
X154861240Y-36431092D01*
X154868963Y-35977610D01*
X154880938Y-35635533D01*
X154897955Y-35387224D01*
X154920802Y-35215043D01*
X154950265Y-35101349D01*
X154987134Y-35028505D01*
X155025199Y-34978108D01*
X155073500Y-34937124D01*
X155149229Y-34905199D01*
X155270126Y-34881202D01*
X155453928Y-34864000D01*
X155718373Y-34852463D01*
X156081199Y-34845459D01*
X156560145Y-34841857D01*
X157172947Y-34840525D01*
X157937345Y-34840333D01*
X158538402Y-34840485D01*
G37*
G36*
X163405872Y-88602342D02*
G01*
X163406667Y-88608571D01*
X163391545Y-88861372D01*
X163317555Y-89069770D01*
X163151949Y-89268692D01*
X163098206Y-89319447D01*
X162887014Y-89477994D01*
X162707449Y-89560008D01*
X162192411Y-89592453D01*
X161728543Y-89486258D01*
X161349052Y-89246746D01*
X161296206Y-89199368D01*
X161140113Y-89098489D01*
X161059145Y-89142843D01*
X161036000Y-89337444D01*
X161035558Y-89362147D01*
X160986585Y-89498919D01*
X160824333Y-89535000D01*
X160612667Y-89535000D01*
X160612983Y-88116833D01*
X160613078Y-87991359D01*
X160614206Y-87799333D01*
X161163000Y-87799333D01*
X161168118Y-88198266D01*
X161168973Y-88235217D01*
X161239304Y-88606173D01*
X161434441Y-88878527D01*
X161774114Y-89081018D01*
X162016506Y-89165439D01*
X162286889Y-89182153D01*
X162558594Y-89087452D01*
X162574243Y-89079216D01*
X162786469Y-88877505D01*
X162879887Y-88602342D01*
X162832815Y-88314816D01*
X162788855Y-88234552D01*
X162566616Y-88026849D01*
X162212234Y-87893588D01*
X161713333Y-87829404D01*
X161163000Y-87799333D01*
X160614206Y-87799333D01*
X160616018Y-87490714D01*
X160625208Y-87124294D01*
X160643542Y-86863126D01*
X160673915Y-86678235D01*
X160719222Y-86540648D01*
X160782356Y-86421389D01*
X160800853Y-86392491D01*
X160978798Y-86189151D01*
X161168551Y-86061556D01*
X161381818Y-86007826D01*
X161704464Y-85981233D01*
X162058166Y-85992381D01*
X162402912Y-86035873D01*
X162698696Y-86106309D01*
X162905506Y-86198291D01*
X162983333Y-86306421D01*
X162983223Y-86323130D01*
X162945471Y-86521800D01*
X162824695Y-86584049D01*
X162598675Y-86522348D01*
X162510446Y-86491425D01*
X162209662Y-86427698D01*
X161891531Y-86402333D01*
X161879198Y-86402348D01*
X161608102Y-86419395D01*
X161435906Y-86485451D01*
X161296145Y-86625418D01*
X161174544Y-86856569D01*
X161120667Y-87121245D01*
X161120667Y-87393987D01*
X161807321Y-87451252D01*
X161962551Y-87465911D01*
X162517804Y-87559029D01*
X162926578Y-87710255D01*
X163202137Y-87929189D01*
X163357745Y-88225428D01*
X163405872Y-88602342D01*
G37*
G36*
X176780090Y-88602342D02*
G01*
X176772379Y-88735915D01*
X176658180Y-89104813D01*
X176412121Y-89375497D01*
X176022000Y-89564458D01*
X175827680Y-89603025D01*
X175438573Y-89579803D01*
X175048218Y-89455340D01*
X174726386Y-89246746D01*
X174673540Y-89199368D01*
X174517446Y-89098489D01*
X174436478Y-89142843D01*
X174413333Y-89337444D01*
X174412892Y-89362147D01*
X174363918Y-89498919D01*
X174201667Y-89535000D01*
X173990000Y-89535000D01*
X173990317Y-88116833D01*
X173990411Y-87991359D01*
X173991539Y-87799333D01*
X174540333Y-87799333D01*
X174545576Y-88200259D01*
X174549309Y-88286001D01*
X174649183Y-88663411D01*
X174884051Y-88938605D01*
X175253713Y-89111323D01*
X175411314Y-89153436D01*
X175608484Y-89187573D01*
X175758841Y-89166436D01*
X175935927Y-89087452D01*
X175951577Y-89079216D01*
X176163803Y-88877505D01*
X176257221Y-88602342D01*
X176210149Y-88314816D01*
X176166188Y-88234552D01*
X175943950Y-88026849D01*
X175589567Y-87893588D01*
X175090667Y-87829404D01*
X174540333Y-87799333D01*
X173991539Y-87799333D01*
X173993351Y-87490714D01*
X174002541Y-87124294D01*
X174020876Y-86863126D01*
X174051249Y-86678235D01*
X174096555Y-86540648D01*
X174159689Y-86421389D01*
X174178187Y-86392491D01*
X174356131Y-86189151D01*
X174545884Y-86061556D01*
X174759151Y-86007826D01*
X175081797Y-85981233D01*
X175435499Y-85992381D01*
X175780246Y-86035873D01*
X176076029Y-86106309D01*
X176282839Y-86198291D01*
X176360667Y-86306421D01*
X176360557Y-86323130D01*
X176322805Y-86521800D01*
X176202028Y-86584049D01*
X175976008Y-86522348D01*
X175887779Y-86491425D01*
X175586995Y-86427698D01*
X175268865Y-86402333D01*
X175256532Y-86402348D01*
X174985436Y-86419395D01*
X174813239Y-86485451D01*
X174673479Y-86625418D01*
X174551878Y-86856569D01*
X174498000Y-87121245D01*
X174498000Y-87393987D01*
X175184655Y-87451252D01*
X175242906Y-87456427D01*
X175606148Y-87501443D01*
X175927802Y-87560594D01*
X176144106Y-87622498D01*
X176480989Y-87840320D01*
X176704468Y-88156220D01*
X176784000Y-88534622D01*
X176780090Y-88602342D01*
G37*
G36*
X169672000Y-98848333D02*
G01*
X169672000Y-100626333D01*
X169425599Y-100626333D01*
X169179198Y-100626333D01*
X169150432Y-99306926D01*
X169121667Y-97987519D01*
X168845164Y-97740592D01*
X168757388Y-97666928D01*
X168508102Y-97530616D01*
X168205180Y-97493666D01*
X168146812Y-97494358D01*
X167900223Y-97522266D01*
X167712585Y-97604881D01*
X167576164Y-97761231D01*
X167483229Y-98010340D01*
X167426048Y-98371237D01*
X167396889Y-98862948D01*
X167388020Y-99504500D01*
X167386000Y-100626333D01*
X167132000Y-100626333D01*
X166878000Y-100626333D01*
X166878000Y-99394462D01*
X166877994Y-99374434D01*
X166867870Y-98758104D01*
X166831811Y-98290254D01*
X166759918Y-97951327D01*
X166642293Y-97721763D01*
X166469038Y-97582003D01*
X166230255Y-97512491D01*
X165916045Y-97493666D01*
X165705733Y-97504582D01*
X165512853Y-97568899D01*
X165360145Y-97716751D01*
X165342095Y-97740264D01*
X165280487Y-97839307D01*
X165237349Y-97963013D01*
X165209439Y-98140312D01*
X165193516Y-98400137D01*
X165186339Y-98771417D01*
X165184667Y-99283084D01*
X165184667Y-100626333D01*
X164930667Y-100626333D01*
X164676667Y-100626333D01*
X164676983Y-99208166D01*
X164677078Y-99082692D01*
X164680018Y-98582047D01*
X164689208Y-98215628D01*
X164707542Y-97954459D01*
X164737915Y-97769568D01*
X164783222Y-97631981D01*
X164846356Y-97512722D01*
X164939101Y-97381230D01*
X165159990Y-97197582D01*
X165464389Y-97099413D01*
X165891006Y-97070333D01*
X166146960Y-97087491D01*
X166546686Y-97215738D01*
X166853533Y-97475389D01*
X166872106Y-97496791D01*
X166953477Y-97539734D01*
X167068121Y-97491024D01*
X167258646Y-97336001D01*
X167317228Y-97285716D01*
X167517162Y-97147965D01*
X167727932Y-97085218D01*
X168028151Y-97070333D01*
X168101267Y-97071490D01*
X168528165Y-97130264D01*
X168862982Y-97268355D01*
X169071312Y-97472498D01*
X169122294Y-97543656D01*
X169167982Y-97518524D01*
X169213104Y-97345500D01*
X169235595Y-97253452D01*
X169319022Y-97108570D01*
X169470917Y-97070333D01*
X169672000Y-97070333D01*
X169672000Y-98848333D01*
G37*
G36*
X176854302Y-68047269D02*
G01*
X177298580Y-68126307D01*
X177495265Y-68202921D01*
X177855899Y-68425322D01*
X178163316Y-68711974D01*
X178360852Y-69015448D01*
X178364000Y-69023101D01*
X178445952Y-69357880D01*
X178473147Y-69769839D01*
X178445479Y-70179875D01*
X178362845Y-70508886D01*
X178360075Y-70515425D01*
X178173055Y-70825238D01*
X177873235Y-71124985D01*
X177442919Y-71429359D01*
X176864415Y-71753049D01*
X176608473Y-71885693D01*
X176284868Y-72062647D01*
X176070492Y-72201549D01*
X175938166Y-72324544D01*
X175860713Y-72453777D01*
X175810952Y-72611391D01*
X175801620Y-72655596D01*
X175821198Y-72857169D01*
X175966552Y-73076584D01*
X176013078Y-73129362D01*
X176129435Y-73234904D01*
X176265966Y-73291190D01*
X176472345Y-73312299D01*
X176798240Y-73312309D01*
X176894570Y-73309960D01*
X177449288Y-73246684D01*
X177990500Y-73083270D01*
X178562000Y-72863255D01*
X178562000Y-73487458D01*
X178562000Y-74111661D01*
X178202167Y-74242683D01*
X178118437Y-74272122D01*
X177844129Y-74356965D01*
X177630667Y-74407488D01*
X177490840Y-74422929D01*
X177212356Y-74441135D01*
X176894001Y-74452803D01*
X176891744Y-74452852D01*
X176190061Y-74411320D01*
X175600919Y-74257533D01*
X175130823Y-73996472D01*
X174786278Y-73633119D01*
X174573789Y-73172455D01*
X174499860Y-72619460D01*
X174511114Y-72379698D01*
X174600952Y-71989765D01*
X174793793Y-71643470D01*
X175105503Y-71322150D01*
X175551950Y-71007144D01*
X176149000Y-70679790D01*
X176324929Y-70588744D01*
X176774273Y-70315566D01*
X177062118Y-70060679D01*
X177192749Y-69817321D01*
X177170453Y-69578732D01*
X176999515Y-69338151D01*
X176847345Y-69226385D01*
X176512795Y-69135527D01*
X176066542Y-69159098D01*
X175501859Y-69296915D01*
X175230016Y-69371403D01*
X175016309Y-69410363D01*
X174915874Y-69402748D01*
X174879650Y-69339341D01*
X174793056Y-69152077D01*
X174686410Y-68897882D01*
X174603018Y-68683263D01*
X174557770Y-68521015D01*
X174574777Y-68433965D01*
X174651018Y-68377724D01*
X174759159Y-68325809D01*
X175211602Y-68178275D01*
X175751289Y-68078906D01*
X176318697Y-68033353D01*
X176854302Y-68047269D01*
G37*
G36*
X148713184Y-71024757D02*
G01*
X148720851Y-71189698D01*
X148706620Y-71747778D01*
X148651535Y-72250683D01*
X148554948Y-72644000D01*
X148271272Y-73236148D01*
X147871930Y-73731673D01*
X147361984Y-74101725D01*
X146733315Y-74353925D01*
X146710469Y-74360196D01*
X146291116Y-74427996D01*
X145787928Y-74444197D01*
X145263163Y-74412391D01*
X144779076Y-74336171D01*
X144397924Y-74219131D01*
X144317390Y-74181883D01*
X143789258Y-73835803D01*
X143363315Y-73366937D01*
X143046323Y-72790860D01*
X142845039Y-72123149D01*
X142766224Y-71379380D01*
X142777175Y-71204666D01*
X144229667Y-71204666D01*
X144231790Y-71521431D01*
X144245598Y-71867942D01*
X144278124Y-72122077D01*
X144336078Y-72329275D01*
X144426174Y-72534973D01*
X144470540Y-72617975D01*
X144678477Y-72906684D01*
X144907170Y-73109771D01*
X145033565Y-73176866D01*
X145454473Y-73301736D01*
X145911816Y-73327855D01*
X146325969Y-73247494D01*
X146437670Y-73203974D01*
X146711415Y-73060233D01*
X146907455Y-72865904D01*
X147088332Y-72564997D01*
X147153816Y-72408517D01*
X147250293Y-72009844D01*
X147305353Y-71530135D01*
X147316495Y-71024757D01*
X147281220Y-70549074D01*
X147197026Y-70158454D01*
X147130864Y-69986032D01*
X146868158Y-69574033D01*
X146503662Y-69296344D01*
X146041228Y-69155226D01*
X145484705Y-69152941D01*
X145428960Y-69160058D01*
X145034006Y-69276835D01*
X144715737Y-69515595D01*
X144441333Y-69899833D01*
X144441127Y-69900197D01*
X144346128Y-70084354D01*
X144284560Y-70263251D01*
X144249346Y-70480515D01*
X144233407Y-70779777D01*
X144229667Y-71204666D01*
X142777175Y-71204666D01*
X142816635Y-70575129D01*
X142922208Y-70037686D01*
X143156785Y-69395939D01*
X143497297Y-68879799D01*
X143949534Y-68481162D01*
X144519282Y-68191928D01*
X144604811Y-68160795D01*
X144853125Y-68088180D01*
X145113823Y-68048256D01*
X145438979Y-68035357D01*
X145880667Y-68043819D01*
X146124640Y-68053378D01*
X146489381Y-68079433D01*
X146764405Y-68124241D01*
X147001966Y-68197955D01*
X147254320Y-68310727D01*
X147769562Y-68646182D01*
X148203500Y-69122100D01*
X148520141Y-69716281D01*
X148524885Y-69728552D01*
X148629336Y-70125670D01*
X148694874Y-70630857D01*
X148713184Y-71024757D01*
G37*
G36*
X158078886Y-93022823D02*
G01*
X160413543Y-93023816D01*
X162910531Y-93025332D01*
X165573350Y-93027361D01*
X167018144Y-93028572D01*
X169395268Y-93030626D01*
X171611882Y-93032653D01*
X173673587Y-93034689D01*
X175585980Y-93036773D01*
X177354659Y-93038939D01*
X178985223Y-93041227D01*
X180483270Y-93043671D01*
X181854400Y-93046310D01*
X183104210Y-93049181D01*
X184238299Y-93052319D01*
X185262266Y-93055763D01*
X186181708Y-93059550D01*
X187002225Y-93063715D01*
X187729415Y-93068297D01*
X188368876Y-93073332D01*
X188926207Y-93078857D01*
X189407007Y-93084908D01*
X189816873Y-93091524D01*
X190161405Y-93098741D01*
X190446201Y-93106596D01*
X190676859Y-93115125D01*
X190858977Y-93124367D01*
X190998156Y-93134357D01*
X191099991Y-93145133D01*
X191170084Y-93156731D01*
X191214030Y-93169190D01*
X191237431Y-93182544D01*
X191245882Y-93196833D01*
X191245377Y-93206498D01*
X191233081Y-93220119D01*
X191202002Y-93232818D01*
X191146565Y-93244629D01*
X191061195Y-93255582D01*
X190940314Y-93265712D01*
X190778347Y-93275048D01*
X190569718Y-93283625D01*
X190308851Y-93291473D01*
X189990170Y-93298625D01*
X189608099Y-93305113D01*
X189157062Y-93310970D01*
X188631483Y-93316226D01*
X188025786Y-93320916D01*
X187334396Y-93325070D01*
X186551736Y-93328720D01*
X185672230Y-93331899D01*
X184690302Y-93334640D01*
X183600377Y-93336973D01*
X182396878Y-93338932D01*
X181074229Y-93340548D01*
X179626855Y-93341854D01*
X178049179Y-93342881D01*
X176335626Y-93343662D01*
X174480620Y-93344229D01*
X172478583Y-93344615D01*
X170323942Y-93344850D01*
X168011119Y-93344967D01*
X165534538Y-93345000D01*
X164150411Y-93344907D01*
X161948025Y-93344367D01*
X159816713Y-93343359D01*
X157761933Y-93341898D01*
X155789144Y-93340000D01*
X153903805Y-93337681D01*
X152111374Y-93334958D01*
X150417311Y-93331845D01*
X148827074Y-93328359D01*
X147346123Y-93324515D01*
X145979916Y-93320331D01*
X144733912Y-93315820D01*
X143613570Y-93311000D01*
X142624349Y-93305887D01*
X141771708Y-93300495D01*
X141061106Y-93294842D01*
X140498001Y-93288942D01*
X140087853Y-93282813D01*
X139836121Y-93276469D01*
X139748262Y-93269926D01*
X139740830Y-93217059D01*
X139815608Y-93100454D01*
X139833417Y-93095576D01*
X139944166Y-93086159D01*
X140157723Y-93077434D01*
X140477589Y-93069391D01*
X140907266Y-93062020D01*
X141450253Y-93055311D01*
X142110054Y-93049254D01*
X142890169Y-93043839D01*
X143794099Y-93039056D01*
X144825346Y-93034896D01*
X145987411Y-93031348D01*
X147283796Y-93028403D01*
X148718001Y-93026050D01*
X150293529Y-93024279D01*
X152013880Y-93023081D01*
X153882555Y-93022446D01*
X155903057Y-93022363D01*
X158078886Y-93022823D01*
G37*
%LPC*%
D11*
X157475000Y-111557000D03*
D12*
X162555000Y-111557000D03*
D13*
X165862000Y-43688000D03*
D14*
X163322000Y-43688000D03*
X160782000Y-43688000D03*
X158242000Y-43688000D03*
X155702000Y-43688000D03*
X153162000Y-43688000D03*
D15*
X145186400Y-66471800D03*
D16*
X147726400Y-66471800D03*
X150266400Y-66471800D03*
X152806400Y-66471800D03*
X155346400Y-66471800D03*
X155346400Y-53971800D03*
X152806400Y-53971800D03*
X150266400Y-53971800D03*
X147726400Y-53971800D03*
X145186400Y-53971800D03*
D12*
X209093000Y-41661000D03*
D11*
X209093000Y-36581000D03*
D17*
X136652000Y-43180000D03*
D18*
X139192000Y-43180000D03*
X141732000Y-43180000D03*
X144272000Y-43180000D03*
D17*
X208788000Y-89281000D03*
D18*
X208788000Y-86741000D03*
D19*
X198628000Y-65226000D03*
X198628000Y-58726000D03*
X203128000Y-65226000D03*
X203128000Y-58726000D03*
D20*
X189083000Y-43053000D03*
D19*
X181483000Y-43053000D03*
D12*
X198628000Y-111506000D03*
D11*
X203708000Y-111506000D03*
D21*
X180900000Y-31000000D03*
D22*
X183440000Y-31000000D03*
X185980000Y-31000000D03*
D17*
X149322000Y-113538000D03*
D18*
X146782000Y-113538000D03*
X144242000Y-113538000D03*
X141702000Y-113538000D03*
D15*
X190350000Y-64750000D03*
D16*
X190350000Y-62210000D03*
X190350000Y-59670000D03*
X190350000Y-57130000D03*
D17*
X152400000Y-97028000D03*
D18*
X154940000Y-97028000D03*
X157480000Y-97028000D03*
D17*
X208788000Y-67056000D03*
D18*
X208788000Y-69596000D03*
X208788000Y-72136000D03*
X208788000Y-74676000D03*
D23*
X197702000Y-89060000D03*
D24*
X200202000Y-89060000D03*
X202702000Y-89060000D03*
X197702000Y-83660000D03*
X200202000Y-83660000D03*
X202702000Y-83660000D03*
D25*
X119786400Y-61722000D03*
D26*
X119786400Y-64262000D03*
X119786400Y-66802000D03*
X119786400Y-69342000D03*
X119786400Y-71882000D03*
X119786400Y-74422000D03*
X119786400Y-87122000D03*
X119786400Y-89662000D03*
X119786400Y-92202000D03*
X119786400Y-94742000D03*
X119786400Y-97282000D03*
X119786400Y-99822000D03*
D17*
X208788000Y-95040000D03*
D18*
X208788000Y-97580000D03*
X208788000Y-100120000D03*
D17*
X157480000Y-92710000D03*
D18*
X154940000Y-92710000D03*
X152400000Y-92710000D03*
D13*
X143256000Y-97262000D03*
D14*
X140716000Y-97262000D03*
X138176000Y-97262000D03*
X135636000Y-97262000D03*
D19*
X198628000Y-78434000D03*
X198628000Y-71934000D03*
X203128000Y-78434000D03*
X203128000Y-71934000D03*
D27*
X198100000Y-51770000D03*
D28*
X198100000Y-49230000D03*
X198100000Y-46690000D03*
X198100000Y-44150000D03*
D29*
X181975000Y-102605000D03*
X181975000Y-100065000D03*
X181975000Y-97525000D03*
X181975000Y-94985000D03*
X181975000Y-92445000D03*
X181975000Y-89905000D03*
X181975000Y-87365000D03*
X181975000Y-84825000D03*
X181975000Y-82285000D03*
X181975000Y-79745000D03*
X181975000Y-77205000D03*
X181975000Y-74665000D03*
X181975000Y-72125000D03*
X181975000Y-69585000D03*
X181975000Y-67045000D03*
X181975000Y-64505000D03*
X181975000Y-61965000D03*
X181975000Y-59425000D03*
X181975000Y-56885000D03*
X181975000Y-54345000D03*
D17*
X166735000Y-54345000D03*
D29*
X166735000Y-56885000D03*
X166735000Y-59425000D03*
X166735000Y-61965000D03*
X166735000Y-64505000D03*
X166735000Y-67045000D03*
X166735000Y-69585000D03*
X166735000Y-72125000D03*
X166735000Y-74665000D03*
X166735000Y-77205000D03*
X166735000Y-79745000D03*
X166735000Y-82285000D03*
X166735000Y-84825000D03*
X166735000Y-87365000D03*
X166735000Y-89905000D03*
X166735000Y-92445000D03*
X166735000Y-94985000D03*
X166735000Y-97525000D03*
X166735000Y-100065000D03*
X166735000Y-102605000D03*
D12*
X167132000Y-32258000D03*
D11*
X162052000Y-32258000D03*
X156972000Y-32258000D03*
X151892000Y-32258000D03*
D17*
X188468000Y-75184000D03*
D18*
X188468000Y-77724000D03*
X188468000Y-80264000D03*
X188468000Y-82804000D03*
X188468000Y-85344000D03*
X188468000Y-87884000D03*
D30*
X125860000Y-45220000D03*
X128400000Y-37600000D03*
X125860000Y-32520000D03*
D12*
X186436000Y-111570000D03*
D11*
X191516000Y-111570000D03*
D31*
X197358000Y-99314000D03*
X199898000Y-96774000D03*
X202438000Y-99314000D03*
D17*
X135128000Y-29718000D03*
D18*
X135128000Y-32258000D03*
X137668000Y-29718000D03*
X137668000Y-32258000D03*
X140208000Y-29718000D03*
X140208000Y-32258000D03*
X142748000Y-29718000D03*
X142748000Y-32258000D03*
D17*
X126170000Y-70110000D03*
D18*
X126170000Y-72650000D03*
X126170000Y-75190000D03*
X126170000Y-77730000D03*
X126170000Y-80270000D03*
X126170000Y-82810000D03*
X126170000Y-85350000D03*
X126170000Y-87890000D03*
D12*
X209042000Y-53340000D03*
D11*
X209042000Y-48260000D03*
M02*
