M48
; DRILL file {KiCad 7.0.1} date Mon Dec 11 01:43:38 2023
; FORMAT={-:-/ absolute / metric / decimal}
; #@! TF.CreationDate,2023-12-11T01:43:38-03:00
; #@! TF.GenerationSoftware,Kicad,Pcbnew,7.0.1
; #@! TF.FileFunction,Plated,1,2,PTH
FMAT,2
METRIC
; #@! TA.AperFunction,Plated,PTH,ViaDrill
T1C0.400
; #@! TA.AperFunction,Plated,PTH,ComponentDrill
T2C0.700
; #@! TA.AperFunction,Plated,PTH,ComponentDrill
T3C0.800
; #@! TA.AperFunction,Plated,PTH,ComponentDrill
T4C1.000
; #@! TA.AperFunction,Plated,PTH,ComponentDrill
T5C1.100
; #@! TA.AperFunction,Plated,PTH,ComponentDrill
T6C1.190
; #@! TA.AperFunction,Plated,PTH,ComponentDrill
T7C1.200
; #@! TA.AperFunction,Plated,PTH,ComponentDrill
T8C1.300
; #@! TA.AperFunction,Plated,PTH,ViaDrill
T9C3.500
%
G90
G05
T1
X120.1Y-51.3
X120.12Y-106.02
X123.21Y-57.61
X123.34Y-67.27
X129.31Y-53.03
X131.58Y-51.75
X131.63Y-47.15
X131.85Y-80.875
X131.86Y-77.4
X132.461Y-37.592
X132.95Y-86.2
X133.35Y-77.39
X133.35Y-80.8
X134.61Y-47.14
X134.62Y-56.51
X135.58Y-67.27
X138.1Y-107.35
X138.825Y-75.55
X140.6Y-86.2
X142.6Y-75.5
X145.35Y-37.55
X146.55Y-75.525
X147.05Y-107.3
X147.075Y-94.4
X149.1Y-61.75
X150.114Y-87.884
X150.175Y-43.25
X150.175Y-75.65
X150.848Y-81.788
X154.125Y-75.55
X156.8Y-61.725
X157.125Y-102.625
X157.8Y-75.6
X158.75Y-105.1
X167.368Y-114.894
X167.8Y-106.45
X169.418Y-106.426
X169.418Y-109.35
X170.942Y-66.548
X171.8Y-35.575
X173.05Y-57.5
X175.514Y-60.706
X175.768Y-28.702
X176.325Y-78.1
X178.525Y-94.925
X178.6Y-83.35
X178.6Y-114.95
X179.8Y-102.825
X180.086Y-35.56
X181.6Y-109.1
X185.05Y-44.1
X185.725Y-89.175
X186.817Y-35.56
X187.675Y-107.975
X189.6Y-100.75
X191.135Y-36.862
X193.04Y-89.154
X193.4Y-65.4
X194.8Y-72.35
X196.1Y-56.1
X203.0Y-28.75
X205.74Y-82.804
X207.159Y-28.796
X212.65Y-60.775
X213.125Y-78.25
X213.2Y-107.85
T2
X197.358Y-99.314
X199.898Y-96.774
X202.438Y-99.314
T3
X145.186Y-53.972
X145.186Y-66.472
X147.726Y-53.972
X147.726Y-66.472
X150.266Y-53.972
X150.266Y-66.472
X152.806Y-53.972
X152.806Y-66.472
X155.346Y-53.972
X155.346Y-66.472
X190.35Y-57.13
X190.35Y-59.67
X190.35Y-62.21
X190.35Y-64.75
X197.702Y-83.66
X197.702Y-89.06
X200.202Y-83.66
X200.202Y-89.06
X202.702Y-83.66
X202.702Y-89.06
T4
X125.86Y-32.52
X125.86Y-45.22
X126.17Y-70.11
X126.17Y-72.65
X126.17Y-75.19
X126.17Y-77.73
X126.17Y-80.27
X126.17Y-82.81
X126.17Y-85.35
X126.17Y-87.89
X128.4Y-37.6
X135.128Y-29.718
X135.128Y-32.258
X136.652Y-43.18
X137.668Y-29.718
X137.668Y-32.258
X139.192Y-43.18
X140.208Y-29.718
X140.208Y-32.258
X141.702Y-113.538
X141.732Y-43.18
X142.748Y-29.718
X142.748Y-32.258
X144.242Y-113.538
X144.272Y-43.18
X146.782Y-113.538
X149.322Y-113.538
X152.4Y-92.71
X152.4Y-97.028
X154.94Y-92.71
X154.94Y-97.028
X157.48Y-92.71
X157.48Y-97.028
X166.735Y-54.345
X166.735Y-56.885
X166.735Y-59.425
X166.735Y-61.965
X166.735Y-64.505
X166.735Y-67.045
X166.735Y-69.585
X166.735Y-72.125
X166.735Y-74.665
X166.735Y-77.205
X166.735Y-79.745
X166.735Y-82.285
X166.735Y-84.825
X166.735Y-87.365
X166.735Y-89.905
X166.735Y-92.445
X166.735Y-94.985
X166.735Y-97.525
X166.735Y-100.065
X166.735Y-102.605
X181.483Y-43.053
X181.975Y-54.345
X181.975Y-56.885
X181.975Y-59.425
X181.975Y-61.965
X181.975Y-64.505
X181.975Y-67.045
X181.975Y-69.585
X181.975Y-72.125
X181.975Y-74.665
X181.975Y-77.205
X181.975Y-79.745
X181.975Y-82.285
X181.975Y-84.825
X181.975Y-87.365
X181.975Y-89.905
X181.975Y-92.445
X181.975Y-94.985
X181.975Y-97.525
X181.975Y-100.065
X181.975Y-102.605
X188.468Y-75.184
X188.468Y-77.724
X188.468Y-80.264
X188.468Y-82.804
X188.468Y-85.344
X188.468Y-87.884
X189.083Y-43.053
X208.788Y-67.056
X208.788Y-69.596
X208.788Y-72.136
X208.788Y-74.676
X208.788Y-86.741
X208.788Y-89.281
X208.788Y-95.04
X208.788Y-97.58
X208.788Y-100.12
T5
X180.9Y-31.0
X183.44Y-31.0
X185.98Y-31.0
X198.628Y-58.726
X198.628Y-65.226
X198.628Y-71.934
X198.628Y-78.434
X203.128Y-58.726
X203.128Y-65.226
X203.128Y-71.934
X203.128Y-78.434
T6
X135.636Y-97.262
X138.176Y-97.262
X140.716Y-97.262
X143.256Y-97.262
X153.162Y-43.688
X155.702Y-43.688
X158.242Y-43.688
X160.782Y-43.688
X163.322Y-43.688
X165.862Y-43.688
X198.1Y-44.15
X198.1Y-46.69
X198.1Y-49.23
X198.1Y-51.77
T7
X119.786Y-61.722
X119.786Y-64.262
X119.786Y-66.802
X119.786Y-69.342
X119.786Y-71.882
X119.786Y-74.422
X119.786Y-87.122
X119.786Y-89.662
X119.786Y-92.202
X119.786Y-94.742
X119.786Y-97.282
X119.786Y-99.822
T8
X151.892Y-32.258
X156.972Y-32.258
X157.475Y-111.557
X162.052Y-32.258
X162.555Y-111.557
X167.132Y-32.258
X186.436Y-111.57
X191.516Y-111.57
X198.628Y-111.506
X203.708Y-111.506
X209.042Y-48.26
X209.042Y-53.34
X209.093Y-36.581
X209.093Y-41.661
T9
X119.37Y-112.92
X119.48Y-30.47
X210.72Y-113.03
X210.83Y-30.58
T0
M30
