%TF.GenerationSoftware,KiCad,Pcbnew,7.0.1*%
%TF.CreationDate,2023-12-11T01:43:41-03:00*%
%TF.ProjectId,Shield STM32 Bluepill,53686965-6c64-4205-9354-4d333220426c,2.0*%
%TF.SameCoordinates,Original*%
%TF.FileFunction,Drillmap*%
%TF.FilePolarity,Positive*%
%FSLAX45Y45*%
G04 Gerber Fmt 4.5, Leading zero omitted, Abs format (unit mm)*
G04 Created by KiCad (PCBNEW 7.0.1) date 2023-12-11 01:43:41*
%MOMM*%
%LPD*%
G01*
G04 APERTURE LIST*
%ADD10C,0.100000*%
%ADD11C,0.200000*%
%ADD12C,0.040000*%
%ADD13C,0.070000*%
%ADD14C,0.080000*%
%ADD15C,0.110000*%
%ADD16C,0.119000*%
%ADD17C,0.120000*%
%ADD18C,0.130000*%
%ADD19C,0.350000*%
G04 APERTURE END LIST*
D10*
X21460000Y-3050000D02*
G75*
G03*
X21080000Y-2670000I-380000J0D01*
G01*
X21080000Y-11680000D02*
G75*
G03*
X21460000Y-11300000I0J380000D01*
G01*
X11560000Y-11300000D02*
G75*
G03*
X11940000Y-11680000I380000J0D01*
G01*
X11940000Y-11680000D02*
X21080000Y-11680000D01*
X11560000Y-3050000D02*
X11560000Y-11300000D01*
X11940000Y-2670000D02*
G75*
G03*
X11560000Y-3050000I0J-380000D01*
G01*
X21080000Y-2670000D02*
X11940000Y-2670000D01*
X21460000Y-11300000D02*
X21460000Y-3050000D01*
D11*
D12*
X11990000Y-5110000D02*
X12030000Y-5150000D01*
X12030000Y-5110000D02*
X11990000Y-5150000D01*
X11992000Y-10582000D02*
X12032000Y-10622000D01*
X12032000Y-10582000D02*
X11992000Y-10622000D01*
X12301000Y-5741000D02*
X12341000Y-5781000D01*
X12341000Y-5741000D02*
X12301000Y-5781000D01*
X12314000Y-6707000D02*
X12354000Y-6747000D01*
X12354000Y-6707000D02*
X12314000Y-6747000D01*
X12911000Y-5283000D02*
X12951000Y-5323000D01*
X12951000Y-5283000D02*
X12911000Y-5323000D01*
X13138000Y-5155000D02*
X13178000Y-5195000D01*
X13178000Y-5155000D02*
X13138000Y-5195000D01*
X13143000Y-4695000D02*
X13183000Y-4735000D01*
X13183000Y-4695000D02*
X13143000Y-4735000D01*
X13165000Y-8067500D02*
X13205000Y-8107500D01*
X13205000Y-8067500D02*
X13165000Y-8107500D01*
X13166000Y-7720000D02*
X13206000Y-7760000D01*
X13206000Y-7720000D02*
X13166000Y-7760000D01*
X13226100Y-3739200D02*
X13266100Y-3779200D01*
X13266100Y-3739200D02*
X13226100Y-3779200D01*
X13275000Y-8600000D02*
X13315000Y-8640000D01*
X13315000Y-8600000D02*
X13275000Y-8640000D01*
X13315000Y-7719000D02*
X13355000Y-7759000D01*
X13355000Y-7719000D02*
X13315000Y-7759000D01*
X13315000Y-8060000D02*
X13355000Y-8100000D01*
X13355000Y-8060000D02*
X13315000Y-8100000D01*
X13441000Y-4694000D02*
X13481000Y-4734000D01*
X13481000Y-4694000D02*
X13441000Y-4734000D01*
X13442000Y-5631000D02*
X13482000Y-5671000D01*
X13482000Y-5631000D02*
X13442000Y-5671000D01*
X13538000Y-6707000D02*
X13578000Y-6747000D01*
X13578000Y-6707000D02*
X13538000Y-6747000D01*
X13790000Y-10715000D02*
X13830000Y-10755000D01*
X13830000Y-10715000D02*
X13790000Y-10755000D01*
X13862500Y-7535000D02*
X13902500Y-7575000D01*
X13902500Y-7535000D02*
X13862500Y-7575000D01*
X14040000Y-8600000D02*
X14080000Y-8640000D01*
X14080000Y-8600000D02*
X14040000Y-8640000D01*
X14240000Y-7530000D02*
X14280000Y-7570000D01*
X14280000Y-7530000D02*
X14240000Y-7570000D01*
X14515000Y-3735000D02*
X14555000Y-3775000D01*
X14555000Y-3735000D02*
X14515000Y-3775000D01*
X14635000Y-7532500D02*
X14675000Y-7572500D01*
X14675000Y-7532500D02*
X14635000Y-7572500D01*
X14685000Y-10710000D02*
X14725000Y-10750000D01*
X14725000Y-10710000D02*
X14685000Y-10750000D01*
X14687500Y-9420000D02*
X14727500Y-9460000D01*
X14727500Y-9420000D02*
X14687500Y-9460000D01*
X14890000Y-6155000D02*
X14930000Y-6195000D01*
X14930000Y-6155000D02*
X14890000Y-6195000D01*
X14991400Y-8768400D02*
X15031400Y-8808400D01*
X15031400Y-8768400D02*
X14991400Y-8808400D01*
X14997500Y-4305000D02*
X15037500Y-4345000D01*
X15037500Y-4305000D02*
X14997500Y-4345000D01*
X14997500Y-7545000D02*
X15037500Y-7585000D01*
X15037500Y-7545000D02*
X14997500Y-7585000D01*
X15064800Y-8158800D02*
X15104800Y-8198800D01*
X15104800Y-8158800D02*
X15064800Y-8198800D01*
X15392500Y-7535000D02*
X15432500Y-7575000D01*
X15432500Y-7535000D02*
X15392500Y-7575000D01*
X15660000Y-6152500D02*
X15700000Y-6192500D01*
X15700000Y-6152500D02*
X15660000Y-6192500D01*
X15692500Y-10242500D02*
X15732500Y-10282500D01*
X15732500Y-10242500D02*
X15692500Y-10282500D01*
X15760000Y-7540000D02*
X15800000Y-7580000D01*
X15800000Y-7540000D02*
X15760000Y-7580000D01*
X15855000Y-10490000D02*
X15895000Y-10530000D01*
X15895000Y-10490000D02*
X15855000Y-10530000D01*
X16716800Y-11469400D02*
X16756800Y-11509400D01*
X16756800Y-11469400D02*
X16716800Y-11509400D01*
X16760000Y-10625000D02*
X16800000Y-10665000D01*
X16800000Y-10625000D02*
X16760000Y-10665000D01*
X16921800Y-10622600D02*
X16961800Y-10662600D01*
X16961800Y-10622600D02*
X16921800Y-10662600D01*
X16921800Y-10915000D02*
X16961800Y-10955000D01*
X16961800Y-10915000D02*
X16921800Y-10955000D01*
X17074200Y-6634800D02*
X17114200Y-6674800D01*
X17114200Y-6634800D02*
X17074200Y-6674800D01*
X17160000Y-3537500D02*
X17200000Y-3577500D01*
X17200000Y-3537500D02*
X17160000Y-3577500D01*
X17285000Y-5730000D02*
X17325000Y-5770000D01*
X17325000Y-5730000D02*
X17285000Y-5770000D01*
X17531400Y-6050600D02*
X17571400Y-6090600D01*
X17571400Y-6050600D02*
X17531400Y-6090600D01*
X17556800Y-2850200D02*
X17596800Y-2890200D01*
X17596800Y-2850200D02*
X17556800Y-2890200D01*
X17612500Y-7790000D02*
X17652500Y-7830000D01*
X17652500Y-7790000D02*
X17612500Y-7830000D01*
X17832500Y-9472500D02*
X17872500Y-9512500D01*
X17872500Y-9472500D02*
X17832500Y-9512500D01*
X17840000Y-8315000D02*
X17880000Y-8355000D01*
X17880000Y-8315000D02*
X17840000Y-8355000D01*
X17840000Y-11475000D02*
X17880000Y-11515000D01*
X17880000Y-11475000D02*
X17840000Y-11515000D01*
X17960000Y-10262500D02*
X18000000Y-10302500D01*
X18000000Y-10262500D02*
X17960000Y-10302500D01*
X17988600Y-3536000D02*
X18028600Y-3576000D01*
X18028600Y-3536000D02*
X17988600Y-3576000D01*
X18140000Y-10890000D02*
X18180000Y-10930000D01*
X18180000Y-10890000D02*
X18140000Y-10930000D01*
X18485000Y-4390000D02*
X18525000Y-4430000D01*
X18525000Y-4390000D02*
X18485000Y-4430000D01*
X18552500Y-8897500D02*
X18592500Y-8937500D01*
X18592500Y-8897500D02*
X18552500Y-8937500D01*
X18661700Y-3536000D02*
X18701700Y-3576000D01*
X18701700Y-3536000D02*
X18661700Y-3576000D01*
X18747500Y-10777500D02*
X18787500Y-10817500D01*
X18787500Y-10777500D02*
X18747500Y-10817500D01*
X18940000Y-10055000D02*
X18980000Y-10095000D01*
X18980000Y-10055000D02*
X18940000Y-10095000D01*
X19093500Y-3666200D02*
X19133500Y-3706200D01*
X19133500Y-3666200D02*
X19093500Y-3706200D01*
X19284000Y-8895400D02*
X19324000Y-8935400D01*
X19324000Y-8895400D02*
X19284000Y-8935400D01*
X19320000Y-6520000D02*
X19360000Y-6560000D01*
X19360000Y-6520000D02*
X19320000Y-6560000D01*
X19460000Y-7215000D02*
X19500000Y-7255000D01*
X19500000Y-7215000D02*
X19460000Y-7255000D01*
X19590000Y-5590000D02*
X19630000Y-5630000D01*
X19630000Y-5590000D02*
X19590000Y-5630000D01*
X20280000Y-2855000D02*
X20320000Y-2895000D01*
X20320000Y-2855000D02*
X20280000Y-2895000D01*
X20554000Y-8260400D02*
X20594000Y-8300400D01*
X20594000Y-8260400D02*
X20554000Y-8300400D01*
X20695900Y-2859600D02*
X20735900Y-2899600D01*
X20735900Y-2859600D02*
X20695900Y-2899600D01*
X21245000Y-6057500D02*
X21285000Y-6097500D01*
X21285000Y-6057500D02*
X21245000Y-6097500D01*
X21292500Y-7805000D02*
X21332500Y-7845000D01*
X21332500Y-7805000D02*
X21292500Y-7845000D01*
X21300000Y-10765000D02*
X21340000Y-10805000D01*
X21340000Y-10765000D02*
X21300000Y-10805000D01*
D13*
X19770800Y-9931400D02*
G75*
G03*
X19770800Y-9931400I-35000J0D01*
G01*
X20024800Y-9677400D02*
G75*
G03*
X20024800Y-9677400I-35000J0D01*
G01*
X20278800Y-9931400D02*
G75*
G03*
X20278800Y-9931400I-35000J0D01*
G01*
D14*
X14518640Y-5357180D02*
X14518640Y-5437180D01*
X14478640Y-5397180D02*
X14558640Y-5397180D01*
X14518640Y-6607180D02*
X14518640Y-6687180D01*
X14478640Y-6647180D02*
X14558640Y-6647180D01*
X14772640Y-5357180D02*
X14772640Y-5437180D01*
X14732640Y-5397180D02*
X14812640Y-5397180D01*
X14772640Y-6607180D02*
X14772640Y-6687180D01*
X14732640Y-6647180D02*
X14812640Y-6647180D01*
X15026640Y-5357180D02*
X15026640Y-5437180D01*
X14986640Y-5397180D02*
X15066640Y-5397180D01*
X15026640Y-6607180D02*
X15026640Y-6687180D01*
X14986640Y-6647180D02*
X15066640Y-6647180D01*
X15280640Y-5357180D02*
X15280640Y-5437180D01*
X15240640Y-5397180D02*
X15320640Y-5397180D01*
X15280640Y-6607180D02*
X15280640Y-6687180D01*
X15240640Y-6647180D02*
X15320640Y-6647180D01*
X15534640Y-5357180D02*
X15534640Y-5437180D01*
X15494640Y-5397180D02*
X15574640Y-5397180D01*
X15534640Y-6607180D02*
X15534640Y-6687180D01*
X15494640Y-6647180D02*
X15574640Y-6647180D01*
X19035000Y-5673000D02*
X19035000Y-5753000D01*
X18995000Y-5713000D02*
X19075000Y-5713000D01*
X19035000Y-5927000D02*
X19035000Y-6007000D01*
X18995000Y-5967000D02*
X19075000Y-5967000D01*
X19035000Y-6181000D02*
X19035000Y-6261000D01*
X18995000Y-6221000D02*
X19075000Y-6221000D01*
X19035000Y-6435000D02*
X19035000Y-6515000D01*
X18995000Y-6475000D02*
X19075000Y-6475000D01*
X19770200Y-8326000D02*
X19770200Y-8406000D01*
X19730200Y-8366000D02*
X19810200Y-8366000D01*
X19770200Y-8866000D02*
X19770200Y-8946000D01*
X19730200Y-8906000D02*
X19810200Y-8906000D01*
X20020200Y-8326000D02*
X20020200Y-8406000D01*
X19980200Y-8366000D02*
X20060200Y-8366000D01*
X20020200Y-8866000D02*
X20020200Y-8946000D01*
X19980200Y-8906000D02*
X20060200Y-8906000D01*
X20270200Y-8326000D02*
X20270200Y-8406000D01*
X20230200Y-8366000D02*
X20310200Y-8366000D01*
X20270200Y-8866000D02*
X20270200Y-8946000D01*
X20230200Y-8906000D02*
X20310200Y-8906000D01*
D10*
X12621356Y-3287356D02*
X12621356Y-3216644D01*
X12550644Y-3216644D01*
X12550644Y-3287356D01*
X12621356Y-3287356D01*
X12621356Y-4557356D02*
X12621356Y-4486644D01*
X12550644Y-4486644D01*
X12550644Y-4557356D01*
X12621356Y-4557356D01*
X12652356Y-7046356D02*
X12652356Y-6975644D01*
X12581644Y-6975644D01*
X12581644Y-7046356D01*
X12652356Y-7046356D01*
X12652356Y-7300356D02*
X12652356Y-7229644D01*
X12581644Y-7229644D01*
X12581644Y-7300356D01*
X12652356Y-7300356D01*
X12652356Y-7554356D02*
X12652356Y-7483644D01*
X12581644Y-7483644D01*
X12581644Y-7554356D01*
X12652356Y-7554356D01*
X12652356Y-7808356D02*
X12652356Y-7737644D01*
X12581644Y-7737644D01*
X12581644Y-7808356D01*
X12652356Y-7808356D01*
X12652356Y-8062356D02*
X12652356Y-7991644D01*
X12581644Y-7991644D01*
X12581644Y-8062356D01*
X12652356Y-8062356D01*
X12652356Y-8316356D02*
X12652356Y-8245644D01*
X12581644Y-8245644D01*
X12581644Y-8316356D01*
X12652356Y-8316356D01*
X12652356Y-8570356D02*
X12652356Y-8499644D01*
X12581644Y-8499644D01*
X12581644Y-8570356D01*
X12652356Y-8570356D01*
X12652356Y-8824356D02*
X12652356Y-8753644D01*
X12581644Y-8753644D01*
X12581644Y-8824356D01*
X12652356Y-8824356D01*
X12875356Y-3795356D02*
X12875356Y-3724644D01*
X12804644Y-3724644D01*
X12804644Y-3795356D01*
X12875356Y-3795356D01*
X13548156Y-3007156D02*
X13548156Y-2936444D01*
X13477444Y-2936444D01*
X13477444Y-3007156D01*
X13548156Y-3007156D01*
X13548156Y-3261156D02*
X13548156Y-3190444D01*
X13477444Y-3190444D01*
X13477444Y-3261156D01*
X13548156Y-3261156D01*
X13700556Y-4353356D02*
X13700556Y-4282644D01*
X13629844Y-4282644D01*
X13629844Y-4353356D01*
X13700556Y-4353356D01*
X13802156Y-3007156D02*
X13802156Y-2936444D01*
X13731444Y-2936444D01*
X13731444Y-3007156D01*
X13802156Y-3007156D01*
X13802156Y-3261156D02*
X13802156Y-3190444D01*
X13731444Y-3190444D01*
X13731444Y-3261156D01*
X13802156Y-3261156D01*
X13954556Y-4353356D02*
X13954556Y-4282644D01*
X13883844Y-4282644D01*
X13883844Y-4353356D01*
X13954556Y-4353356D01*
X14056156Y-3007156D02*
X14056156Y-2936444D01*
X13985444Y-2936444D01*
X13985444Y-3007156D01*
X14056156Y-3007156D01*
X14056156Y-3261156D02*
X14056156Y-3190444D01*
X13985444Y-3190444D01*
X13985444Y-3261156D01*
X14056156Y-3261156D01*
X14205556Y-11389156D02*
X14205556Y-11318444D01*
X14134844Y-11318444D01*
X14134844Y-11389156D01*
X14205556Y-11389156D01*
X14208556Y-4353356D02*
X14208556Y-4282644D01*
X14137844Y-4282644D01*
X14137844Y-4353356D01*
X14208556Y-4353356D01*
X14310156Y-3007156D02*
X14310156Y-2936444D01*
X14239444Y-2936444D01*
X14239444Y-3007156D01*
X14310156Y-3007156D01*
X14310156Y-3261156D02*
X14310156Y-3190444D01*
X14239444Y-3190444D01*
X14239444Y-3261156D01*
X14310156Y-3261156D01*
X14459556Y-11389156D02*
X14459556Y-11318444D01*
X14388844Y-11318444D01*
X14388844Y-11389156D01*
X14459556Y-11389156D01*
X14462556Y-4353356D02*
X14462556Y-4282644D01*
X14391844Y-4282644D01*
X14391844Y-4353356D01*
X14462556Y-4353356D01*
X14713556Y-11389156D02*
X14713556Y-11318444D01*
X14642844Y-11318444D01*
X14642844Y-11389156D01*
X14713556Y-11389156D01*
X14967556Y-11389156D02*
X14967556Y-11318444D01*
X14896844Y-11318444D01*
X14896844Y-11389156D01*
X14967556Y-11389156D01*
X15275356Y-9306356D02*
X15275356Y-9235644D01*
X15204644Y-9235644D01*
X15204644Y-9306356D01*
X15275356Y-9306356D01*
X15275356Y-9738156D02*
X15275356Y-9667444D01*
X15204644Y-9667444D01*
X15204644Y-9738156D01*
X15275356Y-9738156D01*
X15529356Y-9306356D02*
X15529356Y-9235644D01*
X15458644Y-9235644D01*
X15458644Y-9306356D01*
X15529356Y-9306356D01*
X15529356Y-9738156D02*
X15529356Y-9667444D01*
X15458644Y-9667444D01*
X15458644Y-9738156D01*
X15529356Y-9738156D01*
X15783356Y-9306356D02*
X15783356Y-9235644D01*
X15712644Y-9235644D01*
X15712644Y-9306356D01*
X15783356Y-9306356D01*
X15783356Y-9738156D02*
X15783356Y-9667444D01*
X15712644Y-9667444D01*
X15712644Y-9738156D01*
X15783356Y-9738156D01*
X16708856Y-5469856D02*
X16708856Y-5399144D01*
X16638144Y-5399144D01*
X16638144Y-5469856D01*
X16708856Y-5469856D01*
X16708856Y-5723856D02*
X16708856Y-5653144D01*
X16638144Y-5653144D01*
X16638144Y-5723856D01*
X16708856Y-5723856D01*
X16708856Y-5977856D02*
X16708856Y-5907144D01*
X16638144Y-5907144D01*
X16638144Y-5977856D01*
X16708856Y-5977856D01*
X16708856Y-6231856D02*
X16708856Y-6161144D01*
X16638144Y-6161144D01*
X16638144Y-6231856D01*
X16708856Y-6231856D01*
X16708856Y-6485856D02*
X16708856Y-6415144D01*
X16638144Y-6415144D01*
X16638144Y-6485856D01*
X16708856Y-6485856D01*
X16708856Y-6739856D02*
X16708856Y-6669144D01*
X16638144Y-6669144D01*
X16638144Y-6739856D01*
X16708856Y-6739856D01*
X16708856Y-6993856D02*
X16708856Y-6923144D01*
X16638144Y-6923144D01*
X16638144Y-6993856D01*
X16708856Y-6993856D01*
X16708856Y-7247856D02*
X16708856Y-7177144D01*
X16638144Y-7177144D01*
X16638144Y-7247856D01*
X16708856Y-7247856D01*
X16708856Y-7501856D02*
X16708856Y-7431144D01*
X16638144Y-7431144D01*
X16638144Y-7501856D01*
X16708856Y-7501856D01*
X16708856Y-7755856D02*
X16708856Y-7685144D01*
X16638144Y-7685144D01*
X16638144Y-7755856D01*
X16708856Y-7755856D01*
X16708856Y-8009856D02*
X16708856Y-7939144D01*
X16638144Y-7939144D01*
X16638144Y-8009856D01*
X16708856Y-8009856D01*
X16708856Y-8263856D02*
X16708856Y-8193144D01*
X16638144Y-8193144D01*
X16638144Y-8263856D01*
X16708856Y-8263856D01*
X16708856Y-8517856D02*
X16708856Y-8447144D01*
X16638144Y-8447144D01*
X16638144Y-8517856D01*
X16708856Y-8517856D01*
X16708856Y-8771856D02*
X16708856Y-8701144D01*
X16638144Y-8701144D01*
X16638144Y-8771856D01*
X16708856Y-8771856D01*
X16708856Y-9025856D02*
X16708856Y-8955144D01*
X16638144Y-8955144D01*
X16638144Y-9025856D01*
X16708856Y-9025856D01*
X16708856Y-9279856D02*
X16708856Y-9209144D01*
X16638144Y-9209144D01*
X16638144Y-9279856D01*
X16708856Y-9279856D01*
X16708856Y-9533856D02*
X16708856Y-9463144D01*
X16638144Y-9463144D01*
X16638144Y-9533856D01*
X16708856Y-9533856D01*
X16708856Y-9787856D02*
X16708856Y-9717144D01*
X16638144Y-9717144D01*
X16638144Y-9787856D01*
X16708856Y-9787856D01*
X16708856Y-10041856D02*
X16708856Y-9971144D01*
X16638144Y-9971144D01*
X16638144Y-10041856D01*
X16708856Y-10041856D01*
X16708856Y-10295856D02*
X16708856Y-10225144D01*
X16638144Y-10225144D01*
X16638144Y-10295856D01*
X16708856Y-10295856D01*
X18183656Y-4340656D02*
X18183656Y-4269944D01*
X18112944Y-4269944D01*
X18112944Y-4340656D01*
X18183656Y-4340656D01*
X18232856Y-5469856D02*
X18232856Y-5399144D01*
X18162144Y-5399144D01*
X18162144Y-5469856D01*
X18232856Y-5469856D01*
X18232856Y-5723856D02*
X18232856Y-5653144D01*
X18162144Y-5653144D01*
X18162144Y-5723856D01*
X18232856Y-5723856D01*
X18232856Y-5977856D02*
X18232856Y-5907144D01*
X18162144Y-5907144D01*
X18162144Y-5977856D01*
X18232856Y-5977856D01*
X18232856Y-6231856D02*
X18232856Y-6161144D01*
X18162144Y-6161144D01*
X18162144Y-6231856D01*
X18232856Y-6231856D01*
X18232856Y-6485856D02*
X18232856Y-6415144D01*
X18162144Y-6415144D01*
X18162144Y-6485856D01*
X18232856Y-6485856D01*
X18232856Y-6739856D02*
X18232856Y-6669144D01*
X18162144Y-6669144D01*
X18162144Y-6739856D01*
X18232856Y-6739856D01*
X18232856Y-6993856D02*
X18232856Y-6923144D01*
X18162144Y-6923144D01*
X18162144Y-6993856D01*
X18232856Y-6993856D01*
X18232856Y-7247856D02*
X18232856Y-7177144D01*
X18162144Y-7177144D01*
X18162144Y-7247856D01*
X18232856Y-7247856D01*
X18232856Y-7501856D02*
X18232856Y-7431144D01*
X18162144Y-7431144D01*
X18162144Y-7501856D01*
X18232856Y-7501856D01*
X18232856Y-7755856D02*
X18232856Y-7685144D01*
X18162144Y-7685144D01*
X18162144Y-7755856D01*
X18232856Y-7755856D01*
X18232856Y-8009856D02*
X18232856Y-7939144D01*
X18162144Y-7939144D01*
X18162144Y-8009856D01*
X18232856Y-8009856D01*
X18232856Y-8263856D02*
X18232856Y-8193144D01*
X18162144Y-8193144D01*
X18162144Y-8263856D01*
X18232856Y-8263856D01*
X18232856Y-8517856D02*
X18232856Y-8447144D01*
X18162144Y-8447144D01*
X18162144Y-8517856D01*
X18232856Y-8517856D01*
X18232856Y-8771856D02*
X18232856Y-8701144D01*
X18162144Y-8701144D01*
X18162144Y-8771856D01*
X18232856Y-8771856D01*
X18232856Y-9025856D02*
X18232856Y-8955144D01*
X18162144Y-8955144D01*
X18162144Y-9025856D01*
X18232856Y-9025856D01*
X18232856Y-9279856D02*
X18232856Y-9209144D01*
X18162144Y-9209144D01*
X18162144Y-9279856D01*
X18232856Y-9279856D01*
X18232856Y-9533856D02*
X18232856Y-9463144D01*
X18162144Y-9463144D01*
X18162144Y-9533856D01*
X18232856Y-9533856D01*
X18232856Y-9787856D02*
X18232856Y-9717144D01*
X18162144Y-9717144D01*
X18162144Y-9787856D01*
X18232856Y-9787856D01*
X18232856Y-10041856D02*
X18232856Y-9971144D01*
X18162144Y-9971144D01*
X18162144Y-10041856D01*
X18232856Y-10041856D01*
X18232856Y-10295856D02*
X18232856Y-10225144D01*
X18162144Y-10225144D01*
X18162144Y-10295856D01*
X18232856Y-10295856D01*
X18882156Y-7553756D02*
X18882156Y-7483044D01*
X18811444Y-7483044D01*
X18811444Y-7553756D01*
X18882156Y-7553756D01*
X18882156Y-7807756D02*
X18882156Y-7737044D01*
X18811444Y-7737044D01*
X18811444Y-7807756D01*
X18882156Y-7807756D01*
X18882156Y-8061756D02*
X18882156Y-7991044D01*
X18811444Y-7991044D01*
X18811444Y-8061756D01*
X18882156Y-8061756D01*
X18882156Y-8315756D02*
X18882156Y-8245044D01*
X18811444Y-8245044D01*
X18811444Y-8315756D01*
X18882156Y-8315756D01*
X18882156Y-8569756D02*
X18882156Y-8499044D01*
X18811444Y-8499044D01*
X18811444Y-8569756D01*
X18882156Y-8569756D01*
X18882156Y-8823756D02*
X18882156Y-8753044D01*
X18811444Y-8753044D01*
X18811444Y-8823756D01*
X18882156Y-8823756D01*
X18943656Y-4340656D02*
X18943656Y-4269944D01*
X18872944Y-4269944D01*
X18872944Y-4340656D01*
X18943656Y-4340656D01*
X20914156Y-6740956D02*
X20914156Y-6670244D01*
X20843444Y-6670244D01*
X20843444Y-6740956D01*
X20914156Y-6740956D01*
X20914156Y-6994956D02*
X20914156Y-6924244D01*
X20843444Y-6924244D01*
X20843444Y-6994956D01*
X20914156Y-6994956D01*
X20914156Y-7248956D02*
X20914156Y-7178244D01*
X20843444Y-7178244D01*
X20843444Y-7248956D01*
X20914156Y-7248956D01*
X20914156Y-7502956D02*
X20914156Y-7432244D01*
X20843444Y-7432244D01*
X20843444Y-7502956D01*
X20914156Y-7502956D01*
X20914156Y-8709456D02*
X20914156Y-8638744D01*
X20843444Y-8638744D01*
X20843444Y-8709456D01*
X20914156Y-8709456D01*
X20914156Y-8963456D02*
X20914156Y-8892744D01*
X20843444Y-8892744D01*
X20843444Y-8963456D01*
X20914156Y-8963456D01*
X20914156Y-9539356D02*
X20914156Y-9468644D01*
X20843444Y-9468644D01*
X20843444Y-9539356D01*
X20914156Y-9539356D01*
X20914156Y-9793356D02*
X20914156Y-9722644D01*
X20843444Y-9722644D01*
X20843444Y-9793356D01*
X20914156Y-9793356D01*
X20914156Y-10047356D02*
X20914156Y-9976644D01*
X20843444Y-9976644D01*
X20843444Y-10047356D01*
X20914156Y-10047356D01*
D15*
X18090000Y-3155000D02*
X18145000Y-3100000D01*
X18090000Y-3045000D01*
X18035000Y-3100000D01*
X18090000Y-3155000D01*
X18344000Y-3155000D02*
X18399000Y-3100000D01*
X18344000Y-3045000D01*
X18289000Y-3100000D01*
X18344000Y-3155000D01*
X18598000Y-3155000D02*
X18653000Y-3100000D01*
X18598000Y-3045000D01*
X18543000Y-3100000D01*
X18598000Y-3155000D01*
X19862800Y-5927600D02*
X19917800Y-5872600D01*
X19862800Y-5817600D01*
X19807800Y-5872600D01*
X19862800Y-5927600D01*
X19862800Y-6577600D02*
X19917800Y-6522600D01*
X19862800Y-6467600D01*
X19807800Y-6522600D01*
X19862800Y-6577600D01*
X19862800Y-7248400D02*
X19917800Y-7193400D01*
X19862800Y-7138400D01*
X19807800Y-7193400D01*
X19862800Y-7248400D01*
X19862800Y-7898400D02*
X19917800Y-7843400D01*
X19862800Y-7788400D01*
X19807800Y-7843400D01*
X19862800Y-7898400D01*
X20312800Y-5927600D02*
X20367800Y-5872600D01*
X20312800Y-5817600D01*
X20257800Y-5872600D01*
X20312800Y-5927600D01*
X20312800Y-6577600D02*
X20367800Y-6522600D01*
X20312800Y-6467600D01*
X20257800Y-6522600D01*
X20312800Y-6577600D01*
X20312800Y-7248400D02*
X20367800Y-7193400D01*
X20312800Y-7138400D01*
X20257800Y-7193400D01*
X20312800Y-7248400D01*
X20312800Y-7898400D02*
X20367800Y-7843400D01*
X20312800Y-7788400D01*
X20257800Y-7843400D01*
X20312800Y-7898400D01*
D16*
X13504100Y-9666700D02*
X13623100Y-9785700D01*
X13623100Y-9666700D02*
X13504100Y-9785700D01*
X13623100Y-9726200D02*
G75*
G03*
X13623100Y-9726200I-59500J0D01*
G01*
X13758100Y-9666700D02*
X13877100Y-9785700D01*
X13877100Y-9666700D02*
X13758100Y-9785700D01*
X13877100Y-9726200D02*
G75*
G03*
X13877100Y-9726200I-59500J0D01*
G01*
X14012100Y-9666700D02*
X14131100Y-9785700D01*
X14131100Y-9666700D02*
X14012100Y-9785700D01*
X14131100Y-9726200D02*
G75*
G03*
X14131100Y-9726200I-59500J0D01*
G01*
X14266100Y-9666700D02*
X14385100Y-9785700D01*
X14385100Y-9666700D02*
X14266100Y-9785700D01*
X14385100Y-9726200D02*
G75*
G03*
X14385100Y-9726200I-59500J0D01*
G01*
X15256700Y-4309300D02*
X15375700Y-4428300D01*
X15375700Y-4309300D02*
X15256700Y-4428300D01*
X15375700Y-4368800D02*
G75*
G03*
X15375700Y-4368800I-59500J0D01*
G01*
X15510700Y-4309300D02*
X15629700Y-4428300D01*
X15629700Y-4309300D02*
X15510700Y-4428300D01*
X15629700Y-4368800D02*
G75*
G03*
X15629700Y-4368800I-59500J0D01*
G01*
X15764700Y-4309300D02*
X15883700Y-4428300D01*
X15883700Y-4309300D02*
X15764700Y-4428300D01*
X15883700Y-4368800D02*
G75*
G03*
X15883700Y-4368800I-59500J0D01*
G01*
X16018700Y-4309300D02*
X16137700Y-4428300D01*
X16137700Y-4309300D02*
X16018700Y-4428300D01*
X16137700Y-4368800D02*
G75*
G03*
X16137700Y-4368800I-59500J0D01*
G01*
X16272700Y-4309300D02*
X16391700Y-4428300D01*
X16391700Y-4309300D02*
X16272700Y-4428300D01*
X16391700Y-4368800D02*
G75*
G03*
X16391700Y-4368800I-59500J0D01*
G01*
X16526700Y-4309300D02*
X16645700Y-4428300D01*
X16645700Y-4309300D02*
X16526700Y-4428300D01*
X16645700Y-4368800D02*
G75*
G03*
X16645700Y-4368800I-59500J0D01*
G01*
X19750500Y-4355500D02*
X19869500Y-4474500D01*
X19869500Y-4355500D02*
X19750500Y-4474500D01*
X19869500Y-4415000D02*
G75*
G03*
X19869500Y-4415000I-59500J0D01*
G01*
X19750500Y-4609500D02*
X19869500Y-4728500D01*
X19869500Y-4609500D02*
X19750500Y-4728500D01*
X19869500Y-4669000D02*
G75*
G03*
X19869500Y-4669000I-59500J0D01*
G01*
X19750500Y-4863500D02*
X19869500Y-4982500D01*
X19869500Y-4863500D02*
X19750500Y-4982500D01*
X19869500Y-4923000D02*
G75*
G03*
X19869500Y-4923000I-59500J0D01*
G01*
X19750500Y-5117500D02*
X19869500Y-5236500D01*
X19869500Y-5117500D02*
X19750500Y-5236500D01*
X19869500Y-5177000D02*
G75*
G03*
X19869500Y-5177000I-59500J0D01*
G01*
D17*
X11918640Y-6112200D02*
X12038640Y-6232200D01*
X12038640Y-6112200D02*
X11918640Y-6232200D01*
X11978640Y-6112200D02*
X11978640Y-6232200D01*
X11918640Y-6172200D02*
X12038640Y-6172200D01*
X11918640Y-6366200D02*
X12038640Y-6486200D01*
X12038640Y-6366200D02*
X11918640Y-6486200D01*
X11978640Y-6366200D02*
X11978640Y-6486200D01*
X11918640Y-6426200D02*
X12038640Y-6426200D01*
X11918640Y-6620200D02*
X12038640Y-6740200D01*
X12038640Y-6620200D02*
X11918640Y-6740200D01*
X11978640Y-6620200D02*
X11978640Y-6740200D01*
X11918640Y-6680200D02*
X12038640Y-6680200D01*
X11918640Y-6874200D02*
X12038640Y-6994200D01*
X12038640Y-6874200D02*
X11918640Y-6994200D01*
X11978640Y-6874200D02*
X11978640Y-6994200D01*
X11918640Y-6934200D02*
X12038640Y-6934200D01*
X11918640Y-7128200D02*
X12038640Y-7248200D01*
X12038640Y-7128200D02*
X11918640Y-7248200D01*
X11978640Y-7128200D02*
X11978640Y-7248200D01*
X11918640Y-7188200D02*
X12038640Y-7188200D01*
X11918640Y-7382200D02*
X12038640Y-7502200D01*
X12038640Y-7382200D02*
X11918640Y-7502200D01*
X11978640Y-7382200D02*
X11978640Y-7502200D01*
X11918640Y-7442200D02*
X12038640Y-7442200D01*
X11918640Y-8652200D02*
X12038640Y-8772200D01*
X12038640Y-8652200D02*
X11918640Y-8772200D01*
X11978640Y-8652200D02*
X11978640Y-8772200D01*
X11918640Y-8712200D02*
X12038640Y-8712200D01*
X11918640Y-8906200D02*
X12038640Y-9026200D01*
X12038640Y-8906200D02*
X11918640Y-9026200D01*
X11978640Y-8906200D02*
X11978640Y-9026200D01*
X11918640Y-8966200D02*
X12038640Y-8966200D01*
X11918640Y-9160200D02*
X12038640Y-9280200D01*
X12038640Y-9160200D02*
X11918640Y-9280200D01*
X11978640Y-9160200D02*
X11978640Y-9280200D01*
X11918640Y-9220200D02*
X12038640Y-9220200D01*
X11918640Y-9414200D02*
X12038640Y-9534200D01*
X12038640Y-9414200D02*
X11918640Y-9534200D01*
X11978640Y-9414200D02*
X11978640Y-9534200D01*
X11918640Y-9474200D02*
X12038640Y-9474200D01*
X11918640Y-9668200D02*
X12038640Y-9788200D01*
X12038640Y-9668200D02*
X11918640Y-9788200D01*
X11978640Y-9668200D02*
X11978640Y-9788200D01*
X11918640Y-9728200D02*
X12038640Y-9728200D01*
X11918640Y-9922200D02*
X12038640Y-10042200D01*
X12038640Y-9922200D02*
X11918640Y-10042200D01*
X11978640Y-9922200D02*
X11978640Y-10042200D01*
X11918640Y-9982200D02*
X12038640Y-9982200D01*
D18*
X15124200Y-3160800D02*
X15254200Y-3290800D01*
X15254200Y-3160800D02*
X15124200Y-3290800D01*
X15235162Y-3271762D02*
X15235162Y-3179838D01*
X15143238Y-3179838D01*
X15143238Y-3271762D01*
X15235162Y-3271762D01*
X15632200Y-3160800D02*
X15762200Y-3290800D01*
X15762200Y-3160800D02*
X15632200Y-3290800D01*
X15743162Y-3271762D02*
X15743162Y-3179838D01*
X15651238Y-3179838D01*
X15651238Y-3271762D01*
X15743162Y-3271762D01*
X15682500Y-11090700D02*
X15812500Y-11220700D01*
X15812500Y-11090700D02*
X15682500Y-11220700D01*
X15793462Y-11201662D02*
X15793462Y-11109738D01*
X15701538Y-11109738D01*
X15701538Y-11201662D01*
X15793462Y-11201662D01*
X16140200Y-3160800D02*
X16270200Y-3290800D01*
X16270200Y-3160800D02*
X16140200Y-3290800D01*
X16251162Y-3271762D02*
X16251162Y-3179838D01*
X16159238Y-3179838D01*
X16159238Y-3271762D01*
X16251162Y-3271762D01*
X16190500Y-11090700D02*
X16320500Y-11220700D01*
X16320500Y-11090700D02*
X16190500Y-11220700D01*
X16301462Y-11201662D02*
X16301462Y-11109738D01*
X16209538Y-11109738D01*
X16209538Y-11201662D01*
X16301462Y-11201662D01*
X16648200Y-3160800D02*
X16778200Y-3290800D01*
X16778200Y-3160800D02*
X16648200Y-3290800D01*
X16759162Y-3271762D02*
X16759162Y-3179838D01*
X16667238Y-3179838D01*
X16667238Y-3271762D01*
X16759162Y-3271762D01*
X18578600Y-11092000D02*
X18708600Y-11222000D01*
X18708600Y-11092000D02*
X18578600Y-11222000D01*
X18689562Y-11202962D02*
X18689562Y-11111038D01*
X18597638Y-11111038D01*
X18597638Y-11202962D01*
X18689562Y-11202962D01*
X19086600Y-11092000D02*
X19216600Y-11222000D01*
X19216600Y-11092000D02*
X19086600Y-11222000D01*
X19197562Y-11202962D02*
X19197562Y-11111038D01*
X19105638Y-11111038D01*
X19105638Y-11202962D01*
X19197562Y-11202962D01*
X19797800Y-11085600D02*
X19927800Y-11215600D01*
X19927800Y-11085600D02*
X19797800Y-11215600D01*
X19908762Y-11196562D02*
X19908762Y-11104638D01*
X19816838Y-11104638D01*
X19816838Y-11196562D01*
X19908762Y-11196562D01*
X20305800Y-11085600D02*
X20435800Y-11215600D01*
X20435800Y-11085600D02*
X20305800Y-11215600D01*
X20416762Y-11196562D02*
X20416762Y-11104638D01*
X20324838Y-11104638D01*
X20324838Y-11196562D01*
X20416762Y-11196562D01*
X20839200Y-4761000D02*
X20969200Y-4891000D01*
X20969200Y-4761000D02*
X20839200Y-4891000D01*
X20950162Y-4871962D02*
X20950162Y-4780038D01*
X20858238Y-4780038D01*
X20858238Y-4871962D01*
X20950162Y-4871962D01*
X20839200Y-5269000D02*
X20969200Y-5399000D01*
X20969200Y-5269000D02*
X20839200Y-5399000D01*
X20950162Y-5379962D02*
X20950162Y-5288038D01*
X20858238Y-5288038D01*
X20858238Y-5379962D01*
X20950162Y-5379962D01*
X20844300Y-3593100D02*
X20974300Y-3723100D01*
X20974300Y-3593100D02*
X20844300Y-3723100D01*
X20955262Y-3704062D02*
X20955262Y-3612138D01*
X20863338Y-3612138D01*
X20863338Y-3704062D01*
X20955262Y-3704062D01*
X20844300Y-4101100D02*
X20974300Y-4231100D01*
X20974300Y-4101100D02*
X20844300Y-4231100D01*
X20955262Y-4212062D02*
X20955262Y-4120138D01*
X20863338Y-4120138D01*
X20863338Y-4212062D01*
X20955262Y-4212062D01*
D19*
X11762000Y-11117000D02*
X12112000Y-11467000D01*
X12112000Y-11117000D02*
X11762000Y-11467000D01*
X11937000Y-11467000D02*
X12112000Y-11292000D01*
X11937000Y-11117000D01*
X11762000Y-11292000D01*
X11937000Y-11467000D01*
X11773000Y-2872000D02*
X12123000Y-3222000D01*
X12123000Y-2872000D02*
X11773000Y-3222000D01*
X11948000Y-3222000D02*
X12123000Y-3047000D01*
X11948000Y-2872000D01*
X11773000Y-3047000D01*
X11948000Y-3222000D01*
X20897000Y-11128000D02*
X21247000Y-11478000D01*
X21247000Y-11128000D02*
X20897000Y-11478000D01*
X21072000Y-11478000D02*
X21247000Y-11303000D01*
X21072000Y-11128000D01*
X20897000Y-11303000D01*
X21072000Y-11478000D01*
X20908000Y-2883000D02*
X21258000Y-3233000D01*
X21258000Y-2883000D02*
X20908000Y-3233000D01*
X21083000Y-3233000D02*
X21258000Y-3058000D01*
X21083000Y-2883000D01*
X20908000Y-3058000D01*
X21083000Y-3233000D01*
D11*
X11802619Y-11997524D02*
X11802619Y-11797524D01*
X11802619Y-11797524D02*
X11850238Y-11797524D01*
X11850238Y-11797524D02*
X11878809Y-11807048D01*
X11878809Y-11807048D02*
X11897857Y-11826095D01*
X11897857Y-11826095D02*
X11907381Y-11845143D01*
X11907381Y-11845143D02*
X11916905Y-11883238D01*
X11916905Y-11883238D02*
X11916905Y-11911809D01*
X11916905Y-11911809D02*
X11907381Y-11949905D01*
X11907381Y-11949905D02*
X11897857Y-11968952D01*
X11897857Y-11968952D02*
X11878809Y-11988000D01*
X11878809Y-11988000D02*
X11850238Y-11997524D01*
X11850238Y-11997524D02*
X11802619Y-11997524D01*
X12002619Y-11997524D02*
X12002619Y-11864190D01*
X12002619Y-11902286D02*
X12012143Y-11883238D01*
X12012143Y-11883238D02*
X12021667Y-11873714D01*
X12021667Y-11873714D02*
X12040714Y-11864190D01*
X12040714Y-11864190D02*
X12059762Y-11864190D01*
X12126428Y-11997524D02*
X12126428Y-11864190D01*
X12126428Y-11797524D02*
X12116905Y-11807048D01*
X12116905Y-11807048D02*
X12126428Y-11816571D01*
X12126428Y-11816571D02*
X12135952Y-11807048D01*
X12135952Y-11807048D02*
X12126428Y-11797524D01*
X12126428Y-11797524D02*
X12126428Y-11816571D01*
X12250238Y-11997524D02*
X12231190Y-11988000D01*
X12231190Y-11988000D02*
X12221667Y-11968952D01*
X12221667Y-11968952D02*
X12221667Y-11797524D01*
X12355000Y-11997524D02*
X12335952Y-11988000D01*
X12335952Y-11988000D02*
X12326428Y-11968952D01*
X12326428Y-11968952D02*
X12326428Y-11797524D01*
X12583571Y-11997524D02*
X12583571Y-11797524D01*
X12583571Y-11797524D02*
X12650238Y-11940381D01*
X12650238Y-11940381D02*
X12716905Y-11797524D01*
X12716905Y-11797524D02*
X12716905Y-11997524D01*
X12897857Y-11997524D02*
X12897857Y-11892762D01*
X12897857Y-11892762D02*
X12888333Y-11873714D01*
X12888333Y-11873714D02*
X12869286Y-11864190D01*
X12869286Y-11864190D02*
X12831190Y-11864190D01*
X12831190Y-11864190D02*
X12812143Y-11873714D01*
X12897857Y-11988000D02*
X12878809Y-11997524D01*
X12878809Y-11997524D02*
X12831190Y-11997524D01*
X12831190Y-11997524D02*
X12812143Y-11988000D01*
X12812143Y-11988000D02*
X12802619Y-11968952D01*
X12802619Y-11968952D02*
X12802619Y-11949905D01*
X12802619Y-11949905D02*
X12812143Y-11930857D01*
X12812143Y-11930857D02*
X12831190Y-11921333D01*
X12831190Y-11921333D02*
X12878809Y-11921333D01*
X12878809Y-11921333D02*
X12897857Y-11911809D01*
X12993095Y-11864190D02*
X12993095Y-12064190D01*
X12993095Y-11873714D02*
X13012143Y-11864190D01*
X13012143Y-11864190D02*
X13050238Y-11864190D01*
X13050238Y-11864190D02*
X13069286Y-11873714D01*
X13069286Y-11873714D02*
X13078809Y-11883238D01*
X13078809Y-11883238D02*
X13088333Y-11902286D01*
X13088333Y-11902286D02*
X13088333Y-11959428D01*
X13088333Y-11959428D02*
X13078809Y-11978476D01*
X13078809Y-11978476D02*
X13069286Y-11988000D01*
X13069286Y-11988000D02*
X13050238Y-11997524D01*
X13050238Y-11997524D02*
X13012143Y-11997524D01*
X13012143Y-11997524D02*
X12993095Y-11988000D01*
X13174048Y-11978476D02*
X13183571Y-11988000D01*
X13183571Y-11988000D02*
X13174048Y-11997524D01*
X13174048Y-11997524D02*
X13164524Y-11988000D01*
X13164524Y-11988000D02*
X13174048Y-11978476D01*
X13174048Y-11978476D02*
X13174048Y-11997524D01*
X13174048Y-11873714D02*
X13183571Y-11883238D01*
X13183571Y-11883238D02*
X13174048Y-11892762D01*
X13174048Y-11892762D02*
X13164524Y-11883238D01*
X13164524Y-11883238D02*
X13174048Y-11873714D01*
X13174048Y-11873714D02*
X13174048Y-11892762D01*
D12*
X11515000Y-12305000D02*
X11555000Y-12345000D01*
X11555000Y-12305000D02*
X11515000Y-12345000D01*
D11*
X11840714Y-12217524D02*
X11859762Y-12217524D01*
X11859762Y-12217524D02*
X11878809Y-12227048D01*
X11878809Y-12227048D02*
X11888333Y-12236571D01*
X11888333Y-12236571D02*
X11897857Y-12255619D01*
X11897857Y-12255619D02*
X11907381Y-12293714D01*
X11907381Y-12293714D02*
X11907381Y-12341333D01*
X11907381Y-12341333D02*
X11897857Y-12379428D01*
X11897857Y-12379428D02*
X11888333Y-12398476D01*
X11888333Y-12398476D02*
X11878809Y-12408000D01*
X11878809Y-12408000D02*
X11859762Y-12417524D01*
X11859762Y-12417524D02*
X11840714Y-12417524D01*
X11840714Y-12417524D02*
X11821667Y-12408000D01*
X11821667Y-12408000D02*
X11812143Y-12398476D01*
X11812143Y-12398476D02*
X11802619Y-12379428D01*
X11802619Y-12379428D02*
X11793095Y-12341333D01*
X11793095Y-12341333D02*
X11793095Y-12293714D01*
X11793095Y-12293714D02*
X11802619Y-12255619D01*
X11802619Y-12255619D02*
X11812143Y-12236571D01*
X11812143Y-12236571D02*
X11821667Y-12227048D01*
X11821667Y-12227048D02*
X11840714Y-12217524D01*
X11993095Y-12398476D02*
X12002619Y-12408000D01*
X12002619Y-12408000D02*
X11993095Y-12417524D01*
X11993095Y-12417524D02*
X11983571Y-12408000D01*
X11983571Y-12408000D02*
X11993095Y-12398476D01*
X11993095Y-12398476D02*
X11993095Y-12417524D01*
X12174048Y-12284190D02*
X12174048Y-12417524D01*
X12126428Y-12208000D02*
X12078809Y-12350857D01*
X12078809Y-12350857D02*
X12202619Y-12350857D01*
X12316905Y-12217524D02*
X12335952Y-12217524D01*
X12335952Y-12217524D02*
X12355000Y-12227048D01*
X12355000Y-12227048D02*
X12364524Y-12236571D01*
X12364524Y-12236571D02*
X12374048Y-12255619D01*
X12374048Y-12255619D02*
X12383571Y-12293714D01*
X12383571Y-12293714D02*
X12383571Y-12341333D01*
X12383571Y-12341333D02*
X12374048Y-12379428D01*
X12374048Y-12379428D02*
X12364524Y-12398476D01*
X12364524Y-12398476D02*
X12355000Y-12408000D01*
X12355000Y-12408000D02*
X12335952Y-12417524D01*
X12335952Y-12417524D02*
X12316905Y-12417524D01*
X12316905Y-12417524D02*
X12297857Y-12408000D01*
X12297857Y-12408000D02*
X12288333Y-12398476D01*
X12288333Y-12398476D02*
X12278809Y-12379428D01*
X12278809Y-12379428D02*
X12269286Y-12341333D01*
X12269286Y-12341333D02*
X12269286Y-12293714D01*
X12269286Y-12293714D02*
X12278809Y-12255619D01*
X12278809Y-12255619D02*
X12288333Y-12236571D01*
X12288333Y-12236571D02*
X12297857Y-12227048D01*
X12297857Y-12227048D02*
X12316905Y-12217524D01*
X12507381Y-12217524D02*
X12526429Y-12217524D01*
X12526429Y-12217524D02*
X12545476Y-12227048D01*
X12545476Y-12227048D02*
X12555000Y-12236571D01*
X12555000Y-12236571D02*
X12564524Y-12255619D01*
X12564524Y-12255619D02*
X12574048Y-12293714D01*
X12574048Y-12293714D02*
X12574048Y-12341333D01*
X12574048Y-12341333D02*
X12564524Y-12379428D01*
X12564524Y-12379428D02*
X12555000Y-12398476D01*
X12555000Y-12398476D02*
X12545476Y-12408000D01*
X12545476Y-12408000D02*
X12526429Y-12417524D01*
X12526429Y-12417524D02*
X12507381Y-12417524D01*
X12507381Y-12417524D02*
X12488333Y-12408000D01*
X12488333Y-12408000D02*
X12478809Y-12398476D01*
X12478809Y-12398476D02*
X12469286Y-12379428D01*
X12469286Y-12379428D02*
X12459762Y-12341333D01*
X12459762Y-12341333D02*
X12459762Y-12293714D01*
X12459762Y-12293714D02*
X12469286Y-12255619D01*
X12469286Y-12255619D02*
X12478809Y-12236571D01*
X12478809Y-12236571D02*
X12488333Y-12227048D01*
X12488333Y-12227048D02*
X12507381Y-12217524D01*
X12659762Y-12417524D02*
X12659762Y-12284190D01*
X12659762Y-12303238D02*
X12669286Y-12293714D01*
X12669286Y-12293714D02*
X12688333Y-12284190D01*
X12688333Y-12284190D02*
X12716905Y-12284190D01*
X12716905Y-12284190D02*
X12735952Y-12293714D01*
X12735952Y-12293714D02*
X12745476Y-12312762D01*
X12745476Y-12312762D02*
X12745476Y-12417524D01*
X12745476Y-12312762D02*
X12755000Y-12293714D01*
X12755000Y-12293714D02*
X12774048Y-12284190D01*
X12774048Y-12284190D02*
X12802619Y-12284190D01*
X12802619Y-12284190D02*
X12821667Y-12293714D01*
X12821667Y-12293714D02*
X12831190Y-12312762D01*
X12831190Y-12312762D02*
X12831190Y-12417524D01*
X12926429Y-12417524D02*
X12926429Y-12284190D01*
X12926429Y-12303238D02*
X12935952Y-12293714D01*
X12935952Y-12293714D02*
X12955000Y-12284190D01*
X12955000Y-12284190D02*
X12983571Y-12284190D01*
X12983571Y-12284190D02*
X13002619Y-12293714D01*
X13002619Y-12293714D02*
X13012143Y-12312762D01*
X13012143Y-12312762D02*
X13012143Y-12417524D01*
X13012143Y-12312762D02*
X13021667Y-12293714D01*
X13021667Y-12293714D02*
X13040714Y-12284190D01*
X13040714Y-12284190D02*
X13069286Y-12284190D01*
X13069286Y-12284190D02*
X13088333Y-12293714D01*
X13088333Y-12293714D02*
X13097857Y-12312762D01*
X13097857Y-12312762D02*
X13097857Y-12417524D01*
X13488333Y-12208000D02*
X13316905Y-12465143D01*
X13745476Y-12217524D02*
X13764524Y-12217524D01*
X13764524Y-12217524D02*
X13783572Y-12227048D01*
X13783572Y-12227048D02*
X13793095Y-12236571D01*
X13793095Y-12236571D02*
X13802619Y-12255619D01*
X13802619Y-12255619D02*
X13812143Y-12293714D01*
X13812143Y-12293714D02*
X13812143Y-12341333D01*
X13812143Y-12341333D02*
X13802619Y-12379428D01*
X13802619Y-12379428D02*
X13793095Y-12398476D01*
X13793095Y-12398476D02*
X13783572Y-12408000D01*
X13783572Y-12408000D02*
X13764524Y-12417524D01*
X13764524Y-12417524D02*
X13745476Y-12417524D01*
X13745476Y-12417524D02*
X13726429Y-12408000D01*
X13726429Y-12408000D02*
X13716905Y-12398476D01*
X13716905Y-12398476D02*
X13707381Y-12379428D01*
X13707381Y-12379428D02*
X13697857Y-12341333D01*
X13697857Y-12341333D02*
X13697857Y-12293714D01*
X13697857Y-12293714D02*
X13707381Y-12255619D01*
X13707381Y-12255619D02*
X13716905Y-12236571D01*
X13716905Y-12236571D02*
X13726429Y-12227048D01*
X13726429Y-12227048D02*
X13745476Y-12217524D01*
X13897857Y-12398476D02*
X13907381Y-12408000D01*
X13907381Y-12408000D02*
X13897857Y-12417524D01*
X13897857Y-12417524D02*
X13888333Y-12408000D01*
X13888333Y-12408000D02*
X13897857Y-12398476D01*
X13897857Y-12398476D02*
X13897857Y-12417524D01*
X14031191Y-12217524D02*
X14050238Y-12217524D01*
X14050238Y-12217524D02*
X14069286Y-12227048D01*
X14069286Y-12227048D02*
X14078810Y-12236571D01*
X14078810Y-12236571D02*
X14088333Y-12255619D01*
X14088333Y-12255619D02*
X14097857Y-12293714D01*
X14097857Y-12293714D02*
X14097857Y-12341333D01*
X14097857Y-12341333D02*
X14088333Y-12379428D01*
X14088333Y-12379428D02*
X14078810Y-12398476D01*
X14078810Y-12398476D02*
X14069286Y-12408000D01*
X14069286Y-12408000D02*
X14050238Y-12417524D01*
X14050238Y-12417524D02*
X14031191Y-12417524D01*
X14031191Y-12417524D02*
X14012143Y-12408000D01*
X14012143Y-12408000D02*
X14002619Y-12398476D01*
X14002619Y-12398476D02*
X13993095Y-12379428D01*
X13993095Y-12379428D02*
X13983572Y-12341333D01*
X13983572Y-12341333D02*
X13983572Y-12293714D01*
X13983572Y-12293714D02*
X13993095Y-12255619D01*
X13993095Y-12255619D02*
X14002619Y-12236571D01*
X14002619Y-12236571D02*
X14012143Y-12227048D01*
X14012143Y-12227048D02*
X14031191Y-12217524D01*
X14288333Y-12417524D02*
X14174048Y-12417524D01*
X14231191Y-12417524D02*
X14231191Y-12217524D01*
X14231191Y-12217524D02*
X14212143Y-12246095D01*
X14212143Y-12246095D02*
X14193095Y-12265143D01*
X14193095Y-12265143D02*
X14174048Y-12274667D01*
X14469286Y-12217524D02*
X14374048Y-12217524D01*
X14374048Y-12217524D02*
X14364524Y-12312762D01*
X14364524Y-12312762D02*
X14374048Y-12303238D01*
X14374048Y-12303238D02*
X14393095Y-12293714D01*
X14393095Y-12293714D02*
X14440714Y-12293714D01*
X14440714Y-12293714D02*
X14459762Y-12303238D01*
X14459762Y-12303238D02*
X14469286Y-12312762D01*
X14469286Y-12312762D02*
X14478810Y-12331809D01*
X14478810Y-12331809D02*
X14478810Y-12379428D01*
X14478810Y-12379428D02*
X14469286Y-12398476D01*
X14469286Y-12398476D02*
X14459762Y-12408000D01*
X14459762Y-12408000D02*
X14440714Y-12417524D01*
X14440714Y-12417524D02*
X14393095Y-12417524D01*
X14393095Y-12417524D02*
X14374048Y-12408000D01*
X14374048Y-12408000D02*
X14364524Y-12398476D01*
X14545476Y-12217524D02*
X14678810Y-12217524D01*
X14678810Y-12217524D02*
X14593095Y-12417524D01*
X14745476Y-12217524D02*
X14745476Y-12255619D01*
X14821667Y-12217524D02*
X14821667Y-12255619D01*
X15116905Y-12493714D02*
X15107381Y-12484190D01*
X15107381Y-12484190D02*
X15088334Y-12455619D01*
X15088334Y-12455619D02*
X15078810Y-12436571D01*
X15078810Y-12436571D02*
X15069286Y-12408000D01*
X15069286Y-12408000D02*
X15059762Y-12360381D01*
X15059762Y-12360381D02*
X15059762Y-12322286D01*
X15059762Y-12322286D02*
X15069286Y-12274667D01*
X15069286Y-12274667D02*
X15078810Y-12246095D01*
X15078810Y-12246095D02*
X15088334Y-12227048D01*
X15088334Y-12227048D02*
X15107381Y-12198476D01*
X15107381Y-12198476D02*
X15116905Y-12188952D01*
X15278810Y-12217524D02*
X15240714Y-12217524D01*
X15240714Y-12217524D02*
X15221667Y-12227048D01*
X15221667Y-12227048D02*
X15212143Y-12236571D01*
X15212143Y-12236571D02*
X15193095Y-12265143D01*
X15193095Y-12265143D02*
X15183572Y-12303238D01*
X15183572Y-12303238D02*
X15183572Y-12379428D01*
X15183572Y-12379428D02*
X15193095Y-12398476D01*
X15193095Y-12398476D02*
X15202619Y-12408000D01*
X15202619Y-12408000D02*
X15221667Y-12417524D01*
X15221667Y-12417524D02*
X15259762Y-12417524D01*
X15259762Y-12417524D02*
X15278810Y-12408000D01*
X15278810Y-12408000D02*
X15288334Y-12398476D01*
X15288334Y-12398476D02*
X15297857Y-12379428D01*
X15297857Y-12379428D02*
X15297857Y-12331809D01*
X15297857Y-12331809D02*
X15288334Y-12312762D01*
X15288334Y-12312762D02*
X15278810Y-12303238D01*
X15278810Y-12303238D02*
X15259762Y-12293714D01*
X15259762Y-12293714D02*
X15221667Y-12293714D01*
X15221667Y-12293714D02*
X15202619Y-12303238D01*
X15202619Y-12303238D02*
X15193095Y-12312762D01*
X15193095Y-12312762D02*
X15183572Y-12331809D01*
X15469286Y-12217524D02*
X15431191Y-12217524D01*
X15431191Y-12217524D02*
X15412143Y-12227048D01*
X15412143Y-12227048D02*
X15402619Y-12236571D01*
X15402619Y-12236571D02*
X15383572Y-12265143D01*
X15383572Y-12265143D02*
X15374048Y-12303238D01*
X15374048Y-12303238D02*
X15374048Y-12379428D01*
X15374048Y-12379428D02*
X15383572Y-12398476D01*
X15383572Y-12398476D02*
X15393095Y-12408000D01*
X15393095Y-12408000D02*
X15412143Y-12417524D01*
X15412143Y-12417524D02*
X15450238Y-12417524D01*
X15450238Y-12417524D02*
X15469286Y-12408000D01*
X15469286Y-12408000D02*
X15478810Y-12398476D01*
X15478810Y-12398476D02*
X15488334Y-12379428D01*
X15488334Y-12379428D02*
X15488334Y-12331809D01*
X15488334Y-12331809D02*
X15478810Y-12312762D01*
X15478810Y-12312762D02*
X15469286Y-12303238D01*
X15469286Y-12303238D02*
X15450238Y-12293714D01*
X15450238Y-12293714D02*
X15412143Y-12293714D01*
X15412143Y-12293714D02*
X15393095Y-12303238D01*
X15393095Y-12303238D02*
X15383572Y-12312762D01*
X15383572Y-12312762D02*
X15374048Y-12331809D01*
X15726429Y-12417524D02*
X15726429Y-12217524D01*
X15812143Y-12417524D02*
X15812143Y-12312762D01*
X15812143Y-12312762D02*
X15802619Y-12293714D01*
X15802619Y-12293714D02*
X15783572Y-12284190D01*
X15783572Y-12284190D02*
X15755000Y-12284190D01*
X15755000Y-12284190D02*
X15735953Y-12293714D01*
X15735953Y-12293714D02*
X15726429Y-12303238D01*
X15935953Y-12417524D02*
X15916905Y-12408000D01*
X15916905Y-12408000D02*
X15907381Y-12398476D01*
X15907381Y-12398476D02*
X15897857Y-12379428D01*
X15897857Y-12379428D02*
X15897857Y-12322286D01*
X15897857Y-12322286D02*
X15907381Y-12303238D01*
X15907381Y-12303238D02*
X15916905Y-12293714D01*
X15916905Y-12293714D02*
X15935953Y-12284190D01*
X15935953Y-12284190D02*
X15964524Y-12284190D01*
X15964524Y-12284190D02*
X15983572Y-12293714D01*
X15983572Y-12293714D02*
X15993096Y-12303238D01*
X15993096Y-12303238D02*
X16002619Y-12322286D01*
X16002619Y-12322286D02*
X16002619Y-12379428D01*
X16002619Y-12379428D02*
X15993096Y-12398476D01*
X15993096Y-12398476D02*
X15983572Y-12408000D01*
X15983572Y-12408000D02*
X15964524Y-12417524D01*
X15964524Y-12417524D02*
X15935953Y-12417524D01*
X16116905Y-12417524D02*
X16097857Y-12408000D01*
X16097857Y-12408000D02*
X16088334Y-12388952D01*
X16088334Y-12388952D02*
X16088334Y-12217524D01*
X16269286Y-12408000D02*
X16250238Y-12417524D01*
X16250238Y-12417524D02*
X16212143Y-12417524D01*
X16212143Y-12417524D02*
X16193096Y-12408000D01*
X16193096Y-12408000D02*
X16183572Y-12388952D01*
X16183572Y-12388952D02*
X16183572Y-12312762D01*
X16183572Y-12312762D02*
X16193096Y-12293714D01*
X16193096Y-12293714D02*
X16212143Y-12284190D01*
X16212143Y-12284190D02*
X16250238Y-12284190D01*
X16250238Y-12284190D02*
X16269286Y-12293714D01*
X16269286Y-12293714D02*
X16278810Y-12312762D01*
X16278810Y-12312762D02*
X16278810Y-12331809D01*
X16278810Y-12331809D02*
X16183572Y-12350857D01*
X16355000Y-12408000D02*
X16374048Y-12417524D01*
X16374048Y-12417524D02*
X16412143Y-12417524D01*
X16412143Y-12417524D02*
X16431191Y-12408000D01*
X16431191Y-12408000D02*
X16440715Y-12388952D01*
X16440715Y-12388952D02*
X16440715Y-12379428D01*
X16440715Y-12379428D02*
X16431191Y-12360381D01*
X16431191Y-12360381D02*
X16412143Y-12350857D01*
X16412143Y-12350857D02*
X16383572Y-12350857D01*
X16383572Y-12350857D02*
X16364524Y-12341333D01*
X16364524Y-12341333D02*
X16355000Y-12322286D01*
X16355000Y-12322286D02*
X16355000Y-12312762D01*
X16355000Y-12312762D02*
X16364524Y-12293714D01*
X16364524Y-12293714D02*
X16383572Y-12284190D01*
X16383572Y-12284190D02*
X16412143Y-12284190D01*
X16412143Y-12284190D02*
X16431191Y-12293714D01*
X16507381Y-12493714D02*
X16516905Y-12484190D01*
X16516905Y-12484190D02*
X16535953Y-12455619D01*
X16535953Y-12455619D02*
X16545477Y-12436571D01*
X16545477Y-12436571D02*
X16555000Y-12408000D01*
X16555000Y-12408000D02*
X16564524Y-12360381D01*
X16564524Y-12360381D02*
X16564524Y-12322286D01*
X16564524Y-12322286D02*
X16555000Y-12274667D01*
X16555000Y-12274667D02*
X16545477Y-12246095D01*
X16545477Y-12246095D02*
X16535953Y-12227048D01*
X16535953Y-12227048D02*
X16516905Y-12198476D01*
X16516905Y-12198476D02*
X16507381Y-12188952D01*
D13*
X11555000Y-12589000D02*
G75*
G03*
X11555000Y-12589000I-35000J0D01*
G01*
D11*
X11840714Y-12481524D02*
X11859762Y-12481524D01*
X11859762Y-12481524D02*
X11878809Y-12491048D01*
X11878809Y-12491048D02*
X11888333Y-12500571D01*
X11888333Y-12500571D02*
X11897857Y-12519619D01*
X11897857Y-12519619D02*
X11907381Y-12557714D01*
X11907381Y-12557714D02*
X11907381Y-12605333D01*
X11907381Y-12605333D02*
X11897857Y-12643428D01*
X11897857Y-12643428D02*
X11888333Y-12662476D01*
X11888333Y-12662476D02*
X11878809Y-12672000D01*
X11878809Y-12672000D02*
X11859762Y-12681524D01*
X11859762Y-12681524D02*
X11840714Y-12681524D01*
X11840714Y-12681524D02*
X11821667Y-12672000D01*
X11821667Y-12672000D02*
X11812143Y-12662476D01*
X11812143Y-12662476D02*
X11802619Y-12643428D01*
X11802619Y-12643428D02*
X11793095Y-12605333D01*
X11793095Y-12605333D02*
X11793095Y-12557714D01*
X11793095Y-12557714D02*
X11802619Y-12519619D01*
X11802619Y-12519619D02*
X11812143Y-12500571D01*
X11812143Y-12500571D02*
X11821667Y-12491048D01*
X11821667Y-12491048D02*
X11840714Y-12481524D01*
X11993095Y-12662476D02*
X12002619Y-12672000D01*
X12002619Y-12672000D02*
X11993095Y-12681524D01*
X11993095Y-12681524D02*
X11983571Y-12672000D01*
X11983571Y-12672000D02*
X11993095Y-12662476D01*
X11993095Y-12662476D02*
X11993095Y-12681524D01*
X12069286Y-12481524D02*
X12202619Y-12481524D01*
X12202619Y-12481524D02*
X12116905Y-12681524D01*
X12316905Y-12481524D02*
X12335952Y-12481524D01*
X12335952Y-12481524D02*
X12355000Y-12491048D01*
X12355000Y-12491048D02*
X12364524Y-12500571D01*
X12364524Y-12500571D02*
X12374048Y-12519619D01*
X12374048Y-12519619D02*
X12383571Y-12557714D01*
X12383571Y-12557714D02*
X12383571Y-12605333D01*
X12383571Y-12605333D02*
X12374048Y-12643428D01*
X12374048Y-12643428D02*
X12364524Y-12662476D01*
X12364524Y-12662476D02*
X12355000Y-12672000D01*
X12355000Y-12672000D02*
X12335952Y-12681524D01*
X12335952Y-12681524D02*
X12316905Y-12681524D01*
X12316905Y-12681524D02*
X12297857Y-12672000D01*
X12297857Y-12672000D02*
X12288333Y-12662476D01*
X12288333Y-12662476D02*
X12278809Y-12643428D01*
X12278809Y-12643428D02*
X12269286Y-12605333D01*
X12269286Y-12605333D02*
X12269286Y-12557714D01*
X12269286Y-12557714D02*
X12278809Y-12519619D01*
X12278809Y-12519619D02*
X12288333Y-12500571D01*
X12288333Y-12500571D02*
X12297857Y-12491048D01*
X12297857Y-12491048D02*
X12316905Y-12481524D01*
X12507381Y-12481524D02*
X12526429Y-12481524D01*
X12526429Y-12481524D02*
X12545476Y-12491048D01*
X12545476Y-12491048D02*
X12555000Y-12500571D01*
X12555000Y-12500571D02*
X12564524Y-12519619D01*
X12564524Y-12519619D02*
X12574048Y-12557714D01*
X12574048Y-12557714D02*
X12574048Y-12605333D01*
X12574048Y-12605333D02*
X12564524Y-12643428D01*
X12564524Y-12643428D02*
X12555000Y-12662476D01*
X12555000Y-12662476D02*
X12545476Y-12672000D01*
X12545476Y-12672000D02*
X12526429Y-12681524D01*
X12526429Y-12681524D02*
X12507381Y-12681524D01*
X12507381Y-12681524D02*
X12488333Y-12672000D01*
X12488333Y-12672000D02*
X12478809Y-12662476D01*
X12478809Y-12662476D02*
X12469286Y-12643428D01*
X12469286Y-12643428D02*
X12459762Y-12605333D01*
X12459762Y-12605333D02*
X12459762Y-12557714D01*
X12459762Y-12557714D02*
X12469286Y-12519619D01*
X12469286Y-12519619D02*
X12478809Y-12500571D01*
X12478809Y-12500571D02*
X12488333Y-12491048D01*
X12488333Y-12491048D02*
X12507381Y-12481524D01*
X12659762Y-12681524D02*
X12659762Y-12548190D01*
X12659762Y-12567238D02*
X12669286Y-12557714D01*
X12669286Y-12557714D02*
X12688333Y-12548190D01*
X12688333Y-12548190D02*
X12716905Y-12548190D01*
X12716905Y-12548190D02*
X12735952Y-12557714D01*
X12735952Y-12557714D02*
X12745476Y-12576762D01*
X12745476Y-12576762D02*
X12745476Y-12681524D01*
X12745476Y-12576762D02*
X12755000Y-12557714D01*
X12755000Y-12557714D02*
X12774048Y-12548190D01*
X12774048Y-12548190D02*
X12802619Y-12548190D01*
X12802619Y-12548190D02*
X12821667Y-12557714D01*
X12821667Y-12557714D02*
X12831190Y-12576762D01*
X12831190Y-12576762D02*
X12831190Y-12681524D01*
X12926429Y-12681524D02*
X12926429Y-12548190D01*
X12926429Y-12567238D02*
X12935952Y-12557714D01*
X12935952Y-12557714D02*
X12955000Y-12548190D01*
X12955000Y-12548190D02*
X12983571Y-12548190D01*
X12983571Y-12548190D02*
X13002619Y-12557714D01*
X13002619Y-12557714D02*
X13012143Y-12576762D01*
X13012143Y-12576762D02*
X13012143Y-12681524D01*
X13012143Y-12576762D02*
X13021667Y-12557714D01*
X13021667Y-12557714D02*
X13040714Y-12548190D01*
X13040714Y-12548190D02*
X13069286Y-12548190D01*
X13069286Y-12548190D02*
X13088333Y-12557714D01*
X13088333Y-12557714D02*
X13097857Y-12576762D01*
X13097857Y-12576762D02*
X13097857Y-12681524D01*
X13488333Y-12472000D02*
X13316905Y-12729143D01*
X13745476Y-12481524D02*
X13764524Y-12481524D01*
X13764524Y-12481524D02*
X13783572Y-12491048D01*
X13783572Y-12491048D02*
X13793095Y-12500571D01*
X13793095Y-12500571D02*
X13802619Y-12519619D01*
X13802619Y-12519619D02*
X13812143Y-12557714D01*
X13812143Y-12557714D02*
X13812143Y-12605333D01*
X13812143Y-12605333D02*
X13802619Y-12643428D01*
X13802619Y-12643428D02*
X13793095Y-12662476D01*
X13793095Y-12662476D02*
X13783572Y-12672000D01*
X13783572Y-12672000D02*
X13764524Y-12681524D01*
X13764524Y-12681524D02*
X13745476Y-12681524D01*
X13745476Y-12681524D02*
X13726429Y-12672000D01*
X13726429Y-12672000D02*
X13716905Y-12662476D01*
X13716905Y-12662476D02*
X13707381Y-12643428D01*
X13707381Y-12643428D02*
X13697857Y-12605333D01*
X13697857Y-12605333D02*
X13697857Y-12557714D01*
X13697857Y-12557714D02*
X13707381Y-12519619D01*
X13707381Y-12519619D02*
X13716905Y-12500571D01*
X13716905Y-12500571D02*
X13726429Y-12491048D01*
X13726429Y-12491048D02*
X13745476Y-12481524D01*
X13897857Y-12662476D02*
X13907381Y-12672000D01*
X13907381Y-12672000D02*
X13897857Y-12681524D01*
X13897857Y-12681524D02*
X13888333Y-12672000D01*
X13888333Y-12672000D02*
X13897857Y-12662476D01*
X13897857Y-12662476D02*
X13897857Y-12681524D01*
X14031191Y-12481524D02*
X14050238Y-12481524D01*
X14050238Y-12481524D02*
X14069286Y-12491048D01*
X14069286Y-12491048D02*
X14078810Y-12500571D01*
X14078810Y-12500571D02*
X14088333Y-12519619D01*
X14088333Y-12519619D02*
X14097857Y-12557714D01*
X14097857Y-12557714D02*
X14097857Y-12605333D01*
X14097857Y-12605333D02*
X14088333Y-12643428D01*
X14088333Y-12643428D02*
X14078810Y-12662476D01*
X14078810Y-12662476D02*
X14069286Y-12672000D01*
X14069286Y-12672000D02*
X14050238Y-12681524D01*
X14050238Y-12681524D02*
X14031191Y-12681524D01*
X14031191Y-12681524D02*
X14012143Y-12672000D01*
X14012143Y-12672000D02*
X14002619Y-12662476D01*
X14002619Y-12662476D02*
X13993095Y-12643428D01*
X13993095Y-12643428D02*
X13983572Y-12605333D01*
X13983572Y-12605333D02*
X13983572Y-12557714D01*
X13983572Y-12557714D02*
X13993095Y-12519619D01*
X13993095Y-12519619D02*
X14002619Y-12500571D01*
X14002619Y-12500571D02*
X14012143Y-12491048D01*
X14012143Y-12491048D02*
X14031191Y-12481524D01*
X14174048Y-12500571D02*
X14183572Y-12491048D01*
X14183572Y-12491048D02*
X14202619Y-12481524D01*
X14202619Y-12481524D02*
X14250238Y-12481524D01*
X14250238Y-12481524D02*
X14269286Y-12491048D01*
X14269286Y-12491048D02*
X14278810Y-12500571D01*
X14278810Y-12500571D02*
X14288333Y-12519619D01*
X14288333Y-12519619D02*
X14288333Y-12538667D01*
X14288333Y-12538667D02*
X14278810Y-12567238D01*
X14278810Y-12567238D02*
X14164524Y-12681524D01*
X14164524Y-12681524D02*
X14288333Y-12681524D01*
X14355000Y-12481524D02*
X14488333Y-12481524D01*
X14488333Y-12481524D02*
X14402619Y-12681524D01*
X14650238Y-12481524D02*
X14612143Y-12481524D01*
X14612143Y-12481524D02*
X14593095Y-12491048D01*
X14593095Y-12491048D02*
X14583572Y-12500571D01*
X14583572Y-12500571D02*
X14564524Y-12529143D01*
X14564524Y-12529143D02*
X14555000Y-12567238D01*
X14555000Y-12567238D02*
X14555000Y-12643428D01*
X14555000Y-12643428D02*
X14564524Y-12662476D01*
X14564524Y-12662476D02*
X14574048Y-12672000D01*
X14574048Y-12672000D02*
X14593095Y-12681524D01*
X14593095Y-12681524D02*
X14631191Y-12681524D01*
X14631191Y-12681524D02*
X14650238Y-12672000D01*
X14650238Y-12672000D02*
X14659762Y-12662476D01*
X14659762Y-12662476D02*
X14669286Y-12643428D01*
X14669286Y-12643428D02*
X14669286Y-12595809D01*
X14669286Y-12595809D02*
X14659762Y-12576762D01*
X14659762Y-12576762D02*
X14650238Y-12567238D01*
X14650238Y-12567238D02*
X14631191Y-12557714D01*
X14631191Y-12557714D02*
X14593095Y-12557714D01*
X14593095Y-12557714D02*
X14574048Y-12567238D01*
X14574048Y-12567238D02*
X14564524Y-12576762D01*
X14564524Y-12576762D02*
X14555000Y-12595809D01*
X14745476Y-12481524D02*
X14745476Y-12519619D01*
X14821667Y-12481524D02*
X14821667Y-12519619D01*
X15116905Y-12757714D02*
X15107381Y-12748190D01*
X15107381Y-12748190D02*
X15088334Y-12719619D01*
X15088334Y-12719619D02*
X15078810Y-12700571D01*
X15078810Y-12700571D02*
X15069286Y-12672000D01*
X15069286Y-12672000D02*
X15059762Y-12624381D01*
X15059762Y-12624381D02*
X15059762Y-12586286D01*
X15059762Y-12586286D02*
X15069286Y-12538667D01*
X15069286Y-12538667D02*
X15078810Y-12510095D01*
X15078810Y-12510095D02*
X15088334Y-12491048D01*
X15088334Y-12491048D02*
X15107381Y-12462476D01*
X15107381Y-12462476D02*
X15116905Y-12452952D01*
X15174048Y-12481524D02*
X15297857Y-12481524D01*
X15297857Y-12481524D02*
X15231191Y-12557714D01*
X15231191Y-12557714D02*
X15259762Y-12557714D01*
X15259762Y-12557714D02*
X15278810Y-12567238D01*
X15278810Y-12567238D02*
X15288334Y-12576762D01*
X15288334Y-12576762D02*
X15297857Y-12595809D01*
X15297857Y-12595809D02*
X15297857Y-12643428D01*
X15297857Y-12643428D02*
X15288334Y-12662476D01*
X15288334Y-12662476D02*
X15278810Y-12672000D01*
X15278810Y-12672000D02*
X15259762Y-12681524D01*
X15259762Y-12681524D02*
X15202619Y-12681524D01*
X15202619Y-12681524D02*
X15183572Y-12672000D01*
X15183572Y-12672000D02*
X15174048Y-12662476D01*
X15535953Y-12681524D02*
X15535953Y-12481524D01*
X15621667Y-12681524D02*
X15621667Y-12576762D01*
X15621667Y-12576762D02*
X15612143Y-12557714D01*
X15612143Y-12557714D02*
X15593096Y-12548190D01*
X15593096Y-12548190D02*
X15564524Y-12548190D01*
X15564524Y-12548190D02*
X15545476Y-12557714D01*
X15545476Y-12557714D02*
X15535953Y-12567238D01*
X15745476Y-12681524D02*
X15726429Y-12672000D01*
X15726429Y-12672000D02*
X15716905Y-12662476D01*
X15716905Y-12662476D02*
X15707381Y-12643428D01*
X15707381Y-12643428D02*
X15707381Y-12586286D01*
X15707381Y-12586286D02*
X15716905Y-12567238D01*
X15716905Y-12567238D02*
X15726429Y-12557714D01*
X15726429Y-12557714D02*
X15745476Y-12548190D01*
X15745476Y-12548190D02*
X15774048Y-12548190D01*
X15774048Y-12548190D02*
X15793096Y-12557714D01*
X15793096Y-12557714D02*
X15802619Y-12567238D01*
X15802619Y-12567238D02*
X15812143Y-12586286D01*
X15812143Y-12586286D02*
X15812143Y-12643428D01*
X15812143Y-12643428D02*
X15802619Y-12662476D01*
X15802619Y-12662476D02*
X15793096Y-12672000D01*
X15793096Y-12672000D02*
X15774048Y-12681524D01*
X15774048Y-12681524D02*
X15745476Y-12681524D01*
X15926429Y-12681524D02*
X15907381Y-12672000D01*
X15907381Y-12672000D02*
X15897857Y-12652952D01*
X15897857Y-12652952D02*
X15897857Y-12481524D01*
X16078810Y-12672000D02*
X16059762Y-12681524D01*
X16059762Y-12681524D02*
X16021667Y-12681524D01*
X16021667Y-12681524D02*
X16002619Y-12672000D01*
X16002619Y-12672000D02*
X15993096Y-12652952D01*
X15993096Y-12652952D02*
X15993096Y-12576762D01*
X15993096Y-12576762D02*
X16002619Y-12557714D01*
X16002619Y-12557714D02*
X16021667Y-12548190D01*
X16021667Y-12548190D02*
X16059762Y-12548190D01*
X16059762Y-12548190D02*
X16078810Y-12557714D01*
X16078810Y-12557714D02*
X16088334Y-12576762D01*
X16088334Y-12576762D02*
X16088334Y-12595809D01*
X16088334Y-12595809D02*
X15993096Y-12614857D01*
X16164524Y-12672000D02*
X16183572Y-12681524D01*
X16183572Y-12681524D02*
X16221667Y-12681524D01*
X16221667Y-12681524D02*
X16240715Y-12672000D01*
X16240715Y-12672000D02*
X16250238Y-12652952D01*
X16250238Y-12652952D02*
X16250238Y-12643428D01*
X16250238Y-12643428D02*
X16240715Y-12624381D01*
X16240715Y-12624381D02*
X16221667Y-12614857D01*
X16221667Y-12614857D02*
X16193096Y-12614857D01*
X16193096Y-12614857D02*
X16174048Y-12605333D01*
X16174048Y-12605333D02*
X16164524Y-12586286D01*
X16164524Y-12586286D02*
X16164524Y-12576762D01*
X16164524Y-12576762D02*
X16174048Y-12557714D01*
X16174048Y-12557714D02*
X16193096Y-12548190D01*
X16193096Y-12548190D02*
X16221667Y-12548190D01*
X16221667Y-12548190D02*
X16240715Y-12557714D01*
X16316905Y-12757714D02*
X16326429Y-12748190D01*
X16326429Y-12748190D02*
X16345477Y-12719619D01*
X16345477Y-12719619D02*
X16355000Y-12700571D01*
X16355000Y-12700571D02*
X16364524Y-12672000D01*
X16364524Y-12672000D02*
X16374048Y-12624381D01*
X16374048Y-12624381D02*
X16374048Y-12586286D01*
X16374048Y-12586286D02*
X16364524Y-12538667D01*
X16364524Y-12538667D02*
X16355000Y-12510095D01*
X16355000Y-12510095D02*
X16345477Y-12491048D01*
X16345477Y-12491048D02*
X16326429Y-12462476D01*
X16326429Y-12462476D02*
X16316905Y-12452952D01*
D14*
X11515000Y-12813000D02*
X11515000Y-12893000D01*
X11475000Y-12853000D02*
X11555000Y-12853000D01*
D11*
X11840714Y-12745524D02*
X11859762Y-12745524D01*
X11859762Y-12745524D02*
X11878809Y-12755048D01*
X11878809Y-12755048D02*
X11888333Y-12764571D01*
X11888333Y-12764571D02*
X11897857Y-12783619D01*
X11897857Y-12783619D02*
X11907381Y-12821714D01*
X11907381Y-12821714D02*
X11907381Y-12869333D01*
X11907381Y-12869333D02*
X11897857Y-12907428D01*
X11897857Y-12907428D02*
X11888333Y-12926476D01*
X11888333Y-12926476D02*
X11878809Y-12936000D01*
X11878809Y-12936000D02*
X11859762Y-12945524D01*
X11859762Y-12945524D02*
X11840714Y-12945524D01*
X11840714Y-12945524D02*
X11821667Y-12936000D01*
X11821667Y-12936000D02*
X11812143Y-12926476D01*
X11812143Y-12926476D02*
X11802619Y-12907428D01*
X11802619Y-12907428D02*
X11793095Y-12869333D01*
X11793095Y-12869333D02*
X11793095Y-12821714D01*
X11793095Y-12821714D02*
X11802619Y-12783619D01*
X11802619Y-12783619D02*
X11812143Y-12764571D01*
X11812143Y-12764571D02*
X11821667Y-12755048D01*
X11821667Y-12755048D02*
X11840714Y-12745524D01*
X11993095Y-12926476D02*
X12002619Y-12936000D01*
X12002619Y-12936000D02*
X11993095Y-12945524D01*
X11993095Y-12945524D02*
X11983571Y-12936000D01*
X11983571Y-12936000D02*
X11993095Y-12926476D01*
X11993095Y-12926476D02*
X11993095Y-12945524D01*
X12116905Y-12831238D02*
X12097857Y-12821714D01*
X12097857Y-12821714D02*
X12088333Y-12812190D01*
X12088333Y-12812190D02*
X12078809Y-12793143D01*
X12078809Y-12793143D02*
X12078809Y-12783619D01*
X12078809Y-12783619D02*
X12088333Y-12764571D01*
X12088333Y-12764571D02*
X12097857Y-12755048D01*
X12097857Y-12755048D02*
X12116905Y-12745524D01*
X12116905Y-12745524D02*
X12155000Y-12745524D01*
X12155000Y-12745524D02*
X12174048Y-12755048D01*
X12174048Y-12755048D02*
X12183571Y-12764571D01*
X12183571Y-12764571D02*
X12193095Y-12783619D01*
X12193095Y-12783619D02*
X12193095Y-12793143D01*
X12193095Y-12793143D02*
X12183571Y-12812190D01*
X12183571Y-12812190D02*
X12174048Y-12821714D01*
X12174048Y-12821714D02*
X12155000Y-12831238D01*
X12155000Y-12831238D02*
X12116905Y-12831238D01*
X12116905Y-12831238D02*
X12097857Y-12840762D01*
X12097857Y-12840762D02*
X12088333Y-12850286D01*
X12088333Y-12850286D02*
X12078809Y-12869333D01*
X12078809Y-12869333D02*
X12078809Y-12907428D01*
X12078809Y-12907428D02*
X12088333Y-12926476D01*
X12088333Y-12926476D02*
X12097857Y-12936000D01*
X12097857Y-12936000D02*
X12116905Y-12945524D01*
X12116905Y-12945524D02*
X12155000Y-12945524D01*
X12155000Y-12945524D02*
X12174048Y-12936000D01*
X12174048Y-12936000D02*
X12183571Y-12926476D01*
X12183571Y-12926476D02*
X12193095Y-12907428D01*
X12193095Y-12907428D02*
X12193095Y-12869333D01*
X12193095Y-12869333D02*
X12183571Y-12850286D01*
X12183571Y-12850286D02*
X12174048Y-12840762D01*
X12174048Y-12840762D02*
X12155000Y-12831238D01*
X12316905Y-12745524D02*
X12335952Y-12745524D01*
X12335952Y-12745524D02*
X12355000Y-12755048D01*
X12355000Y-12755048D02*
X12364524Y-12764571D01*
X12364524Y-12764571D02*
X12374048Y-12783619D01*
X12374048Y-12783619D02*
X12383571Y-12821714D01*
X12383571Y-12821714D02*
X12383571Y-12869333D01*
X12383571Y-12869333D02*
X12374048Y-12907428D01*
X12374048Y-12907428D02*
X12364524Y-12926476D01*
X12364524Y-12926476D02*
X12355000Y-12936000D01*
X12355000Y-12936000D02*
X12335952Y-12945524D01*
X12335952Y-12945524D02*
X12316905Y-12945524D01*
X12316905Y-12945524D02*
X12297857Y-12936000D01*
X12297857Y-12936000D02*
X12288333Y-12926476D01*
X12288333Y-12926476D02*
X12278809Y-12907428D01*
X12278809Y-12907428D02*
X12269286Y-12869333D01*
X12269286Y-12869333D02*
X12269286Y-12821714D01*
X12269286Y-12821714D02*
X12278809Y-12783619D01*
X12278809Y-12783619D02*
X12288333Y-12764571D01*
X12288333Y-12764571D02*
X12297857Y-12755048D01*
X12297857Y-12755048D02*
X12316905Y-12745524D01*
X12507381Y-12745524D02*
X12526429Y-12745524D01*
X12526429Y-12745524D02*
X12545476Y-12755048D01*
X12545476Y-12755048D02*
X12555000Y-12764571D01*
X12555000Y-12764571D02*
X12564524Y-12783619D01*
X12564524Y-12783619D02*
X12574048Y-12821714D01*
X12574048Y-12821714D02*
X12574048Y-12869333D01*
X12574048Y-12869333D02*
X12564524Y-12907428D01*
X12564524Y-12907428D02*
X12555000Y-12926476D01*
X12555000Y-12926476D02*
X12545476Y-12936000D01*
X12545476Y-12936000D02*
X12526429Y-12945524D01*
X12526429Y-12945524D02*
X12507381Y-12945524D01*
X12507381Y-12945524D02*
X12488333Y-12936000D01*
X12488333Y-12936000D02*
X12478809Y-12926476D01*
X12478809Y-12926476D02*
X12469286Y-12907428D01*
X12469286Y-12907428D02*
X12459762Y-12869333D01*
X12459762Y-12869333D02*
X12459762Y-12821714D01*
X12459762Y-12821714D02*
X12469286Y-12783619D01*
X12469286Y-12783619D02*
X12478809Y-12764571D01*
X12478809Y-12764571D02*
X12488333Y-12755048D01*
X12488333Y-12755048D02*
X12507381Y-12745524D01*
X12659762Y-12945524D02*
X12659762Y-12812190D01*
X12659762Y-12831238D02*
X12669286Y-12821714D01*
X12669286Y-12821714D02*
X12688333Y-12812190D01*
X12688333Y-12812190D02*
X12716905Y-12812190D01*
X12716905Y-12812190D02*
X12735952Y-12821714D01*
X12735952Y-12821714D02*
X12745476Y-12840762D01*
X12745476Y-12840762D02*
X12745476Y-12945524D01*
X12745476Y-12840762D02*
X12755000Y-12821714D01*
X12755000Y-12821714D02*
X12774048Y-12812190D01*
X12774048Y-12812190D02*
X12802619Y-12812190D01*
X12802619Y-12812190D02*
X12821667Y-12821714D01*
X12821667Y-12821714D02*
X12831190Y-12840762D01*
X12831190Y-12840762D02*
X12831190Y-12945524D01*
X12926429Y-12945524D02*
X12926429Y-12812190D01*
X12926429Y-12831238D02*
X12935952Y-12821714D01*
X12935952Y-12821714D02*
X12955000Y-12812190D01*
X12955000Y-12812190D02*
X12983571Y-12812190D01*
X12983571Y-12812190D02*
X13002619Y-12821714D01*
X13002619Y-12821714D02*
X13012143Y-12840762D01*
X13012143Y-12840762D02*
X13012143Y-12945524D01*
X13012143Y-12840762D02*
X13021667Y-12821714D01*
X13021667Y-12821714D02*
X13040714Y-12812190D01*
X13040714Y-12812190D02*
X13069286Y-12812190D01*
X13069286Y-12812190D02*
X13088333Y-12821714D01*
X13088333Y-12821714D02*
X13097857Y-12840762D01*
X13097857Y-12840762D02*
X13097857Y-12945524D01*
X13488333Y-12736000D02*
X13316905Y-12993143D01*
X13745476Y-12745524D02*
X13764524Y-12745524D01*
X13764524Y-12745524D02*
X13783572Y-12755048D01*
X13783572Y-12755048D02*
X13793095Y-12764571D01*
X13793095Y-12764571D02*
X13802619Y-12783619D01*
X13802619Y-12783619D02*
X13812143Y-12821714D01*
X13812143Y-12821714D02*
X13812143Y-12869333D01*
X13812143Y-12869333D02*
X13802619Y-12907428D01*
X13802619Y-12907428D02*
X13793095Y-12926476D01*
X13793095Y-12926476D02*
X13783572Y-12936000D01*
X13783572Y-12936000D02*
X13764524Y-12945524D01*
X13764524Y-12945524D02*
X13745476Y-12945524D01*
X13745476Y-12945524D02*
X13726429Y-12936000D01*
X13726429Y-12936000D02*
X13716905Y-12926476D01*
X13716905Y-12926476D02*
X13707381Y-12907428D01*
X13707381Y-12907428D02*
X13697857Y-12869333D01*
X13697857Y-12869333D02*
X13697857Y-12821714D01*
X13697857Y-12821714D02*
X13707381Y-12783619D01*
X13707381Y-12783619D02*
X13716905Y-12764571D01*
X13716905Y-12764571D02*
X13726429Y-12755048D01*
X13726429Y-12755048D02*
X13745476Y-12745524D01*
X13897857Y-12926476D02*
X13907381Y-12936000D01*
X13907381Y-12936000D02*
X13897857Y-12945524D01*
X13897857Y-12945524D02*
X13888333Y-12936000D01*
X13888333Y-12936000D02*
X13897857Y-12926476D01*
X13897857Y-12926476D02*
X13897857Y-12945524D01*
X14031191Y-12745524D02*
X14050238Y-12745524D01*
X14050238Y-12745524D02*
X14069286Y-12755048D01*
X14069286Y-12755048D02*
X14078810Y-12764571D01*
X14078810Y-12764571D02*
X14088333Y-12783619D01*
X14088333Y-12783619D02*
X14097857Y-12821714D01*
X14097857Y-12821714D02*
X14097857Y-12869333D01*
X14097857Y-12869333D02*
X14088333Y-12907428D01*
X14088333Y-12907428D02*
X14078810Y-12926476D01*
X14078810Y-12926476D02*
X14069286Y-12936000D01*
X14069286Y-12936000D02*
X14050238Y-12945524D01*
X14050238Y-12945524D02*
X14031191Y-12945524D01*
X14031191Y-12945524D02*
X14012143Y-12936000D01*
X14012143Y-12936000D02*
X14002619Y-12926476D01*
X14002619Y-12926476D02*
X13993095Y-12907428D01*
X13993095Y-12907428D02*
X13983572Y-12869333D01*
X13983572Y-12869333D02*
X13983572Y-12821714D01*
X13983572Y-12821714D02*
X13993095Y-12783619D01*
X13993095Y-12783619D02*
X14002619Y-12764571D01*
X14002619Y-12764571D02*
X14012143Y-12755048D01*
X14012143Y-12755048D02*
X14031191Y-12745524D01*
X14164524Y-12745524D02*
X14288333Y-12745524D01*
X14288333Y-12745524D02*
X14221667Y-12821714D01*
X14221667Y-12821714D02*
X14250238Y-12821714D01*
X14250238Y-12821714D02*
X14269286Y-12831238D01*
X14269286Y-12831238D02*
X14278810Y-12840762D01*
X14278810Y-12840762D02*
X14288333Y-12859809D01*
X14288333Y-12859809D02*
X14288333Y-12907428D01*
X14288333Y-12907428D02*
X14278810Y-12926476D01*
X14278810Y-12926476D02*
X14269286Y-12936000D01*
X14269286Y-12936000D02*
X14250238Y-12945524D01*
X14250238Y-12945524D02*
X14193095Y-12945524D01*
X14193095Y-12945524D02*
X14174048Y-12936000D01*
X14174048Y-12936000D02*
X14164524Y-12926476D01*
X14478810Y-12945524D02*
X14364524Y-12945524D01*
X14421667Y-12945524D02*
X14421667Y-12745524D01*
X14421667Y-12745524D02*
X14402619Y-12774095D01*
X14402619Y-12774095D02*
X14383572Y-12793143D01*
X14383572Y-12793143D02*
X14364524Y-12802667D01*
X14659762Y-12745524D02*
X14564524Y-12745524D01*
X14564524Y-12745524D02*
X14555000Y-12840762D01*
X14555000Y-12840762D02*
X14564524Y-12831238D01*
X14564524Y-12831238D02*
X14583572Y-12821714D01*
X14583572Y-12821714D02*
X14631191Y-12821714D01*
X14631191Y-12821714D02*
X14650238Y-12831238D01*
X14650238Y-12831238D02*
X14659762Y-12840762D01*
X14659762Y-12840762D02*
X14669286Y-12859809D01*
X14669286Y-12859809D02*
X14669286Y-12907428D01*
X14669286Y-12907428D02*
X14659762Y-12926476D01*
X14659762Y-12926476D02*
X14650238Y-12936000D01*
X14650238Y-12936000D02*
X14631191Y-12945524D01*
X14631191Y-12945524D02*
X14583572Y-12945524D01*
X14583572Y-12945524D02*
X14564524Y-12936000D01*
X14564524Y-12936000D02*
X14555000Y-12926476D01*
X14745476Y-12745524D02*
X14745476Y-12783619D01*
X14821667Y-12745524D02*
X14821667Y-12783619D01*
X15116905Y-13021714D02*
X15107381Y-13012190D01*
X15107381Y-13012190D02*
X15088334Y-12983619D01*
X15088334Y-12983619D02*
X15078810Y-12964571D01*
X15078810Y-12964571D02*
X15069286Y-12936000D01*
X15069286Y-12936000D02*
X15059762Y-12888381D01*
X15059762Y-12888381D02*
X15059762Y-12850286D01*
X15059762Y-12850286D02*
X15069286Y-12802667D01*
X15069286Y-12802667D02*
X15078810Y-12774095D01*
X15078810Y-12774095D02*
X15088334Y-12755048D01*
X15088334Y-12755048D02*
X15107381Y-12726476D01*
X15107381Y-12726476D02*
X15116905Y-12716952D01*
X15183572Y-12764571D02*
X15193095Y-12755048D01*
X15193095Y-12755048D02*
X15212143Y-12745524D01*
X15212143Y-12745524D02*
X15259762Y-12745524D01*
X15259762Y-12745524D02*
X15278810Y-12755048D01*
X15278810Y-12755048D02*
X15288334Y-12764571D01*
X15288334Y-12764571D02*
X15297857Y-12783619D01*
X15297857Y-12783619D02*
X15297857Y-12802667D01*
X15297857Y-12802667D02*
X15288334Y-12831238D01*
X15288334Y-12831238D02*
X15174048Y-12945524D01*
X15174048Y-12945524D02*
X15297857Y-12945524D01*
X15421667Y-12745524D02*
X15440715Y-12745524D01*
X15440715Y-12745524D02*
X15459762Y-12755048D01*
X15459762Y-12755048D02*
X15469286Y-12764571D01*
X15469286Y-12764571D02*
X15478810Y-12783619D01*
X15478810Y-12783619D02*
X15488334Y-12821714D01*
X15488334Y-12821714D02*
X15488334Y-12869333D01*
X15488334Y-12869333D02*
X15478810Y-12907428D01*
X15478810Y-12907428D02*
X15469286Y-12926476D01*
X15469286Y-12926476D02*
X15459762Y-12936000D01*
X15459762Y-12936000D02*
X15440715Y-12945524D01*
X15440715Y-12945524D02*
X15421667Y-12945524D01*
X15421667Y-12945524D02*
X15402619Y-12936000D01*
X15402619Y-12936000D02*
X15393095Y-12926476D01*
X15393095Y-12926476D02*
X15383572Y-12907428D01*
X15383572Y-12907428D02*
X15374048Y-12869333D01*
X15374048Y-12869333D02*
X15374048Y-12821714D01*
X15374048Y-12821714D02*
X15383572Y-12783619D01*
X15383572Y-12783619D02*
X15393095Y-12764571D01*
X15393095Y-12764571D02*
X15402619Y-12755048D01*
X15402619Y-12755048D02*
X15421667Y-12745524D01*
X15726429Y-12945524D02*
X15726429Y-12745524D01*
X15812143Y-12945524D02*
X15812143Y-12840762D01*
X15812143Y-12840762D02*
X15802619Y-12821714D01*
X15802619Y-12821714D02*
X15783572Y-12812190D01*
X15783572Y-12812190D02*
X15755000Y-12812190D01*
X15755000Y-12812190D02*
X15735953Y-12821714D01*
X15735953Y-12821714D02*
X15726429Y-12831238D01*
X15935953Y-12945524D02*
X15916905Y-12936000D01*
X15916905Y-12936000D02*
X15907381Y-12926476D01*
X15907381Y-12926476D02*
X15897857Y-12907428D01*
X15897857Y-12907428D02*
X15897857Y-12850286D01*
X15897857Y-12850286D02*
X15907381Y-12831238D01*
X15907381Y-12831238D02*
X15916905Y-12821714D01*
X15916905Y-12821714D02*
X15935953Y-12812190D01*
X15935953Y-12812190D02*
X15964524Y-12812190D01*
X15964524Y-12812190D02*
X15983572Y-12821714D01*
X15983572Y-12821714D02*
X15993096Y-12831238D01*
X15993096Y-12831238D02*
X16002619Y-12850286D01*
X16002619Y-12850286D02*
X16002619Y-12907428D01*
X16002619Y-12907428D02*
X15993096Y-12926476D01*
X15993096Y-12926476D02*
X15983572Y-12936000D01*
X15983572Y-12936000D02*
X15964524Y-12945524D01*
X15964524Y-12945524D02*
X15935953Y-12945524D01*
X16116905Y-12945524D02*
X16097857Y-12936000D01*
X16097857Y-12936000D02*
X16088334Y-12916952D01*
X16088334Y-12916952D02*
X16088334Y-12745524D01*
X16269286Y-12936000D02*
X16250238Y-12945524D01*
X16250238Y-12945524D02*
X16212143Y-12945524D01*
X16212143Y-12945524D02*
X16193096Y-12936000D01*
X16193096Y-12936000D02*
X16183572Y-12916952D01*
X16183572Y-12916952D02*
X16183572Y-12840762D01*
X16183572Y-12840762D02*
X16193096Y-12821714D01*
X16193096Y-12821714D02*
X16212143Y-12812190D01*
X16212143Y-12812190D02*
X16250238Y-12812190D01*
X16250238Y-12812190D02*
X16269286Y-12821714D01*
X16269286Y-12821714D02*
X16278810Y-12840762D01*
X16278810Y-12840762D02*
X16278810Y-12859809D01*
X16278810Y-12859809D02*
X16183572Y-12878857D01*
X16355000Y-12936000D02*
X16374048Y-12945524D01*
X16374048Y-12945524D02*
X16412143Y-12945524D01*
X16412143Y-12945524D02*
X16431191Y-12936000D01*
X16431191Y-12936000D02*
X16440715Y-12916952D01*
X16440715Y-12916952D02*
X16440715Y-12907428D01*
X16440715Y-12907428D02*
X16431191Y-12888381D01*
X16431191Y-12888381D02*
X16412143Y-12878857D01*
X16412143Y-12878857D02*
X16383572Y-12878857D01*
X16383572Y-12878857D02*
X16364524Y-12869333D01*
X16364524Y-12869333D02*
X16355000Y-12850286D01*
X16355000Y-12850286D02*
X16355000Y-12840762D01*
X16355000Y-12840762D02*
X16364524Y-12821714D01*
X16364524Y-12821714D02*
X16383572Y-12812190D01*
X16383572Y-12812190D02*
X16412143Y-12812190D01*
X16412143Y-12812190D02*
X16431191Y-12821714D01*
X16507381Y-13021714D02*
X16516905Y-13012190D01*
X16516905Y-13012190D02*
X16535953Y-12983619D01*
X16535953Y-12983619D02*
X16545477Y-12964571D01*
X16545477Y-12964571D02*
X16555000Y-12936000D01*
X16555000Y-12936000D02*
X16564524Y-12888381D01*
X16564524Y-12888381D02*
X16564524Y-12850286D01*
X16564524Y-12850286D02*
X16555000Y-12802667D01*
X16555000Y-12802667D02*
X16545477Y-12774095D01*
X16545477Y-12774095D02*
X16535953Y-12755048D01*
X16535953Y-12755048D02*
X16516905Y-12726476D01*
X16516905Y-12726476D02*
X16507381Y-12716952D01*
D10*
X11540356Y-13152356D02*
X11540356Y-13081644D01*
X11469644Y-13081644D01*
X11469644Y-13152356D01*
X11540356Y-13152356D01*
D11*
X11907381Y-13209524D02*
X11793095Y-13209524D01*
X11850238Y-13209524D02*
X11850238Y-13009524D01*
X11850238Y-13009524D02*
X11831190Y-13038095D01*
X11831190Y-13038095D02*
X11812143Y-13057143D01*
X11812143Y-13057143D02*
X11793095Y-13066667D01*
X11993095Y-13190476D02*
X12002619Y-13200000D01*
X12002619Y-13200000D02*
X11993095Y-13209524D01*
X11993095Y-13209524D02*
X11983571Y-13200000D01*
X11983571Y-13200000D02*
X11993095Y-13190476D01*
X11993095Y-13190476D02*
X11993095Y-13209524D01*
X12126428Y-13009524D02*
X12145476Y-13009524D01*
X12145476Y-13009524D02*
X12164524Y-13019048D01*
X12164524Y-13019048D02*
X12174048Y-13028571D01*
X12174048Y-13028571D02*
X12183571Y-13047619D01*
X12183571Y-13047619D02*
X12193095Y-13085714D01*
X12193095Y-13085714D02*
X12193095Y-13133333D01*
X12193095Y-13133333D02*
X12183571Y-13171428D01*
X12183571Y-13171428D02*
X12174048Y-13190476D01*
X12174048Y-13190476D02*
X12164524Y-13200000D01*
X12164524Y-13200000D02*
X12145476Y-13209524D01*
X12145476Y-13209524D02*
X12126428Y-13209524D01*
X12126428Y-13209524D02*
X12107381Y-13200000D01*
X12107381Y-13200000D02*
X12097857Y-13190476D01*
X12097857Y-13190476D02*
X12088333Y-13171428D01*
X12088333Y-13171428D02*
X12078809Y-13133333D01*
X12078809Y-13133333D02*
X12078809Y-13085714D01*
X12078809Y-13085714D02*
X12088333Y-13047619D01*
X12088333Y-13047619D02*
X12097857Y-13028571D01*
X12097857Y-13028571D02*
X12107381Y-13019048D01*
X12107381Y-13019048D02*
X12126428Y-13009524D01*
X12316905Y-13009524D02*
X12335952Y-13009524D01*
X12335952Y-13009524D02*
X12355000Y-13019048D01*
X12355000Y-13019048D02*
X12364524Y-13028571D01*
X12364524Y-13028571D02*
X12374048Y-13047619D01*
X12374048Y-13047619D02*
X12383571Y-13085714D01*
X12383571Y-13085714D02*
X12383571Y-13133333D01*
X12383571Y-13133333D02*
X12374048Y-13171428D01*
X12374048Y-13171428D02*
X12364524Y-13190476D01*
X12364524Y-13190476D02*
X12355000Y-13200000D01*
X12355000Y-13200000D02*
X12335952Y-13209524D01*
X12335952Y-13209524D02*
X12316905Y-13209524D01*
X12316905Y-13209524D02*
X12297857Y-13200000D01*
X12297857Y-13200000D02*
X12288333Y-13190476D01*
X12288333Y-13190476D02*
X12278809Y-13171428D01*
X12278809Y-13171428D02*
X12269286Y-13133333D01*
X12269286Y-13133333D02*
X12269286Y-13085714D01*
X12269286Y-13085714D02*
X12278809Y-13047619D01*
X12278809Y-13047619D02*
X12288333Y-13028571D01*
X12288333Y-13028571D02*
X12297857Y-13019048D01*
X12297857Y-13019048D02*
X12316905Y-13009524D01*
X12507381Y-13009524D02*
X12526429Y-13009524D01*
X12526429Y-13009524D02*
X12545476Y-13019048D01*
X12545476Y-13019048D02*
X12555000Y-13028571D01*
X12555000Y-13028571D02*
X12564524Y-13047619D01*
X12564524Y-13047619D02*
X12574048Y-13085714D01*
X12574048Y-13085714D02*
X12574048Y-13133333D01*
X12574048Y-13133333D02*
X12564524Y-13171428D01*
X12564524Y-13171428D02*
X12555000Y-13190476D01*
X12555000Y-13190476D02*
X12545476Y-13200000D01*
X12545476Y-13200000D02*
X12526429Y-13209524D01*
X12526429Y-13209524D02*
X12507381Y-13209524D01*
X12507381Y-13209524D02*
X12488333Y-13200000D01*
X12488333Y-13200000D02*
X12478809Y-13190476D01*
X12478809Y-13190476D02*
X12469286Y-13171428D01*
X12469286Y-13171428D02*
X12459762Y-13133333D01*
X12459762Y-13133333D02*
X12459762Y-13085714D01*
X12459762Y-13085714D02*
X12469286Y-13047619D01*
X12469286Y-13047619D02*
X12478809Y-13028571D01*
X12478809Y-13028571D02*
X12488333Y-13019048D01*
X12488333Y-13019048D02*
X12507381Y-13009524D01*
X12659762Y-13209524D02*
X12659762Y-13076190D01*
X12659762Y-13095238D02*
X12669286Y-13085714D01*
X12669286Y-13085714D02*
X12688333Y-13076190D01*
X12688333Y-13076190D02*
X12716905Y-13076190D01*
X12716905Y-13076190D02*
X12735952Y-13085714D01*
X12735952Y-13085714D02*
X12745476Y-13104762D01*
X12745476Y-13104762D02*
X12745476Y-13209524D01*
X12745476Y-13104762D02*
X12755000Y-13085714D01*
X12755000Y-13085714D02*
X12774048Y-13076190D01*
X12774048Y-13076190D02*
X12802619Y-13076190D01*
X12802619Y-13076190D02*
X12821667Y-13085714D01*
X12821667Y-13085714D02*
X12831190Y-13104762D01*
X12831190Y-13104762D02*
X12831190Y-13209524D01*
X12926429Y-13209524D02*
X12926429Y-13076190D01*
X12926429Y-13095238D02*
X12935952Y-13085714D01*
X12935952Y-13085714D02*
X12955000Y-13076190D01*
X12955000Y-13076190D02*
X12983571Y-13076190D01*
X12983571Y-13076190D02*
X13002619Y-13085714D01*
X13002619Y-13085714D02*
X13012143Y-13104762D01*
X13012143Y-13104762D02*
X13012143Y-13209524D01*
X13012143Y-13104762D02*
X13021667Y-13085714D01*
X13021667Y-13085714D02*
X13040714Y-13076190D01*
X13040714Y-13076190D02*
X13069286Y-13076190D01*
X13069286Y-13076190D02*
X13088333Y-13085714D01*
X13088333Y-13085714D02*
X13097857Y-13104762D01*
X13097857Y-13104762D02*
X13097857Y-13209524D01*
X13488333Y-13000000D02*
X13316905Y-13257143D01*
X13745476Y-13009524D02*
X13764524Y-13009524D01*
X13764524Y-13009524D02*
X13783572Y-13019048D01*
X13783572Y-13019048D02*
X13793095Y-13028571D01*
X13793095Y-13028571D02*
X13802619Y-13047619D01*
X13802619Y-13047619D02*
X13812143Y-13085714D01*
X13812143Y-13085714D02*
X13812143Y-13133333D01*
X13812143Y-13133333D02*
X13802619Y-13171428D01*
X13802619Y-13171428D02*
X13793095Y-13190476D01*
X13793095Y-13190476D02*
X13783572Y-13200000D01*
X13783572Y-13200000D02*
X13764524Y-13209524D01*
X13764524Y-13209524D02*
X13745476Y-13209524D01*
X13745476Y-13209524D02*
X13726429Y-13200000D01*
X13726429Y-13200000D02*
X13716905Y-13190476D01*
X13716905Y-13190476D02*
X13707381Y-13171428D01*
X13707381Y-13171428D02*
X13697857Y-13133333D01*
X13697857Y-13133333D02*
X13697857Y-13085714D01*
X13697857Y-13085714D02*
X13707381Y-13047619D01*
X13707381Y-13047619D02*
X13716905Y-13028571D01*
X13716905Y-13028571D02*
X13726429Y-13019048D01*
X13726429Y-13019048D02*
X13745476Y-13009524D01*
X13897857Y-13190476D02*
X13907381Y-13200000D01*
X13907381Y-13200000D02*
X13897857Y-13209524D01*
X13897857Y-13209524D02*
X13888333Y-13200000D01*
X13888333Y-13200000D02*
X13897857Y-13190476D01*
X13897857Y-13190476D02*
X13897857Y-13209524D01*
X14031191Y-13009524D02*
X14050238Y-13009524D01*
X14050238Y-13009524D02*
X14069286Y-13019048D01*
X14069286Y-13019048D02*
X14078810Y-13028571D01*
X14078810Y-13028571D02*
X14088333Y-13047619D01*
X14088333Y-13047619D02*
X14097857Y-13085714D01*
X14097857Y-13085714D02*
X14097857Y-13133333D01*
X14097857Y-13133333D02*
X14088333Y-13171428D01*
X14088333Y-13171428D02*
X14078810Y-13190476D01*
X14078810Y-13190476D02*
X14069286Y-13200000D01*
X14069286Y-13200000D02*
X14050238Y-13209524D01*
X14050238Y-13209524D02*
X14031191Y-13209524D01*
X14031191Y-13209524D02*
X14012143Y-13200000D01*
X14012143Y-13200000D02*
X14002619Y-13190476D01*
X14002619Y-13190476D02*
X13993095Y-13171428D01*
X13993095Y-13171428D02*
X13983572Y-13133333D01*
X13983572Y-13133333D02*
X13983572Y-13085714D01*
X13983572Y-13085714D02*
X13993095Y-13047619D01*
X13993095Y-13047619D02*
X14002619Y-13028571D01*
X14002619Y-13028571D02*
X14012143Y-13019048D01*
X14012143Y-13019048D02*
X14031191Y-13009524D01*
X14164524Y-13009524D02*
X14288333Y-13009524D01*
X14288333Y-13009524D02*
X14221667Y-13085714D01*
X14221667Y-13085714D02*
X14250238Y-13085714D01*
X14250238Y-13085714D02*
X14269286Y-13095238D01*
X14269286Y-13095238D02*
X14278810Y-13104762D01*
X14278810Y-13104762D02*
X14288333Y-13123809D01*
X14288333Y-13123809D02*
X14288333Y-13171428D01*
X14288333Y-13171428D02*
X14278810Y-13190476D01*
X14278810Y-13190476D02*
X14269286Y-13200000D01*
X14269286Y-13200000D02*
X14250238Y-13209524D01*
X14250238Y-13209524D02*
X14193095Y-13209524D01*
X14193095Y-13209524D02*
X14174048Y-13200000D01*
X14174048Y-13200000D02*
X14164524Y-13190476D01*
X14383572Y-13209524D02*
X14421667Y-13209524D01*
X14421667Y-13209524D02*
X14440714Y-13200000D01*
X14440714Y-13200000D02*
X14450238Y-13190476D01*
X14450238Y-13190476D02*
X14469286Y-13161905D01*
X14469286Y-13161905D02*
X14478810Y-13123809D01*
X14478810Y-13123809D02*
X14478810Y-13047619D01*
X14478810Y-13047619D02*
X14469286Y-13028571D01*
X14469286Y-13028571D02*
X14459762Y-13019048D01*
X14459762Y-13019048D02*
X14440714Y-13009524D01*
X14440714Y-13009524D02*
X14402619Y-13009524D01*
X14402619Y-13009524D02*
X14383572Y-13019048D01*
X14383572Y-13019048D02*
X14374048Y-13028571D01*
X14374048Y-13028571D02*
X14364524Y-13047619D01*
X14364524Y-13047619D02*
X14364524Y-13095238D01*
X14364524Y-13095238D02*
X14374048Y-13114286D01*
X14374048Y-13114286D02*
X14383572Y-13123809D01*
X14383572Y-13123809D02*
X14402619Y-13133333D01*
X14402619Y-13133333D02*
X14440714Y-13133333D01*
X14440714Y-13133333D02*
X14459762Y-13123809D01*
X14459762Y-13123809D02*
X14469286Y-13114286D01*
X14469286Y-13114286D02*
X14478810Y-13095238D01*
X14650238Y-13076190D02*
X14650238Y-13209524D01*
X14602619Y-13000000D02*
X14555000Y-13142857D01*
X14555000Y-13142857D02*
X14678810Y-13142857D01*
X14745476Y-13009524D02*
X14745476Y-13047619D01*
X14821667Y-13009524D02*
X14821667Y-13047619D01*
X15116905Y-13285714D02*
X15107381Y-13276190D01*
X15107381Y-13276190D02*
X15088334Y-13247619D01*
X15088334Y-13247619D02*
X15078810Y-13228571D01*
X15078810Y-13228571D02*
X15069286Y-13200000D01*
X15069286Y-13200000D02*
X15059762Y-13152381D01*
X15059762Y-13152381D02*
X15059762Y-13114286D01*
X15059762Y-13114286D02*
X15069286Y-13066667D01*
X15069286Y-13066667D02*
X15078810Y-13038095D01*
X15078810Y-13038095D02*
X15088334Y-13019048D01*
X15088334Y-13019048D02*
X15107381Y-12990476D01*
X15107381Y-12990476D02*
X15116905Y-12980952D01*
X15202619Y-13209524D02*
X15240714Y-13209524D01*
X15240714Y-13209524D02*
X15259762Y-13200000D01*
X15259762Y-13200000D02*
X15269286Y-13190476D01*
X15269286Y-13190476D02*
X15288334Y-13161905D01*
X15288334Y-13161905D02*
X15297857Y-13123809D01*
X15297857Y-13123809D02*
X15297857Y-13047619D01*
X15297857Y-13047619D02*
X15288334Y-13028571D01*
X15288334Y-13028571D02*
X15278810Y-13019048D01*
X15278810Y-13019048D02*
X15259762Y-13009524D01*
X15259762Y-13009524D02*
X15221667Y-13009524D01*
X15221667Y-13009524D02*
X15202619Y-13019048D01*
X15202619Y-13019048D02*
X15193095Y-13028571D01*
X15193095Y-13028571D02*
X15183572Y-13047619D01*
X15183572Y-13047619D02*
X15183572Y-13095238D01*
X15183572Y-13095238D02*
X15193095Y-13114286D01*
X15193095Y-13114286D02*
X15202619Y-13123809D01*
X15202619Y-13123809D02*
X15221667Y-13133333D01*
X15221667Y-13133333D02*
X15259762Y-13133333D01*
X15259762Y-13133333D02*
X15278810Y-13123809D01*
X15278810Y-13123809D02*
X15288334Y-13114286D01*
X15288334Y-13114286D02*
X15297857Y-13095238D01*
X15421667Y-13009524D02*
X15440715Y-13009524D01*
X15440715Y-13009524D02*
X15459762Y-13019048D01*
X15459762Y-13019048D02*
X15469286Y-13028571D01*
X15469286Y-13028571D02*
X15478810Y-13047619D01*
X15478810Y-13047619D02*
X15488334Y-13085714D01*
X15488334Y-13085714D02*
X15488334Y-13133333D01*
X15488334Y-13133333D02*
X15478810Y-13171428D01*
X15478810Y-13171428D02*
X15469286Y-13190476D01*
X15469286Y-13190476D02*
X15459762Y-13200000D01*
X15459762Y-13200000D02*
X15440715Y-13209524D01*
X15440715Y-13209524D02*
X15421667Y-13209524D01*
X15421667Y-13209524D02*
X15402619Y-13200000D01*
X15402619Y-13200000D02*
X15393095Y-13190476D01*
X15393095Y-13190476D02*
X15383572Y-13171428D01*
X15383572Y-13171428D02*
X15374048Y-13133333D01*
X15374048Y-13133333D02*
X15374048Y-13085714D01*
X15374048Y-13085714D02*
X15383572Y-13047619D01*
X15383572Y-13047619D02*
X15393095Y-13028571D01*
X15393095Y-13028571D02*
X15402619Y-13019048D01*
X15402619Y-13019048D02*
X15421667Y-13009524D01*
X15726429Y-13209524D02*
X15726429Y-13009524D01*
X15812143Y-13209524D02*
X15812143Y-13104762D01*
X15812143Y-13104762D02*
X15802619Y-13085714D01*
X15802619Y-13085714D02*
X15783572Y-13076190D01*
X15783572Y-13076190D02*
X15755000Y-13076190D01*
X15755000Y-13076190D02*
X15735953Y-13085714D01*
X15735953Y-13085714D02*
X15726429Y-13095238D01*
X15935953Y-13209524D02*
X15916905Y-13200000D01*
X15916905Y-13200000D02*
X15907381Y-13190476D01*
X15907381Y-13190476D02*
X15897857Y-13171428D01*
X15897857Y-13171428D02*
X15897857Y-13114286D01*
X15897857Y-13114286D02*
X15907381Y-13095238D01*
X15907381Y-13095238D02*
X15916905Y-13085714D01*
X15916905Y-13085714D02*
X15935953Y-13076190D01*
X15935953Y-13076190D02*
X15964524Y-13076190D01*
X15964524Y-13076190D02*
X15983572Y-13085714D01*
X15983572Y-13085714D02*
X15993096Y-13095238D01*
X15993096Y-13095238D02*
X16002619Y-13114286D01*
X16002619Y-13114286D02*
X16002619Y-13171428D01*
X16002619Y-13171428D02*
X15993096Y-13190476D01*
X15993096Y-13190476D02*
X15983572Y-13200000D01*
X15983572Y-13200000D02*
X15964524Y-13209524D01*
X15964524Y-13209524D02*
X15935953Y-13209524D01*
X16116905Y-13209524D02*
X16097857Y-13200000D01*
X16097857Y-13200000D02*
X16088334Y-13180952D01*
X16088334Y-13180952D02*
X16088334Y-13009524D01*
X16269286Y-13200000D02*
X16250238Y-13209524D01*
X16250238Y-13209524D02*
X16212143Y-13209524D01*
X16212143Y-13209524D02*
X16193096Y-13200000D01*
X16193096Y-13200000D02*
X16183572Y-13180952D01*
X16183572Y-13180952D02*
X16183572Y-13104762D01*
X16183572Y-13104762D02*
X16193096Y-13085714D01*
X16193096Y-13085714D02*
X16212143Y-13076190D01*
X16212143Y-13076190D02*
X16250238Y-13076190D01*
X16250238Y-13076190D02*
X16269286Y-13085714D01*
X16269286Y-13085714D02*
X16278810Y-13104762D01*
X16278810Y-13104762D02*
X16278810Y-13123809D01*
X16278810Y-13123809D02*
X16183572Y-13142857D01*
X16355000Y-13200000D02*
X16374048Y-13209524D01*
X16374048Y-13209524D02*
X16412143Y-13209524D01*
X16412143Y-13209524D02*
X16431191Y-13200000D01*
X16431191Y-13200000D02*
X16440715Y-13180952D01*
X16440715Y-13180952D02*
X16440715Y-13171428D01*
X16440715Y-13171428D02*
X16431191Y-13152381D01*
X16431191Y-13152381D02*
X16412143Y-13142857D01*
X16412143Y-13142857D02*
X16383572Y-13142857D01*
X16383572Y-13142857D02*
X16364524Y-13133333D01*
X16364524Y-13133333D02*
X16355000Y-13114286D01*
X16355000Y-13114286D02*
X16355000Y-13104762D01*
X16355000Y-13104762D02*
X16364524Y-13085714D01*
X16364524Y-13085714D02*
X16383572Y-13076190D01*
X16383572Y-13076190D02*
X16412143Y-13076190D01*
X16412143Y-13076190D02*
X16431191Y-13085714D01*
X16507381Y-13285714D02*
X16516905Y-13276190D01*
X16516905Y-13276190D02*
X16535953Y-13247619D01*
X16535953Y-13247619D02*
X16545477Y-13228571D01*
X16545477Y-13228571D02*
X16555000Y-13200000D01*
X16555000Y-13200000D02*
X16564524Y-13152381D01*
X16564524Y-13152381D02*
X16564524Y-13114286D01*
X16564524Y-13114286D02*
X16555000Y-13066667D01*
X16555000Y-13066667D02*
X16545477Y-13038095D01*
X16545477Y-13038095D02*
X16535953Y-13019048D01*
X16535953Y-13019048D02*
X16516905Y-12990476D01*
X16516905Y-12990476D02*
X16507381Y-12980952D01*
D15*
X11500000Y-13436000D02*
X11555000Y-13381000D01*
X11500000Y-13326000D01*
X11445000Y-13381000D01*
X11500000Y-13436000D01*
D11*
X11907381Y-13473524D02*
X11793095Y-13473524D01*
X11850238Y-13473524D02*
X11850238Y-13273524D01*
X11850238Y-13273524D02*
X11831190Y-13302095D01*
X11831190Y-13302095D02*
X11812143Y-13321143D01*
X11812143Y-13321143D02*
X11793095Y-13330667D01*
X11993095Y-13454476D02*
X12002619Y-13464000D01*
X12002619Y-13464000D02*
X11993095Y-13473524D01*
X11993095Y-13473524D02*
X11983571Y-13464000D01*
X11983571Y-13464000D02*
X11993095Y-13454476D01*
X11993095Y-13454476D02*
X11993095Y-13473524D01*
X12193095Y-13473524D02*
X12078809Y-13473524D01*
X12135952Y-13473524D02*
X12135952Y-13273524D01*
X12135952Y-13273524D02*
X12116905Y-13302095D01*
X12116905Y-13302095D02*
X12097857Y-13321143D01*
X12097857Y-13321143D02*
X12078809Y-13330667D01*
X12316905Y-13273524D02*
X12335952Y-13273524D01*
X12335952Y-13273524D02*
X12355000Y-13283048D01*
X12355000Y-13283048D02*
X12364524Y-13292571D01*
X12364524Y-13292571D02*
X12374048Y-13311619D01*
X12374048Y-13311619D02*
X12383571Y-13349714D01*
X12383571Y-13349714D02*
X12383571Y-13397333D01*
X12383571Y-13397333D02*
X12374048Y-13435428D01*
X12374048Y-13435428D02*
X12364524Y-13454476D01*
X12364524Y-13454476D02*
X12355000Y-13464000D01*
X12355000Y-13464000D02*
X12335952Y-13473524D01*
X12335952Y-13473524D02*
X12316905Y-13473524D01*
X12316905Y-13473524D02*
X12297857Y-13464000D01*
X12297857Y-13464000D02*
X12288333Y-13454476D01*
X12288333Y-13454476D02*
X12278809Y-13435428D01*
X12278809Y-13435428D02*
X12269286Y-13397333D01*
X12269286Y-13397333D02*
X12269286Y-13349714D01*
X12269286Y-13349714D02*
X12278809Y-13311619D01*
X12278809Y-13311619D02*
X12288333Y-13292571D01*
X12288333Y-13292571D02*
X12297857Y-13283048D01*
X12297857Y-13283048D02*
X12316905Y-13273524D01*
X12507381Y-13273524D02*
X12526429Y-13273524D01*
X12526429Y-13273524D02*
X12545476Y-13283048D01*
X12545476Y-13283048D02*
X12555000Y-13292571D01*
X12555000Y-13292571D02*
X12564524Y-13311619D01*
X12564524Y-13311619D02*
X12574048Y-13349714D01*
X12574048Y-13349714D02*
X12574048Y-13397333D01*
X12574048Y-13397333D02*
X12564524Y-13435428D01*
X12564524Y-13435428D02*
X12555000Y-13454476D01*
X12555000Y-13454476D02*
X12545476Y-13464000D01*
X12545476Y-13464000D02*
X12526429Y-13473524D01*
X12526429Y-13473524D02*
X12507381Y-13473524D01*
X12507381Y-13473524D02*
X12488333Y-13464000D01*
X12488333Y-13464000D02*
X12478809Y-13454476D01*
X12478809Y-13454476D02*
X12469286Y-13435428D01*
X12469286Y-13435428D02*
X12459762Y-13397333D01*
X12459762Y-13397333D02*
X12459762Y-13349714D01*
X12459762Y-13349714D02*
X12469286Y-13311619D01*
X12469286Y-13311619D02*
X12478809Y-13292571D01*
X12478809Y-13292571D02*
X12488333Y-13283048D01*
X12488333Y-13283048D02*
X12507381Y-13273524D01*
X12659762Y-13473524D02*
X12659762Y-13340190D01*
X12659762Y-13359238D02*
X12669286Y-13349714D01*
X12669286Y-13349714D02*
X12688333Y-13340190D01*
X12688333Y-13340190D02*
X12716905Y-13340190D01*
X12716905Y-13340190D02*
X12735952Y-13349714D01*
X12735952Y-13349714D02*
X12745476Y-13368762D01*
X12745476Y-13368762D02*
X12745476Y-13473524D01*
X12745476Y-13368762D02*
X12755000Y-13349714D01*
X12755000Y-13349714D02*
X12774048Y-13340190D01*
X12774048Y-13340190D02*
X12802619Y-13340190D01*
X12802619Y-13340190D02*
X12821667Y-13349714D01*
X12821667Y-13349714D02*
X12831190Y-13368762D01*
X12831190Y-13368762D02*
X12831190Y-13473524D01*
X12926429Y-13473524D02*
X12926429Y-13340190D01*
X12926429Y-13359238D02*
X12935952Y-13349714D01*
X12935952Y-13349714D02*
X12955000Y-13340190D01*
X12955000Y-13340190D02*
X12983571Y-13340190D01*
X12983571Y-13340190D02*
X13002619Y-13349714D01*
X13002619Y-13349714D02*
X13012143Y-13368762D01*
X13012143Y-13368762D02*
X13012143Y-13473524D01*
X13012143Y-13368762D02*
X13021667Y-13349714D01*
X13021667Y-13349714D02*
X13040714Y-13340190D01*
X13040714Y-13340190D02*
X13069286Y-13340190D01*
X13069286Y-13340190D02*
X13088333Y-13349714D01*
X13088333Y-13349714D02*
X13097857Y-13368762D01*
X13097857Y-13368762D02*
X13097857Y-13473524D01*
X13488333Y-13264000D02*
X13316905Y-13521143D01*
X13745476Y-13273524D02*
X13764524Y-13273524D01*
X13764524Y-13273524D02*
X13783572Y-13283048D01*
X13783572Y-13283048D02*
X13793095Y-13292571D01*
X13793095Y-13292571D02*
X13802619Y-13311619D01*
X13802619Y-13311619D02*
X13812143Y-13349714D01*
X13812143Y-13349714D02*
X13812143Y-13397333D01*
X13812143Y-13397333D02*
X13802619Y-13435428D01*
X13802619Y-13435428D02*
X13793095Y-13454476D01*
X13793095Y-13454476D02*
X13783572Y-13464000D01*
X13783572Y-13464000D02*
X13764524Y-13473524D01*
X13764524Y-13473524D02*
X13745476Y-13473524D01*
X13745476Y-13473524D02*
X13726429Y-13464000D01*
X13726429Y-13464000D02*
X13716905Y-13454476D01*
X13716905Y-13454476D02*
X13707381Y-13435428D01*
X13707381Y-13435428D02*
X13697857Y-13397333D01*
X13697857Y-13397333D02*
X13697857Y-13349714D01*
X13697857Y-13349714D02*
X13707381Y-13311619D01*
X13707381Y-13311619D02*
X13716905Y-13292571D01*
X13716905Y-13292571D02*
X13726429Y-13283048D01*
X13726429Y-13283048D02*
X13745476Y-13273524D01*
X13897857Y-13454476D02*
X13907381Y-13464000D01*
X13907381Y-13464000D02*
X13897857Y-13473524D01*
X13897857Y-13473524D02*
X13888333Y-13464000D01*
X13888333Y-13464000D02*
X13897857Y-13454476D01*
X13897857Y-13454476D02*
X13897857Y-13473524D01*
X14031191Y-13273524D02*
X14050238Y-13273524D01*
X14050238Y-13273524D02*
X14069286Y-13283048D01*
X14069286Y-13283048D02*
X14078810Y-13292571D01*
X14078810Y-13292571D02*
X14088333Y-13311619D01*
X14088333Y-13311619D02*
X14097857Y-13349714D01*
X14097857Y-13349714D02*
X14097857Y-13397333D01*
X14097857Y-13397333D02*
X14088333Y-13435428D01*
X14088333Y-13435428D02*
X14078810Y-13454476D01*
X14078810Y-13454476D02*
X14069286Y-13464000D01*
X14069286Y-13464000D02*
X14050238Y-13473524D01*
X14050238Y-13473524D02*
X14031191Y-13473524D01*
X14031191Y-13473524D02*
X14012143Y-13464000D01*
X14012143Y-13464000D02*
X14002619Y-13454476D01*
X14002619Y-13454476D02*
X13993095Y-13435428D01*
X13993095Y-13435428D02*
X13983572Y-13397333D01*
X13983572Y-13397333D02*
X13983572Y-13349714D01*
X13983572Y-13349714D02*
X13993095Y-13311619D01*
X13993095Y-13311619D02*
X14002619Y-13292571D01*
X14002619Y-13292571D02*
X14012143Y-13283048D01*
X14012143Y-13283048D02*
X14031191Y-13273524D01*
X14269286Y-13340190D02*
X14269286Y-13473524D01*
X14221667Y-13264000D02*
X14174048Y-13406857D01*
X14174048Y-13406857D02*
X14297857Y-13406857D01*
X14355000Y-13273524D02*
X14478810Y-13273524D01*
X14478810Y-13273524D02*
X14412143Y-13349714D01*
X14412143Y-13349714D02*
X14440714Y-13349714D01*
X14440714Y-13349714D02*
X14459762Y-13359238D01*
X14459762Y-13359238D02*
X14469286Y-13368762D01*
X14469286Y-13368762D02*
X14478810Y-13387809D01*
X14478810Y-13387809D02*
X14478810Y-13435428D01*
X14478810Y-13435428D02*
X14469286Y-13454476D01*
X14469286Y-13454476D02*
X14459762Y-13464000D01*
X14459762Y-13464000D02*
X14440714Y-13473524D01*
X14440714Y-13473524D02*
X14383572Y-13473524D01*
X14383572Y-13473524D02*
X14364524Y-13464000D01*
X14364524Y-13464000D02*
X14355000Y-13454476D01*
X14545476Y-13273524D02*
X14669286Y-13273524D01*
X14669286Y-13273524D02*
X14602619Y-13349714D01*
X14602619Y-13349714D02*
X14631191Y-13349714D01*
X14631191Y-13349714D02*
X14650238Y-13359238D01*
X14650238Y-13359238D02*
X14659762Y-13368762D01*
X14659762Y-13368762D02*
X14669286Y-13387809D01*
X14669286Y-13387809D02*
X14669286Y-13435428D01*
X14669286Y-13435428D02*
X14659762Y-13454476D01*
X14659762Y-13454476D02*
X14650238Y-13464000D01*
X14650238Y-13464000D02*
X14631191Y-13473524D01*
X14631191Y-13473524D02*
X14574048Y-13473524D01*
X14574048Y-13473524D02*
X14555000Y-13464000D01*
X14555000Y-13464000D02*
X14545476Y-13454476D01*
X14745476Y-13273524D02*
X14745476Y-13311619D01*
X14821667Y-13273524D02*
X14821667Y-13311619D01*
X15116905Y-13549714D02*
X15107381Y-13540190D01*
X15107381Y-13540190D02*
X15088334Y-13511619D01*
X15088334Y-13511619D02*
X15078810Y-13492571D01*
X15078810Y-13492571D02*
X15069286Y-13464000D01*
X15069286Y-13464000D02*
X15059762Y-13416381D01*
X15059762Y-13416381D02*
X15059762Y-13378286D01*
X15059762Y-13378286D02*
X15069286Y-13330667D01*
X15069286Y-13330667D02*
X15078810Y-13302095D01*
X15078810Y-13302095D02*
X15088334Y-13283048D01*
X15088334Y-13283048D02*
X15107381Y-13254476D01*
X15107381Y-13254476D02*
X15116905Y-13244952D01*
X15297857Y-13473524D02*
X15183572Y-13473524D01*
X15240714Y-13473524D02*
X15240714Y-13273524D01*
X15240714Y-13273524D02*
X15221667Y-13302095D01*
X15221667Y-13302095D02*
X15202619Y-13321143D01*
X15202619Y-13321143D02*
X15183572Y-13330667D01*
X15488334Y-13473524D02*
X15374048Y-13473524D01*
X15431191Y-13473524D02*
X15431191Y-13273524D01*
X15431191Y-13273524D02*
X15412143Y-13302095D01*
X15412143Y-13302095D02*
X15393095Y-13321143D01*
X15393095Y-13321143D02*
X15374048Y-13330667D01*
X15726429Y-13473524D02*
X15726429Y-13273524D01*
X15812143Y-13473524D02*
X15812143Y-13368762D01*
X15812143Y-13368762D02*
X15802619Y-13349714D01*
X15802619Y-13349714D02*
X15783572Y-13340190D01*
X15783572Y-13340190D02*
X15755000Y-13340190D01*
X15755000Y-13340190D02*
X15735953Y-13349714D01*
X15735953Y-13349714D02*
X15726429Y-13359238D01*
X15935953Y-13473524D02*
X15916905Y-13464000D01*
X15916905Y-13464000D02*
X15907381Y-13454476D01*
X15907381Y-13454476D02*
X15897857Y-13435428D01*
X15897857Y-13435428D02*
X15897857Y-13378286D01*
X15897857Y-13378286D02*
X15907381Y-13359238D01*
X15907381Y-13359238D02*
X15916905Y-13349714D01*
X15916905Y-13349714D02*
X15935953Y-13340190D01*
X15935953Y-13340190D02*
X15964524Y-13340190D01*
X15964524Y-13340190D02*
X15983572Y-13349714D01*
X15983572Y-13349714D02*
X15993096Y-13359238D01*
X15993096Y-13359238D02*
X16002619Y-13378286D01*
X16002619Y-13378286D02*
X16002619Y-13435428D01*
X16002619Y-13435428D02*
X15993096Y-13454476D01*
X15993096Y-13454476D02*
X15983572Y-13464000D01*
X15983572Y-13464000D02*
X15964524Y-13473524D01*
X15964524Y-13473524D02*
X15935953Y-13473524D01*
X16116905Y-13473524D02*
X16097857Y-13464000D01*
X16097857Y-13464000D02*
X16088334Y-13444952D01*
X16088334Y-13444952D02*
X16088334Y-13273524D01*
X16269286Y-13464000D02*
X16250238Y-13473524D01*
X16250238Y-13473524D02*
X16212143Y-13473524D01*
X16212143Y-13473524D02*
X16193096Y-13464000D01*
X16193096Y-13464000D02*
X16183572Y-13444952D01*
X16183572Y-13444952D02*
X16183572Y-13368762D01*
X16183572Y-13368762D02*
X16193096Y-13349714D01*
X16193096Y-13349714D02*
X16212143Y-13340190D01*
X16212143Y-13340190D02*
X16250238Y-13340190D01*
X16250238Y-13340190D02*
X16269286Y-13349714D01*
X16269286Y-13349714D02*
X16278810Y-13368762D01*
X16278810Y-13368762D02*
X16278810Y-13387809D01*
X16278810Y-13387809D02*
X16183572Y-13406857D01*
X16355000Y-13464000D02*
X16374048Y-13473524D01*
X16374048Y-13473524D02*
X16412143Y-13473524D01*
X16412143Y-13473524D02*
X16431191Y-13464000D01*
X16431191Y-13464000D02*
X16440715Y-13444952D01*
X16440715Y-13444952D02*
X16440715Y-13435428D01*
X16440715Y-13435428D02*
X16431191Y-13416381D01*
X16431191Y-13416381D02*
X16412143Y-13406857D01*
X16412143Y-13406857D02*
X16383572Y-13406857D01*
X16383572Y-13406857D02*
X16364524Y-13397333D01*
X16364524Y-13397333D02*
X16355000Y-13378286D01*
X16355000Y-13378286D02*
X16355000Y-13368762D01*
X16355000Y-13368762D02*
X16364524Y-13349714D01*
X16364524Y-13349714D02*
X16383572Y-13340190D01*
X16383572Y-13340190D02*
X16412143Y-13340190D01*
X16412143Y-13340190D02*
X16431191Y-13349714D01*
X16507381Y-13549714D02*
X16516905Y-13540190D01*
X16516905Y-13540190D02*
X16535953Y-13511619D01*
X16535953Y-13511619D02*
X16545477Y-13492571D01*
X16545477Y-13492571D02*
X16555000Y-13464000D01*
X16555000Y-13464000D02*
X16564524Y-13416381D01*
X16564524Y-13416381D02*
X16564524Y-13378286D01*
X16564524Y-13378286D02*
X16555000Y-13330667D01*
X16555000Y-13330667D02*
X16545477Y-13302095D01*
X16545477Y-13302095D02*
X16535953Y-13283048D01*
X16535953Y-13283048D02*
X16516905Y-13254476D01*
X16516905Y-13254476D02*
X16507381Y-13244952D01*
D16*
X11436000Y-13585500D02*
X11555000Y-13704500D01*
X11555000Y-13585500D02*
X11436000Y-13704500D01*
X11555000Y-13645000D02*
G75*
G03*
X11555000Y-13645000I-59500J0D01*
G01*
D11*
X11907381Y-13737524D02*
X11793095Y-13737524D01*
X11850238Y-13737524D02*
X11850238Y-13537524D01*
X11850238Y-13537524D02*
X11831190Y-13566095D01*
X11831190Y-13566095D02*
X11812143Y-13585143D01*
X11812143Y-13585143D02*
X11793095Y-13594667D01*
X11993095Y-13718476D02*
X12002619Y-13728000D01*
X12002619Y-13728000D02*
X11993095Y-13737524D01*
X11993095Y-13737524D02*
X11983571Y-13728000D01*
X11983571Y-13728000D02*
X11993095Y-13718476D01*
X11993095Y-13718476D02*
X11993095Y-13737524D01*
X12193095Y-13737524D02*
X12078809Y-13737524D01*
X12135952Y-13737524D02*
X12135952Y-13537524D01*
X12135952Y-13537524D02*
X12116905Y-13566095D01*
X12116905Y-13566095D02*
X12097857Y-13585143D01*
X12097857Y-13585143D02*
X12078809Y-13594667D01*
X12288333Y-13737524D02*
X12326428Y-13737524D01*
X12326428Y-13737524D02*
X12345476Y-13728000D01*
X12345476Y-13728000D02*
X12355000Y-13718476D01*
X12355000Y-13718476D02*
X12374048Y-13689905D01*
X12374048Y-13689905D02*
X12383571Y-13651809D01*
X12383571Y-13651809D02*
X12383571Y-13575619D01*
X12383571Y-13575619D02*
X12374048Y-13556571D01*
X12374048Y-13556571D02*
X12364524Y-13547048D01*
X12364524Y-13547048D02*
X12345476Y-13537524D01*
X12345476Y-13537524D02*
X12307381Y-13537524D01*
X12307381Y-13537524D02*
X12288333Y-13547048D01*
X12288333Y-13547048D02*
X12278809Y-13556571D01*
X12278809Y-13556571D02*
X12269286Y-13575619D01*
X12269286Y-13575619D02*
X12269286Y-13623238D01*
X12269286Y-13623238D02*
X12278809Y-13642286D01*
X12278809Y-13642286D02*
X12288333Y-13651809D01*
X12288333Y-13651809D02*
X12307381Y-13661333D01*
X12307381Y-13661333D02*
X12345476Y-13661333D01*
X12345476Y-13661333D02*
X12364524Y-13651809D01*
X12364524Y-13651809D02*
X12374048Y-13642286D01*
X12374048Y-13642286D02*
X12383571Y-13623238D01*
X12507381Y-13537524D02*
X12526429Y-13537524D01*
X12526429Y-13537524D02*
X12545476Y-13547048D01*
X12545476Y-13547048D02*
X12555000Y-13556571D01*
X12555000Y-13556571D02*
X12564524Y-13575619D01*
X12564524Y-13575619D02*
X12574048Y-13613714D01*
X12574048Y-13613714D02*
X12574048Y-13661333D01*
X12574048Y-13661333D02*
X12564524Y-13699428D01*
X12564524Y-13699428D02*
X12555000Y-13718476D01*
X12555000Y-13718476D02*
X12545476Y-13728000D01*
X12545476Y-13728000D02*
X12526429Y-13737524D01*
X12526429Y-13737524D02*
X12507381Y-13737524D01*
X12507381Y-13737524D02*
X12488333Y-13728000D01*
X12488333Y-13728000D02*
X12478809Y-13718476D01*
X12478809Y-13718476D02*
X12469286Y-13699428D01*
X12469286Y-13699428D02*
X12459762Y-13661333D01*
X12459762Y-13661333D02*
X12459762Y-13613714D01*
X12459762Y-13613714D02*
X12469286Y-13575619D01*
X12469286Y-13575619D02*
X12478809Y-13556571D01*
X12478809Y-13556571D02*
X12488333Y-13547048D01*
X12488333Y-13547048D02*
X12507381Y-13537524D01*
X12659762Y-13737524D02*
X12659762Y-13604190D01*
X12659762Y-13623238D02*
X12669286Y-13613714D01*
X12669286Y-13613714D02*
X12688333Y-13604190D01*
X12688333Y-13604190D02*
X12716905Y-13604190D01*
X12716905Y-13604190D02*
X12735952Y-13613714D01*
X12735952Y-13613714D02*
X12745476Y-13632762D01*
X12745476Y-13632762D02*
X12745476Y-13737524D01*
X12745476Y-13632762D02*
X12755000Y-13613714D01*
X12755000Y-13613714D02*
X12774048Y-13604190D01*
X12774048Y-13604190D02*
X12802619Y-13604190D01*
X12802619Y-13604190D02*
X12821667Y-13613714D01*
X12821667Y-13613714D02*
X12831190Y-13632762D01*
X12831190Y-13632762D02*
X12831190Y-13737524D01*
X12926429Y-13737524D02*
X12926429Y-13604190D01*
X12926429Y-13623238D02*
X12935952Y-13613714D01*
X12935952Y-13613714D02*
X12955000Y-13604190D01*
X12955000Y-13604190D02*
X12983571Y-13604190D01*
X12983571Y-13604190D02*
X13002619Y-13613714D01*
X13002619Y-13613714D02*
X13012143Y-13632762D01*
X13012143Y-13632762D02*
X13012143Y-13737524D01*
X13012143Y-13632762D02*
X13021667Y-13613714D01*
X13021667Y-13613714D02*
X13040714Y-13604190D01*
X13040714Y-13604190D02*
X13069286Y-13604190D01*
X13069286Y-13604190D02*
X13088333Y-13613714D01*
X13088333Y-13613714D02*
X13097857Y-13632762D01*
X13097857Y-13632762D02*
X13097857Y-13737524D01*
X13488333Y-13528000D02*
X13316905Y-13785143D01*
X13745476Y-13537524D02*
X13764524Y-13537524D01*
X13764524Y-13537524D02*
X13783572Y-13547048D01*
X13783572Y-13547048D02*
X13793095Y-13556571D01*
X13793095Y-13556571D02*
X13802619Y-13575619D01*
X13802619Y-13575619D02*
X13812143Y-13613714D01*
X13812143Y-13613714D02*
X13812143Y-13661333D01*
X13812143Y-13661333D02*
X13802619Y-13699428D01*
X13802619Y-13699428D02*
X13793095Y-13718476D01*
X13793095Y-13718476D02*
X13783572Y-13728000D01*
X13783572Y-13728000D02*
X13764524Y-13737524D01*
X13764524Y-13737524D02*
X13745476Y-13737524D01*
X13745476Y-13737524D02*
X13726429Y-13728000D01*
X13726429Y-13728000D02*
X13716905Y-13718476D01*
X13716905Y-13718476D02*
X13707381Y-13699428D01*
X13707381Y-13699428D02*
X13697857Y-13661333D01*
X13697857Y-13661333D02*
X13697857Y-13613714D01*
X13697857Y-13613714D02*
X13707381Y-13575619D01*
X13707381Y-13575619D02*
X13716905Y-13556571D01*
X13716905Y-13556571D02*
X13726429Y-13547048D01*
X13726429Y-13547048D02*
X13745476Y-13537524D01*
X13897857Y-13718476D02*
X13907381Y-13728000D01*
X13907381Y-13728000D02*
X13897857Y-13737524D01*
X13897857Y-13737524D02*
X13888333Y-13728000D01*
X13888333Y-13728000D02*
X13897857Y-13718476D01*
X13897857Y-13718476D02*
X13897857Y-13737524D01*
X14031191Y-13537524D02*
X14050238Y-13537524D01*
X14050238Y-13537524D02*
X14069286Y-13547048D01*
X14069286Y-13547048D02*
X14078810Y-13556571D01*
X14078810Y-13556571D02*
X14088333Y-13575619D01*
X14088333Y-13575619D02*
X14097857Y-13613714D01*
X14097857Y-13613714D02*
X14097857Y-13661333D01*
X14097857Y-13661333D02*
X14088333Y-13699428D01*
X14088333Y-13699428D02*
X14078810Y-13718476D01*
X14078810Y-13718476D02*
X14069286Y-13728000D01*
X14069286Y-13728000D02*
X14050238Y-13737524D01*
X14050238Y-13737524D02*
X14031191Y-13737524D01*
X14031191Y-13737524D02*
X14012143Y-13728000D01*
X14012143Y-13728000D02*
X14002619Y-13718476D01*
X14002619Y-13718476D02*
X13993095Y-13699428D01*
X13993095Y-13699428D02*
X13983572Y-13661333D01*
X13983572Y-13661333D02*
X13983572Y-13613714D01*
X13983572Y-13613714D02*
X13993095Y-13575619D01*
X13993095Y-13575619D02*
X14002619Y-13556571D01*
X14002619Y-13556571D02*
X14012143Y-13547048D01*
X14012143Y-13547048D02*
X14031191Y-13537524D01*
X14269286Y-13604190D02*
X14269286Y-13737524D01*
X14221667Y-13528000D02*
X14174048Y-13670857D01*
X14174048Y-13670857D02*
X14297857Y-13670857D01*
X14459762Y-13537524D02*
X14421667Y-13537524D01*
X14421667Y-13537524D02*
X14402619Y-13547048D01*
X14402619Y-13547048D02*
X14393095Y-13556571D01*
X14393095Y-13556571D02*
X14374048Y-13585143D01*
X14374048Y-13585143D02*
X14364524Y-13623238D01*
X14364524Y-13623238D02*
X14364524Y-13699428D01*
X14364524Y-13699428D02*
X14374048Y-13718476D01*
X14374048Y-13718476D02*
X14383572Y-13728000D01*
X14383572Y-13728000D02*
X14402619Y-13737524D01*
X14402619Y-13737524D02*
X14440714Y-13737524D01*
X14440714Y-13737524D02*
X14459762Y-13728000D01*
X14459762Y-13728000D02*
X14469286Y-13718476D01*
X14469286Y-13718476D02*
X14478810Y-13699428D01*
X14478810Y-13699428D02*
X14478810Y-13651809D01*
X14478810Y-13651809D02*
X14469286Y-13632762D01*
X14469286Y-13632762D02*
X14459762Y-13623238D01*
X14459762Y-13623238D02*
X14440714Y-13613714D01*
X14440714Y-13613714D02*
X14402619Y-13613714D01*
X14402619Y-13613714D02*
X14383572Y-13623238D01*
X14383572Y-13623238D02*
X14374048Y-13632762D01*
X14374048Y-13632762D02*
X14364524Y-13651809D01*
X14574048Y-13737524D02*
X14612143Y-13737524D01*
X14612143Y-13737524D02*
X14631191Y-13728000D01*
X14631191Y-13728000D02*
X14640714Y-13718476D01*
X14640714Y-13718476D02*
X14659762Y-13689905D01*
X14659762Y-13689905D02*
X14669286Y-13651809D01*
X14669286Y-13651809D02*
X14669286Y-13575619D01*
X14669286Y-13575619D02*
X14659762Y-13556571D01*
X14659762Y-13556571D02*
X14650238Y-13547048D01*
X14650238Y-13547048D02*
X14631191Y-13537524D01*
X14631191Y-13537524D02*
X14593095Y-13537524D01*
X14593095Y-13537524D02*
X14574048Y-13547048D01*
X14574048Y-13547048D02*
X14564524Y-13556571D01*
X14564524Y-13556571D02*
X14555000Y-13575619D01*
X14555000Y-13575619D02*
X14555000Y-13623238D01*
X14555000Y-13623238D02*
X14564524Y-13642286D01*
X14564524Y-13642286D02*
X14574048Y-13651809D01*
X14574048Y-13651809D02*
X14593095Y-13661333D01*
X14593095Y-13661333D02*
X14631191Y-13661333D01*
X14631191Y-13661333D02*
X14650238Y-13651809D01*
X14650238Y-13651809D02*
X14659762Y-13642286D01*
X14659762Y-13642286D02*
X14669286Y-13623238D01*
X14745476Y-13537524D02*
X14745476Y-13575619D01*
X14821667Y-13537524D02*
X14821667Y-13575619D01*
X15116905Y-13813714D02*
X15107381Y-13804190D01*
X15107381Y-13804190D02*
X15088334Y-13775619D01*
X15088334Y-13775619D02*
X15078810Y-13756571D01*
X15078810Y-13756571D02*
X15069286Y-13728000D01*
X15069286Y-13728000D02*
X15059762Y-13680381D01*
X15059762Y-13680381D02*
X15059762Y-13642286D01*
X15059762Y-13642286D02*
X15069286Y-13594667D01*
X15069286Y-13594667D02*
X15078810Y-13566095D01*
X15078810Y-13566095D02*
X15088334Y-13547048D01*
X15088334Y-13547048D02*
X15107381Y-13518476D01*
X15107381Y-13518476D02*
X15116905Y-13508952D01*
X15297857Y-13737524D02*
X15183572Y-13737524D01*
X15240714Y-13737524D02*
X15240714Y-13537524D01*
X15240714Y-13537524D02*
X15221667Y-13566095D01*
X15221667Y-13566095D02*
X15202619Y-13585143D01*
X15202619Y-13585143D02*
X15183572Y-13594667D01*
X15469286Y-13604190D02*
X15469286Y-13737524D01*
X15421667Y-13528000D02*
X15374048Y-13670857D01*
X15374048Y-13670857D02*
X15497857Y-13670857D01*
X15726429Y-13737524D02*
X15726429Y-13537524D01*
X15812143Y-13737524D02*
X15812143Y-13632762D01*
X15812143Y-13632762D02*
X15802619Y-13613714D01*
X15802619Y-13613714D02*
X15783572Y-13604190D01*
X15783572Y-13604190D02*
X15755000Y-13604190D01*
X15755000Y-13604190D02*
X15735953Y-13613714D01*
X15735953Y-13613714D02*
X15726429Y-13623238D01*
X15935953Y-13737524D02*
X15916905Y-13728000D01*
X15916905Y-13728000D02*
X15907381Y-13718476D01*
X15907381Y-13718476D02*
X15897857Y-13699428D01*
X15897857Y-13699428D02*
X15897857Y-13642286D01*
X15897857Y-13642286D02*
X15907381Y-13623238D01*
X15907381Y-13623238D02*
X15916905Y-13613714D01*
X15916905Y-13613714D02*
X15935953Y-13604190D01*
X15935953Y-13604190D02*
X15964524Y-13604190D01*
X15964524Y-13604190D02*
X15983572Y-13613714D01*
X15983572Y-13613714D02*
X15993096Y-13623238D01*
X15993096Y-13623238D02*
X16002619Y-13642286D01*
X16002619Y-13642286D02*
X16002619Y-13699428D01*
X16002619Y-13699428D02*
X15993096Y-13718476D01*
X15993096Y-13718476D02*
X15983572Y-13728000D01*
X15983572Y-13728000D02*
X15964524Y-13737524D01*
X15964524Y-13737524D02*
X15935953Y-13737524D01*
X16116905Y-13737524D02*
X16097857Y-13728000D01*
X16097857Y-13728000D02*
X16088334Y-13708952D01*
X16088334Y-13708952D02*
X16088334Y-13537524D01*
X16269286Y-13728000D02*
X16250238Y-13737524D01*
X16250238Y-13737524D02*
X16212143Y-13737524D01*
X16212143Y-13737524D02*
X16193096Y-13728000D01*
X16193096Y-13728000D02*
X16183572Y-13708952D01*
X16183572Y-13708952D02*
X16183572Y-13632762D01*
X16183572Y-13632762D02*
X16193096Y-13613714D01*
X16193096Y-13613714D02*
X16212143Y-13604190D01*
X16212143Y-13604190D02*
X16250238Y-13604190D01*
X16250238Y-13604190D02*
X16269286Y-13613714D01*
X16269286Y-13613714D02*
X16278810Y-13632762D01*
X16278810Y-13632762D02*
X16278810Y-13651809D01*
X16278810Y-13651809D02*
X16183572Y-13670857D01*
X16355000Y-13728000D02*
X16374048Y-13737524D01*
X16374048Y-13737524D02*
X16412143Y-13737524D01*
X16412143Y-13737524D02*
X16431191Y-13728000D01*
X16431191Y-13728000D02*
X16440715Y-13708952D01*
X16440715Y-13708952D02*
X16440715Y-13699428D01*
X16440715Y-13699428D02*
X16431191Y-13680381D01*
X16431191Y-13680381D02*
X16412143Y-13670857D01*
X16412143Y-13670857D02*
X16383572Y-13670857D01*
X16383572Y-13670857D02*
X16364524Y-13661333D01*
X16364524Y-13661333D02*
X16355000Y-13642286D01*
X16355000Y-13642286D02*
X16355000Y-13632762D01*
X16355000Y-13632762D02*
X16364524Y-13613714D01*
X16364524Y-13613714D02*
X16383572Y-13604190D01*
X16383572Y-13604190D02*
X16412143Y-13604190D01*
X16412143Y-13604190D02*
X16431191Y-13613714D01*
X16507381Y-13813714D02*
X16516905Y-13804190D01*
X16516905Y-13804190D02*
X16535953Y-13775619D01*
X16535953Y-13775619D02*
X16545477Y-13756571D01*
X16545477Y-13756571D02*
X16555000Y-13728000D01*
X16555000Y-13728000D02*
X16564524Y-13680381D01*
X16564524Y-13680381D02*
X16564524Y-13642286D01*
X16564524Y-13642286D02*
X16555000Y-13594667D01*
X16555000Y-13594667D02*
X16545477Y-13566095D01*
X16545477Y-13566095D02*
X16535953Y-13547048D01*
X16535953Y-13547048D02*
X16516905Y-13518476D01*
X16516905Y-13518476D02*
X16507381Y-13508952D01*
D17*
X11435000Y-13849000D02*
X11555000Y-13969000D01*
X11555000Y-13849000D02*
X11435000Y-13969000D01*
X11495000Y-13849000D02*
X11495000Y-13969000D01*
X11435000Y-13909000D02*
X11555000Y-13909000D01*
D11*
X11907381Y-14001524D02*
X11793095Y-14001524D01*
X11850238Y-14001524D02*
X11850238Y-13801524D01*
X11850238Y-13801524D02*
X11831190Y-13830095D01*
X11831190Y-13830095D02*
X11812143Y-13849143D01*
X11812143Y-13849143D02*
X11793095Y-13858667D01*
X11993095Y-13982476D02*
X12002619Y-13992000D01*
X12002619Y-13992000D02*
X11993095Y-14001524D01*
X11993095Y-14001524D02*
X11983571Y-13992000D01*
X11983571Y-13992000D02*
X11993095Y-13982476D01*
X11993095Y-13982476D02*
X11993095Y-14001524D01*
X12078809Y-13820571D02*
X12088333Y-13811048D01*
X12088333Y-13811048D02*
X12107381Y-13801524D01*
X12107381Y-13801524D02*
X12155000Y-13801524D01*
X12155000Y-13801524D02*
X12174048Y-13811048D01*
X12174048Y-13811048D02*
X12183571Y-13820571D01*
X12183571Y-13820571D02*
X12193095Y-13839619D01*
X12193095Y-13839619D02*
X12193095Y-13858667D01*
X12193095Y-13858667D02*
X12183571Y-13887238D01*
X12183571Y-13887238D02*
X12069286Y-14001524D01*
X12069286Y-14001524D02*
X12193095Y-14001524D01*
X12316905Y-13801524D02*
X12335952Y-13801524D01*
X12335952Y-13801524D02*
X12355000Y-13811048D01*
X12355000Y-13811048D02*
X12364524Y-13820571D01*
X12364524Y-13820571D02*
X12374048Y-13839619D01*
X12374048Y-13839619D02*
X12383571Y-13877714D01*
X12383571Y-13877714D02*
X12383571Y-13925333D01*
X12383571Y-13925333D02*
X12374048Y-13963428D01*
X12374048Y-13963428D02*
X12364524Y-13982476D01*
X12364524Y-13982476D02*
X12355000Y-13992000D01*
X12355000Y-13992000D02*
X12335952Y-14001524D01*
X12335952Y-14001524D02*
X12316905Y-14001524D01*
X12316905Y-14001524D02*
X12297857Y-13992000D01*
X12297857Y-13992000D02*
X12288333Y-13982476D01*
X12288333Y-13982476D02*
X12278809Y-13963428D01*
X12278809Y-13963428D02*
X12269286Y-13925333D01*
X12269286Y-13925333D02*
X12269286Y-13877714D01*
X12269286Y-13877714D02*
X12278809Y-13839619D01*
X12278809Y-13839619D02*
X12288333Y-13820571D01*
X12288333Y-13820571D02*
X12297857Y-13811048D01*
X12297857Y-13811048D02*
X12316905Y-13801524D01*
X12507381Y-13801524D02*
X12526429Y-13801524D01*
X12526429Y-13801524D02*
X12545476Y-13811048D01*
X12545476Y-13811048D02*
X12555000Y-13820571D01*
X12555000Y-13820571D02*
X12564524Y-13839619D01*
X12564524Y-13839619D02*
X12574048Y-13877714D01*
X12574048Y-13877714D02*
X12574048Y-13925333D01*
X12574048Y-13925333D02*
X12564524Y-13963428D01*
X12564524Y-13963428D02*
X12555000Y-13982476D01*
X12555000Y-13982476D02*
X12545476Y-13992000D01*
X12545476Y-13992000D02*
X12526429Y-14001524D01*
X12526429Y-14001524D02*
X12507381Y-14001524D01*
X12507381Y-14001524D02*
X12488333Y-13992000D01*
X12488333Y-13992000D02*
X12478809Y-13982476D01*
X12478809Y-13982476D02*
X12469286Y-13963428D01*
X12469286Y-13963428D02*
X12459762Y-13925333D01*
X12459762Y-13925333D02*
X12459762Y-13877714D01*
X12459762Y-13877714D02*
X12469286Y-13839619D01*
X12469286Y-13839619D02*
X12478809Y-13820571D01*
X12478809Y-13820571D02*
X12488333Y-13811048D01*
X12488333Y-13811048D02*
X12507381Y-13801524D01*
X12659762Y-14001524D02*
X12659762Y-13868190D01*
X12659762Y-13887238D02*
X12669286Y-13877714D01*
X12669286Y-13877714D02*
X12688333Y-13868190D01*
X12688333Y-13868190D02*
X12716905Y-13868190D01*
X12716905Y-13868190D02*
X12735952Y-13877714D01*
X12735952Y-13877714D02*
X12745476Y-13896762D01*
X12745476Y-13896762D02*
X12745476Y-14001524D01*
X12745476Y-13896762D02*
X12755000Y-13877714D01*
X12755000Y-13877714D02*
X12774048Y-13868190D01*
X12774048Y-13868190D02*
X12802619Y-13868190D01*
X12802619Y-13868190D02*
X12821667Y-13877714D01*
X12821667Y-13877714D02*
X12831190Y-13896762D01*
X12831190Y-13896762D02*
X12831190Y-14001524D01*
X12926429Y-14001524D02*
X12926429Y-13868190D01*
X12926429Y-13887238D02*
X12935952Y-13877714D01*
X12935952Y-13877714D02*
X12955000Y-13868190D01*
X12955000Y-13868190D02*
X12983571Y-13868190D01*
X12983571Y-13868190D02*
X13002619Y-13877714D01*
X13002619Y-13877714D02*
X13012143Y-13896762D01*
X13012143Y-13896762D02*
X13012143Y-14001524D01*
X13012143Y-13896762D02*
X13021667Y-13877714D01*
X13021667Y-13877714D02*
X13040714Y-13868190D01*
X13040714Y-13868190D02*
X13069286Y-13868190D01*
X13069286Y-13868190D02*
X13088333Y-13877714D01*
X13088333Y-13877714D02*
X13097857Y-13896762D01*
X13097857Y-13896762D02*
X13097857Y-14001524D01*
X13488333Y-13792000D02*
X13316905Y-14049143D01*
X13745476Y-13801524D02*
X13764524Y-13801524D01*
X13764524Y-13801524D02*
X13783572Y-13811048D01*
X13783572Y-13811048D02*
X13793095Y-13820571D01*
X13793095Y-13820571D02*
X13802619Y-13839619D01*
X13802619Y-13839619D02*
X13812143Y-13877714D01*
X13812143Y-13877714D02*
X13812143Y-13925333D01*
X13812143Y-13925333D02*
X13802619Y-13963428D01*
X13802619Y-13963428D02*
X13793095Y-13982476D01*
X13793095Y-13982476D02*
X13783572Y-13992000D01*
X13783572Y-13992000D02*
X13764524Y-14001524D01*
X13764524Y-14001524D02*
X13745476Y-14001524D01*
X13745476Y-14001524D02*
X13726429Y-13992000D01*
X13726429Y-13992000D02*
X13716905Y-13982476D01*
X13716905Y-13982476D02*
X13707381Y-13963428D01*
X13707381Y-13963428D02*
X13697857Y-13925333D01*
X13697857Y-13925333D02*
X13697857Y-13877714D01*
X13697857Y-13877714D02*
X13707381Y-13839619D01*
X13707381Y-13839619D02*
X13716905Y-13820571D01*
X13716905Y-13820571D02*
X13726429Y-13811048D01*
X13726429Y-13811048D02*
X13745476Y-13801524D01*
X13897857Y-13982476D02*
X13907381Y-13992000D01*
X13907381Y-13992000D02*
X13897857Y-14001524D01*
X13897857Y-14001524D02*
X13888333Y-13992000D01*
X13888333Y-13992000D02*
X13897857Y-13982476D01*
X13897857Y-13982476D02*
X13897857Y-14001524D01*
X14031191Y-13801524D02*
X14050238Y-13801524D01*
X14050238Y-13801524D02*
X14069286Y-13811048D01*
X14069286Y-13811048D02*
X14078810Y-13820571D01*
X14078810Y-13820571D02*
X14088333Y-13839619D01*
X14088333Y-13839619D02*
X14097857Y-13877714D01*
X14097857Y-13877714D02*
X14097857Y-13925333D01*
X14097857Y-13925333D02*
X14088333Y-13963428D01*
X14088333Y-13963428D02*
X14078810Y-13982476D01*
X14078810Y-13982476D02*
X14069286Y-13992000D01*
X14069286Y-13992000D02*
X14050238Y-14001524D01*
X14050238Y-14001524D02*
X14031191Y-14001524D01*
X14031191Y-14001524D02*
X14012143Y-13992000D01*
X14012143Y-13992000D02*
X14002619Y-13982476D01*
X14002619Y-13982476D02*
X13993095Y-13963428D01*
X13993095Y-13963428D02*
X13983572Y-13925333D01*
X13983572Y-13925333D02*
X13983572Y-13877714D01*
X13983572Y-13877714D02*
X13993095Y-13839619D01*
X13993095Y-13839619D02*
X14002619Y-13820571D01*
X14002619Y-13820571D02*
X14012143Y-13811048D01*
X14012143Y-13811048D02*
X14031191Y-13801524D01*
X14269286Y-13868190D02*
X14269286Y-14001524D01*
X14221667Y-13792000D02*
X14174048Y-13934857D01*
X14174048Y-13934857D02*
X14297857Y-13934857D01*
X14355000Y-13801524D02*
X14488333Y-13801524D01*
X14488333Y-13801524D02*
X14402619Y-14001524D01*
X14555000Y-13820571D02*
X14564524Y-13811048D01*
X14564524Y-13811048D02*
X14583572Y-13801524D01*
X14583572Y-13801524D02*
X14631191Y-13801524D01*
X14631191Y-13801524D02*
X14650238Y-13811048D01*
X14650238Y-13811048D02*
X14659762Y-13820571D01*
X14659762Y-13820571D02*
X14669286Y-13839619D01*
X14669286Y-13839619D02*
X14669286Y-13858667D01*
X14669286Y-13858667D02*
X14659762Y-13887238D01*
X14659762Y-13887238D02*
X14545476Y-14001524D01*
X14545476Y-14001524D02*
X14669286Y-14001524D01*
X14745476Y-13801524D02*
X14745476Y-13839619D01*
X14821667Y-13801524D02*
X14821667Y-13839619D01*
X15116905Y-14077714D02*
X15107381Y-14068190D01*
X15107381Y-14068190D02*
X15088334Y-14039619D01*
X15088334Y-14039619D02*
X15078810Y-14020571D01*
X15078810Y-14020571D02*
X15069286Y-13992000D01*
X15069286Y-13992000D02*
X15059762Y-13944381D01*
X15059762Y-13944381D02*
X15059762Y-13906286D01*
X15059762Y-13906286D02*
X15069286Y-13858667D01*
X15069286Y-13858667D02*
X15078810Y-13830095D01*
X15078810Y-13830095D02*
X15088334Y-13811048D01*
X15088334Y-13811048D02*
X15107381Y-13782476D01*
X15107381Y-13782476D02*
X15116905Y-13772952D01*
X15297857Y-14001524D02*
X15183572Y-14001524D01*
X15240714Y-14001524D02*
X15240714Y-13801524D01*
X15240714Y-13801524D02*
X15221667Y-13830095D01*
X15221667Y-13830095D02*
X15202619Y-13849143D01*
X15202619Y-13849143D02*
X15183572Y-13858667D01*
X15374048Y-13820571D02*
X15383572Y-13811048D01*
X15383572Y-13811048D02*
X15402619Y-13801524D01*
X15402619Y-13801524D02*
X15450238Y-13801524D01*
X15450238Y-13801524D02*
X15469286Y-13811048D01*
X15469286Y-13811048D02*
X15478810Y-13820571D01*
X15478810Y-13820571D02*
X15488334Y-13839619D01*
X15488334Y-13839619D02*
X15488334Y-13858667D01*
X15488334Y-13858667D02*
X15478810Y-13887238D01*
X15478810Y-13887238D02*
X15364524Y-14001524D01*
X15364524Y-14001524D02*
X15488334Y-14001524D01*
X15726429Y-14001524D02*
X15726429Y-13801524D01*
X15812143Y-14001524D02*
X15812143Y-13896762D01*
X15812143Y-13896762D02*
X15802619Y-13877714D01*
X15802619Y-13877714D02*
X15783572Y-13868190D01*
X15783572Y-13868190D02*
X15755000Y-13868190D01*
X15755000Y-13868190D02*
X15735953Y-13877714D01*
X15735953Y-13877714D02*
X15726429Y-13887238D01*
X15935953Y-14001524D02*
X15916905Y-13992000D01*
X15916905Y-13992000D02*
X15907381Y-13982476D01*
X15907381Y-13982476D02*
X15897857Y-13963428D01*
X15897857Y-13963428D02*
X15897857Y-13906286D01*
X15897857Y-13906286D02*
X15907381Y-13887238D01*
X15907381Y-13887238D02*
X15916905Y-13877714D01*
X15916905Y-13877714D02*
X15935953Y-13868190D01*
X15935953Y-13868190D02*
X15964524Y-13868190D01*
X15964524Y-13868190D02*
X15983572Y-13877714D01*
X15983572Y-13877714D02*
X15993096Y-13887238D01*
X15993096Y-13887238D02*
X16002619Y-13906286D01*
X16002619Y-13906286D02*
X16002619Y-13963428D01*
X16002619Y-13963428D02*
X15993096Y-13982476D01*
X15993096Y-13982476D02*
X15983572Y-13992000D01*
X15983572Y-13992000D02*
X15964524Y-14001524D01*
X15964524Y-14001524D02*
X15935953Y-14001524D01*
X16116905Y-14001524D02*
X16097857Y-13992000D01*
X16097857Y-13992000D02*
X16088334Y-13972952D01*
X16088334Y-13972952D02*
X16088334Y-13801524D01*
X16269286Y-13992000D02*
X16250238Y-14001524D01*
X16250238Y-14001524D02*
X16212143Y-14001524D01*
X16212143Y-14001524D02*
X16193096Y-13992000D01*
X16193096Y-13992000D02*
X16183572Y-13972952D01*
X16183572Y-13972952D02*
X16183572Y-13896762D01*
X16183572Y-13896762D02*
X16193096Y-13877714D01*
X16193096Y-13877714D02*
X16212143Y-13868190D01*
X16212143Y-13868190D02*
X16250238Y-13868190D01*
X16250238Y-13868190D02*
X16269286Y-13877714D01*
X16269286Y-13877714D02*
X16278810Y-13896762D01*
X16278810Y-13896762D02*
X16278810Y-13915809D01*
X16278810Y-13915809D02*
X16183572Y-13934857D01*
X16355000Y-13992000D02*
X16374048Y-14001524D01*
X16374048Y-14001524D02*
X16412143Y-14001524D01*
X16412143Y-14001524D02*
X16431191Y-13992000D01*
X16431191Y-13992000D02*
X16440715Y-13972952D01*
X16440715Y-13972952D02*
X16440715Y-13963428D01*
X16440715Y-13963428D02*
X16431191Y-13944381D01*
X16431191Y-13944381D02*
X16412143Y-13934857D01*
X16412143Y-13934857D02*
X16383572Y-13934857D01*
X16383572Y-13934857D02*
X16364524Y-13925333D01*
X16364524Y-13925333D02*
X16355000Y-13906286D01*
X16355000Y-13906286D02*
X16355000Y-13896762D01*
X16355000Y-13896762D02*
X16364524Y-13877714D01*
X16364524Y-13877714D02*
X16383572Y-13868190D01*
X16383572Y-13868190D02*
X16412143Y-13868190D01*
X16412143Y-13868190D02*
X16431191Y-13877714D01*
X16507381Y-14077714D02*
X16516905Y-14068190D01*
X16516905Y-14068190D02*
X16535953Y-14039619D01*
X16535953Y-14039619D02*
X16545477Y-14020571D01*
X16545477Y-14020571D02*
X16555000Y-13992000D01*
X16555000Y-13992000D02*
X16564524Y-13944381D01*
X16564524Y-13944381D02*
X16564524Y-13906286D01*
X16564524Y-13906286D02*
X16555000Y-13858667D01*
X16555000Y-13858667D02*
X16545477Y-13830095D01*
X16545477Y-13830095D02*
X16535953Y-13811048D01*
X16535953Y-13811048D02*
X16516905Y-13782476D01*
X16516905Y-13782476D02*
X16507381Y-13772952D01*
D18*
X11425000Y-14108000D02*
X11555000Y-14238000D01*
X11555000Y-14108000D02*
X11425000Y-14238000D01*
X11535962Y-14218962D02*
X11535962Y-14127038D01*
X11444038Y-14127038D01*
X11444038Y-14218962D01*
X11535962Y-14218962D01*
D11*
X11907381Y-14265524D02*
X11793095Y-14265524D01*
X11850238Y-14265524D02*
X11850238Y-14065524D01*
X11850238Y-14065524D02*
X11831190Y-14094095D01*
X11831190Y-14094095D02*
X11812143Y-14113143D01*
X11812143Y-14113143D02*
X11793095Y-14122667D01*
X11993095Y-14246476D02*
X12002619Y-14256000D01*
X12002619Y-14256000D02*
X11993095Y-14265524D01*
X11993095Y-14265524D02*
X11983571Y-14256000D01*
X11983571Y-14256000D02*
X11993095Y-14246476D01*
X11993095Y-14246476D02*
X11993095Y-14265524D01*
X12069286Y-14065524D02*
X12193095Y-14065524D01*
X12193095Y-14065524D02*
X12126428Y-14141714D01*
X12126428Y-14141714D02*
X12155000Y-14141714D01*
X12155000Y-14141714D02*
X12174048Y-14151238D01*
X12174048Y-14151238D02*
X12183571Y-14160762D01*
X12183571Y-14160762D02*
X12193095Y-14179809D01*
X12193095Y-14179809D02*
X12193095Y-14227428D01*
X12193095Y-14227428D02*
X12183571Y-14246476D01*
X12183571Y-14246476D02*
X12174048Y-14256000D01*
X12174048Y-14256000D02*
X12155000Y-14265524D01*
X12155000Y-14265524D02*
X12097857Y-14265524D01*
X12097857Y-14265524D02*
X12078809Y-14256000D01*
X12078809Y-14256000D02*
X12069286Y-14246476D01*
X12316905Y-14065524D02*
X12335952Y-14065524D01*
X12335952Y-14065524D02*
X12355000Y-14075048D01*
X12355000Y-14075048D02*
X12364524Y-14084571D01*
X12364524Y-14084571D02*
X12374048Y-14103619D01*
X12374048Y-14103619D02*
X12383571Y-14141714D01*
X12383571Y-14141714D02*
X12383571Y-14189333D01*
X12383571Y-14189333D02*
X12374048Y-14227428D01*
X12374048Y-14227428D02*
X12364524Y-14246476D01*
X12364524Y-14246476D02*
X12355000Y-14256000D01*
X12355000Y-14256000D02*
X12335952Y-14265524D01*
X12335952Y-14265524D02*
X12316905Y-14265524D01*
X12316905Y-14265524D02*
X12297857Y-14256000D01*
X12297857Y-14256000D02*
X12288333Y-14246476D01*
X12288333Y-14246476D02*
X12278809Y-14227428D01*
X12278809Y-14227428D02*
X12269286Y-14189333D01*
X12269286Y-14189333D02*
X12269286Y-14141714D01*
X12269286Y-14141714D02*
X12278809Y-14103619D01*
X12278809Y-14103619D02*
X12288333Y-14084571D01*
X12288333Y-14084571D02*
X12297857Y-14075048D01*
X12297857Y-14075048D02*
X12316905Y-14065524D01*
X12507381Y-14065524D02*
X12526429Y-14065524D01*
X12526429Y-14065524D02*
X12545476Y-14075048D01*
X12545476Y-14075048D02*
X12555000Y-14084571D01*
X12555000Y-14084571D02*
X12564524Y-14103619D01*
X12564524Y-14103619D02*
X12574048Y-14141714D01*
X12574048Y-14141714D02*
X12574048Y-14189333D01*
X12574048Y-14189333D02*
X12564524Y-14227428D01*
X12564524Y-14227428D02*
X12555000Y-14246476D01*
X12555000Y-14246476D02*
X12545476Y-14256000D01*
X12545476Y-14256000D02*
X12526429Y-14265524D01*
X12526429Y-14265524D02*
X12507381Y-14265524D01*
X12507381Y-14265524D02*
X12488333Y-14256000D01*
X12488333Y-14256000D02*
X12478809Y-14246476D01*
X12478809Y-14246476D02*
X12469286Y-14227428D01*
X12469286Y-14227428D02*
X12459762Y-14189333D01*
X12459762Y-14189333D02*
X12459762Y-14141714D01*
X12459762Y-14141714D02*
X12469286Y-14103619D01*
X12469286Y-14103619D02*
X12478809Y-14084571D01*
X12478809Y-14084571D02*
X12488333Y-14075048D01*
X12488333Y-14075048D02*
X12507381Y-14065524D01*
X12659762Y-14265524D02*
X12659762Y-14132190D01*
X12659762Y-14151238D02*
X12669286Y-14141714D01*
X12669286Y-14141714D02*
X12688333Y-14132190D01*
X12688333Y-14132190D02*
X12716905Y-14132190D01*
X12716905Y-14132190D02*
X12735952Y-14141714D01*
X12735952Y-14141714D02*
X12745476Y-14160762D01*
X12745476Y-14160762D02*
X12745476Y-14265524D01*
X12745476Y-14160762D02*
X12755000Y-14141714D01*
X12755000Y-14141714D02*
X12774048Y-14132190D01*
X12774048Y-14132190D02*
X12802619Y-14132190D01*
X12802619Y-14132190D02*
X12821667Y-14141714D01*
X12821667Y-14141714D02*
X12831190Y-14160762D01*
X12831190Y-14160762D02*
X12831190Y-14265524D01*
X12926429Y-14265524D02*
X12926429Y-14132190D01*
X12926429Y-14151238D02*
X12935952Y-14141714D01*
X12935952Y-14141714D02*
X12955000Y-14132190D01*
X12955000Y-14132190D02*
X12983571Y-14132190D01*
X12983571Y-14132190D02*
X13002619Y-14141714D01*
X13002619Y-14141714D02*
X13012143Y-14160762D01*
X13012143Y-14160762D02*
X13012143Y-14265524D01*
X13012143Y-14160762D02*
X13021667Y-14141714D01*
X13021667Y-14141714D02*
X13040714Y-14132190D01*
X13040714Y-14132190D02*
X13069286Y-14132190D01*
X13069286Y-14132190D02*
X13088333Y-14141714D01*
X13088333Y-14141714D02*
X13097857Y-14160762D01*
X13097857Y-14160762D02*
X13097857Y-14265524D01*
X13488333Y-14056000D02*
X13316905Y-14313143D01*
X13745476Y-14065524D02*
X13764524Y-14065524D01*
X13764524Y-14065524D02*
X13783572Y-14075048D01*
X13783572Y-14075048D02*
X13793095Y-14084571D01*
X13793095Y-14084571D02*
X13802619Y-14103619D01*
X13802619Y-14103619D02*
X13812143Y-14141714D01*
X13812143Y-14141714D02*
X13812143Y-14189333D01*
X13812143Y-14189333D02*
X13802619Y-14227428D01*
X13802619Y-14227428D02*
X13793095Y-14246476D01*
X13793095Y-14246476D02*
X13783572Y-14256000D01*
X13783572Y-14256000D02*
X13764524Y-14265524D01*
X13764524Y-14265524D02*
X13745476Y-14265524D01*
X13745476Y-14265524D02*
X13726429Y-14256000D01*
X13726429Y-14256000D02*
X13716905Y-14246476D01*
X13716905Y-14246476D02*
X13707381Y-14227428D01*
X13707381Y-14227428D02*
X13697857Y-14189333D01*
X13697857Y-14189333D02*
X13697857Y-14141714D01*
X13697857Y-14141714D02*
X13707381Y-14103619D01*
X13707381Y-14103619D02*
X13716905Y-14084571D01*
X13716905Y-14084571D02*
X13726429Y-14075048D01*
X13726429Y-14075048D02*
X13745476Y-14065524D01*
X13897857Y-14246476D02*
X13907381Y-14256000D01*
X13907381Y-14256000D02*
X13897857Y-14265524D01*
X13897857Y-14265524D02*
X13888333Y-14256000D01*
X13888333Y-14256000D02*
X13897857Y-14246476D01*
X13897857Y-14246476D02*
X13897857Y-14265524D01*
X14031191Y-14065524D02*
X14050238Y-14065524D01*
X14050238Y-14065524D02*
X14069286Y-14075048D01*
X14069286Y-14075048D02*
X14078810Y-14084571D01*
X14078810Y-14084571D02*
X14088333Y-14103619D01*
X14088333Y-14103619D02*
X14097857Y-14141714D01*
X14097857Y-14141714D02*
X14097857Y-14189333D01*
X14097857Y-14189333D02*
X14088333Y-14227428D01*
X14088333Y-14227428D02*
X14078810Y-14246476D01*
X14078810Y-14246476D02*
X14069286Y-14256000D01*
X14069286Y-14256000D02*
X14050238Y-14265524D01*
X14050238Y-14265524D02*
X14031191Y-14265524D01*
X14031191Y-14265524D02*
X14012143Y-14256000D01*
X14012143Y-14256000D02*
X14002619Y-14246476D01*
X14002619Y-14246476D02*
X13993095Y-14227428D01*
X13993095Y-14227428D02*
X13983572Y-14189333D01*
X13983572Y-14189333D02*
X13983572Y-14141714D01*
X13983572Y-14141714D02*
X13993095Y-14103619D01*
X13993095Y-14103619D02*
X14002619Y-14084571D01*
X14002619Y-14084571D02*
X14012143Y-14075048D01*
X14012143Y-14075048D02*
X14031191Y-14065524D01*
X14278810Y-14065524D02*
X14183572Y-14065524D01*
X14183572Y-14065524D02*
X14174048Y-14160762D01*
X14174048Y-14160762D02*
X14183572Y-14151238D01*
X14183572Y-14151238D02*
X14202619Y-14141714D01*
X14202619Y-14141714D02*
X14250238Y-14141714D01*
X14250238Y-14141714D02*
X14269286Y-14151238D01*
X14269286Y-14151238D02*
X14278810Y-14160762D01*
X14278810Y-14160762D02*
X14288333Y-14179809D01*
X14288333Y-14179809D02*
X14288333Y-14227428D01*
X14288333Y-14227428D02*
X14278810Y-14246476D01*
X14278810Y-14246476D02*
X14269286Y-14256000D01*
X14269286Y-14256000D02*
X14250238Y-14265524D01*
X14250238Y-14265524D02*
X14202619Y-14265524D01*
X14202619Y-14265524D02*
X14183572Y-14256000D01*
X14183572Y-14256000D02*
X14174048Y-14246476D01*
X14478810Y-14265524D02*
X14364524Y-14265524D01*
X14421667Y-14265524D02*
X14421667Y-14065524D01*
X14421667Y-14065524D02*
X14402619Y-14094095D01*
X14402619Y-14094095D02*
X14383572Y-14113143D01*
X14383572Y-14113143D02*
X14364524Y-14122667D01*
X14555000Y-14084571D02*
X14564524Y-14075048D01*
X14564524Y-14075048D02*
X14583572Y-14065524D01*
X14583572Y-14065524D02*
X14631191Y-14065524D01*
X14631191Y-14065524D02*
X14650238Y-14075048D01*
X14650238Y-14075048D02*
X14659762Y-14084571D01*
X14659762Y-14084571D02*
X14669286Y-14103619D01*
X14669286Y-14103619D02*
X14669286Y-14122667D01*
X14669286Y-14122667D02*
X14659762Y-14151238D01*
X14659762Y-14151238D02*
X14545476Y-14265524D01*
X14545476Y-14265524D02*
X14669286Y-14265524D01*
X14745476Y-14065524D02*
X14745476Y-14103619D01*
X14821667Y-14065524D02*
X14821667Y-14103619D01*
X15116905Y-14341714D02*
X15107381Y-14332190D01*
X15107381Y-14332190D02*
X15088334Y-14303619D01*
X15088334Y-14303619D02*
X15078810Y-14284571D01*
X15078810Y-14284571D02*
X15069286Y-14256000D01*
X15069286Y-14256000D02*
X15059762Y-14208381D01*
X15059762Y-14208381D02*
X15059762Y-14170286D01*
X15059762Y-14170286D02*
X15069286Y-14122667D01*
X15069286Y-14122667D02*
X15078810Y-14094095D01*
X15078810Y-14094095D02*
X15088334Y-14075048D01*
X15088334Y-14075048D02*
X15107381Y-14046476D01*
X15107381Y-14046476D02*
X15116905Y-14036952D01*
X15297857Y-14265524D02*
X15183572Y-14265524D01*
X15240714Y-14265524D02*
X15240714Y-14065524D01*
X15240714Y-14065524D02*
X15221667Y-14094095D01*
X15221667Y-14094095D02*
X15202619Y-14113143D01*
X15202619Y-14113143D02*
X15183572Y-14122667D01*
X15469286Y-14132190D02*
X15469286Y-14265524D01*
X15421667Y-14056000D02*
X15374048Y-14198857D01*
X15374048Y-14198857D02*
X15497857Y-14198857D01*
X15726429Y-14265524D02*
X15726429Y-14065524D01*
X15812143Y-14265524D02*
X15812143Y-14160762D01*
X15812143Y-14160762D02*
X15802619Y-14141714D01*
X15802619Y-14141714D02*
X15783572Y-14132190D01*
X15783572Y-14132190D02*
X15755000Y-14132190D01*
X15755000Y-14132190D02*
X15735953Y-14141714D01*
X15735953Y-14141714D02*
X15726429Y-14151238D01*
X15935953Y-14265524D02*
X15916905Y-14256000D01*
X15916905Y-14256000D02*
X15907381Y-14246476D01*
X15907381Y-14246476D02*
X15897857Y-14227428D01*
X15897857Y-14227428D02*
X15897857Y-14170286D01*
X15897857Y-14170286D02*
X15907381Y-14151238D01*
X15907381Y-14151238D02*
X15916905Y-14141714D01*
X15916905Y-14141714D02*
X15935953Y-14132190D01*
X15935953Y-14132190D02*
X15964524Y-14132190D01*
X15964524Y-14132190D02*
X15983572Y-14141714D01*
X15983572Y-14141714D02*
X15993096Y-14151238D01*
X15993096Y-14151238D02*
X16002619Y-14170286D01*
X16002619Y-14170286D02*
X16002619Y-14227428D01*
X16002619Y-14227428D02*
X15993096Y-14246476D01*
X15993096Y-14246476D02*
X15983572Y-14256000D01*
X15983572Y-14256000D02*
X15964524Y-14265524D01*
X15964524Y-14265524D02*
X15935953Y-14265524D01*
X16116905Y-14265524D02*
X16097857Y-14256000D01*
X16097857Y-14256000D02*
X16088334Y-14236952D01*
X16088334Y-14236952D02*
X16088334Y-14065524D01*
X16269286Y-14256000D02*
X16250238Y-14265524D01*
X16250238Y-14265524D02*
X16212143Y-14265524D01*
X16212143Y-14265524D02*
X16193096Y-14256000D01*
X16193096Y-14256000D02*
X16183572Y-14236952D01*
X16183572Y-14236952D02*
X16183572Y-14160762D01*
X16183572Y-14160762D02*
X16193096Y-14141714D01*
X16193096Y-14141714D02*
X16212143Y-14132190D01*
X16212143Y-14132190D02*
X16250238Y-14132190D01*
X16250238Y-14132190D02*
X16269286Y-14141714D01*
X16269286Y-14141714D02*
X16278810Y-14160762D01*
X16278810Y-14160762D02*
X16278810Y-14179809D01*
X16278810Y-14179809D02*
X16183572Y-14198857D01*
X16355000Y-14256000D02*
X16374048Y-14265524D01*
X16374048Y-14265524D02*
X16412143Y-14265524D01*
X16412143Y-14265524D02*
X16431191Y-14256000D01*
X16431191Y-14256000D02*
X16440715Y-14236952D01*
X16440715Y-14236952D02*
X16440715Y-14227428D01*
X16440715Y-14227428D02*
X16431191Y-14208381D01*
X16431191Y-14208381D02*
X16412143Y-14198857D01*
X16412143Y-14198857D02*
X16383572Y-14198857D01*
X16383572Y-14198857D02*
X16364524Y-14189333D01*
X16364524Y-14189333D02*
X16355000Y-14170286D01*
X16355000Y-14170286D02*
X16355000Y-14160762D01*
X16355000Y-14160762D02*
X16364524Y-14141714D01*
X16364524Y-14141714D02*
X16383572Y-14132190D01*
X16383572Y-14132190D02*
X16412143Y-14132190D01*
X16412143Y-14132190D02*
X16431191Y-14141714D01*
X16507381Y-14341714D02*
X16516905Y-14332190D01*
X16516905Y-14332190D02*
X16535953Y-14303619D01*
X16535953Y-14303619D02*
X16545477Y-14284571D01*
X16545477Y-14284571D02*
X16555000Y-14256000D01*
X16555000Y-14256000D02*
X16564524Y-14208381D01*
X16564524Y-14208381D02*
X16564524Y-14170286D01*
X16564524Y-14170286D02*
X16555000Y-14122667D01*
X16555000Y-14122667D02*
X16545477Y-14094095D01*
X16545477Y-14094095D02*
X16535953Y-14075048D01*
X16535953Y-14075048D02*
X16516905Y-14046476D01*
X16516905Y-14046476D02*
X16507381Y-14036952D01*
X11355000Y-14337000D02*
X11555000Y-14537000D01*
X11555000Y-14337000D02*
X11355000Y-14537000D01*
X11455000Y-14537000D02*
X11555000Y-14437000D01*
X11455000Y-14337000D01*
X11355000Y-14437000D01*
X11455000Y-14537000D01*
X11783571Y-14329524D02*
X11907381Y-14329524D01*
X11907381Y-14329524D02*
X11840714Y-14405714D01*
X11840714Y-14405714D02*
X11869286Y-14405714D01*
X11869286Y-14405714D02*
X11888333Y-14415238D01*
X11888333Y-14415238D02*
X11897857Y-14424762D01*
X11897857Y-14424762D02*
X11907381Y-14443809D01*
X11907381Y-14443809D02*
X11907381Y-14491428D01*
X11907381Y-14491428D02*
X11897857Y-14510476D01*
X11897857Y-14510476D02*
X11888333Y-14520000D01*
X11888333Y-14520000D02*
X11869286Y-14529524D01*
X11869286Y-14529524D02*
X11812143Y-14529524D01*
X11812143Y-14529524D02*
X11793095Y-14520000D01*
X11793095Y-14520000D02*
X11783571Y-14510476D01*
X11993095Y-14510476D02*
X12002619Y-14520000D01*
X12002619Y-14520000D02*
X11993095Y-14529524D01*
X11993095Y-14529524D02*
X11983571Y-14520000D01*
X11983571Y-14520000D02*
X11993095Y-14510476D01*
X11993095Y-14510476D02*
X11993095Y-14529524D01*
X12183571Y-14329524D02*
X12088333Y-14329524D01*
X12088333Y-14329524D02*
X12078809Y-14424762D01*
X12078809Y-14424762D02*
X12088333Y-14415238D01*
X12088333Y-14415238D02*
X12107381Y-14405714D01*
X12107381Y-14405714D02*
X12155000Y-14405714D01*
X12155000Y-14405714D02*
X12174048Y-14415238D01*
X12174048Y-14415238D02*
X12183571Y-14424762D01*
X12183571Y-14424762D02*
X12193095Y-14443809D01*
X12193095Y-14443809D02*
X12193095Y-14491428D01*
X12193095Y-14491428D02*
X12183571Y-14510476D01*
X12183571Y-14510476D02*
X12174048Y-14520000D01*
X12174048Y-14520000D02*
X12155000Y-14529524D01*
X12155000Y-14529524D02*
X12107381Y-14529524D01*
X12107381Y-14529524D02*
X12088333Y-14520000D01*
X12088333Y-14520000D02*
X12078809Y-14510476D01*
X12316905Y-14329524D02*
X12335952Y-14329524D01*
X12335952Y-14329524D02*
X12355000Y-14339048D01*
X12355000Y-14339048D02*
X12364524Y-14348571D01*
X12364524Y-14348571D02*
X12374048Y-14367619D01*
X12374048Y-14367619D02*
X12383571Y-14405714D01*
X12383571Y-14405714D02*
X12383571Y-14453333D01*
X12383571Y-14453333D02*
X12374048Y-14491428D01*
X12374048Y-14491428D02*
X12364524Y-14510476D01*
X12364524Y-14510476D02*
X12355000Y-14520000D01*
X12355000Y-14520000D02*
X12335952Y-14529524D01*
X12335952Y-14529524D02*
X12316905Y-14529524D01*
X12316905Y-14529524D02*
X12297857Y-14520000D01*
X12297857Y-14520000D02*
X12288333Y-14510476D01*
X12288333Y-14510476D02*
X12278809Y-14491428D01*
X12278809Y-14491428D02*
X12269286Y-14453333D01*
X12269286Y-14453333D02*
X12269286Y-14405714D01*
X12269286Y-14405714D02*
X12278809Y-14367619D01*
X12278809Y-14367619D02*
X12288333Y-14348571D01*
X12288333Y-14348571D02*
X12297857Y-14339048D01*
X12297857Y-14339048D02*
X12316905Y-14329524D01*
X12507381Y-14329524D02*
X12526429Y-14329524D01*
X12526429Y-14329524D02*
X12545476Y-14339048D01*
X12545476Y-14339048D02*
X12555000Y-14348571D01*
X12555000Y-14348571D02*
X12564524Y-14367619D01*
X12564524Y-14367619D02*
X12574048Y-14405714D01*
X12574048Y-14405714D02*
X12574048Y-14453333D01*
X12574048Y-14453333D02*
X12564524Y-14491428D01*
X12564524Y-14491428D02*
X12555000Y-14510476D01*
X12555000Y-14510476D02*
X12545476Y-14520000D01*
X12545476Y-14520000D02*
X12526429Y-14529524D01*
X12526429Y-14529524D02*
X12507381Y-14529524D01*
X12507381Y-14529524D02*
X12488333Y-14520000D01*
X12488333Y-14520000D02*
X12478809Y-14510476D01*
X12478809Y-14510476D02*
X12469286Y-14491428D01*
X12469286Y-14491428D02*
X12459762Y-14453333D01*
X12459762Y-14453333D02*
X12459762Y-14405714D01*
X12459762Y-14405714D02*
X12469286Y-14367619D01*
X12469286Y-14367619D02*
X12478809Y-14348571D01*
X12478809Y-14348571D02*
X12488333Y-14339048D01*
X12488333Y-14339048D02*
X12507381Y-14329524D01*
X12659762Y-14529524D02*
X12659762Y-14396190D01*
X12659762Y-14415238D02*
X12669286Y-14405714D01*
X12669286Y-14405714D02*
X12688333Y-14396190D01*
X12688333Y-14396190D02*
X12716905Y-14396190D01*
X12716905Y-14396190D02*
X12735952Y-14405714D01*
X12735952Y-14405714D02*
X12745476Y-14424762D01*
X12745476Y-14424762D02*
X12745476Y-14529524D01*
X12745476Y-14424762D02*
X12755000Y-14405714D01*
X12755000Y-14405714D02*
X12774048Y-14396190D01*
X12774048Y-14396190D02*
X12802619Y-14396190D01*
X12802619Y-14396190D02*
X12821667Y-14405714D01*
X12821667Y-14405714D02*
X12831190Y-14424762D01*
X12831190Y-14424762D02*
X12831190Y-14529524D01*
X12926429Y-14529524D02*
X12926429Y-14396190D01*
X12926429Y-14415238D02*
X12935952Y-14405714D01*
X12935952Y-14405714D02*
X12955000Y-14396190D01*
X12955000Y-14396190D02*
X12983571Y-14396190D01*
X12983571Y-14396190D02*
X13002619Y-14405714D01*
X13002619Y-14405714D02*
X13012143Y-14424762D01*
X13012143Y-14424762D02*
X13012143Y-14529524D01*
X13012143Y-14424762D02*
X13021667Y-14405714D01*
X13021667Y-14405714D02*
X13040714Y-14396190D01*
X13040714Y-14396190D02*
X13069286Y-14396190D01*
X13069286Y-14396190D02*
X13088333Y-14405714D01*
X13088333Y-14405714D02*
X13097857Y-14424762D01*
X13097857Y-14424762D02*
X13097857Y-14529524D01*
X13488333Y-14320000D02*
X13316905Y-14577143D01*
X13745476Y-14329524D02*
X13764524Y-14329524D01*
X13764524Y-14329524D02*
X13783572Y-14339048D01*
X13783572Y-14339048D02*
X13793095Y-14348571D01*
X13793095Y-14348571D02*
X13802619Y-14367619D01*
X13802619Y-14367619D02*
X13812143Y-14405714D01*
X13812143Y-14405714D02*
X13812143Y-14453333D01*
X13812143Y-14453333D02*
X13802619Y-14491428D01*
X13802619Y-14491428D02*
X13793095Y-14510476D01*
X13793095Y-14510476D02*
X13783572Y-14520000D01*
X13783572Y-14520000D02*
X13764524Y-14529524D01*
X13764524Y-14529524D02*
X13745476Y-14529524D01*
X13745476Y-14529524D02*
X13726429Y-14520000D01*
X13726429Y-14520000D02*
X13716905Y-14510476D01*
X13716905Y-14510476D02*
X13707381Y-14491428D01*
X13707381Y-14491428D02*
X13697857Y-14453333D01*
X13697857Y-14453333D02*
X13697857Y-14405714D01*
X13697857Y-14405714D02*
X13707381Y-14367619D01*
X13707381Y-14367619D02*
X13716905Y-14348571D01*
X13716905Y-14348571D02*
X13726429Y-14339048D01*
X13726429Y-14339048D02*
X13745476Y-14329524D01*
X13897857Y-14510476D02*
X13907381Y-14520000D01*
X13907381Y-14520000D02*
X13897857Y-14529524D01*
X13897857Y-14529524D02*
X13888333Y-14520000D01*
X13888333Y-14520000D02*
X13897857Y-14510476D01*
X13897857Y-14510476D02*
X13897857Y-14529524D01*
X14097857Y-14529524D02*
X13983572Y-14529524D01*
X14040714Y-14529524D02*
X14040714Y-14329524D01*
X14040714Y-14329524D02*
X14021667Y-14358095D01*
X14021667Y-14358095D02*
X14002619Y-14377143D01*
X14002619Y-14377143D02*
X13983572Y-14386667D01*
X14164524Y-14329524D02*
X14288333Y-14329524D01*
X14288333Y-14329524D02*
X14221667Y-14405714D01*
X14221667Y-14405714D02*
X14250238Y-14405714D01*
X14250238Y-14405714D02*
X14269286Y-14415238D01*
X14269286Y-14415238D02*
X14278810Y-14424762D01*
X14278810Y-14424762D02*
X14288333Y-14443809D01*
X14288333Y-14443809D02*
X14288333Y-14491428D01*
X14288333Y-14491428D02*
X14278810Y-14510476D01*
X14278810Y-14510476D02*
X14269286Y-14520000D01*
X14269286Y-14520000D02*
X14250238Y-14529524D01*
X14250238Y-14529524D02*
X14193095Y-14529524D01*
X14193095Y-14529524D02*
X14174048Y-14520000D01*
X14174048Y-14520000D02*
X14164524Y-14510476D01*
X14355000Y-14329524D02*
X14488333Y-14329524D01*
X14488333Y-14329524D02*
X14402619Y-14529524D01*
X14593095Y-14415238D02*
X14574048Y-14405714D01*
X14574048Y-14405714D02*
X14564524Y-14396190D01*
X14564524Y-14396190D02*
X14555000Y-14377143D01*
X14555000Y-14377143D02*
X14555000Y-14367619D01*
X14555000Y-14367619D02*
X14564524Y-14348571D01*
X14564524Y-14348571D02*
X14574048Y-14339048D01*
X14574048Y-14339048D02*
X14593095Y-14329524D01*
X14593095Y-14329524D02*
X14631191Y-14329524D01*
X14631191Y-14329524D02*
X14650238Y-14339048D01*
X14650238Y-14339048D02*
X14659762Y-14348571D01*
X14659762Y-14348571D02*
X14669286Y-14367619D01*
X14669286Y-14367619D02*
X14669286Y-14377143D01*
X14669286Y-14377143D02*
X14659762Y-14396190D01*
X14659762Y-14396190D02*
X14650238Y-14405714D01*
X14650238Y-14405714D02*
X14631191Y-14415238D01*
X14631191Y-14415238D02*
X14593095Y-14415238D01*
X14593095Y-14415238D02*
X14574048Y-14424762D01*
X14574048Y-14424762D02*
X14564524Y-14434286D01*
X14564524Y-14434286D02*
X14555000Y-14453333D01*
X14555000Y-14453333D02*
X14555000Y-14491428D01*
X14555000Y-14491428D02*
X14564524Y-14510476D01*
X14564524Y-14510476D02*
X14574048Y-14520000D01*
X14574048Y-14520000D02*
X14593095Y-14529524D01*
X14593095Y-14529524D02*
X14631191Y-14529524D01*
X14631191Y-14529524D02*
X14650238Y-14520000D01*
X14650238Y-14520000D02*
X14659762Y-14510476D01*
X14659762Y-14510476D02*
X14669286Y-14491428D01*
X14669286Y-14491428D02*
X14669286Y-14453333D01*
X14669286Y-14453333D02*
X14659762Y-14434286D01*
X14659762Y-14434286D02*
X14650238Y-14424762D01*
X14650238Y-14424762D02*
X14631191Y-14415238D01*
X14745476Y-14329524D02*
X14745476Y-14367619D01*
X14821667Y-14329524D02*
X14821667Y-14367619D01*
X15116905Y-14605714D02*
X15107381Y-14596190D01*
X15107381Y-14596190D02*
X15088334Y-14567619D01*
X15088334Y-14567619D02*
X15078810Y-14548571D01*
X15078810Y-14548571D02*
X15069286Y-14520000D01*
X15069286Y-14520000D02*
X15059762Y-14472381D01*
X15059762Y-14472381D02*
X15059762Y-14434286D01*
X15059762Y-14434286D02*
X15069286Y-14386667D01*
X15069286Y-14386667D02*
X15078810Y-14358095D01*
X15078810Y-14358095D02*
X15088334Y-14339048D01*
X15088334Y-14339048D02*
X15107381Y-14310476D01*
X15107381Y-14310476D02*
X15116905Y-14300952D01*
X15278810Y-14396190D02*
X15278810Y-14529524D01*
X15231191Y-14320000D02*
X15183572Y-14462857D01*
X15183572Y-14462857D02*
X15307381Y-14462857D01*
X15535953Y-14529524D02*
X15535953Y-14329524D01*
X15621667Y-14529524D02*
X15621667Y-14424762D01*
X15621667Y-14424762D02*
X15612143Y-14405714D01*
X15612143Y-14405714D02*
X15593096Y-14396190D01*
X15593096Y-14396190D02*
X15564524Y-14396190D01*
X15564524Y-14396190D02*
X15545476Y-14405714D01*
X15545476Y-14405714D02*
X15535953Y-14415238D01*
X15745476Y-14529524D02*
X15726429Y-14520000D01*
X15726429Y-14520000D02*
X15716905Y-14510476D01*
X15716905Y-14510476D02*
X15707381Y-14491428D01*
X15707381Y-14491428D02*
X15707381Y-14434286D01*
X15707381Y-14434286D02*
X15716905Y-14415238D01*
X15716905Y-14415238D02*
X15726429Y-14405714D01*
X15726429Y-14405714D02*
X15745476Y-14396190D01*
X15745476Y-14396190D02*
X15774048Y-14396190D01*
X15774048Y-14396190D02*
X15793096Y-14405714D01*
X15793096Y-14405714D02*
X15802619Y-14415238D01*
X15802619Y-14415238D02*
X15812143Y-14434286D01*
X15812143Y-14434286D02*
X15812143Y-14491428D01*
X15812143Y-14491428D02*
X15802619Y-14510476D01*
X15802619Y-14510476D02*
X15793096Y-14520000D01*
X15793096Y-14520000D02*
X15774048Y-14529524D01*
X15774048Y-14529524D02*
X15745476Y-14529524D01*
X15926429Y-14529524D02*
X15907381Y-14520000D01*
X15907381Y-14520000D02*
X15897857Y-14500952D01*
X15897857Y-14500952D02*
X15897857Y-14329524D01*
X16078810Y-14520000D02*
X16059762Y-14529524D01*
X16059762Y-14529524D02*
X16021667Y-14529524D01*
X16021667Y-14529524D02*
X16002619Y-14520000D01*
X16002619Y-14520000D02*
X15993096Y-14500952D01*
X15993096Y-14500952D02*
X15993096Y-14424762D01*
X15993096Y-14424762D02*
X16002619Y-14405714D01*
X16002619Y-14405714D02*
X16021667Y-14396190D01*
X16021667Y-14396190D02*
X16059762Y-14396190D01*
X16059762Y-14396190D02*
X16078810Y-14405714D01*
X16078810Y-14405714D02*
X16088334Y-14424762D01*
X16088334Y-14424762D02*
X16088334Y-14443809D01*
X16088334Y-14443809D02*
X15993096Y-14462857D01*
X16164524Y-14520000D02*
X16183572Y-14529524D01*
X16183572Y-14529524D02*
X16221667Y-14529524D01*
X16221667Y-14529524D02*
X16240715Y-14520000D01*
X16240715Y-14520000D02*
X16250238Y-14500952D01*
X16250238Y-14500952D02*
X16250238Y-14491428D01*
X16250238Y-14491428D02*
X16240715Y-14472381D01*
X16240715Y-14472381D02*
X16221667Y-14462857D01*
X16221667Y-14462857D02*
X16193096Y-14462857D01*
X16193096Y-14462857D02*
X16174048Y-14453333D01*
X16174048Y-14453333D02*
X16164524Y-14434286D01*
X16164524Y-14434286D02*
X16164524Y-14424762D01*
X16164524Y-14424762D02*
X16174048Y-14405714D01*
X16174048Y-14405714D02*
X16193096Y-14396190D01*
X16193096Y-14396190D02*
X16221667Y-14396190D01*
X16221667Y-14396190D02*
X16240715Y-14405714D01*
X16316905Y-14605714D02*
X16326429Y-14596190D01*
X16326429Y-14596190D02*
X16345477Y-14567619D01*
X16345477Y-14567619D02*
X16355000Y-14548571D01*
X16355000Y-14548571D02*
X16364524Y-14520000D01*
X16364524Y-14520000D02*
X16374048Y-14472381D01*
X16374048Y-14472381D02*
X16374048Y-14434286D01*
X16374048Y-14434286D02*
X16364524Y-14386667D01*
X16364524Y-14386667D02*
X16355000Y-14358095D01*
X16355000Y-14358095D02*
X16345477Y-14339048D01*
X16345477Y-14339048D02*
X16326429Y-14310476D01*
X16326429Y-14310476D02*
X16316905Y-14300952D01*
M02*
