G04 #@! TF.GenerationSoftware,KiCad,Pcbnew,7.0.1*
G04 #@! TF.CreationDate,2023-12-11T01:42:53-03:00*
G04 #@! TF.ProjectId,Shield STM32 Bluepill,53686965-6c64-4205-9354-4d333220426c,2.0*
G04 #@! TF.SameCoordinates,Original*
G04 #@! TF.FileFunction,Soldermask,Bot*
G04 #@! TF.FilePolarity,Negative*
%FSLAX46Y46*%
G04 Gerber Fmt 4.6, Leading zero omitted, Abs format (unit mm)*
G04 Created by KiCad (PCBNEW 7.0.1) date 2023-12-11 01:42:53*
%MOMM*%
%LPD*%
G01*
G04 APERTURE LIST*
G04 Aperture macros list*
%AMRoundRect*
0 Rectangle with rounded corners*
0 $1 Rounding radius*
0 $2 $3 $4 $5 $6 $7 $8 $9 X,Y pos of 4 corners*
0 Add a 4 corners polygon primitive as box body*
4,1,4,$2,$3,$4,$5,$6,$7,$8,$9,$2,$3,0*
0 Add four circle primitives for the rounded corners*
1,1,$1+$1,$2,$3*
1,1,$1+$1,$4,$5*
1,1,$1+$1,$6,$7*
1,1,$1+$1,$8,$9*
0 Add four rect primitives between the rounded corners*
20,1,$1+$1,$2,$3,$4,$5,0*
20,1,$1+$1,$4,$5,$6,$7,0*
20,1,$1+$1,$6,$7,$8,$9,0*
20,1,$1+$1,$8,$9,$2,$3,0*%
G04 Aperture macros list end*
%ADD10C,2.600000*%
%ADD11R,2.600000X2.600000*%
%ADD12RoundRect,0.250000X0.620000X0.845000X-0.620000X0.845000X-0.620000X-0.845000X0.620000X-0.845000X0*%
%ADD13O,1.740000X2.190000*%
%ADD14R,1.500000X1.500000*%
%ADD15C,1.500000*%
%ADD16R,1.700000X1.700000*%
%ADD17O,1.700000X1.700000*%
%ADD18C,2.000000*%
%ADD19R,2.000000X2.000000*%
%ADD20R,1.905000X2.000000*%
%ADD21O,1.905000X2.000000*%
%ADD22RoundRect,0.102000X-0.654000X-0.654000X0.654000X-0.654000X0.654000X0.654000X-0.654000X0.654000X0*%
%ADD23C,1.512000*%
%ADD24R,2.600000X1.800000*%
%ADD25O,2.600000X1.800000*%
%ADD26RoundRect,0.250000X0.845000X-0.620000X0.845000X0.620000X-0.845000X0.620000X-0.845000X-0.620000X0*%
%ADD27O,2.190000X1.740000*%
%ADD28C,1.700000*%
%ADD29C,1.800000*%
%ADD30C,1.260000*%
G04 APERTURE END LIST*
D10*
X157475000Y-111557000D03*
D11*
X162555000Y-111557000D03*
D12*
X165862000Y-43688000D03*
D13*
X163322000Y-43688000D03*
X160782000Y-43688000D03*
X158242000Y-43688000D03*
X155702000Y-43688000D03*
X153162000Y-43688000D03*
D14*
X145186400Y-66471800D03*
D15*
X147726400Y-66471800D03*
X150266400Y-66471800D03*
X152806400Y-66471800D03*
X155346400Y-66471800D03*
X155346400Y-53971800D03*
X152806400Y-53971800D03*
X150266400Y-53971800D03*
X147726400Y-53971800D03*
X145186400Y-53971800D03*
D11*
X209093000Y-41661000D03*
D10*
X209093000Y-36581000D03*
D16*
X136652000Y-43180000D03*
D17*
X139192000Y-43180000D03*
X141732000Y-43180000D03*
X144272000Y-43180000D03*
D16*
X208788000Y-89281000D03*
D17*
X208788000Y-86741000D03*
D18*
X198628000Y-65226000D03*
X198628000Y-58726000D03*
X203128000Y-65226000D03*
X203128000Y-58726000D03*
D19*
X189083000Y-43053000D03*
D18*
X181483000Y-43053000D03*
D11*
X198628000Y-111506000D03*
D10*
X203708000Y-111506000D03*
D20*
X180900000Y-31000000D03*
D21*
X183440000Y-31000000D03*
X185980000Y-31000000D03*
D16*
X149322000Y-113538000D03*
D17*
X146782000Y-113538000D03*
X144242000Y-113538000D03*
X141702000Y-113538000D03*
D14*
X190350000Y-64750000D03*
D15*
X190350000Y-62210000D03*
X190350000Y-59670000D03*
X190350000Y-57130000D03*
D16*
X152400000Y-97028000D03*
D17*
X154940000Y-97028000D03*
X157480000Y-97028000D03*
D16*
X208788000Y-67056000D03*
D17*
X208788000Y-69596000D03*
X208788000Y-72136000D03*
X208788000Y-74676000D03*
D22*
X197702000Y-89060000D03*
D23*
X200202000Y-89060000D03*
X202702000Y-89060000D03*
X197702000Y-83660000D03*
X200202000Y-83660000D03*
X202702000Y-83660000D03*
D24*
X119786400Y-61722000D03*
D25*
X119786400Y-64262000D03*
X119786400Y-66802000D03*
X119786400Y-69342000D03*
X119786400Y-71882000D03*
X119786400Y-74422000D03*
X119786400Y-87122000D03*
X119786400Y-89662000D03*
X119786400Y-92202000D03*
X119786400Y-94742000D03*
X119786400Y-97282000D03*
X119786400Y-99822000D03*
D16*
X208788000Y-95040000D03*
D17*
X208788000Y-97580000D03*
X208788000Y-100120000D03*
D16*
X157480000Y-92710000D03*
D17*
X154940000Y-92710000D03*
X152400000Y-92710000D03*
D12*
X143256000Y-97262000D03*
D13*
X140716000Y-97262000D03*
X138176000Y-97262000D03*
X135636000Y-97262000D03*
D18*
X198628000Y-78434000D03*
X198628000Y-71934000D03*
X203128000Y-78434000D03*
X203128000Y-71934000D03*
D26*
X198100000Y-51770000D03*
D27*
X198100000Y-49230000D03*
X198100000Y-46690000D03*
X198100000Y-44150000D03*
D28*
X181975000Y-102605000D03*
X181975000Y-100065000D03*
X181975000Y-97525000D03*
X181975000Y-94985000D03*
X181975000Y-92445000D03*
X181975000Y-89905000D03*
X181975000Y-87365000D03*
X181975000Y-84825000D03*
X181975000Y-82285000D03*
X181975000Y-79745000D03*
X181975000Y-77205000D03*
X181975000Y-74665000D03*
X181975000Y-72125000D03*
X181975000Y-69585000D03*
X181975000Y-67045000D03*
X181975000Y-64505000D03*
X181975000Y-61965000D03*
X181975000Y-59425000D03*
X181975000Y-56885000D03*
X181975000Y-54345000D03*
D16*
X166735000Y-54345000D03*
D28*
X166735000Y-56885000D03*
X166735000Y-59425000D03*
X166735000Y-61965000D03*
X166735000Y-64505000D03*
X166735000Y-67045000D03*
X166735000Y-69585000D03*
X166735000Y-72125000D03*
X166735000Y-74665000D03*
X166735000Y-77205000D03*
X166735000Y-79745000D03*
X166735000Y-82285000D03*
X166735000Y-84825000D03*
X166735000Y-87365000D03*
X166735000Y-89905000D03*
X166735000Y-92445000D03*
X166735000Y-94985000D03*
X166735000Y-97525000D03*
X166735000Y-100065000D03*
X166735000Y-102605000D03*
D11*
X167132000Y-32258000D03*
D10*
X162052000Y-32258000D03*
X156972000Y-32258000D03*
X151892000Y-32258000D03*
D16*
X188468000Y-75184000D03*
D17*
X188468000Y-77724000D03*
X188468000Y-80264000D03*
X188468000Y-82804000D03*
X188468000Y-85344000D03*
X188468000Y-87884000D03*
D29*
X125860000Y-45220000D03*
X128400000Y-37600000D03*
X125860000Y-32520000D03*
D11*
X186436000Y-111570000D03*
D10*
X191516000Y-111570000D03*
D30*
X197358000Y-99314000D03*
X199898000Y-96774000D03*
X202438000Y-99314000D03*
D16*
X135128000Y-29718000D03*
D17*
X135128000Y-32258000D03*
X137668000Y-29718000D03*
X137668000Y-32258000D03*
X140208000Y-29718000D03*
X140208000Y-32258000D03*
X142748000Y-29718000D03*
X142748000Y-32258000D03*
D16*
X126170000Y-70110000D03*
D17*
X126170000Y-72650000D03*
X126170000Y-75190000D03*
X126170000Y-77730000D03*
X126170000Y-80270000D03*
X126170000Y-82810000D03*
X126170000Y-85350000D03*
X126170000Y-87890000D03*
D11*
X209042000Y-53340000D03*
D10*
X209042000Y-48260000D03*
M02*
